%TF.GenerationSoftware,KiCad,Pcbnew,(5.1.9)-1*%
%TF.CreationDate,2021-08-26T18:25:25+02:00*%
%TF.ProjectId,nogasm,6e6f6761-736d-42e6-9b69-6361645f7063,rev?*%
%TF.SameCoordinates,Original*%
%TF.FileFunction,Copper,L1,Top*%
%TF.FilePolarity,Positive*%
%FSLAX46Y46*%
G04 Gerber Fmt 4.6, Leading zero omitted, Abs format (unit mm)*
G04 Created by KiCad (PCBNEW (5.1.9)-1) date 2021-08-26 18:25:25*
%MOMM*%
%LPD*%
G01*
G04 APERTURE LIST*
%TA.AperFunction,ComponentPad*%
%ADD10O,0.850000X1.850000*%
%TD*%
%TA.AperFunction,ComponentPad*%
%ADD11C,0.840000*%
%TD*%
%TA.AperFunction,ComponentPad*%
%ADD12R,0.840000X0.840000*%
%TD*%
%TA.AperFunction,SMDPad,CuDef*%
%ADD13R,2.000000X0.900000*%
%TD*%
%TA.AperFunction,SMDPad,CuDef*%
%ADD14R,0.900000X2.000000*%
%TD*%
%TA.AperFunction,SMDPad,CuDef*%
%ADD15R,5.000000X5.000000*%
%TD*%
%TA.AperFunction,SMDPad,CuDef*%
%ADD16R,1.060000X0.650000*%
%TD*%
%TA.AperFunction,SMDPad,CuDef*%
%ADD17R,5.800000X6.400000*%
%TD*%
%TA.AperFunction,SMDPad,CuDef*%
%ADD18R,1.200000X2.200000*%
%TD*%
%TA.AperFunction,SMDPad,CuDef*%
%ADD19R,2.540000X1.524000*%
%TD*%
%TA.AperFunction,SMDPad,CuDef*%
%ADD20R,2.160000X1.120000*%
%TD*%
%TA.AperFunction,ComponentPad*%
%ADD21R,2.000000X2.000000*%
%TD*%
%TA.AperFunction,ComponentPad*%
%ADD22C,2.000000*%
%TD*%
%TA.AperFunction,ComponentPad*%
%ADD23R,3.200000X2.000000*%
%TD*%
%TA.AperFunction,SMDPad,CuDef*%
%ADD24R,0.900000X1.000000*%
%TD*%
%TA.AperFunction,SMDPad,CuDef*%
%ADD25R,1.300000X1.300000*%
%TD*%
%TA.AperFunction,SMDPad,CuDef*%
%ADD26R,1.300000X2.000000*%
%TD*%
%TA.AperFunction,SMDPad,CuDef*%
%ADD27R,6.400000X5.800000*%
%TD*%
%TA.AperFunction,SMDPad,CuDef*%
%ADD28R,2.200000X1.200000*%
%TD*%
%TA.AperFunction,SMDPad,CuDef*%
%ADD29C,0.100000*%
%TD*%
%TA.AperFunction,ComponentPad*%
%ADD30C,2.600000*%
%TD*%
%TA.AperFunction,ComponentPad*%
%ADD31C,0.100000*%
%TD*%
%TA.AperFunction,ViaPad*%
%ADD32C,5.500000*%
%TD*%
%TA.AperFunction,ViaPad*%
%ADD33C,3.200000*%
%TD*%
%TA.AperFunction,ViaPad*%
%ADD34C,0.800000*%
%TD*%
%TA.AperFunction,Conductor*%
%ADD35C,0.250000*%
%TD*%
%TA.AperFunction,Conductor*%
%ADD36C,0.500000*%
%TD*%
%TA.AperFunction,Conductor*%
%ADD37C,2.000000*%
%TD*%
%TA.AperFunction,Conductor*%
%ADD38C,1.000000*%
%TD*%
%TA.AperFunction,Conductor*%
%ADD39C,0.254000*%
%TD*%
%TA.AperFunction,Conductor*%
%ADD40C,0.100000*%
%TD*%
G04 APERTURE END LIST*
D10*
%TO.P,J3,6*%
%TO.N,GND*%
X134025000Y-64880000D03*
X141175000Y-64880000D03*
D11*
%TO.P,J3,5*%
X136300000Y-65100000D03*
%TO.P,J3,4*%
%TO.N,Net-(J3-Pad4)*%
X136950000Y-64100000D03*
%TO.P,J3,3*%
%TO.N,Net-(J3-Pad3)*%
X137600000Y-65100000D03*
%TO.P,J3,2*%
%TO.N,Net-(J3-Pad2)*%
X138250000Y-64100000D03*
D12*
%TO.P,J3,1*%
%TO.N,Net-(J3-Pad1)*%
X138900000Y-65100000D03*
%TD*%
D13*
%TO.P,U5,38*%
%TO.N,GND*%
X167000000Y-82245000D03*
%TO.P,U5,37*%
%TO.N,Net-(U5-Pad37)*%
X167000000Y-83515000D03*
%TO.P,U5,36*%
%TO.N,Net-(U5-Pad36)*%
X167000000Y-84785000D03*
%TO.P,U5,35*%
%TO.N,/TX_ESP*%
X167000000Y-86055000D03*
%TO.P,U5,34*%
%TO.N,/RX_ESP*%
X167000000Y-87325000D03*
%TO.P,U5,33*%
%TO.N,Net-(U5-Pad33)*%
X167000000Y-88595000D03*
%TO.P,U5,32*%
%TO.N,Net-(U5-Pad32)*%
X167000000Y-89865000D03*
%TO.P,U5,31*%
%TO.N,Net-(U5-Pad31)*%
X167000000Y-91135000D03*
%TO.P,U5,30*%
%TO.N,Net-(U5-Pad30)*%
X167000000Y-92405000D03*
%TO.P,U5,29*%
%TO.N,Net-(U5-Pad29)*%
X167000000Y-93675000D03*
%TO.P,U5,28*%
%TO.N,/Motor*%
X167000000Y-94945000D03*
%TO.P,U5,27*%
%TO.N,/LED*%
X167000000Y-96215000D03*
%TO.P,U5,26*%
%TO.N,Net-(U5-Pad26)*%
X167000000Y-97485000D03*
%TO.P,U5,25*%
%TO.N,/IO0*%
X167000000Y-98755000D03*
D14*
%TO.P,U5,24*%
%TO.N,Net-(U5-Pad24)*%
X164215000Y-99755000D03*
%TO.P,U5,23*%
%TO.N,/ENC_B*%
X162945000Y-99755000D03*
%TO.P,U5,22*%
%TO.N,Net-(U5-Pad22)*%
X161675000Y-99755000D03*
%TO.P,U5,21*%
%TO.N,Net-(U5-Pad21)*%
X160405000Y-99755000D03*
%TO.P,U5,20*%
%TO.N,Net-(U5-Pad20)*%
X159135000Y-99755000D03*
%TO.P,U5,19*%
%TO.N,Net-(U5-Pad19)*%
X157865000Y-99755000D03*
%TO.P,U5,18*%
%TO.N,Net-(U5-Pad18)*%
X156595000Y-99755000D03*
%TO.P,U5,17*%
%TO.N,Net-(U5-Pad17)*%
X155325000Y-99755000D03*
%TO.P,U5,16*%
%TO.N,/ENC_SW*%
X154055000Y-99755000D03*
%TO.P,U5,15*%
%TO.N,GND*%
X152785000Y-99755000D03*
D13*
%TO.P,U5,14*%
%TO.N,/PRESSURE*%
X150000000Y-98755000D03*
%TO.P,U5,13*%
%TO.N,/ENC_A*%
X150000000Y-97485000D03*
%TO.P,U5,12*%
%TO.N,Net-(U5-Pad12)*%
X150000000Y-96215000D03*
%TO.P,U5,11*%
%TO.N,Net-(U5-Pad11)*%
X150000000Y-94945000D03*
%TO.P,U5,10*%
%TO.N,Net-(U5-Pad10)*%
X150000000Y-93675000D03*
%TO.P,U5,9*%
%TO.N,Net-(SW3-Pad2)*%
X150000000Y-92405000D03*
%TO.P,U5,8*%
%TO.N,Net-(SW3-Pad1)*%
X150000000Y-91135000D03*
%TO.P,U5,7*%
%TO.N,Net-(SW3-Pad4)*%
X150000000Y-89865000D03*
%TO.P,U5,6*%
%TO.N,Net-(SW3-Pad3)*%
X150000000Y-88595000D03*
%TO.P,U5,5*%
%TO.N,Net-(U5-Pad5)*%
X150000000Y-87325000D03*
%TO.P,U5,4*%
%TO.N,Net-(U5-Pad4)*%
X150000000Y-86055000D03*
%TO.P,U5,3*%
%TO.N,/EN*%
X150000000Y-84785000D03*
%TO.P,U5,2*%
%TO.N,+3V3*%
X150000000Y-83515000D03*
%TO.P,U5,1*%
%TO.N,GND*%
X150000000Y-82245000D03*
D15*
%TO.P,U5,39*%
X157500000Y-89745000D03*
%TD*%
%TO.P,U6,16*%
%TO.N,+3V3*%
%TA.AperFunction,SMDPad,CuDef*%
G36*
G01*
X136900000Y-77995000D02*
X136900000Y-78295000D01*
G75*
G02*
X136750000Y-78445000I-150000J0D01*
G01*
X135100000Y-78445000D01*
G75*
G02*
X134950000Y-78295000I0J150000D01*
G01*
X134950000Y-77995000D01*
G75*
G02*
X135100000Y-77845000I150000J0D01*
G01*
X136750000Y-77845000D01*
G75*
G02*
X136900000Y-77995000I0J-150000D01*
G01*
G37*
%TD.AperFunction*%
%TO.P,U6,15*%
%TO.N,Net-(U6-Pad15)*%
%TA.AperFunction,SMDPad,CuDef*%
G36*
G01*
X136900000Y-76725000D02*
X136900000Y-77025000D01*
G75*
G02*
X136750000Y-77175000I-150000J0D01*
G01*
X135100000Y-77175000D01*
G75*
G02*
X134950000Y-77025000I0J150000D01*
G01*
X134950000Y-76725000D01*
G75*
G02*
X135100000Y-76575000I150000J0D01*
G01*
X136750000Y-76575000D01*
G75*
G02*
X136900000Y-76725000I0J-150000D01*
G01*
G37*
%TD.AperFunction*%
%TO.P,U6,14*%
%TO.N,Net-(U6-Pad14)*%
%TA.AperFunction,SMDPad,CuDef*%
G36*
G01*
X136900000Y-75455000D02*
X136900000Y-75755000D01*
G75*
G02*
X136750000Y-75905000I-150000J0D01*
G01*
X135100000Y-75905000D01*
G75*
G02*
X134950000Y-75755000I0J150000D01*
G01*
X134950000Y-75455000D01*
G75*
G02*
X135100000Y-75305000I150000J0D01*
G01*
X136750000Y-75305000D01*
G75*
G02*
X136900000Y-75455000I0J-150000D01*
G01*
G37*
%TD.AperFunction*%
%TO.P,U6,13*%
%TO.N,Net-(U6-Pad13)*%
%TA.AperFunction,SMDPad,CuDef*%
G36*
G01*
X136900000Y-74185000D02*
X136900000Y-74485000D01*
G75*
G02*
X136750000Y-74635000I-150000J0D01*
G01*
X135100000Y-74635000D01*
G75*
G02*
X134950000Y-74485000I0J150000D01*
G01*
X134950000Y-74185000D01*
G75*
G02*
X135100000Y-74035000I150000J0D01*
G01*
X136750000Y-74035000D01*
G75*
G02*
X136900000Y-74185000I0J-150000D01*
G01*
G37*
%TD.AperFunction*%
%TO.P,U6,12*%
%TO.N,Net-(U6-Pad12)*%
%TA.AperFunction,SMDPad,CuDef*%
G36*
G01*
X136900000Y-72915000D02*
X136900000Y-73215000D01*
G75*
G02*
X136750000Y-73365000I-150000J0D01*
G01*
X135100000Y-73365000D01*
G75*
G02*
X134950000Y-73215000I0J150000D01*
G01*
X134950000Y-72915000D01*
G75*
G02*
X135100000Y-72765000I150000J0D01*
G01*
X136750000Y-72765000D01*
G75*
G02*
X136900000Y-72915000I0J-150000D01*
G01*
G37*
%TD.AperFunction*%
%TO.P,U6,11*%
%TO.N,Net-(U6-Pad11)*%
%TA.AperFunction,SMDPad,CuDef*%
G36*
G01*
X136900000Y-71645000D02*
X136900000Y-71945000D01*
G75*
G02*
X136750000Y-72095000I-150000J0D01*
G01*
X135100000Y-72095000D01*
G75*
G02*
X134950000Y-71945000I0J150000D01*
G01*
X134950000Y-71645000D01*
G75*
G02*
X135100000Y-71495000I150000J0D01*
G01*
X136750000Y-71495000D01*
G75*
G02*
X136900000Y-71645000I0J-150000D01*
G01*
G37*
%TD.AperFunction*%
%TO.P,U6,10*%
%TO.N,Net-(U6-Pad10)*%
%TA.AperFunction,SMDPad,CuDef*%
G36*
G01*
X136900000Y-70375000D02*
X136900000Y-70675000D01*
G75*
G02*
X136750000Y-70825000I-150000J0D01*
G01*
X135100000Y-70825000D01*
G75*
G02*
X134950000Y-70675000I0J150000D01*
G01*
X134950000Y-70375000D01*
G75*
G02*
X135100000Y-70225000I150000J0D01*
G01*
X136750000Y-70225000D01*
G75*
G02*
X136900000Y-70375000I0J-150000D01*
G01*
G37*
%TD.AperFunction*%
%TO.P,U6,9*%
%TO.N,Net-(U6-Pad9)*%
%TA.AperFunction,SMDPad,CuDef*%
G36*
G01*
X136900000Y-69105000D02*
X136900000Y-69405000D01*
G75*
G02*
X136750000Y-69555000I-150000J0D01*
G01*
X135100000Y-69555000D01*
G75*
G02*
X134950000Y-69405000I0J150000D01*
G01*
X134950000Y-69105000D01*
G75*
G02*
X135100000Y-68955000I150000J0D01*
G01*
X136750000Y-68955000D01*
G75*
G02*
X136900000Y-69105000I0J-150000D01*
G01*
G37*
%TD.AperFunction*%
%TO.P,U6,8*%
%TO.N,Net-(U6-Pad8)*%
%TA.AperFunction,SMDPad,CuDef*%
G36*
G01*
X141850000Y-69105000D02*
X141850000Y-69405000D01*
G75*
G02*
X141700000Y-69555000I-150000J0D01*
G01*
X140050000Y-69555000D01*
G75*
G02*
X139900000Y-69405000I0J150000D01*
G01*
X139900000Y-69105000D01*
G75*
G02*
X140050000Y-68955000I150000J0D01*
G01*
X141700000Y-68955000D01*
G75*
G02*
X141850000Y-69105000I0J-150000D01*
G01*
G37*
%TD.AperFunction*%
%TO.P,U6,7*%
%TO.N,Net-(R6-Pad1)*%
%TA.AperFunction,SMDPad,CuDef*%
G36*
G01*
X141850000Y-70375000D02*
X141850000Y-70675000D01*
G75*
G02*
X141700000Y-70825000I-150000J0D01*
G01*
X140050000Y-70825000D01*
G75*
G02*
X139900000Y-70675000I0J150000D01*
G01*
X139900000Y-70375000D01*
G75*
G02*
X140050000Y-70225000I150000J0D01*
G01*
X141700000Y-70225000D01*
G75*
G02*
X141850000Y-70375000I0J-150000D01*
G01*
G37*
%TD.AperFunction*%
%TO.P,U6,6*%
%TO.N,Net-(J3-Pad2)*%
%TA.AperFunction,SMDPad,CuDef*%
G36*
G01*
X141850000Y-71645000D02*
X141850000Y-71945000D01*
G75*
G02*
X141700000Y-72095000I-150000J0D01*
G01*
X140050000Y-72095000D01*
G75*
G02*
X139900000Y-71945000I0J150000D01*
G01*
X139900000Y-71645000D01*
G75*
G02*
X140050000Y-71495000I150000J0D01*
G01*
X141700000Y-71495000D01*
G75*
G02*
X141850000Y-71645000I0J-150000D01*
G01*
G37*
%TD.AperFunction*%
%TO.P,U6,5*%
%TO.N,Net-(J3-Pad3)*%
%TA.AperFunction,SMDPad,CuDef*%
G36*
G01*
X141850000Y-72915000D02*
X141850000Y-73215000D01*
G75*
G02*
X141700000Y-73365000I-150000J0D01*
G01*
X140050000Y-73365000D01*
G75*
G02*
X139900000Y-73215000I0J150000D01*
G01*
X139900000Y-72915000D01*
G75*
G02*
X140050000Y-72765000I150000J0D01*
G01*
X141700000Y-72765000D01*
G75*
G02*
X141850000Y-72915000I0J-150000D01*
G01*
G37*
%TD.AperFunction*%
%TO.P,U6,4*%
%TO.N,+3V3*%
%TA.AperFunction,SMDPad,CuDef*%
G36*
G01*
X141850000Y-74185000D02*
X141850000Y-74485000D01*
G75*
G02*
X141700000Y-74635000I-150000J0D01*
G01*
X140050000Y-74635000D01*
G75*
G02*
X139900000Y-74485000I0J150000D01*
G01*
X139900000Y-74185000D01*
G75*
G02*
X140050000Y-74035000I150000J0D01*
G01*
X141700000Y-74035000D01*
G75*
G02*
X141850000Y-74185000I0J-150000D01*
G01*
G37*
%TD.AperFunction*%
%TO.P,U6,3*%
%TO.N,/TX_ESP*%
%TA.AperFunction,SMDPad,CuDef*%
G36*
G01*
X141850000Y-75455000D02*
X141850000Y-75755000D01*
G75*
G02*
X141700000Y-75905000I-150000J0D01*
G01*
X140050000Y-75905000D01*
G75*
G02*
X139900000Y-75755000I0J150000D01*
G01*
X139900000Y-75455000D01*
G75*
G02*
X140050000Y-75305000I150000J0D01*
G01*
X141700000Y-75305000D01*
G75*
G02*
X141850000Y-75455000I0J-150000D01*
G01*
G37*
%TD.AperFunction*%
%TO.P,U6,2*%
%TO.N,/RX_ESP*%
%TA.AperFunction,SMDPad,CuDef*%
G36*
G01*
X141850000Y-76725000D02*
X141850000Y-77025000D01*
G75*
G02*
X141700000Y-77175000I-150000J0D01*
G01*
X140050000Y-77175000D01*
G75*
G02*
X139900000Y-77025000I0J150000D01*
G01*
X139900000Y-76725000D01*
G75*
G02*
X140050000Y-76575000I150000J0D01*
G01*
X141700000Y-76575000D01*
G75*
G02*
X141850000Y-76725000I0J-150000D01*
G01*
G37*
%TD.AperFunction*%
%TO.P,U6,1*%
%TO.N,GND*%
%TA.AperFunction,SMDPad,CuDef*%
G36*
G01*
X141850000Y-77995000D02*
X141850000Y-78295000D01*
G75*
G02*
X141700000Y-78445000I-150000J0D01*
G01*
X140050000Y-78445000D01*
G75*
G02*
X139900000Y-78295000I0J150000D01*
G01*
X139900000Y-77995000D01*
G75*
G02*
X140050000Y-77845000I150000J0D01*
G01*
X141700000Y-77845000D01*
G75*
G02*
X141850000Y-77995000I0J-150000D01*
G01*
G37*
%TD.AperFunction*%
%TD*%
%TO.P,R6,2*%
%TO.N,+3V3*%
%TA.AperFunction,SMDPad,CuDef*%
G36*
G01*
X142925000Y-71825000D02*
X143475000Y-71825000D01*
G75*
G02*
X143675000Y-72025000I0J-200000D01*
G01*
X143675000Y-72425000D01*
G75*
G02*
X143475000Y-72625000I-200000J0D01*
G01*
X142925000Y-72625000D01*
G75*
G02*
X142725000Y-72425000I0J200000D01*
G01*
X142725000Y-72025000D01*
G75*
G02*
X142925000Y-71825000I200000J0D01*
G01*
G37*
%TD.AperFunction*%
%TO.P,R6,1*%
%TO.N,Net-(R6-Pad1)*%
%TA.AperFunction,SMDPad,CuDef*%
G36*
G01*
X142925000Y-70175000D02*
X143475000Y-70175000D01*
G75*
G02*
X143675000Y-70375000I0J-200000D01*
G01*
X143675000Y-70775000D01*
G75*
G02*
X143475000Y-70975000I-200000J0D01*
G01*
X142925000Y-70975000D01*
G75*
G02*
X142725000Y-70775000I0J200000D01*
G01*
X142725000Y-70375000D01*
G75*
G02*
X142925000Y-70175000I200000J0D01*
G01*
G37*
%TD.AperFunction*%
%TD*%
%TO.P,C35,2*%
%TO.N,GND*%
%TA.AperFunction,SMDPad,CuDef*%
G36*
G01*
X138925000Y-81650000D02*
X138925000Y-81150000D01*
G75*
G02*
X139150000Y-80925000I225000J0D01*
G01*
X139600000Y-80925000D01*
G75*
G02*
X139825000Y-81150000I0J-225000D01*
G01*
X139825000Y-81650000D01*
G75*
G02*
X139600000Y-81875000I-225000J0D01*
G01*
X139150000Y-81875000D01*
G75*
G02*
X138925000Y-81650000I0J225000D01*
G01*
G37*
%TD.AperFunction*%
%TO.P,C35,1*%
%TO.N,+3V3*%
%TA.AperFunction,SMDPad,CuDef*%
G36*
G01*
X137375000Y-81650000D02*
X137375000Y-81150000D01*
G75*
G02*
X137600000Y-80925000I225000J0D01*
G01*
X138050000Y-80925000D01*
G75*
G02*
X138275000Y-81150000I0J-225000D01*
G01*
X138275000Y-81650000D01*
G75*
G02*
X138050000Y-81875000I-225000J0D01*
G01*
X137600000Y-81875000D01*
G75*
G02*
X137375000Y-81650000I0J225000D01*
G01*
G37*
%TD.AperFunction*%
%TD*%
%TO.P,C34,2*%
%TO.N,GND*%
%TA.AperFunction,SMDPad,CuDef*%
G36*
G01*
X138925000Y-80150000D02*
X138925000Y-79650000D01*
G75*
G02*
X139150000Y-79425000I225000J0D01*
G01*
X139600000Y-79425000D01*
G75*
G02*
X139825000Y-79650000I0J-225000D01*
G01*
X139825000Y-80150000D01*
G75*
G02*
X139600000Y-80375000I-225000J0D01*
G01*
X139150000Y-80375000D01*
G75*
G02*
X138925000Y-80150000I0J225000D01*
G01*
G37*
%TD.AperFunction*%
%TO.P,C34,1*%
%TO.N,+3V3*%
%TA.AperFunction,SMDPad,CuDef*%
G36*
G01*
X137375000Y-80150000D02*
X137375000Y-79650000D01*
G75*
G02*
X137600000Y-79425000I225000J0D01*
G01*
X138050000Y-79425000D01*
G75*
G02*
X138275000Y-79650000I0J-225000D01*
G01*
X138275000Y-80150000D01*
G75*
G02*
X138050000Y-80375000I-225000J0D01*
G01*
X137600000Y-80375000D01*
G75*
G02*
X137375000Y-80150000I0J225000D01*
G01*
G37*
%TD.AperFunction*%
%TD*%
%TO.P,C7,2*%
%TO.N,GND*%
%TA.AperFunction,SMDPad,CuDef*%
G36*
G01*
X140550000Y-110700000D02*
X139450000Y-110700000D01*
G75*
G02*
X139200000Y-110450000I0J250000D01*
G01*
X139200000Y-108350000D01*
G75*
G02*
X139450000Y-108100000I250000J0D01*
G01*
X140550000Y-108100000D01*
G75*
G02*
X140800000Y-108350000I0J-250000D01*
G01*
X140800000Y-110450000D01*
G75*
G02*
X140550000Y-110700000I-250000J0D01*
G01*
G37*
%TD.AperFunction*%
%TO.P,C7,1*%
%TO.N,+3V3*%
%TA.AperFunction,SMDPad,CuDef*%
G36*
G01*
X140550000Y-114300000D02*
X139450000Y-114300000D01*
G75*
G02*
X139200000Y-114050000I0J250000D01*
G01*
X139200000Y-111950000D01*
G75*
G02*
X139450000Y-111700000I250000J0D01*
G01*
X140550000Y-111700000D01*
G75*
G02*
X140800000Y-111950000I0J-250000D01*
G01*
X140800000Y-114050000D01*
G75*
G02*
X140550000Y-114300000I-250000J0D01*
G01*
G37*
%TD.AperFunction*%
%TD*%
%TO.P,C5,2*%
%TO.N,GND*%
%TA.AperFunction,SMDPad,CuDef*%
G36*
G01*
X127550000Y-109000000D02*
X126450000Y-109000000D01*
G75*
G02*
X126200000Y-108750000I0J250000D01*
G01*
X126200000Y-106650000D01*
G75*
G02*
X126450000Y-106400000I250000J0D01*
G01*
X127550000Y-106400000D01*
G75*
G02*
X127800000Y-106650000I0J-250000D01*
G01*
X127800000Y-108750000D01*
G75*
G02*
X127550000Y-109000000I-250000J0D01*
G01*
G37*
%TD.AperFunction*%
%TO.P,C5,1*%
%TO.N,+12V*%
%TA.AperFunction,SMDPad,CuDef*%
G36*
G01*
X127550000Y-112600000D02*
X126450000Y-112600000D01*
G75*
G02*
X126200000Y-112350000I0J250000D01*
G01*
X126200000Y-110250000D01*
G75*
G02*
X126450000Y-110000000I250000J0D01*
G01*
X127550000Y-110000000D01*
G75*
G02*
X127800000Y-110250000I0J-250000D01*
G01*
X127800000Y-112350000D01*
G75*
G02*
X127550000Y-112600000I-250000J0D01*
G01*
G37*
%TD.AperFunction*%
%TD*%
%TO.P,C4,2*%
%TO.N,GND*%
%TA.AperFunction,SMDPad,CuDef*%
G36*
G01*
X113750000Y-100000000D02*
X114850000Y-100000000D01*
G75*
G02*
X115100000Y-100250000I0J-250000D01*
G01*
X115100000Y-102350000D01*
G75*
G02*
X114850000Y-102600000I-250000J0D01*
G01*
X113750000Y-102600000D01*
G75*
G02*
X113500000Y-102350000I0J250000D01*
G01*
X113500000Y-100250000D01*
G75*
G02*
X113750000Y-100000000I250000J0D01*
G01*
G37*
%TD.AperFunction*%
%TO.P,C4,1*%
%TO.N,+5V*%
%TA.AperFunction,SMDPad,CuDef*%
G36*
G01*
X113750000Y-96400000D02*
X114850000Y-96400000D01*
G75*
G02*
X115100000Y-96650000I0J-250000D01*
G01*
X115100000Y-98750000D01*
G75*
G02*
X114850000Y-99000000I-250000J0D01*
G01*
X113750000Y-99000000D01*
G75*
G02*
X113500000Y-98750000I0J250000D01*
G01*
X113500000Y-96650000D01*
G75*
G02*
X113750000Y-96400000I250000J0D01*
G01*
G37*
%TD.AperFunction*%
%TD*%
%TO.P,C2,2*%
%TO.N,GND*%
%TA.AperFunction,SMDPad,CuDef*%
G36*
G01*
X125250000Y-100000000D02*
X126350000Y-100000000D01*
G75*
G02*
X126600000Y-100250000I0J-250000D01*
G01*
X126600000Y-102350000D01*
G75*
G02*
X126350000Y-102600000I-250000J0D01*
G01*
X125250000Y-102600000D01*
G75*
G02*
X125000000Y-102350000I0J250000D01*
G01*
X125000000Y-100250000D01*
G75*
G02*
X125250000Y-100000000I250000J0D01*
G01*
G37*
%TD.AperFunction*%
%TO.P,C2,1*%
%TO.N,+12V*%
%TA.AperFunction,SMDPad,CuDef*%
G36*
G01*
X125250000Y-96400000D02*
X126350000Y-96400000D01*
G75*
G02*
X126600000Y-96650000I0J-250000D01*
G01*
X126600000Y-98750000D01*
G75*
G02*
X126350000Y-99000000I-250000J0D01*
G01*
X125250000Y-99000000D01*
G75*
G02*
X125000000Y-98750000I0J250000D01*
G01*
X125000000Y-96650000D01*
G75*
G02*
X125250000Y-96400000I250000J0D01*
G01*
G37*
%TD.AperFunction*%
%TD*%
D16*
%TO.P,U4,5*%
%TO.N,GND*%
X146600000Y-100550000D03*
%TO.P,U4,4*%
%TO.N,Net-(RV1-Pad2)*%
X146600000Y-102450000D03*
%TO.P,U4,3*%
%TO.N,Net-(C6-Pad1)*%
X144400000Y-102450000D03*
%TO.P,U4,2*%
%TO.N,+3V3*%
X144400000Y-101500000D03*
%TO.P,U4,1*%
%TO.N,/PRESSURE*%
X144400000Y-100550000D03*
%TD*%
D17*
%TO.P,U3,2*%
%TO.N,GND*%
X133475000Y-106900000D03*
D18*
%TO.P,U3,3*%
%TO.N,+3V3*%
X135755000Y-113200000D03*
%TO.P,U3,1*%
%TO.N,+12V*%
X131195000Y-113200000D03*
%TD*%
D17*
%TO.P,U2,2*%
%TO.N,GND*%
X119800000Y-102100000D03*
D18*
%TO.P,U2,3*%
%TO.N,+5V*%
X117520000Y-95800000D03*
%TO.P,U2,1*%
%TO.N,+12V*%
X122080000Y-95800000D03*
%TD*%
D19*
%TO.P,U1,8*%
%TO.N,Net-(U1-Pad8)*%
X131618000Y-127310000D03*
%TO.P,U1,7*%
%TO.N,Net-(U1-Pad7)*%
X131618000Y-124770000D03*
%TO.P,U1,6*%
%TO.N,Net-(U1-Pad6)*%
X131618000Y-122230000D03*
%TO.P,U1,5*%
%TO.N,Net-(U1-Pad5)*%
X131618000Y-119690000D03*
%TO.P,U1,4*%
%TO.N,Net-(R1-Pad1)*%
X148382000Y-119690000D03*
%TO.P,U1,3*%
%TO.N,GND*%
X148382000Y-122230000D03*
%TO.P,U1,2*%
%TO.N,+3V3*%
X148382000Y-124770000D03*
%TO.P,U1,1*%
%TO.N,Net-(U1-Pad1)*%
X148382000Y-127310000D03*
%TD*%
D20*
%TO.P,SW4,2*%
%TO.N,GND*%
X159035000Y-106100000D03*
%TO.P,SW4,1*%
%TO.N,/IO0*%
X165765000Y-106100000D03*
%TD*%
%TO.P,SW3,8*%
%TO.N,GND*%
X114035000Y-90010000D03*
%TO.P,SW3,4*%
%TO.N,Net-(SW3-Pad4)*%
X120765000Y-82390000D03*
%TO.P,SW3,7*%
%TO.N,GND*%
X114035000Y-87470000D03*
%TO.P,SW3,3*%
%TO.N,Net-(SW3-Pad3)*%
X120765000Y-84930000D03*
%TO.P,SW3,6*%
%TO.N,GND*%
X114035000Y-84930000D03*
%TO.P,SW3,2*%
%TO.N,Net-(SW3-Pad2)*%
X120765000Y-87470000D03*
%TO.P,SW3,5*%
%TO.N,GND*%
X114035000Y-82390000D03*
%TO.P,SW3,1*%
%TO.N,Net-(SW3-Pad1)*%
X120765000Y-90010000D03*
%TD*%
D21*
%TO.P,SW2,A*%
%TO.N,/ENC_A*%
X132500000Y-87500000D03*
D22*
%TO.P,SW2,C*%
%TO.N,GND*%
X132500000Y-90000000D03*
%TO.P,SW2,B*%
%TO.N,/ENC_B*%
X132500000Y-92500000D03*
D23*
%TO.P,SW2,MP*%
%TO.N,N/C*%
X140000000Y-84400000D03*
X140000000Y-95600000D03*
D22*
%TO.P,SW2,S2*%
%TO.N,GND*%
X147000000Y-87500000D03*
%TO.P,SW2,S1*%
%TO.N,/ENC_SW*%
X147000000Y-92500000D03*
%TD*%
D24*
%TO.P,SW1,2*%
%TO.N,/EN*%
X128450000Y-82400000D03*
%TO.P,SW1,1*%
%TO.N,GND*%
X128450000Y-80800000D03*
%TO.P,SW1,2*%
%TO.N,/EN*%
X124350000Y-82400000D03*
%TO.P,SW1,1*%
%TO.N,GND*%
X124350000Y-80800000D03*
%TD*%
D25*
%TO.P,RV1,3*%
%TO.N,/PRESSURE*%
X141250000Y-99350000D03*
D26*
%TO.P,RV1,2*%
%TO.N,Net-(RV1-Pad2)*%
X135750000Y-100500000D03*
D25*
%TO.P,RV1,1*%
%TO.N,GND*%
X141250000Y-101650000D03*
%TD*%
%TO.P,R5,2*%
%TO.N,/ENC_SW*%
%TA.AperFunction,SMDPad,CuDef*%
G36*
G01*
X153625000Y-102475000D02*
X153625000Y-101925000D01*
G75*
G02*
X153825000Y-101725000I200000J0D01*
G01*
X154225000Y-101725000D01*
G75*
G02*
X154425000Y-101925000I0J-200000D01*
G01*
X154425000Y-102475000D01*
G75*
G02*
X154225000Y-102675000I-200000J0D01*
G01*
X153825000Y-102675000D01*
G75*
G02*
X153625000Y-102475000I0J200000D01*
G01*
G37*
%TD.AperFunction*%
%TO.P,R5,1*%
%TO.N,+3V3*%
%TA.AperFunction,SMDPad,CuDef*%
G36*
G01*
X151975000Y-102475000D02*
X151975000Y-101925000D01*
G75*
G02*
X152175000Y-101725000I200000J0D01*
G01*
X152575000Y-101725000D01*
G75*
G02*
X152775000Y-101925000I0J-200000D01*
G01*
X152775000Y-102475000D01*
G75*
G02*
X152575000Y-102675000I-200000J0D01*
G01*
X152175000Y-102675000D01*
G75*
G02*
X151975000Y-102475000I0J200000D01*
G01*
G37*
%TD.AperFunction*%
%TD*%
%TO.P,R4,2*%
%TO.N,+3V3*%
%TA.AperFunction,SMDPad,CuDef*%
G36*
G01*
X147425000Y-82175000D02*
X147425000Y-81625000D01*
G75*
G02*
X147625000Y-81425000I200000J0D01*
G01*
X148025000Y-81425000D01*
G75*
G02*
X148225000Y-81625000I0J-200000D01*
G01*
X148225000Y-82175000D01*
G75*
G02*
X148025000Y-82375000I-200000J0D01*
G01*
X147625000Y-82375000D01*
G75*
G02*
X147425000Y-82175000I0J200000D01*
G01*
G37*
%TD.AperFunction*%
%TO.P,R4,1*%
%TO.N,/EN*%
%TA.AperFunction,SMDPad,CuDef*%
G36*
G01*
X145775000Y-82175000D02*
X145775000Y-81625000D01*
G75*
G02*
X145975000Y-81425000I200000J0D01*
G01*
X146375000Y-81425000D01*
G75*
G02*
X146575000Y-81625000I0J-200000D01*
G01*
X146575000Y-82175000D01*
G75*
G02*
X146375000Y-82375000I-200000J0D01*
G01*
X145975000Y-82375000D01*
G75*
G02*
X145775000Y-82175000I0J200000D01*
G01*
G37*
%TD.AperFunction*%
%TD*%
%TO.P,R3,2*%
%TO.N,Net-(Q1-Pad1)*%
%TA.AperFunction,SMDPad,CuDef*%
G36*
G01*
X149075000Y-103225000D02*
X149075000Y-103775000D01*
G75*
G02*
X148875000Y-103975000I-200000J0D01*
G01*
X148475000Y-103975000D01*
G75*
G02*
X148275000Y-103775000I0J200000D01*
G01*
X148275000Y-103225000D01*
G75*
G02*
X148475000Y-103025000I200000J0D01*
G01*
X148875000Y-103025000D01*
G75*
G02*
X149075000Y-103225000I0J-200000D01*
G01*
G37*
%TD.AperFunction*%
%TO.P,R3,1*%
%TO.N,/Motor*%
%TA.AperFunction,SMDPad,CuDef*%
G36*
G01*
X150725000Y-103225000D02*
X150725000Y-103775000D01*
G75*
G02*
X150525000Y-103975000I-200000J0D01*
G01*
X150125000Y-103975000D01*
G75*
G02*
X149925000Y-103775000I0J200000D01*
G01*
X149925000Y-103225000D01*
G75*
G02*
X150125000Y-103025000I200000J0D01*
G01*
X150525000Y-103025000D01*
G75*
G02*
X150725000Y-103225000I0J-200000D01*
G01*
G37*
%TD.AperFunction*%
%TD*%
%TO.P,R2,2*%
%TO.N,/Motor*%
%TA.AperFunction,SMDPad,CuDef*%
G36*
G01*
X157075000Y-103875000D02*
X156525000Y-103875000D01*
G75*
G02*
X156325000Y-103675000I0J200000D01*
G01*
X156325000Y-103275000D01*
G75*
G02*
X156525000Y-103075000I200000J0D01*
G01*
X157075000Y-103075000D01*
G75*
G02*
X157275000Y-103275000I0J-200000D01*
G01*
X157275000Y-103675000D01*
G75*
G02*
X157075000Y-103875000I-200000J0D01*
G01*
G37*
%TD.AperFunction*%
%TO.P,R2,1*%
%TO.N,GND*%
%TA.AperFunction,SMDPad,CuDef*%
G36*
G01*
X157075000Y-105525000D02*
X156525000Y-105525000D01*
G75*
G02*
X156325000Y-105325000I0J200000D01*
G01*
X156325000Y-104925000D01*
G75*
G02*
X156525000Y-104725000I200000J0D01*
G01*
X157075000Y-104725000D01*
G75*
G02*
X157275000Y-104925000I0J-200000D01*
G01*
X157275000Y-105325000D01*
G75*
G02*
X157075000Y-105525000I-200000J0D01*
G01*
G37*
%TD.AperFunction*%
%TD*%
%TO.P,R1,2*%
%TO.N,Net-(C6-Pad1)*%
%TA.AperFunction,SMDPad,CuDef*%
G36*
G01*
X143775000Y-105575000D02*
X143225000Y-105575000D01*
G75*
G02*
X143025000Y-105375000I0J200000D01*
G01*
X143025000Y-104975000D01*
G75*
G02*
X143225000Y-104775000I200000J0D01*
G01*
X143775000Y-104775000D01*
G75*
G02*
X143975000Y-104975000I0J-200000D01*
G01*
X143975000Y-105375000D01*
G75*
G02*
X143775000Y-105575000I-200000J0D01*
G01*
G37*
%TD.AperFunction*%
%TO.P,R1,1*%
%TO.N,Net-(R1-Pad1)*%
%TA.AperFunction,SMDPad,CuDef*%
G36*
G01*
X143775000Y-107225000D02*
X143225000Y-107225000D01*
G75*
G02*
X143025000Y-107025000I0J200000D01*
G01*
X143025000Y-106625000D01*
G75*
G02*
X143225000Y-106425000I200000J0D01*
G01*
X143775000Y-106425000D01*
G75*
G02*
X143975000Y-106625000I0J-200000D01*
G01*
X143975000Y-107025000D01*
G75*
G02*
X143775000Y-107225000I-200000J0D01*
G01*
G37*
%TD.AperFunction*%
%TD*%
D27*
%TO.P,Q1,2*%
%TO.N,Net-(J2-PadR1)*%
X152100000Y-108000000D03*
D28*
%TO.P,Q1,3*%
%TO.N,GND*%
X145800000Y-110280000D03*
%TO.P,Q1,1*%
%TO.N,Net-(Q1-Pad1)*%
X145800000Y-105720000D03*
%TD*%
%TA.AperFunction,SMDPad,CuDef*%
D29*
%TO.P,J2,R2*%
%TO.N,Net-(J2-PadR1)*%
G36*
X156655449Y-122769246D02*
G01*
X154490385Y-124019246D01*
X153890385Y-122980016D01*
X156055449Y-121730016D01*
X156655449Y-122769246D01*
G37*
%TD.AperFunction*%
%TA.AperFunction,SMDPad,CuDef*%
%TO.P,J2,R1*%
G36*
X155155449Y-120171169D02*
G01*
X152990385Y-121421169D01*
X152390385Y-120381939D01*
X154555449Y-119131939D01*
X155155449Y-120171169D01*
G37*
%TD.AperFunction*%
%TA.AperFunction,SMDPad,CuDef*%
%TO.P,J2,T*%
%TO.N,+12V*%
G36*
X153155449Y-116707068D02*
G01*
X150990385Y-117957068D01*
X150390385Y-116917838D01*
X152555449Y-115667838D01*
X153155449Y-116707068D01*
G37*
%TD.AperFunction*%
%TA.AperFunction,SMDPad,CuDef*%
%TO.P,J2,S*%
%TO.N,Net-(J2-PadR1)*%
G36*
X158234615Y-112504440D02*
G01*
X156069551Y-113754440D01*
X155469551Y-112715210D01*
X157634615Y-111465210D01*
X158234615Y-112504440D01*
G37*
%TD.AperFunction*%
%TD*%
D30*
%TO.P,J1,3*%
%TO.N,N/C*%
X127070319Y-119448076D03*
%TO.P,J1,2*%
%TO.N,GND*%
X121500000Y-119696152D03*
%TA.AperFunction,ComponentPad*%
D31*
%TO.P,J1,1*%
%TO.N,+12V*%
G36*
X122724167Y-114975833D02*
G01*
X124024167Y-112724167D01*
X126275833Y-114024167D01*
X124975833Y-116275833D01*
X122724167Y-114975833D01*
G37*
%TD.AperFunction*%
%TD*%
%TA.AperFunction,SMDPad,CuDef*%
D29*
%TO.P,D24,1*%
%TO.N,+5V*%
G36*
X164025913Y-116817525D02*
G01*
X163302946Y-116126642D01*
X164339269Y-115042191D01*
X165062236Y-115733074D01*
X164025913Y-116817525D01*
G37*
%TD.AperFunction*%
%TA.AperFunction,SMDPad,CuDef*%
%TO.P,D24,2*%
%TO.N,/LEDS/Data-Out*%
G36*
X166339408Y-119028348D02*
G01*
X165616441Y-118337465D01*
X166652764Y-117253014D01*
X167375731Y-117943897D01*
X166339408Y-119028348D01*
G37*
%TD.AperFunction*%
%TA.AperFunction,SMDPad,CuDef*%
%TO.P,D24,4*%
%TO.N,Net-(D22-Pad2)*%
G36*
X167411236Y-113274986D02*
G01*
X166688269Y-112584103D01*
X167724592Y-111499652D01*
X168447559Y-112190535D01*
X167411236Y-113274986D01*
G37*
%TD.AperFunction*%
%TA.AperFunction,SMDPad,CuDef*%
%TO.P,D24,3*%
%TO.N,GND*%
G36*
X169724731Y-115485809D02*
G01*
X169001764Y-114794926D01*
X170038087Y-113710475D01*
X170761054Y-114401358D01*
X169724731Y-115485809D01*
G37*
%TD.AperFunction*%
%TD*%
%TA.AperFunction,SMDPad,CuDef*%
%TO.P,D23,1*%
%TO.N,+5V*%
G36*
X139536698Y-53979230D02*
G01*
X139632544Y-54974626D01*
X138139450Y-55118394D01*
X138043604Y-54122998D01*
X139536698Y-53979230D01*
G37*
%TD.AperFunction*%
%TA.AperFunction,SMDPad,CuDef*%
%TO.P,D23,2*%
%TO.N,Net-(D2-Pad4)*%
G36*
X139229991Y-50793962D02*
G01*
X139325837Y-51789358D01*
X137832743Y-51933126D01*
X137736897Y-50937730D01*
X139229991Y-50793962D01*
G37*
%TD.AperFunction*%
%TA.AperFunction,SMDPad,CuDef*%
%TO.P,D23,4*%
%TO.N,Net-(D21-Pad2)*%
G36*
X134659257Y-54448874D02*
G01*
X134755103Y-55444270D01*
X133262009Y-55588038D01*
X133166163Y-54592642D01*
X134659257Y-54448874D01*
G37*
%TD.AperFunction*%
%TA.AperFunction,SMDPad,CuDef*%
%TO.P,D23,3*%
%TO.N,GND*%
G36*
X134352550Y-51263606D02*
G01*
X134448396Y-52259002D01*
X132955302Y-52402770D01*
X132859456Y-51407374D01*
X134352550Y-51263606D01*
G37*
%TD.AperFunction*%
%TD*%
%TA.AperFunction,SMDPad,CuDef*%
%TO.P,D22,1*%
%TO.N,+5V*%
G36*
X168918690Y-111453252D02*
G01*
X168071568Y-110921853D01*
X168868666Y-109651170D01*
X169715788Y-110182569D01*
X168918690Y-111453252D01*
G37*
%TD.AperFunction*%
%TA.AperFunction,SMDPad,CuDef*%
%TO.P,D22,2*%
%TO.N,Net-(D22-Pad2)*%
G36*
X171629481Y-113153727D02*
G01*
X170782359Y-112622328D01*
X171579457Y-111351645D01*
X172426579Y-111883044D01*
X171629481Y-113153727D01*
G37*
%TD.AperFunction*%
%TA.AperFunction,SMDPad,CuDef*%
%TO.P,D22,4*%
%TO.N,Net-(D20-Pad2)*%
G36*
X171522543Y-107302355D02*
G01*
X170675421Y-106770956D01*
X171472519Y-105500273D01*
X172319641Y-106031672D01*
X171522543Y-107302355D01*
G37*
%TD.AperFunction*%
%TA.AperFunction,SMDPad,CuDef*%
%TO.P,D22,3*%
%TO.N,GND*%
G36*
X174233334Y-109002830D02*
G01*
X173386212Y-108471431D01*
X174183310Y-107200748D01*
X175030432Y-107732147D01*
X174233334Y-109002830D01*
G37*
%TD.AperFunction*%
%TD*%
%TA.AperFunction,SMDPad,CuDef*%
%TO.P,D21,1*%
%TO.N,+5V*%
G36*
X132318982Y-54803443D02*
G01*
X132613022Y-55759236D01*
X131179332Y-56200297D01*
X130885292Y-55244504D01*
X132318982Y-54803443D01*
G37*
%TD.AperFunction*%
%TA.AperFunction,SMDPad,CuDef*%
%TO.P,D21,2*%
%TO.N,Net-(D21-Pad2)*%
G36*
X131378053Y-51744905D02*
G01*
X131672093Y-52700698D01*
X130238403Y-53141759D01*
X129944363Y-52185966D01*
X131378053Y-51744905D01*
G37*
%TD.AperFunction*%
%TA.AperFunction,SMDPad,CuDef*%
%TO.P,D21,4*%
%TO.N,Net-(D19-Pad2)*%
G36*
X127635597Y-56244241D02*
G01*
X127929637Y-57200034D01*
X126495947Y-57641095D01*
X126201907Y-56685302D01*
X127635597Y-56244241D01*
G37*
%TD.AperFunction*%
%TA.AperFunction,SMDPad,CuDef*%
%TO.P,D21,3*%
%TO.N,GND*%
G36*
X126694668Y-53185703D02*
G01*
X126988708Y-54141496D01*
X125555018Y-54582557D01*
X125260978Y-53626764D01*
X126694668Y-53185703D01*
G37*
%TD.AperFunction*%
%TD*%
%TA.AperFunction,SMDPad,CuDef*%
%TO.P,D20,1*%
%TO.N,+5V*%
G36*
X172635997Y-105216123D02*
G01*
X171699324Y-104865915D01*
X172224635Y-103460907D01*
X173161308Y-103811115D01*
X172635997Y-105216123D01*
G37*
%TD.AperFunction*%
%TA.AperFunction,SMDPad,CuDef*%
%TO.P,D20,2*%
%TO.N,Net-(D20-Pad2)*%
G36*
X175633348Y-106336787D02*
G01*
X174696675Y-105986579D01*
X175221986Y-104581571D01*
X176158659Y-104931779D01*
X175633348Y-106336787D01*
G37*
%TD.AperFunction*%
%TA.AperFunction,SMDPad,CuDef*%
%TO.P,D20,4*%
%TO.N,Net-(D18-Pad2)*%
G36*
X174352014Y-100626429D02*
G01*
X173415341Y-100276221D01*
X173940652Y-98871213D01*
X174877325Y-99221421D01*
X174352014Y-100626429D01*
G37*
%TD.AperFunction*%
%TA.AperFunction,SMDPad,CuDef*%
%TO.P,D20,3*%
%TO.N,GND*%
G36*
X177349365Y-101747093D02*
G01*
X176412692Y-101396885D01*
X176938003Y-99991877D01*
X177874676Y-100342085D01*
X177349365Y-101747093D01*
G37*
%TD.AperFunction*%
%TD*%
%TA.AperFunction,SMDPad,CuDef*%
%TO.P,D19,1*%
%TO.N,+5V*%
G36*
X125413114Y-57058145D02*
G01*
X125893337Y-57935291D01*
X124577618Y-58655627D01*
X124097395Y-57778481D01*
X125413114Y-57058145D01*
G37*
%TD.AperFunction*%
%TA.AperFunction,SMDPad,CuDef*%
%TO.P,D19,2*%
%TO.N,Net-(D19-Pad2)*%
G36*
X123876399Y-54251278D02*
G01*
X124356622Y-55128424D01*
X123040903Y-55848760D01*
X122560680Y-54971614D01*
X123876399Y-54251278D01*
G37*
%TD.AperFunction*%
%TA.AperFunction,SMDPad,CuDef*%
%TO.P,D19,4*%
%TO.N,Net-(D17-Pad2)*%
G36*
X121115097Y-59411240D02*
G01*
X121595320Y-60288386D01*
X120279601Y-61008722D01*
X119799378Y-60131576D01*
X121115097Y-59411240D01*
G37*
%TD.AperFunction*%
%TA.AperFunction,SMDPad,CuDef*%
%TO.P,D19,3*%
%TO.N,GND*%
G36*
X119578382Y-56604373D02*
G01*
X120058605Y-57481519D01*
X118742886Y-58201855D01*
X118262663Y-57324709D01*
X119578382Y-56604373D01*
G37*
%TD.AperFunction*%
%TD*%
%TA.AperFunction,SMDPad,CuDef*%
%TO.P,D18,1*%
%TO.N,+5V*%
G36*
X174727171Y-98359290D02*
G01*
X173739211Y-98204580D01*
X173971277Y-96722640D01*
X174959237Y-96877350D01*
X174727171Y-98359290D01*
G37*
%TD.AperFunction*%
%TA.AperFunction,SMDPad,CuDef*%
%TO.P,D18,2*%
%TO.N,Net-(D18-Pad2)*%
G36*
X177888642Y-98854363D02*
G01*
X176900682Y-98699653D01*
X177132748Y-97217713D01*
X178120708Y-97372423D01*
X177888642Y-98854363D01*
G37*
%TD.AperFunction*%
%TA.AperFunction,SMDPad,CuDef*%
%TO.P,D18,4*%
%TO.N,Net-(D16-Pad2)*%
G36*
X175485252Y-93518287D02*
G01*
X174497292Y-93363577D01*
X174729358Y-91881637D01*
X175717318Y-92036347D01*
X175485252Y-93518287D01*
G37*
%TD.AperFunction*%
%TA.AperFunction,SMDPad,CuDef*%
%TO.P,D18,3*%
%TO.N,GND*%
G36*
X178646723Y-94013360D02*
G01*
X177658763Y-93858650D01*
X177890829Y-92376710D01*
X178878789Y-92531420D01*
X178646723Y-94013360D01*
G37*
%TD.AperFunction*%
%TD*%
%TA.AperFunction,SMDPad,CuDef*%
%TO.P,D17,1*%
%TO.N,+5V*%
G36*
X119100007Y-60653208D02*
G01*
X119746797Y-61415876D01*
X118602795Y-62386060D01*
X117956005Y-61623392D01*
X119100007Y-60653208D01*
G37*
%TD.AperFunction*%
%TA.AperFunction,SMDPad,CuDef*%
%TO.P,D17,2*%
%TO.N,Net-(D17-Pad2)*%
G36*
X117030280Y-58212670D02*
G01*
X117677070Y-58975338D01*
X116533068Y-59945522D01*
X115886278Y-59182854D01*
X117030280Y-58212670D01*
G37*
%TD.AperFunction*%
%TA.AperFunction,SMDPad,CuDef*%
%TO.P,D17,4*%
%TO.N,Net-(D15-Pad2)*%
G36*
X115362932Y-63822478D02*
G01*
X116009722Y-64585146D01*
X114865720Y-65555330D01*
X114218930Y-64792662D01*
X115362932Y-63822478D01*
G37*
%TD.AperFunction*%
%TA.AperFunction,SMDPad,CuDef*%
%TO.P,D17,3*%
%TO.N,GND*%
G36*
X113293205Y-61381940D02*
G01*
X113939995Y-62144608D01*
X112795993Y-63114792D01*
X112149203Y-62352124D01*
X113293205Y-61381940D01*
G37*
%TD.AperFunction*%
%TD*%
%TA.AperFunction,SMDPad,CuDef*%
%TO.P,D16,1*%
%TO.N,+5V*%
G36*
X175992962Y-91162265D02*
G01*
X174994072Y-91209372D01*
X174923412Y-89711037D01*
X175922302Y-89663930D01*
X175992962Y-91162265D01*
G37*
%TD.AperFunction*%
%TA.AperFunction,SMDPad,CuDef*%
%TO.P,D16,2*%
%TO.N,Net-(D16-Pad2)*%
G36*
X179189410Y-91011524D02*
G01*
X178190520Y-91058631D01*
X178119860Y-89560296D01*
X179118750Y-89513189D01*
X179189410Y-91011524D01*
G37*
%TD.AperFunction*%
%TA.AperFunction,SMDPad,CuDef*%
%TO.P,D16,4*%
%TO.N,Net-(D14-Pad2)*%
G36*
X175762140Y-86267704D02*
G01*
X174763250Y-86314811D01*
X174692590Y-84816476D01*
X175691480Y-84769369D01*
X175762140Y-86267704D01*
G37*
%TD.AperFunction*%
%TA.AperFunction,SMDPad,CuDef*%
%TO.P,D16,3*%
%TO.N,GND*%
G36*
X178958588Y-86116963D02*
G01*
X177959698Y-86164070D01*
X177889038Y-84665735D01*
X178887928Y-84618628D01*
X178958588Y-86116963D01*
G37*
%TD.AperFunction*%
%TD*%
%TA.AperFunction,SMDPad,CuDef*%
%TO.P,D15,1*%
%TO.N,+5V*%
G36*
X113636143Y-65441548D02*
G01*
X114423078Y-66058584D01*
X113497525Y-67238986D01*
X112710590Y-66621950D01*
X113636143Y-65441548D01*
G37*
%TD.AperFunction*%
%TA.AperFunction,SMDPad,CuDef*%
%TO.P,D15,2*%
%TO.N,Net-(D15-Pad2)*%
G36*
X111117951Y-63467033D02*
G01*
X111904886Y-64084069D01*
X110979333Y-65264471D01*
X110192398Y-64647435D01*
X111117951Y-63467033D01*
G37*
%TD.AperFunction*%
%TA.AperFunction,SMDPad,CuDef*%
%TO.P,D15,4*%
%TO.N,Net-(D13-Pad2)*%
G36*
X110612667Y-69297529D02*
G01*
X111399602Y-69914565D01*
X110474049Y-71094967D01*
X109687114Y-70477931D01*
X110612667Y-69297529D01*
G37*
%TD.AperFunction*%
%TA.AperFunction,SMDPad,CuDef*%
%TO.P,D15,3*%
%TO.N,GND*%
G36*
X108094475Y-67323014D02*
G01*
X108881410Y-67940050D01*
X107955857Y-69120452D01*
X107168922Y-68503416D01*
X108094475Y-67323014D01*
G37*
%TD.AperFunction*%
%TD*%
%TA.AperFunction,SMDPad,CuDef*%
%TO.P,D14,1*%
%TO.N,+5V*%
G36*
X175496479Y-83917549D02*
G01*
X174527463Y-84164548D01*
X174156965Y-82711025D01*
X175125981Y-82464026D01*
X175496479Y-83917549D01*
G37*
%TD.AperFunction*%
%TA.AperFunction,SMDPad,CuDef*%
%TO.P,D14,2*%
%TO.N,Net-(D14-Pad2)*%
G36*
X178597330Y-83127152D02*
G01*
X177628314Y-83374151D01*
X177257816Y-81920628D01*
X178226832Y-81673629D01*
X178597330Y-83127152D01*
G37*
%TD.AperFunction*%
%TA.AperFunction,SMDPad,CuDef*%
%TO.P,D14,4*%
%TO.N,Net-(D12-Pad2)*%
G36*
X174286184Y-79169372D02*
G01*
X173317168Y-79416371D01*
X172946670Y-77962848D01*
X173915686Y-77715849D01*
X174286184Y-79169372D01*
G37*
%TD.AperFunction*%
%TA.AperFunction,SMDPad,CuDef*%
%TO.P,D14,3*%
%TO.N,GND*%
G36*
X177387035Y-78378975D02*
G01*
X176418019Y-78625974D01*
X176047521Y-77172451D01*
X177016537Y-76925452D01*
X177387035Y-78378975D01*
G37*
%TD.AperFunction*%
%TD*%
%TA.AperFunction,SMDPad,CuDef*%
%TO.P,D13,1*%
%TO.N,+5V*%
G36*
X109244261Y-71227027D02*
G01*
X110139196Y-71673225D01*
X109469899Y-73015627D01*
X108574964Y-72569429D01*
X109244261Y-71227027D01*
G37*
%TD.AperFunction*%
%TA.AperFunction,SMDPad,CuDef*%
%TO.P,D13,2*%
%TO.N,Net-(D13-Pad2)*%
G36*
X106380471Y-69799194D02*
G01*
X107275406Y-70245392D01*
X106606109Y-71587794D01*
X105711174Y-71141596D01*
X106380471Y-69799194D01*
G37*
%TD.AperFunction*%
%TA.AperFunction,SMDPad,CuDef*%
%TO.P,D13,4*%
%TO.N,Net-(D11-Pad2)*%
G36*
X107057891Y-75612206D02*
G01*
X107952826Y-76058404D01*
X107283529Y-77400806D01*
X106388594Y-76954608D01*
X107057891Y-75612206D01*
G37*
%TD.AperFunction*%
%TA.AperFunction,SMDPad,CuDef*%
%TO.P,D13,3*%
%TO.N,GND*%
G36*
X104194101Y-74184373D02*
G01*
X105089036Y-74630571D01*
X104419739Y-75972973D01*
X103524804Y-75526775D01*
X104194101Y-74184373D01*
G37*
%TD.AperFunction*%
%TD*%
%TA.AperFunction,SMDPad,CuDef*%
%TO.P,D12,1*%
%TO.N,+5V*%
G36*
X173555252Y-76919066D02*
G01*
X172655694Y-77355868D01*
X172000492Y-76006532D01*
X172900050Y-75569730D01*
X173555252Y-76919066D01*
G37*
%TD.AperFunction*%
%TA.AperFunction,SMDPad,CuDef*%
%TO.P,D12,2*%
%TO.N,Net-(D12-Pad2)*%
G36*
X176433837Y-75521301D02*
G01*
X175534279Y-75958103D01*
X174879077Y-74608767D01*
X175778635Y-74171965D01*
X176433837Y-75521301D01*
G37*
%TD.AperFunction*%
%TA.AperFunction,SMDPad,CuDef*%
%TO.P,D12,4*%
%TO.N,Net-(D10-Pad2)*%
G36*
X171414923Y-72511233D02*
G01*
X170515365Y-72948035D01*
X169860163Y-71598699D01*
X170759721Y-71161897D01*
X171414923Y-72511233D01*
G37*
%TD.AperFunction*%
%TA.AperFunction,SMDPad,CuDef*%
%TO.P,D12,3*%
%TO.N,GND*%
G36*
X174293508Y-71113468D02*
G01*
X173393950Y-71550270D01*
X172738748Y-70200934D01*
X173638306Y-69764132D01*
X174293508Y-71113468D01*
G37*
%TD.AperFunction*%
%TD*%
%TA.AperFunction,SMDPad,CuDef*%
%TO.P,D11,1*%
%TO.N,+5V*%
G36*
X106102839Y-77780443D02*
G01*
X107069215Y-78037575D01*
X106683515Y-79487139D01*
X105717139Y-79230007D01*
X106102839Y-77780443D01*
G37*
%TD.AperFunction*%
%TA.AperFunction,SMDPad,CuDef*%
%TO.P,D11,2*%
%TO.N,Net-(D11-Pad2)*%
G36*
X103010436Y-76957618D02*
G01*
X103976812Y-77214750D01*
X103591112Y-78664314D01*
X102624736Y-78407182D01*
X103010436Y-76957618D01*
G37*
%TD.AperFunction*%
%TA.AperFunction,SMDPad,CuDef*%
%TO.P,D11,4*%
%TO.N,Net-(D11-Pad4)*%
G36*
X104842888Y-82515686D02*
G01*
X105809264Y-82772818D01*
X105423564Y-84222382D01*
X104457188Y-83965250D01*
X104842888Y-82515686D01*
G37*
%TD.AperFunction*%
%TA.AperFunction,SMDPad,CuDef*%
%TO.P,D11,3*%
%TO.N,GND*%
G36*
X101750485Y-81692861D02*
G01*
X102716861Y-81949993D01*
X102331161Y-83399557D01*
X101364785Y-83142425D01*
X101750485Y-81692861D01*
G37*
%TD.AperFunction*%
%TD*%
%TA.AperFunction,SMDPad,CuDef*%
%TO.P,D10,1*%
%TO.N,+5V*%
G36*
X170250348Y-70452368D02*
G01*
X169456994Y-71061130D01*
X168543852Y-69871100D01*
X169337206Y-69262338D01*
X170250348Y-70452368D01*
G37*
%TD.AperFunction*%
%TA.AperFunction,SMDPad,CuDef*%
%TO.P,D10,2*%
%TO.N,Net-(D10-Pad2)*%
G36*
X172789079Y-68504331D02*
G01*
X171995725Y-69113093D01*
X171082583Y-67923063D01*
X171875937Y-67314301D01*
X172789079Y-68504331D01*
G37*
%TD.AperFunction*%
%TA.AperFunction,SMDPad,CuDef*%
%TO.P,D10,4*%
%TO.N,Net-(D10-Pad4)*%
G36*
X167267417Y-66564937D02*
G01*
X166474063Y-67173699D01*
X165560921Y-65983669D01*
X166354275Y-65374907D01*
X167267417Y-66564937D01*
G37*
%TD.AperFunction*%
%TA.AperFunction,SMDPad,CuDef*%
%TO.P,D10,3*%
%TO.N,GND*%
G36*
X169806148Y-64616900D02*
G01*
X169012794Y-65225662D01*
X168099652Y-64035632D01*
X168893006Y-63426870D01*
X169806148Y-64616900D01*
G37*
%TD.AperFunction*%
%TD*%
%TA.AperFunction,SMDPad,CuDef*%
%TO.P,D9,1*%
%TO.N,+5V*%
G36*
X104338381Y-84829627D02*
G01*
X105336723Y-84887191D01*
X105250377Y-86384703D01*
X104252035Y-86327139D01*
X104338381Y-84829627D01*
G37*
%TD.AperFunction*%
%TA.AperFunction,SMDPad,CuDef*%
%TO.P,D9,2*%
%TO.N,Net-(D11-Pad4)*%
G36*
X101143687Y-84645422D02*
G01*
X102142029Y-84702986D01*
X102055683Y-86200498D01*
X101057341Y-86142934D01*
X101143687Y-84645422D01*
G37*
%TD.AperFunction*%
%TA.AperFunction,SMDPad,CuDef*%
%TO.P,D9,4*%
%TO.N,Net-(D7-Pad2)*%
G36*
X104056317Y-89721502D02*
G01*
X105054659Y-89779066D01*
X104968313Y-91276578D01*
X103969971Y-91219014D01*
X104056317Y-89721502D01*
G37*
%TD.AperFunction*%
%TA.AperFunction,SMDPad,CuDef*%
%TO.P,D9,3*%
%TO.N,GND*%
G36*
X100861623Y-89537297D02*
G01*
X101859965Y-89594861D01*
X101773619Y-91092373D01*
X100775277Y-91034809D01*
X100861623Y-89537297D01*
G37*
%TD.AperFunction*%
%TD*%
%TA.AperFunction,SMDPad,CuDef*%
%TO.P,D8,1*%
%TO.N,+5V*%
G36*
X165714517Y-64779610D02*
G01*
X165059776Y-65535463D01*
X163925995Y-64553352D01*
X164580736Y-63797499D01*
X165714517Y-64779610D01*
G37*
%TD.AperFunction*%
%TA.AperFunction,SMDPad,CuDef*%
%TO.P,D8,2*%
%TO.N,Net-(D10-Pad4)*%
G36*
X167809687Y-62360878D02*
G01*
X167154946Y-63116731D01*
X166021165Y-62134620D01*
X166675906Y-61378767D01*
X167809687Y-62360878D01*
G37*
%TD.AperFunction*%
%TA.AperFunction,SMDPad,CuDef*%
%TO.P,D8,4*%
%TO.N,Net-(D6-Pad2)*%
G36*
X162010835Y-61571380D02*
G01*
X161356094Y-62327233D01*
X160222313Y-61345122D01*
X160877054Y-60589269D01*
X162010835Y-61571380D01*
G37*
%TD.AperFunction*%
%TA.AperFunction,SMDPad,CuDef*%
%TO.P,D8,3*%
%TO.N,GND*%
G36*
X164106005Y-59152648D02*
G01*
X163451264Y-59908501D01*
X162317483Y-58926390D01*
X162972224Y-58170537D01*
X164106005Y-59152648D01*
G37*
%TD.AperFunction*%
%TD*%
%TA.AperFunction,SMDPad,CuDef*%
%TO.P,D7,1*%
%TO.N,+5V*%
G36*
X104024539Y-92088726D02*
G01*
X105014065Y-91944370D01*
X105230599Y-93428658D01*
X104241073Y-93573014D01*
X104024539Y-92088726D01*
G37*
%TD.AperFunction*%
%TA.AperFunction,SMDPad,CuDef*%
%TO.P,D7,2*%
%TO.N,Net-(D7-Pad2)*%
G36*
X100858056Y-92550666D02*
G01*
X101847582Y-92406310D01*
X102064116Y-93890598D01*
X101074590Y-94034954D01*
X100858056Y-92550666D01*
G37*
%TD.AperFunction*%
%TA.AperFunction,SMDPad,CuDef*%
%TO.P,D7,4*%
%TO.N,Net-(D5-Pad2)*%
G36*
X104731884Y-96937402D02*
G01*
X105721410Y-96793046D01*
X105937944Y-98277334D01*
X104948418Y-98421690D01*
X104731884Y-96937402D01*
G37*
%TD.AperFunction*%
%TA.AperFunction,SMDPad,CuDef*%
%TO.P,D7,3*%
%TO.N,GND*%
G36*
X101565401Y-97399342D02*
G01*
X102554927Y-97254986D01*
X102771461Y-98739274D01*
X101781935Y-98883630D01*
X101565401Y-97399342D01*
G37*
%TD.AperFunction*%
%TD*%
%TA.AperFunction,SMDPad,CuDef*%
%TO.P,D6,1*%
%TO.N,+5V*%
G36*
X160133301Y-60155300D02*
G01*
X159643919Y-61027369D01*
X158335815Y-60293296D01*
X158825197Y-59421227D01*
X160133301Y-60155300D01*
G37*
%TD.AperFunction*%
%TA.AperFunction,SMDPad,CuDef*%
%TO.P,D6,2*%
%TO.N,Net-(D6-Pad2)*%
G36*
X161699325Y-57364678D02*
G01*
X161209943Y-58236747D01*
X159901839Y-57502674D01*
X160391221Y-56630605D01*
X161699325Y-57364678D01*
G37*
%TD.AperFunction*%
%TA.AperFunction,SMDPad,CuDef*%
%TO.P,D6,4*%
%TO.N,Net-(D4-Pad2)*%
G36*
X155860161Y-57757326D02*
G01*
X155370779Y-58629395D01*
X154062675Y-57895322D01*
X154552057Y-57023253D01*
X155860161Y-57757326D01*
G37*
%TD.AperFunction*%
%TA.AperFunction,SMDPad,CuDef*%
%TO.P,D6,3*%
%TO.N,GND*%
G36*
X157426185Y-54966704D02*
G01*
X156936803Y-55838773D01*
X155628699Y-55104700D01*
X156118081Y-54232631D01*
X157426185Y-54966704D01*
G37*
%TD.AperFunction*%
%TD*%
%TA.AperFunction,SMDPad,CuDef*%
%TO.P,D5,1*%
%TO.N,+5V*%
G36*
X105175102Y-99264661D02*
G01*
X106115390Y-98924281D01*
X106625960Y-100334713D01*
X105685672Y-100675093D01*
X105175102Y-99264661D01*
G37*
%TD.AperFunction*%
%TA.AperFunction,SMDPad,CuDef*%
%TO.P,D5,2*%
%TO.N,Net-(D5-Pad2)*%
G36*
X102166180Y-100353875D02*
G01*
X103106468Y-100013495D01*
X103617038Y-101423927D01*
X102676750Y-101764307D01*
X102166180Y-100353875D01*
G37*
%TD.AperFunction*%
%TA.AperFunction,SMDPad,CuDef*%
%TO.P,D5,4*%
%TO.N,Net-(D3-Pad2)*%
G36*
X106842962Y-103872073D02*
G01*
X107783250Y-103531693D01*
X108293820Y-104942125D01*
X107353532Y-105282505D01*
X106842962Y-103872073D01*
G37*
%TD.AperFunction*%
%TA.AperFunction,SMDPad,CuDef*%
%TO.P,D5,3*%
%TO.N,GND*%
G36*
X103834040Y-104961287D02*
G01*
X104774328Y-104620907D01*
X105284898Y-106031339D01*
X104344610Y-106371719D01*
X103834040Y-104961287D01*
G37*
%TD.AperFunction*%
%TD*%
%TA.AperFunction,SMDPad,CuDef*%
%TO.P,D4,1*%
%TO.N,+5V*%
G36*
X153732081Y-56713833D02*
G01*
X153428048Y-57666495D01*
X151999055Y-57210445D01*
X152303088Y-56257783D01*
X153732081Y-56713833D01*
G37*
%TD.AperFunction*%
%TA.AperFunction,SMDPad,CuDef*%
%TO.P,D4,2*%
%TO.N,Net-(D4-Pad2)*%
G36*
X154704987Y-53665317D02*
G01*
X154400954Y-54617979D01*
X152971961Y-54161929D01*
X153275994Y-53209267D01*
X154704987Y-53665317D01*
G37*
%TD.AperFunction*%
%TA.AperFunction,SMDPad,CuDef*%
%TO.P,D4,4*%
%TO.N,Net-(D2-Pad2)*%
G36*
X149064039Y-55224071D02*
G01*
X148760006Y-56176733D01*
X147331013Y-55720683D01*
X147635046Y-54768021D01*
X149064039Y-55224071D01*
G37*
%TD.AperFunction*%
%TA.AperFunction,SMDPad,CuDef*%
%TO.P,D4,3*%
%TO.N,GND*%
G36*
X150036945Y-52175555D02*
G01*
X149732912Y-53128217D01*
X148303919Y-52672167D01*
X148607952Y-51719505D01*
X150036945Y-52175555D01*
G37*
%TD.AperFunction*%
%TD*%
%TA.AperFunction,SMDPad,CuDef*%
%TO.P,D3,1*%
%TO.N,+5V*%
G36*
X107738909Y-106063803D02*
G01*
X108591549Y-105541305D01*
X109375297Y-106820265D01*
X108522657Y-107342763D01*
X107738909Y-106063803D01*
G37*
%TD.AperFunction*%
%TA.AperFunction,SMDPad,CuDef*%
%TO.P,D3,2*%
%TO.N,Net-(D3-Pad2)*%
G36*
X105010460Y-107735798D02*
G01*
X105863100Y-107213300D01*
X106646848Y-108492260D01*
X105794208Y-109014758D01*
X105010460Y-107735798D01*
G37*
%TD.AperFunction*%
%TA.AperFunction,SMDPad,CuDef*%
%TO.P,D3,4*%
%TO.N,Net-(D1-Pad2)*%
G36*
X110299152Y-110241740D02*
G01*
X111151792Y-109719242D01*
X111935540Y-110998202D01*
X111082900Y-111520700D01*
X110299152Y-110241740D01*
G37*
%TD.AperFunction*%
%TA.AperFunction,SMDPad,CuDef*%
%TO.P,D3,3*%
%TO.N,GND*%
G36*
X107570703Y-111913735D02*
G01*
X108423343Y-111391237D01*
X109207091Y-112670197D01*
X108354451Y-113192695D01*
X107570703Y-111913735D01*
G37*
%TD.AperFunction*%
%TD*%
%TA.AperFunction,SMDPad,CuDef*%
%TO.P,D2,1*%
%TO.N,+5V*%
G36*
X146818990Y-54624817D02*
G01*
X146712726Y-55619155D01*
X145221220Y-55459759D01*
X145327484Y-54465421D01*
X146818990Y-54624817D01*
G37*
%TD.AperFunction*%
%TA.AperFunction,SMDPad,CuDef*%
%TO.P,D2,2*%
%TO.N,Net-(D2-Pad2)*%
G36*
X147159035Y-51442935D02*
G01*
X147052771Y-52437273D01*
X145561265Y-52277877D01*
X145667529Y-51283539D01*
X147159035Y-51442935D01*
G37*
%TD.AperFunction*%
%TA.AperFunction,SMDPad,CuDef*%
%TO.P,D2,4*%
%TO.N,Net-(D2-Pad4)*%
G36*
X141946735Y-54104123D02*
G01*
X141840471Y-55098461D01*
X140348965Y-54939065D01*
X140455229Y-53944727D01*
X141946735Y-54104123D01*
G37*
%TD.AperFunction*%
%TA.AperFunction,SMDPad,CuDef*%
%TO.P,D2,3*%
%TO.N,GND*%
G36*
X142286780Y-50922241D02*
G01*
X142180516Y-51916579D01*
X140689010Y-51757183D01*
X140795274Y-50762845D01*
X142286780Y-50922241D01*
G37*
%TD.AperFunction*%
%TD*%
%TA.AperFunction,SMDPad,CuDef*%
%TO.P,D1,1*%
%TO.N,+5V*%
G36*
X111616703Y-112209879D02*
G01*
X112346865Y-111526605D01*
X113371775Y-112621849D01*
X112641613Y-113305123D01*
X111616703Y-112209879D01*
G37*
%TD.AperFunction*%
%TA.AperFunction,SMDPad,CuDef*%
%TO.P,D1,2*%
%TO.N,Net-(D1-Pad2)*%
G36*
X109280184Y-114396355D02*
G01*
X110010346Y-113713081D01*
X111035256Y-114808325D01*
X110305094Y-115491599D01*
X109280184Y-114396355D01*
G37*
%TD.AperFunction*%
%TA.AperFunction,SMDPad,CuDef*%
%TO.P,D1,4*%
%TO.N,/LED*%
G36*
X114964744Y-115787675D02*
G01*
X115694906Y-115104401D01*
X116719816Y-116199645D01*
X115989654Y-116882919D01*
X114964744Y-115787675D01*
G37*
%TD.AperFunction*%
%TA.AperFunction,SMDPad,CuDef*%
%TO.P,D1,3*%
%TO.N,GND*%
G36*
X112628225Y-117974151D02*
G01*
X113358387Y-117290877D01*
X114383297Y-118386121D01*
X113653135Y-119069395D01*
X112628225Y-117974151D01*
G37*
%TD.AperFunction*%
%TD*%
%TO.P,C33,2*%
%TO.N,+5V*%
%TA.AperFunction,SMDPad,CuDef*%
G36*
G01*
X170850000Y-102025000D02*
X171350000Y-102025000D01*
G75*
G02*
X171575000Y-102250000I0J-225000D01*
G01*
X171575000Y-102700000D01*
G75*
G02*
X171350000Y-102925000I-225000J0D01*
G01*
X170850000Y-102925000D01*
G75*
G02*
X170625000Y-102700000I0J225000D01*
G01*
X170625000Y-102250000D01*
G75*
G02*
X170850000Y-102025000I225000J0D01*
G01*
G37*
%TD.AperFunction*%
%TO.P,C33,1*%
%TO.N,GND*%
%TA.AperFunction,SMDPad,CuDef*%
G36*
G01*
X170850000Y-100475000D02*
X171350000Y-100475000D01*
G75*
G02*
X171575000Y-100700000I0J-225000D01*
G01*
X171575000Y-101150000D01*
G75*
G02*
X171350000Y-101375000I-225000J0D01*
G01*
X170850000Y-101375000D01*
G75*
G02*
X170625000Y-101150000I0J225000D01*
G01*
X170625000Y-100700000D01*
G75*
G02*
X170850000Y-100475000I225000J0D01*
G01*
G37*
%TD.AperFunction*%
%TD*%
%TO.P,C32,2*%
%TO.N,+5V*%
%TA.AperFunction,SMDPad,CuDef*%
G36*
G01*
X155753033Y-61206587D02*
X156106587Y-60853033D01*
G75*
G02*
X156424785Y-60853033I159099J-159099D01*
G01*
X156742983Y-61171231D01*
G75*
G02*
X156742983Y-61489429I-159099J-159099D01*
G01*
X156389429Y-61842983D01*
G75*
G02*
X156071231Y-61842983I-159099J159099D01*
G01*
X155753033Y-61524785D01*
G75*
G02*
X155753033Y-61206587I159099J159099D01*
G01*
G37*
%TD.AperFunction*%
%TO.P,C32,1*%
%TO.N,GND*%
%TA.AperFunction,SMDPad,CuDef*%
G36*
G01*
X154657017Y-60110571D02*
X155010571Y-59757017D01*
G75*
G02*
X155328769Y-59757017I159099J-159099D01*
G01*
X155646967Y-60075215D01*
G75*
G02*
X155646967Y-60393413I-159099J-159099D01*
G01*
X155293413Y-60746967D01*
G75*
G02*
X154975215Y-60746967I-159099J159099D01*
G01*
X154657017Y-60428769D01*
G75*
G02*
X154657017Y-60110571I159099J159099D01*
G01*
G37*
%TD.AperFunction*%
%TD*%
%TO.P,C31,2*%
%TO.N,+5V*%
%TA.AperFunction,SMDPad,CuDef*%
G36*
G01*
X161353033Y-64806587D02*
X161706587Y-64453033D01*
G75*
G02*
X162024785Y-64453033I159099J-159099D01*
G01*
X162342983Y-64771231D01*
G75*
G02*
X162342983Y-65089429I-159099J-159099D01*
G01*
X161989429Y-65442983D01*
G75*
G02*
X161671231Y-65442983I-159099J159099D01*
G01*
X161353033Y-65124785D01*
G75*
G02*
X161353033Y-64806587I159099J159099D01*
G01*
G37*
%TD.AperFunction*%
%TO.P,C31,1*%
%TO.N,GND*%
%TA.AperFunction,SMDPad,CuDef*%
G36*
G01*
X160257017Y-63710571D02*
X160610571Y-63357017D01*
G75*
G02*
X160928769Y-63357017I159099J-159099D01*
G01*
X161246967Y-63675215D01*
G75*
G02*
X161246967Y-63993413I-159099J-159099D01*
G01*
X160893413Y-64346967D01*
G75*
G02*
X160575215Y-64346967I-159099J159099D01*
G01*
X160257017Y-64028769D01*
G75*
G02*
X160257017Y-63710571I159099J159099D01*
G01*
G37*
%TD.AperFunction*%
%TD*%
%TO.P,C30,2*%
%TO.N,+5V*%
%TA.AperFunction,SMDPad,CuDef*%
G36*
G01*
X163993413Y-112253033D02*
X164346967Y-112606587D01*
G75*
G02*
X164346967Y-112924785I-159099J-159099D01*
G01*
X164028769Y-113242983D01*
G75*
G02*
X163710571Y-113242983I-159099J159099D01*
G01*
X163357017Y-112889429D01*
G75*
G02*
X163357017Y-112571231I159099J159099D01*
G01*
X163675215Y-112253033D01*
G75*
G02*
X163993413Y-112253033I159099J-159099D01*
G01*
G37*
%TD.AperFunction*%
%TO.P,C30,1*%
%TO.N,GND*%
%TA.AperFunction,SMDPad,CuDef*%
G36*
G01*
X165089429Y-111157017D02*
X165442983Y-111510571D01*
G75*
G02*
X165442983Y-111828769I-159099J-159099D01*
G01*
X165124785Y-112146967D01*
G75*
G02*
X164806587Y-112146967I-159099J159099D01*
G01*
X164453033Y-111793413D01*
G75*
G02*
X164453033Y-111475215I159099J159099D01*
G01*
X164771231Y-111157017D01*
G75*
G02*
X165089429Y-111157017I159099J-159099D01*
G01*
G37*
%TD.AperFunction*%
%TD*%
%TO.P,C29,2*%
%TO.N,+5V*%
%TA.AperFunction,SMDPad,CuDef*%
G36*
G01*
X143425000Y-56950000D02*
X143425000Y-56450000D01*
G75*
G02*
X143650000Y-56225000I225000J0D01*
G01*
X144100000Y-56225000D01*
G75*
G02*
X144325000Y-56450000I0J-225000D01*
G01*
X144325000Y-56950000D01*
G75*
G02*
X144100000Y-57175000I-225000J0D01*
G01*
X143650000Y-57175000D01*
G75*
G02*
X143425000Y-56950000I0J225000D01*
G01*
G37*
%TD.AperFunction*%
%TO.P,C29,1*%
%TO.N,GND*%
%TA.AperFunction,SMDPad,CuDef*%
G36*
G01*
X141875000Y-56950000D02*
X141875000Y-56450000D01*
G75*
G02*
X142100000Y-56225000I225000J0D01*
G01*
X142550000Y-56225000D01*
G75*
G02*
X142775000Y-56450000I0J-225000D01*
G01*
X142775000Y-56950000D01*
G75*
G02*
X142550000Y-57175000I-225000J0D01*
G01*
X142100000Y-57175000D01*
G75*
G02*
X141875000Y-56950000I0J225000D01*
G01*
G37*
%TD.AperFunction*%
%TD*%
%TO.P,C28,2*%
%TO.N,+5V*%
%TA.AperFunction,SMDPad,CuDef*%
G36*
G01*
X114006587Y-69946967D02*
X113653033Y-69593413D01*
G75*
G02*
X113653033Y-69275215I159099J159099D01*
G01*
X113971231Y-68957017D01*
G75*
G02*
X114289429Y-68957017I159099J-159099D01*
G01*
X114642983Y-69310571D01*
G75*
G02*
X114642983Y-69628769I-159099J-159099D01*
G01*
X114324785Y-69946967D01*
G75*
G02*
X114006587Y-69946967I-159099J159099D01*
G01*
G37*
%TD.AperFunction*%
%TO.P,C28,1*%
%TO.N,GND*%
%TA.AperFunction,SMDPad,CuDef*%
G36*
G01*
X112910571Y-71042983D02*
X112557017Y-70689429D01*
G75*
G02*
X112557017Y-70371231I159099J159099D01*
G01*
X112875215Y-70053033D01*
G75*
G02*
X113193413Y-70053033I159099J-159099D01*
G01*
X113546967Y-70406587D01*
G75*
G02*
X113546967Y-70724785I-159099J-159099D01*
G01*
X113228769Y-71042983D01*
G75*
G02*
X112910571Y-71042983I-159099J159099D01*
G01*
G37*
%TD.AperFunction*%
%TD*%
%TO.P,C27,2*%
%TO.N,+5V*%
%TA.AperFunction,SMDPad,CuDef*%
G36*
G01*
X149725000Y-58650000D02*
X149725000Y-58150000D01*
G75*
G02*
X149950000Y-57925000I225000J0D01*
G01*
X150400000Y-57925000D01*
G75*
G02*
X150625000Y-58150000I0J-225000D01*
G01*
X150625000Y-58650000D01*
G75*
G02*
X150400000Y-58875000I-225000J0D01*
G01*
X149950000Y-58875000D01*
G75*
G02*
X149725000Y-58650000I0J225000D01*
G01*
G37*
%TD.AperFunction*%
%TO.P,C27,1*%
%TO.N,GND*%
%TA.AperFunction,SMDPad,CuDef*%
G36*
G01*
X148175000Y-58650000D02*
X148175000Y-58150000D01*
G75*
G02*
X148400000Y-57925000I225000J0D01*
G01*
X148850000Y-57925000D01*
G75*
G02*
X149075000Y-58150000I0J-225000D01*
G01*
X149075000Y-58650000D01*
G75*
G02*
X148850000Y-58875000I-225000J0D01*
G01*
X148400000Y-58875000D01*
G75*
G02*
X148175000Y-58650000I0J225000D01*
G01*
G37*
%TD.AperFunction*%
%TD*%
%TO.P,C26,2*%
%TO.N,+5V*%
%TA.AperFunction,SMDPad,CuDef*%
G36*
G01*
X136525000Y-57150000D02*
X136525000Y-56650000D01*
G75*
G02*
X136750000Y-56425000I225000J0D01*
G01*
X137200000Y-56425000D01*
G75*
G02*
X137425000Y-56650000I0J-225000D01*
G01*
X137425000Y-57150000D01*
G75*
G02*
X137200000Y-57375000I-225000J0D01*
G01*
X136750000Y-57375000D01*
G75*
G02*
X136525000Y-57150000I0J225000D01*
G01*
G37*
%TD.AperFunction*%
%TO.P,C26,1*%
%TO.N,GND*%
%TA.AperFunction,SMDPad,CuDef*%
G36*
G01*
X134975000Y-57150000D02*
X134975000Y-56650000D01*
G75*
G02*
X135200000Y-56425000I225000J0D01*
G01*
X135650000Y-56425000D01*
G75*
G02*
X135875000Y-56650000I0J-225000D01*
G01*
X135875000Y-57150000D01*
G75*
G02*
X135650000Y-57375000I-225000J0D01*
G01*
X135200000Y-57375000D01*
G75*
G02*
X134975000Y-57150000I0J225000D01*
G01*
G37*
%TD.AperFunction*%
%TD*%
%TO.P,C25,2*%
%TO.N,+5V*%
%TA.AperFunction,SMDPad,CuDef*%
G36*
G01*
X130050000Y-58750000D02*
X130050000Y-58250000D01*
G75*
G02*
X130275000Y-58025000I225000J0D01*
G01*
X130725000Y-58025000D01*
G75*
G02*
X130950000Y-58250000I0J-225000D01*
G01*
X130950000Y-58750000D01*
G75*
G02*
X130725000Y-58975000I-225000J0D01*
G01*
X130275000Y-58975000D01*
G75*
G02*
X130050000Y-58750000I0J225000D01*
G01*
G37*
%TD.AperFunction*%
%TO.P,C25,1*%
%TO.N,GND*%
%TA.AperFunction,SMDPad,CuDef*%
G36*
G01*
X128500000Y-58750000D02*
X128500000Y-58250000D01*
G75*
G02*
X128725000Y-58025000I225000J0D01*
G01*
X129175000Y-58025000D01*
G75*
G02*
X129400000Y-58250000I0J-225000D01*
G01*
X129400000Y-58750000D01*
G75*
G02*
X129175000Y-58975000I-225000J0D01*
G01*
X128725000Y-58975000D01*
G75*
G02*
X128500000Y-58750000I0J225000D01*
G01*
G37*
%TD.AperFunction*%
%TD*%
%TO.P,C24,2*%
%TO.N,+5V*%
%TA.AperFunction,SMDPad,CuDef*%
G36*
G01*
X111154595Y-75398959D02*
X110801041Y-75045405D01*
G75*
G02*
X110801041Y-74727207I159099J159099D01*
G01*
X111119239Y-74409009D01*
G75*
G02*
X111437437Y-74409009I159099J-159099D01*
G01*
X111790991Y-74762563D01*
G75*
G02*
X111790991Y-75080761I-159099J-159099D01*
G01*
X111472793Y-75398959D01*
G75*
G02*
X111154595Y-75398959I-159099J159099D01*
G01*
G37*
%TD.AperFunction*%
%TO.P,C24,1*%
%TO.N,GND*%
%TA.AperFunction,SMDPad,CuDef*%
G36*
G01*
X110058579Y-76494975D02*
X109705025Y-76141421D01*
G75*
G02*
X109705025Y-75823223I159099J159099D01*
G01*
X110023223Y-75505025D01*
G75*
G02*
X110341421Y-75505025I159099J-159099D01*
G01*
X110694975Y-75858579D01*
G75*
G02*
X110694975Y-76176777I-159099J-159099D01*
G01*
X110376777Y-76494975D01*
G75*
G02*
X110058579Y-76494975I-159099J159099D01*
G01*
G37*
%TD.AperFunction*%
%TD*%
%TO.P,C23,2*%
%TO.N,+5V*%
%TA.AperFunction,SMDPad,CuDef*%
G36*
G01*
X124106587Y-60946967D02*
X123753033Y-60593413D01*
G75*
G02*
X123753033Y-60275215I159099J159099D01*
G01*
X124071231Y-59957017D01*
G75*
G02*
X124389429Y-59957017I159099J-159099D01*
G01*
X124742983Y-60310571D01*
G75*
G02*
X124742983Y-60628769I-159099J-159099D01*
G01*
X124424785Y-60946967D01*
G75*
G02*
X124106587Y-60946967I-159099J159099D01*
G01*
G37*
%TD.AperFunction*%
%TO.P,C23,1*%
%TO.N,GND*%
%TA.AperFunction,SMDPad,CuDef*%
G36*
G01*
X123010571Y-62042983D02*
X122657017Y-61689429D01*
G75*
G02*
X122657017Y-61371231I159099J159099D01*
G01*
X122975215Y-61053033D01*
G75*
G02*
X123293413Y-61053033I159099J-159099D01*
G01*
X123646967Y-61406587D01*
G75*
G02*
X123646967Y-61724785I-159099J-159099D01*
G01*
X123328769Y-62042983D01*
G75*
G02*
X123010571Y-62042983I-159099J159099D01*
G01*
G37*
%TD.AperFunction*%
%TD*%
%TO.P,C22,2*%
%TO.N,+5V*%
%TA.AperFunction,SMDPad,CuDef*%
G36*
G01*
X108350000Y-81475000D02*
X107850000Y-81475000D01*
G75*
G02*
X107625000Y-81250000I0J225000D01*
G01*
X107625000Y-80800000D01*
G75*
G02*
X107850000Y-80575000I225000J0D01*
G01*
X108350000Y-80575000D01*
G75*
G02*
X108575000Y-80800000I0J-225000D01*
G01*
X108575000Y-81250000D01*
G75*
G02*
X108350000Y-81475000I-225000J0D01*
G01*
G37*
%TD.AperFunction*%
%TO.P,C22,1*%
%TO.N,GND*%
%TA.AperFunction,SMDPad,CuDef*%
G36*
G01*
X108350000Y-83025000D02*
X107850000Y-83025000D01*
G75*
G02*
X107625000Y-82800000I0J225000D01*
G01*
X107625000Y-82350000D01*
G75*
G02*
X107850000Y-82125000I225000J0D01*
G01*
X108350000Y-82125000D01*
G75*
G02*
X108575000Y-82350000I0J-225000D01*
G01*
X108575000Y-82800000D01*
G75*
G02*
X108350000Y-83025000I-225000J0D01*
G01*
G37*
%TD.AperFunction*%
%TD*%
%TO.P,C21,2*%
%TO.N,+5V*%
%TA.AperFunction,SMDPad,CuDef*%
G36*
G01*
X118906587Y-64746967D02*
X118553033Y-64393413D01*
G75*
G02*
X118553033Y-64075215I159099J159099D01*
G01*
X118871231Y-63757017D01*
G75*
G02*
X119189429Y-63757017I159099J-159099D01*
G01*
X119542983Y-64110571D01*
G75*
G02*
X119542983Y-64428769I-159099J-159099D01*
G01*
X119224785Y-64746967D01*
G75*
G02*
X118906587Y-64746967I-159099J159099D01*
G01*
G37*
%TD.AperFunction*%
%TO.P,C21,1*%
%TO.N,GND*%
%TA.AperFunction,SMDPad,CuDef*%
G36*
G01*
X117810571Y-65842983D02*
X117457017Y-65489429D01*
G75*
G02*
X117457017Y-65171231I159099J159099D01*
G01*
X117775215Y-64853033D01*
G75*
G02*
X118093413Y-64853033I159099J-159099D01*
G01*
X118446967Y-65206587D01*
G75*
G02*
X118446967Y-65524785I-159099J-159099D01*
G01*
X118128769Y-65842983D01*
G75*
G02*
X117810571Y-65842983I-159099J159099D01*
G01*
G37*
%TD.AperFunction*%
%TD*%
%TO.P,C20,2*%
%TO.N,+5V*%
%TA.AperFunction,SMDPad,CuDef*%
G36*
G01*
X171550000Y-81425000D02*
X172050000Y-81425000D01*
G75*
G02*
X172275000Y-81650000I0J-225000D01*
G01*
X172275000Y-82100000D01*
G75*
G02*
X172050000Y-82325000I-225000J0D01*
G01*
X171550000Y-82325000D01*
G75*
G02*
X171325000Y-82100000I0J225000D01*
G01*
X171325000Y-81650000D01*
G75*
G02*
X171550000Y-81425000I225000J0D01*
G01*
G37*
%TD.AperFunction*%
%TO.P,C20,1*%
%TO.N,GND*%
%TA.AperFunction,SMDPad,CuDef*%
G36*
G01*
X171550000Y-79875000D02*
X172050000Y-79875000D01*
G75*
G02*
X172275000Y-80100000I0J-225000D01*
G01*
X172275000Y-80550000D01*
G75*
G02*
X172050000Y-80775000I-225000J0D01*
G01*
X171550000Y-80775000D01*
G75*
G02*
X171325000Y-80550000I0J225000D01*
G01*
X171325000Y-80100000D01*
G75*
G02*
X171550000Y-79875000I225000J0D01*
G01*
G37*
%TD.AperFunction*%
%TD*%
%TO.P,C19,2*%
%TO.N,+5V*%
%TA.AperFunction,SMDPad,CuDef*%
G36*
G01*
X166253033Y-69806587D02*
X166606587Y-69453033D01*
G75*
G02*
X166924785Y-69453033I159099J-159099D01*
G01*
X167242983Y-69771231D01*
G75*
G02*
X167242983Y-70089429I-159099J-159099D01*
G01*
X166889429Y-70442983D01*
G75*
G02*
X166571231Y-70442983I-159099J159099D01*
G01*
X166253033Y-70124785D01*
G75*
G02*
X166253033Y-69806587I159099J159099D01*
G01*
G37*
%TD.AperFunction*%
%TO.P,C19,1*%
%TO.N,GND*%
%TA.AperFunction,SMDPad,CuDef*%
G36*
G01*
X165157017Y-68710571D02*
X165510571Y-68357017D01*
G75*
G02*
X165828769Y-68357017I159099J-159099D01*
G01*
X166146967Y-68675215D01*
G75*
G02*
X166146967Y-68993413I-159099J-159099D01*
G01*
X165793413Y-69346967D01*
G75*
G02*
X165475215Y-69346967I-159099J159099D01*
G01*
X165157017Y-69028769D01*
G75*
G02*
X165157017Y-68710571I159099J159099D01*
G01*
G37*
%TD.AperFunction*%
%TD*%
%TO.P,C18,2*%
%TO.N,+5V*%
%TA.AperFunction,SMDPad,CuDef*%
G36*
G01*
X173050000Y-88300000D02*
X173550000Y-88300000D01*
G75*
G02*
X173775000Y-88525000I0J-225000D01*
G01*
X173775000Y-88975000D01*
G75*
G02*
X173550000Y-89200000I-225000J0D01*
G01*
X173050000Y-89200000D01*
G75*
G02*
X172825000Y-88975000I0J225000D01*
G01*
X172825000Y-88525000D01*
G75*
G02*
X173050000Y-88300000I225000J0D01*
G01*
G37*
%TD.AperFunction*%
%TO.P,C18,1*%
%TO.N,GND*%
%TA.AperFunction,SMDPad,CuDef*%
G36*
G01*
X173050000Y-86750000D02*
X173550000Y-86750000D01*
G75*
G02*
X173775000Y-86975000I0J-225000D01*
G01*
X173775000Y-87425000D01*
G75*
G02*
X173550000Y-87650000I-225000J0D01*
G01*
X173050000Y-87650000D01*
G75*
G02*
X172825000Y-87425000I0J225000D01*
G01*
X172825000Y-86975000D01*
G75*
G02*
X173050000Y-86750000I225000J0D01*
G01*
G37*
%TD.AperFunction*%
%TD*%
%TO.P,C17,2*%
%TO.N,+5V*%
%TA.AperFunction,SMDPad,CuDef*%
G36*
G01*
X172350000Y-95225000D02*
X172850000Y-95225000D01*
G75*
G02*
X173075000Y-95450000I0J-225000D01*
G01*
X173075000Y-95900000D01*
G75*
G02*
X172850000Y-96125000I-225000J0D01*
G01*
X172350000Y-96125000D01*
G75*
G02*
X172125000Y-95900000I0J225000D01*
G01*
X172125000Y-95450000D01*
G75*
G02*
X172350000Y-95225000I225000J0D01*
G01*
G37*
%TD.AperFunction*%
%TO.P,C17,1*%
%TO.N,GND*%
%TA.AperFunction,SMDPad,CuDef*%
G36*
G01*
X172350000Y-93675000D02*
X172850000Y-93675000D01*
G75*
G02*
X173075000Y-93900000I0J-225000D01*
G01*
X173075000Y-94350000D01*
G75*
G02*
X172850000Y-94575000I-225000J0D01*
G01*
X172350000Y-94575000D01*
G75*
G02*
X172125000Y-94350000I0J225000D01*
G01*
X172125000Y-93900000D01*
G75*
G02*
X172350000Y-93675000I225000J0D01*
G01*
G37*
%TD.AperFunction*%
%TD*%
%TO.P,C16,2*%
%TO.N,+5V*%
%TA.AperFunction,SMDPad,CuDef*%
G36*
G01*
X169753033Y-75706587D02*
X170106587Y-75353033D01*
G75*
G02*
X170424785Y-75353033I159099J-159099D01*
G01*
X170742983Y-75671231D01*
G75*
G02*
X170742983Y-75989429I-159099J-159099D01*
G01*
X170389429Y-76342983D01*
G75*
G02*
X170071231Y-76342983I-159099J159099D01*
G01*
X169753033Y-76024785D01*
G75*
G02*
X169753033Y-75706587I159099J159099D01*
G01*
G37*
%TD.AperFunction*%
%TO.P,C16,1*%
%TO.N,GND*%
%TA.AperFunction,SMDPad,CuDef*%
G36*
G01*
X168657017Y-74610571D02*
X169010571Y-74257017D01*
G75*
G02*
X169328769Y-74257017I159099J-159099D01*
G01*
X169646967Y-74575215D01*
G75*
G02*
X169646967Y-74893413I-159099J-159099D01*
G01*
X169293413Y-75246967D01*
G75*
G02*
X168975215Y-75246967I-159099J159099D01*
G01*
X168657017Y-74928769D01*
G75*
G02*
X168657017Y-74610571I159099J159099D01*
G01*
G37*
%TD.AperFunction*%
%TD*%
%TO.P,C15,2*%
%TO.N,+5V*%
%TA.AperFunction,SMDPad,CuDef*%
G36*
G01*
X111746967Y-106693413D02*
X111393413Y-107046967D01*
G75*
G02*
X111075215Y-107046967I-159099J159099D01*
G01*
X110757017Y-106728769D01*
G75*
G02*
X110757017Y-106410571I159099J159099D01*
G01*
X111110571Y-106057017D01*
G75*
G02*
X111428769Y-106057017I159099J-159099D01*
G01*
X111746967Y-106375215D01*
G75*
G02*
X111746967Y-106693413I-159099J-159099D01*
G01*
G37*
%TD.AperFunction*%
%TO.P,C15,1*%
%TO.N,GND*%
%TA.AperFunction,SMDPad,CuDef*%
G36*
G01*
X112842983Y-107789429D02*
X112489429Y-108142983D01*
G75*
G02*
X112171231Y-108142983I-159099J159099D01*
G01*
X111853033Y-107824785D01*
G75*
G02*
X111853033Y-107506587I159099J159099D01*
G01*
X112206587Y-107153033D01*
G75*
G02*
X112524785Y-107153033I159099J-159099D01*
G01*
X112842983Y-107471231D01*
G75*
G02*
X112842983Y-107789429I-159099J-159099D01*
G01*
G37*
%TD.AperFunction*%
%TD*%
%TO.P,C14,2*%
%TO.N,+5V*%
%TA.AperFunction,SMDPad,CuDef*%
G36*
G01*
X168293413Y-106853033D02*
X168646967Y-107206587D01*
G75*
G02*
X168646967Y-107524785I-159099J-159099D01*
G01*
X168328769Y-107842983D01*
G75*
G02*
X168010571Y-107842983I-159099J159099D01*
G01*
X167657017Y-107489429D01*
G75*
G02*
X167657017Y-107171231I159099J159099D01*
G01*
X167975215Y-106853033D01*
G75*
G02*
X168293413Y-106853033I159099J-159099D01*
G01*
G37*
%TD.AperFunction*%
%TO.P,C14,1*%
%TO.N,GND*%
%TA.AperFunction,SMDPad,CuDef*%
G36*
G01*
X169389429Y-105757017D02*
X169742983Y-106110571D01*
G75*
G02*
X169742983Y-106428769I-159099J-159099D01*
G01*
X169424785Y-106746967D01*
G75*
G02*
X169106587Y-106746967I-159099J159099D01*
G01*
X168753033Y-106393413D01*
G75*
G02*
X168753033Y-106075215I159099J159099D01*
G01*
X169071231Y-105757017D01*
G75*
G02*
X169389429Y-105757017I159099J-159099D01*
G01*
G37*
%TD.AperFunction*%
%TD*%
%TO.P,C13,2*%
%TO.N,+5V*%
%TA.AperFunction,SMDPad,CuDef*%
G36*
G01*
X109450000Y-101475000D02*
X108950000Y-101475000D01*
G75*
G02*
X108725000Y-101250000I0J225000D01*
G01*
X108725000Y-100800000D01*
G75*
G02*
X108950000Y-100575000I225000J0D01*
G01*
X109450000Y-100575000D01*
G75*
G02*
X109675000Y-100800000I0J-225000D01*
G01*
X109675000Y-101250000D01*
G75*
G02*
X109450000Y-101475000I-225000J0D01*
G01*
G37*
%TD.AperFunction*%
%TO.P,C13,1*%
%TO.N,GND*%
%TA.AperFunction,SMDPad,CuDef*%
G36*
G01*
X109450000Y-103025000D02*
X108950000Y-103025000D01*
G75*
G02*
X108725000Y-102800000I0J225000D01*
G01*
X108725000Y-102350000D01*
G75*
G02*
X108950000Y-102125000I225000J0D01*
G01*
X109450000Y-102125000D01*
G75*
G02*
X109675000Y-102350000I0J-225000D01*
G01*
X109675000Y-102800000D01*
G75*
G02*
X109450000Y-103025000I-225000J0D01*
G01*
G37*
%TD.AperFunction*%
%TD*%
%TO.P,C12,2*%
%TO.N,+5V*%
%TA.AperFunction,SMDPad,CuDef*%
G36*
G01*
X115746967Y-112193413D02*
X115393413Y-112546967D01*
G75*
G02*
X115075215Y-112546967I-159099J159099D01*
G01*
X114757017Y-112228769D01*
G75*
G02*
X114757017Y-111910571I159099J159099D01*
G01*
X115110571Y-111557017D01*
G75*
G02*
X115428769Y-111557017I159099J-159099D01*
G01*
X115746967Y-111875215D01*
G75*
G02*
X115746967Y-112193413I-159099J-159099D01*
G01*
G37*
%TD.AperFunction*%
%TO.P,C12,1*%
%TO.N,GND*%
%TA.AperFunction,SMDPad,CuDef*%
G36*
G01*
X116842983Y-113289429D02*
X116489429Y-113642983D01*
G75*
G02*
X116171231Y-113642983I-159099J159099D01*
G01*
X115853033Y-113324785D01*
G75*
G02*
X115853033Y-113006587I159099J159099D01*
G01*
X116206587Y-112653033D01*
G75*
G02*
X116524785Y-112653033I159099J-159099D01*
G01*
X116842983Y-112971231D01*
G75*
G02*
X116842983Y-113289429I-159099J-159099D01*
G01*
G37*
%TD.AperFunction*%
%TD*%
%TO.P,C11,2*%
%TO.N,+5V*%
%TA.AperFunction,SMDPad,CuDef*%
G36*
G01*
X107550000Y-92175000D02*
X107050000Y-92175000D01*
G75*
G02*
X106825000Y-91950000I0J225000D01*
G01*
X106825000Y-91500000D01*
G75*
G02*
X107050000Y-91275000I225000J0D01*
G01*
X107550000Y-91275000D01*
G75*
G02*
X107775000Y-91500000I0J-225000D01*
G01*
X107775000Y-91950000D01*
G75*
G02*
X107550000Y-92175000I-225000J0D01*
G01*
G37*
%TD.AperFunction*%
%TO.P,C11,1*%
%TO.N,GND*%
%TA.AperFunction,SMDPad,CuDef*%
G36*
G01*
X107550000Y-93725000D02*
X107050000Y-93725000D01*
G75*
G02*
X106825000Y-93500000I0J225000D01*
G01*
X106825000Y-93050000D01*
G75*
G02*
X107050000Y-92825000I225000J0D01*
G01*
X107550000Y-92825000D01*
G75*
G02*
X107775000Y-93050000I0J-225000D01*
G01*
X107775000Y-93500000D01*
G75*
G02*
X107550000Y-93725000I-225000J0D01*
G01*
G37*
%TD.AperFunction*%
%TD*%
%TO.P,C10,2*%
%TO.N,+5V*%
%TA.AperFunction,SMDPad,CuDef*%
G36*
G01*
X107350000Y-87850000D02*
X106850000Y-87850000D01*
G75*
G02*
X106625000Y-87625000I0J225000D01*
G01*
X106625000Y-87175000D01*
G75*
G02*
X106850000Y-86950000I225000J0D01*
G01*
X107350000Y-86950000D01*
G75*
G02*
X107575000Y-87175000I0J-225000D01*
G01*
X107575000Y-87625000D01*
G75*
G02*
X107350000Y-87850000I-225000J0D01*
G01*
G37*
%TD.AperFunction*%
%TO.P,C10,1*%
%TO.N,GND*%
%TA.AperFunction,SMDPad,CuDef*%
G36*
G01*
X107350000Y-89400000D02*
X106850000Y-89400000D01*
G75*
G02*
X106625000Y-89175000I0J225000D01*
G01*
X106625000Y-88725000D01*
G75*
G02*
X106850000Y-88500000I225000J0D01*
G01*
X107350000Y-88500000D01*
G75*
G02*
X107575000Y-88725000I0J-225000D01*
G01*
X107575000Y-89175000D01*
G75*
G02*
X107350000Y-89400000I-225000J0D01*
G01*
G37*
%TD.AperFunction*%
%TD*%
%TO.P,C9,2*%
%TO.N,GND*%
%TA.AperFunction,SMDPad,CuDef*%
G36*
G01*
X128675000Y-92250000D02*
X128675000Y-92750000D01*
G75*
G02*
X128450000Y-92975000I-225000J0D01*
G01*
X128000000Y-92975000D01*
G75*
G02*
X127775000Y-92750000I0J225000D01*
G01*
X127775000Y-92250000D01*
G75*
G02*
X128000000Y-92025000I225000J0D01*
G01*
X128450000Y-92025000D01*
G75*
G02*
X128675000Y-92250000I0J-225000D01*
G01*
G37*
%TD.AperFunction*%
%TO.P,C9,1*%
%TO.N,/ENC_B*%
%TA.AperFunction,SMDPad,CuDef*%
G36*
G01*
X130225000Y-92250000D02*
X130225000Y-92750000D01*
G75*
G02*
X130000000Y-92975000I-225000J0D01*
G01*
X129550000Y-92975000D01*
G75*
G02*
X129325000Y-92750000I0J225000D01*
G01*
X129325000Y-92250000D01*
G75*
G02*
X129550000Y-92025000I225000J0D01*
G01*
X130000000Y-92025000D01*
G75*
G02*
X130225000Y-92250000I0J-225000D01*
G01*
G37*
%TD.AperFunction*%
%TD*%
%TO.P,C8,2*%
%TO.N,GND*%
%TA.AperFunction,SMDPad,CuDef*%
G36*
G01*
X128675000Y-87250000D02*
X128675000Y-87750000D01*
G75*
G02*
X128450000Y-87975000I-225000J0D01*
G01*
X128000000Y-87975000D01*
G75*
G02*
X127775000Y-87750000I0J225000D01*
G01*
X127775000Y-87250000D01*
G75*
G02*
X128000000Y-87025000I225000J0D01*
G01*
X128450000Y-87025000D01*
G75*
G02*
X128675000Y-87250000I0J-225000D01*
G01*
G37*
%TD.AperFunction*%
%TO.P,C8,1*%
%TO.N,/ENC_A*%
%TA.AperFunction,SMDPad,CuDef*%
G36*
G01*
X130225000Y-87250000D02*
X130225000Y-87750000D01*
G75*
G02*
X130000000Y-87975000I-225000J0D01*
G01*
X129550000Y-87975000D01*
G75*
G02*
X129325000Y-87750000I0J225000D01*
G01*
X129325000Y-87250000D01*
G75*
G02*
X129550000Y-87025000I225000J0D01*
G01*
X130000000Y-87025000D01*
G75*
G02*
X130225000Y-87250000I0J-225000D01*
G01*
G37*
%TD.AperFunction*%
%TD*%
%TO.P,C6,2*%
%TO.N,GND*%
%TA.AperFunction,SMDPad,CuDef*%
G36*
G01*
X139200000Y-104149999D02*
X139200000Y-105450001D01*
G75*
G02*
X138950001Y-105700000I-249999J0D01*
G01*
X138299999Y-105700000D01*
G75*
G02*
X138050000Y-105450001I0J249999D01*
G01*
X138050000Y-104149999D01*
G75*
G02*
X138299999Y-103900000I249999J0D01*
G01*
X138950001Y-103900000D01*
G75*
G02*
X139200000Y-104149999I0J-249999D01*
G01*
G37*
%TD.AperFunction*%
%TO.P,C6,1*%
%TO.N,Net-(C6-Pad1)*%
%TA.AperFunction,SMDPad,CuDef*%
G36*
G01*
X142150000Y-104149999D02*
X142150000Y-105450001D01*
G75*
G02*
X141900001Y-105700000I-249999J0D01*
G01*
X141249999Y-105700000D01*
G75*
G02*
X141000000Y-105450001I0J249999D01*
G01*
X141000000Y-104149999D01*
G75*
G02*
X141249999Y-103900000I249999J0D01*
G01*
X141900001Y-103900000D01*
G75*
G02*
X142150000Y-104149999I0J-249999D01*
G01*
G37*
%TD.AperFunction*%
%TD*%
%TO.P,C3,2*%
%TO.N,GND*%
%TA.AperFunction,SMDPad,CuDef*%
G36*
G01*
X152750000Y-124675000D02*
X152250000Y-124675000D01*
G75*
G02*
X152025000Y-124450000I0J225000D01*
G01*
X152025000Y-124000000D01*
G75*
G02*
X152250000Y-123775000I225000J0D01*
G01*
X152750000Y-123775000D01*
G75*
G02*
X152975000Y-124000000I0J-225000D01*
G01*
X152975000Y-124450000D01*
G75*
G02*
X152750000Y-124675000I-225000J0D01*
G01*
G37*
%TD.AperFunction*%
%TO.P,C3,1*%
%TO.N,+3V3*%
%TA.AperFunction,SMDPad,CuDef*%
G36*
G01*
X152750000Y-126225000D02*
X152250000Y-126225000D01*
G75*
G02*
X152025000Y-126000000I0J225000D01*
G01*
X152025000Y-125550000D01*
G75*
G02*
X152250000Y-125325000I225000J0D01*
G01*
X152750000Y-125325000D01*
G75*
G02*
X152975000Y-125550000I0J-225000D01*
G01*
X152975000Y-126000000D01*
G75*
G02*
X152750000Y-126225000I-225000J0D01*
G01*
G37*
%TD.AperFunction*%
%TD*%
%TO.P,C1,2*%
%TO.N,GND*%
%TA.AperFunction,SMDPad,CuDef*%
G36*
G01*
X151250000Y-124675000D02*
X150750000Y-124675000D01*
G75*
G02*
X150525000Y-124450000I0J225000D01*
G01*
X150525000Y-124000000D01*
G75*
G02*
X150750000Y-123775000I225000J0D01*
G01*
X151250000Y-123775000D01*
G75*
G02*
X151475000Y-124000000I0J-225000D01*
G01*
X151475000Y-124450000D01*
G75*
G02*
X151250000Y-124675000I-225000J0D01*
G01*
G37*
%TD.AperFunction*%
%TO.P,C1,1*%
%TO.N,+3V3*%
%TA.AperFunction,SMDPad,CuDef*%
G36*
G01*
X151250000Y-126225000D02*
X150750000Y-126225000D01*
G75*
G02*
X150525000Y-126000000I0J225000D01*
G01*
X150525000Y-125550000D01*
G75*
G02*
X150750000Y-125325000I225000J0D01*
G01*
X151250000Y-125325000D01*
G75*
G02*
X151475000Y-125550000I0J-225000D01*
G01*
X151475000Y-126000000D01*
G75*
G02*
X151250000Y-126225000I-225000J0D01*
G01*
G37*
%TD.AperFunction*%
%TD*%
D32*
%TO.N,*%
X125000000Y-70000000D03*
D33*
X132000000Y-101000000D03*
D32*
X150000000Y-65000000D03*
D34*
%TO.N,GND*%
X112200000Y-90000000D03*
X112200000Y-87500000D03*
X112200000Y-84900000D03*
X119700000Y-103200000D03*
X119700000Y-101200000D03*
X133400000Y-105600000D03*
X133400000Y-107700000D03*
X135800000Y-109500000D03*
X131200000Y-109500000D03*
X135800000Y-104300000D03*
X131200000Y-104300000D03*
X117500000Y-104700000D03*
X122100000Y-104700000D03*
X122000000Y-99500000D03*
X117600000Y-99500000D03*
X157500000Y-91800000D03*
X157500000Y-87700000D03*
X157500000Y-89700000D03*
X159500000Y-89700000D03*
X155400000Y-89700000D03*
X155400000Y-91800000D03*
X159400000Y-91800000D03*
X159500000Y-87700000D03*
X155400000Y-87700000D03*
X168500000Y-114600000D03*
X172800000Y-108200000D03*
X175700000Y-101000000D03*
X178300000Y-94700000D03*
X178400000Y-86900000D03*
X176600000Y-79300000D03*
X173500000Y-72200000D03*
X169000000Y-65700000D03*
X163300000Y-60400000D03*
X156500000Y-56500000D03*
X149200000Y-53900000D03*
X143000000Y-51400000D03*
X135100000Y-52000000D03*
X127600000Y-53900000D03*
X120900000Y-57400000D03*
X114400000Y-62200000D03*
X109500000Y-68300000D03*
X105700000Y-75100000D03*
X103400000Y-82500000D03*
X101300000Y-88900000D03*
X102100000Y-96700000D03*
X104500000Y-104100000D03*
X108400000Y-110900000D03*
X113500000Y-116800000D03*
X122700000Y-81700000D03*
X151800000Y-82200000D03*
X165300000Y-82300000D03*
X152800000Y-98225000D03*
X156800000Y-106100000D03*
X159000000Y-107300000D03*
X151000000Y-123100000D03*
X152500000Y-123100000D03*
X150900000Y-121300000D03*
X150100000Y-121300000D03*
X141200000Y-103200000D03*
X147600000Y-100600000D03*
X127000000Y-92500000D03*
X127000000Y-87500000D03*
X140000000Y-104800000D03*
X112200000Y-82400000D03*
X144700000Y-108100000D03*
X145600000Y-108100000D03*
X146500000Y-108100000D03*
X147500000Y-108100000D03*
X144700000Y-112200000D03*
X145600000Y-112200000D03*
X146500000Y-112200000D03*
X147400000Y-112200000D03*
X142400000Y-78200000D03*
%TO.N,+3V3*%
X151800000Y-83500000D03*
X143500000Y-118600000D03*
X143500000Y-119400000D03*
X143500000Y-120200000D03*
X137300000Y-111700000D03*
X138200000Y-111700000D03*
X137300000Y-112600000D03*
X138200000Y-112600000D03*
X137300000Y-113500000D03*
X138200000Y-113500000D03*
X137300000Y-114400000D03*
X138200000Y-114400000D03*
X143000000Y-102000000D03*
X151100000Y-102100000D03*
X143200000Y-73100000D03*
X143200000Y-74400000D03*
X134300000Y-78200000D03*
%TO.N,+5V*%
X113400000Y-111500000D03*
X109500000Y-105500000D03*
X107200000Y-99200000D03*
X105800000Y-92600000D03*
X106300000Y-85600000D03*
X107800000Y-78600000D03*
X110600000Y-72800000D03*
X114600000Y-67400000D03*
X120000000Y-62600000D03*
X125900000Y-59200000D03*
X131700000Y-57100000D03*
X146000000Y-56700000D03*
X152900000Y-58600000D03*
X158000000Y-61500000D03*
X163700000Y-65800000D03*
X168300000Y-71200000D03*
X171600000Y-77600000D03*
X173200000Y-83300000D03*
X173700000Y-90500000D03*
X172600000Y-97400000D03*
X170400000Y-104300000D03*
X166900000Y-110500000D03*
X162900000Y-114600000D03*
X138800000Y-56400000D03*
X107700000Y-94500000D03*
X108600000Y-94500000D03*
X108600000Y-95400000D03*
X108600000Y-96300000D03*
X107700000Y-96300000D03*
X107700000Y-95400000D03*
X106800000Y-95400000D03*
X106800000Y-96300000D03*
X106800000Y-97200000D03*
X107700000Y-97200000D03*
X108600000Y-97200000D03*
X106800000Y-94500000D03*
%TO.N,/ENC_A*%
X147000000Y-95500000D03*
%TO.N,/ENC_B*%
X162000000Y-97500000D03*
%TO.N,/LED*%
X160900000Y-102300000D03*
X117400000Y-114700000D03*
%TO.N,Net-(R1-Pad1)*%
X146000000Y-119500000D03*
X146000000Y-114900000D03*
%TO.N,/Motor*%
X166000000Y-103500000D03*
X167499962Y-102000000D03*
%TO.N,/ENC_SW*%
X154000000Y-96300000D03*
%TO.N,Net-(RV1-Pad2)*%
X142500000Y-100500000D03*
X145530002Y-101500000D03*
%TO.N,/TX_ESP*%
X163100000Y-86000000D03*
X143800000Y-75600000D03*
%TO.N,/RX_ESP*%
X143200000Y-76900000D03*
X162200000Y-86700000D03*
%TD*%
D35*
%TO.N,GND*%
X114035000Y-89990000D02*
X112210000Y-89990000D01*
X114035000Y-87490000D02*
X112210000Y-87490000D01*
X114035000Y-84890000D02*
X112210000Y-84890000D01*
X169880136Y-114594239D02*
X168505761Y-114594239D01*
X174180136Y-108194239D02*
X172805761Y-108194239D01*
X177080136Y-100994239D02*
X175705761Y-100994239D01*
X178294239Y-93319864D02*
X178294239Y-94694239D01*
X178394239Y-85519864D02*
X178394239Y-86894239D01*
X176594239Y-77919864D02*
X176594239Y-79294239D01*
X173494239Y-70819864D02*
X173494239Y-72194239D01*
X168994239Y-64319864D02*
X168994239Y-65694239D01*
X163294239Y-59019864D02*
X163294239Y-60394239D01*
X156494239Y-55119864D02*
X156494239Y-56494239D01*
X149194239Y-52519864D02*
X149194239Y-53894239D01*
X141619864Y-51405761D02*
X142994239Y-51405761D01*
X133719864Y-52005761D02*
X135094239Y-52005761D01*
X126219864Y-53905761D02*
X127594239Y-53905761D01*
X119519864Y-57405761D02*
X120894239Y-57405761D01*
X113019864Y-62205761D02*
X114394239Y-62205761D01*
X108119864Y-68305761D02*
X109494239Y-68305761D01*
X104319864Y-75105761D02*
X105694239Y-75105761D01*
X102019864Y-82505761D02*
X103394239Y-82505761D01*
X101305761Y-90280136D02*
X101305761Y-88905761D01*
X102105761Y-98080136D02*
X102105761Y-96705761D01*
X104505761Y-105480136D02*
X104505761Y-104105761D01*
X108405761Y-112280136D02*
X108405761Y-110905761D01*
D36*
X149005000Y-122230000D02*
X151000000Y-124225000D01*
X148382000Y-122230000D02*
X149005000Y-122230000D01*
X151000000Y-124225000D02*
X152500000Y-124225000D01*
D35*
X113505761Y-116805761D02*
X113500000Y-116800000D01*
X113505761Y-118180136D02*
X113505761Y-116805761D01*
X128450000Y-80800000D02*
X124350000Y-80800000D01*
X123600000Y-80800000D02*
X122700000Y-81700000D01*
X124350000Y-80800000D02*
X123600000Y-80800000D01*
X151755000Y-82245000D02*
X151800000Y-82200000D01*
D36*
X150000000Y-82245000D02*
X151755000Y-82245000D01*
D35*
X165355000Y-82245000D02*
X165300000Y-82300000D01*
D36*
X167000000Y-82245000D02*
X165355000Y-82245000D01*
D35*
X152785000Y-98240000D02*
X152800000Y-98225000D01*
D36*
X152785000Y-99755000D02*
X152785000Y-98240000D01*
D35*
X156800000Y-105125000D02*
X156800000Y-106100000D01*
X159035000Y-106100000D02*
X159035000Y-107265000D01*
X151000000Y-124225000D02*
X151000000Y-123100000D01*
X152500000Y-124225000D02*
X152500000Y-123100000D01*
D36*
X148382000Y-122230000D02*
X148870000Y-122230000D01*
X149800000Y-121300000D02*
X150100000Y-121300000D01*
X148870000Y-122230000D02*
X149800000Y-121300000D01*
X150100000Y-121300000D02*
X150900000Y-121300000D01*
D37*
X114300000Y-101300000D02*
X125800000Y-101300000D01*
X138300000Y-107700000D02*
X140000000Y-109400000D01*
X127000000Y-107700000D02*
X138300000Y-107700000D01*
D35*
X141250000Y-103150000D02*
X141200000Y-103200000D01*
X141250000Y-101650000D02*
X141250000Y-103150000D01*
X147550000Y-100550000D02*
X147600000Y-100600000D01*
X146600000Y-100550000D02*
X147550000Y-100550000D01*
X113500000Y-115996016D02*
X113500000Y-116800000D01*
X116348008Y-113148008D02*
X113500000Y-115996016D01*
X109096016Y-110900000D02*
X112348008Y-107648008D01*
X108400000Y-110900000D02*
X109096016Y-110900000D01*
X106025000Y-102575000D02*
X109200000Y-102575000D01*
X104500000Y-104100000D02*
X106025000Y-102575000D01*
X103400000Y-96700000D02*
X102100000Y-96700000D01*
X106825000Y-93275000D02*
X103400000Y-96700000D01*
X107300000Y-93275000D02*
X106825000Y-93275000D01*
X101350000Y-88950000D02*
X101300000Y-88900000D01*
X107100000Y-88950000D02*
X101350000Y-88950000D01*
X108100000Y-82575000D02*
X107875000Y-82575000D01*
X107875000Y-82575000D02*
X106700000Y-81400000D01*
X104500000Y-81400000D02*
X103400000Y-82500000D01*
X106700000Y-81400000D02*
X104500000Y-81400000D01*
X109300000Y-75100000D02*
X110200000Y-76000000D01*
X105700000Y-75100000D02*
X109300000Y-75100000D01*
X113051992Y-69452006D02*
X113051992Y-70548008D01*
X111899986Y-68300000D02*
X113051992Y-69452006D01*
X109500000Y-68300000D02*
X111899986Y-68300000D01*
X114803984Y-62200000D02*
X114400000Y-62200000D01*
X117951992Y-65348008D02*
X114803984Y-62200000D01*
X123151992Y-59651992D02*
X120900000Y-57400000D01*
X123151992Y-61548008D02*
X123151992Y-59651992D01*
X128950000Y-55250000D02*
X127600000Y-53900000D01*
X128950000Y-58500000D02*
X128950000Y-55250000D01*
X135425000Y-52325000D02*
X135100000Y-52000000D01*
X135425000Y-56900000D02*
X135425000Y-52325000D01*
X142325000Y-56700000D02*
X142325000Y-53275000D01*
X143000000Y-52600000D02*
X143000000Y-51400000D01*
X142325000Y-53275000D02*
X143000000Y-52600000D01*
X148625000Y-58400000D02*
X148625000Y-57775000D01*
X148625000Y-57775000D02*
X150000000Y-56400000D01*
X150000000Y-54700000D02*
X149200000Y-53900000D01*
X150000000Y-56400000D02*
X150000000Y-54700000D01*
X156500000Y-58903984D02*
X156500000Y-56500000D01*
X155151992Y-60251992D02*
X156500000Y-58903984D01*
X163300000Y-61303984D02*
X163300000Y-60400000D01*
X160751992Y-63851992D02*
X163300000Y-61303984D01*
X165651992Y-68851992D02*
X167448008Y-68851992D01*
X169000000Y-67300000D02*
X169000000Y-65700000D01*
X167448008Y-68851992D02*
X169000000Y-67300000D01*
X170948008Y-74751992D02*
X173500000Y-72200000D01*
X169151992Y-74751992D02*
X170948008Y-74751992D01*
X175575000Y-80325000D02*
X176600000Y-79300000D01*
X171800000Y-80325000D02*
X175575000Y-80325000D01*
X178100000Y-87200000D02*
X178400000Y-86900000D01*
X173300000Y-87200000D02*
X178100000Y-87200000D01*
X172600000Y-94125000D02*
X175525000Y-94125000D01*
X176100000Y-94700000D02*
X178300000Y-94700000D01*
X175525000Y-94125000D02*
X176100000Y-94700000D01*
X175247711Y-101452289D02*
X175700000Y-101000000D01*
X171627289Y-101452289D02*
X175247711Y-101452289D01*
X171100000Y-100925000D02*
X171627289Y-101452289D01*
X171196016Y-108200000D02*
X172800000Y-108200000D01*
X169248008Y-106251992D02*
X171196016Y-108200000D01*
X167896016Y-114600000D02*
X168500000Y-114600000D01*
X164948008Y-111651992D02*
X167896016Y-114600000D01*
X128225000Y-92500000D02*
X127000000Y-92500000D01*
X128225000Y-87500000D02*
X127000000Y-87500000D01*
X128225000Y-87500000D02*
X130725000Y-90000000D01*
X130725000Y-90000000D02*
X132500000Y-90000000D01*
X128225000Y-92500000D02*
X130725000Y-90000000D01*
D38*
X138625000Y-104800000D02*
X140000000Y-104800000D01*
D35*
X112210000Y-82390000D02*
X112200000Y-82400000D01*
X114035000Y-82390000D02*
X112210000Y-82390000D01*
X139375000Y-81400000D02*
X139375000Y-79900000D01*
X139375000Y-79900000D02*
X139375000Y-78825000D01*
X140055000Y-78145000D02*
X140875000Y-78145000D01*
X139375000Y-78825000D02*
X140055000Y-78145000D01*
X142345000Y-78145000D02*
X142400000Y-78200000D01*
X140875000Y-78145000D02*
X142345000Y-78145000D01*
D36*
%TO.N,+3V3*%
X149995000Y-124770000D02*
X151000000Y-125775000D01*
X148382000Y-124770000D02*
X149995000Y-124770000D01*
X152500000Y-125775000D02*
X151000000Y-125775000D01*
D35*
X151785000Y-83515000D02*
X151800000Y-83500000D01*
D36*
X150000000Y-83515000D02*
X151785000Y-83515000D01*
X143500000Y-118600000D02*
X143500000Y-119400000D01*
X146612000Y-124770000D02*
X148382000Y-124770000D01*
X143500000Y-121658000D02*
X146612000Y-124770000D01*
X143500000Y-119400000D02*
X143500000Y-120200000D01*
X143500000Y-120200000D02*
X143500000Y-121658000D01*
D35*
X143500000Y-101500000D02*
X143000000Y-102000000D01*
X144400000Y-101500000D02*
X143500000Y-101500000D01*
X148615000Y-83515000D02*
X150000000Y-83515000D01*
X147825000Y-82725000D02*
X148615000Y-83515000D01*
X147825000Y-81900000D02*
X147825000Y-82725000D01*
X151200000Y-102200000D02*
X151100000Y-102100000D01*
X152375000Y-102200000D02*
X151200000Y-102200000D01*
X143200000Y-72225000D02*
X143200000Y-73100000D01*
X143135000Y-74335000D02*
X143200000Y-74400000D01*
X140875000Y-74335000D02*
X143135000Y-74335000D01*
X137825000Y-81400000D02*
X137825000Y-79900000D01*
X137825000Y-79900000D02*
X137825000Y-79225000D01*
X136745000Y-78145000D02*
X135925000Y-78145000D01*
X137825000Y-79225000D02*
X136745000Y-78145000D01*
X134355000Y-78145000D02*
X134300000Y-78200000D01*
X135925000Y-78145000D02*
X134355000Y-78145000D01*
D37*
%TO.N,+12V*%
X134312453Y-116812453D02*
X151772917Y-116812453D01*
X134312453Y-116812453D02*
X131312453Y-116812453D01*
X123900000Y-95800000D02*
X125800000Y-97700000D01*
X122080000Y-95800000D02*
X123900000Y-95800000D01*
X125800000Y-97700000D02*
X126600000Y-97700000D01*
X126600000Y-97700000D02*
X128400000Y-99500000D01*
X128400000Y-99500000D02*
X128400000Y-103299990D01*
X128400000Y-103299990D02*
X124400000Y-104700000D01*
X124400000Y-104700000D02*
X124400000Y-106649374D01*
X124400000Y-106649374D02*
X124400000Y-111300000D01*
D35*
%TO.N,+5V*%
X112494239Y-112405761D02*
X113400000Y-111500000D01*
X112494239Y-112415864D02*
X112494239Y-112405761D01*
X108557966Y-106442034D02*
X109500000Y-105500000D01*
X108557103Y-106442034D02*
X108557966Y-106442034D01*
X106600313Y-99799687D02*
X107200000Y-99200000D01*
X105900531Y-99799687D02*
X106600313Y-99799687D01*
X105641308Y-92758692D02*
X105800000Y-92600000D01*
X104627569Y-92758692D02*
X105641308Y-92758692D01*
X106292835Y-85607165D02*
X106300000Y-85600000D01*
X104794379Y-85607165D02*
X106292835Y-85607165D01*
X107766209Y-78633791D02*
X107800000Y-78600000D01*
X106393177Y-78633791D02*
X107766209Y-78633791D01*
X109921327Y-72121327D02*
X110600000Y-72800000D01*
X109357080Y-72121327D02*
X109921327Y-72121327D01*
X113566834Y-66366834D02*
X114600000Y-67400000D01*
X113566834Y-66340267D02*
X113566834Y-66366834D01*
X118919634Y-61519634D02*
X120000000Y-62600000D01*
X118851401Y-61519634D02*
X118919634Y-61519634D01*
X124995366Y-58295366D02*
X125900000Y-59200000D01*
X124995366Y-57856886D02*
X124995366Y-58295366D01*
X131749157Y-57050843D02*
X131700000Y-57100000D01*
X131749157Y-55501870D02*
X131749157Y-57050843D01*
X146020105Y-56679895D02*
X146000000Y-56700000D01*
X146020105Y-55042288D02*
X146020105Y-56679895D01*
X152865568Y-58565568D02*
X152900000Y-58600000D01*
X152865568Y-56962139D02*
X152865568Y-58565568D01*
X159234558Y-60265442D02*
X158000000Y-61500000D01*
X159234558Y-60224298D02*
X159234558Y-60265442D01*
X164820256Y-64679744D02*
X163700000Y-65800000D01*
X164820256Y-64666481D02*
X164820256Y-64679744D01*
X169338266Y-70161734D02*
X168300000Y-71200000D01*
X169397100Y-70161734D02*
X169338266Y-70161734D01*
X172737201Y-76462799D02*
X171600000Y-77600000D01*
X172777872Y-76462799D02*
X172737201Y-76462799D01*
X173214287Y-83314287D02*
X173200000Y-83300000D01*
X174826722Y-83314287D02*
X173214287Y-83314287D01*
X173763349Y-90436651D02*
X173700000Y-90500000D01*
X175458187Y-90436651D02*
X173763349Y-90436651D01*
X172740965Y-97540965D02*
X172600000Y-97400000D01*
X174349224Y-97540965D02*
X172740965Y-97540965D01*
X170438515Y-104338515D02*
X170400000Y-104300000D01*
X172430316Y-104338515D02*
X170438515Y-104338515D01*
X166952211Y-110552211D02*
X166900000Y-110500000D01*
X168893678Y-110552211D02*
X166952211Y-110552211D01*
X164182591Y-115882591D02*
X162900000Y-114600000D01*
X164182591Y-115929858D02*
X164182591Y-115882591D01*
X138838074Y-56361926D02*
X138800000Y-56400000D01*
X138838074Y-54548812D02*
X138838074Y-56361926D01*
X114700000Y-111500000D02*
X115251992Y-112051992D01*
X113400000Y-111500000D02*
X114700000Y-111500000D01*
X110200000Y-105500000D02*
X111251992Y-106551992D01*
X109500000Y-105500000D02*
X110200000Y-105500000D01*
X109025000Y-101025000D02*
X109200000Y-101025000D01*
X107200000Y-99200000D02*
X109025000Y-101025000D01*
X106425000Y-92600000D02*
X107300000Y-91725000D01*
X105800000Y-92600000D02*
X106425000Y-92600000D01*
X107100000Y-86400000D02*
X106300000Y-85600000D01*
X107100000Y-87400000D02*
X107100000Y-86400000D01*
X108100000Y-78900000D02*
X107800000Y-78600000D01*
X108100000Y-81025000D02*
X108100000Y-78900000D01*
X110600000Y-74207968D02*
X111296016Y-74903984D01*
X110600000Y-72800000D02*
X110600000Y-74207968D01*
X114148008Y-67851992D02*
X114600000Y-67400000D01*
X114148008Y-69451992D02*
X114148008Y-67851992D01*
X119048008Y-63551992D02*
X120000000Y-62600000D01*
X119048008Y-64251992D02*
X119048008Y-63551992D01*
X124648008Y-60451992D02*
X125900000Y-59200000D01*
X124248008Y-60451992D02*
X124648008Y-60451992D01*
X130500000Y-58300000D02*
X131700000Y-57100000D01*
X130500000Y-58500000D02*
X130500000Y-58300000D01*
X138300000Y-56900000D02*
X138800000Y-56400000D01*
X136975000Y-56900000D02*
X138300000Y-56900000D01*
X143875000Y-56700000D02*
X146000000Y-56700000D01*
X152700000Y-58400000D02*
X152900000Y-58600000D01*
X150175000Y-58400000D02*
X152700000Y-58400000D01*
X157848008Y-61348008D02*
X158000000Y-61500000D01*
X156248008Y-61348008D02*
X157848008Y-61348008D01*
X162848008Y-64948008D02*
X163700000Y-65800000D01*
X161848008Y-64948008D02*
X162848008Y-64948008D01*
X167048008Y-69948008D02*
X168300000Y-71200000D01*
X166748008Y-69948008D02*
X167048008Y-69948008D01*
X170248008Y-76248008D02*
X171600000Y-77600000D01*
X170248008Y-75848008D02*
X170248008Y-76248008D01*
X171800000Y-81900000D02*
X173200000Y-83300000D01*
X171800000Y-81875000D02*
X171800000Y-81900000D01*
X173300000Y-90100000D02*
X173700000Y-90500000D01*
X173300000Y-88750000D02*
X173300000Y-90100000D01*
X172600000Y-95675000D02*
X172600000Y-97400000D01*
X171100000Y-102475000D02*
X171100000Y-102900000D01*
X170400000Y-103600000D02*
X170400000Y-104300000D01*
X171100000Y-102900000D02*
X170400000Y-103600000D01*
X168151992Y-109810525D02*
X168893678Y-110552211D01*
X168151992Y-107348008D02*
X168151992Y-109810525D01*
X163851992Y-113648008D02*
X162900000Y-114600000D01*
X163851992Y-112748008D02*
X163851992Y-113648008D01*
%TO.N,Net-(C6-Pad1)*%
X143500000Y-103350000D02*
X144400000Y-102450000D01*
X143500000Y-105175000D02*
X143500000Y-103350000D01*
X142550000Y-103350000D02*
X143500000Y-103350000D01*
X141575000Y-104325000D02*
X142550000Y-103350000D01*
X141575000Y-104800000D02*
X141575000Y-104325000D01*
%TO.N,/ENC_A*%
X148985000Y-97485000D02*
X150000000Y-97485000D01*
X147000000Y-95500000D02*
X148985000Y-97485000D01*
X129775000Y-87500000D02*
X132500000Y-87500000D01*
%TO.N,/ENC_B*%
X162945000Y-98445000D02*
X162945000Y-99755000D01*
X162000000Y-97500000D02*
X162945000Y-98445000D01*
X129775000Y-92500000D02*
X132500000Y-92500000D01*
%TO.N,Net-(D1-Pad2)*%
X110157720Y-114602340D02*
X111117346Y-110619971D01*
%TO.N,/LED*%
X165750000Y-96215000D02*
X165300000Y-96665000D01*
X167000000Y-96215000D02*
X165750000Y-96215000D01*
X165300000Y-96665000D02*
X165300000Y-101800000D01*
X164800000Y-102300000D02*
X160900000Y-102300000D01*
X165300000Y-101800000D02*
X164800000Y-102300000D01*
X117135940Y-114700000D02*
X115842280Y-115993660D01*
X117400000Y-114700000D02*
X117135940Y-114700000D01*
%TO.N,Net-(D2-Pad2)*%
X146360150Y-51860406D02*
X148197526Y-55472377D01*
%TO.N,Net-(D2-Pad4)*%
X138531367Y-51363544D02*
X141147850Y-54521594D01*
%TO.N,Net-(D3-Pad2)*%
X105828654Y-108114029D02*
X107568391Y-104407099D01*
%TO.N,Net-(D4-Pad2)*%
X153838474Y-53913623D02*
X154961418Y-57826324D01*
%TO.N,Net-(D5-Pad2)*%
X102891609Y-100888901D02*
X105334914Y-97607368D01*
%TO.N,Net-(D6-Pad2)*%
X160800582Y-57433676D02*
X161116574Y-61458251D01*
%TO.N,Net-(D7-Pad2)*%
X101461086Y-93220632D02*
X104512315Y-90499040D01*
%TO.N,Net-(D10-Pad4)*%
X166915426Y-62247749D02*
X166414169Y-66274303D01*
%TO.N,Net-(D11-Pad4)*%
X101599685Y-85422960D02*
X105133226Y-83369034D01*
%TO.N,Net-(D10-Pad2)*%
X171935831Y-68213697D02*
X170637543Y-72054966D01*
%TO.N,Net-(D11-Pad2)*%
X103300774Y-77810966D02*
X107170710Y-76506506D01*
%TO.N,Net-(D12-Pad2)*%
X175656457Y-75065034D02*
X173616427Y-78566110D01*
%TO.N,Net-(D13-Pad2)*%
X106493290Y-70693494D02*
X110543358Y-70196248D01*
%TO.N,Net-(D14-Pad2)*%
X177927573Y-82523890D02*
X175227365Y-85542090D01*
%TO.N,Net-(D15-Pad2)*%
X111048642Y-64365752D02*
X115114326Y-64688904D01*
%TO.N,Net-(D16-Pad2)*%
X178654635Y-90285910D02*
X175107305Y-92699962D01*
%TO.N,Net-(D17-Pad2)*%
X116781674Y-59079096D02*
X120697349Y-60209981D01*
%TO.N,Net-(D18-Pad2)*%
X177510695Y-98036038D02*
X174146333Y-99748821D01*
%TO.N,Net-(D19-Pad2)*%
X123458651Y-55050019D02*
X127065772Y-56942668D01*
%TO.N,Net-(D20-Pad2)*%
X175427667Y-105459179D02*
X171497531Y-106401314D01*
%TO.N,Net-(D21-Pad2)*%
X130808228Y-52443332D02*
X133960633Y-55018456D01*
%TO.N,Net-(D22-Pad2)*%
X171604469Y-112252686D02*
X167567914Y-112387319D01*
D37*
%TO.N,Net-(J2-PadR1)*%
X152100000Y-112400000D02*
X152100000Y-108000000D01*
X152100000Y-108000000D02*
X156000000Y-108000000D01*
D35*
%TO.N,Net-(Q1-Pad1)*%
X146455000Y-105720000D02*
X148675000Y-103500000D01*
X145800000Y-105720000D02*
X146455000Y-105720000D01*
%TO.N,Net-(R1-Pad1)*%
X148192000Y-119500000D02*
X148382000Y-119690000D01*
X146000000Y-119500000D02*
X148192000Y-119500000D01*
X144300000Y-114900000D02*
X146000000Y-114900000D01*
X143500000Y-114100000D02*
X144300000Y-114900000D01*
X143500000Y-106825000D02*
X143500000Y-114100000D01*
%TO.N,/Motor*%
X169000000Y-100499962D02*
X167499962Y-102000000D01*
X169000000Y-95695000D02*
X169000000Y-100499962D01*
X168250000Y-94945000D02*
X169000000Y-95695000D01*
X167000000Y-94945000D02*
X168250000Y-94945000D01*
X157325000Y-103500000D02*
X150325000Y-103500000D01*
X166000000Y-103500000D02*
X157325000Y-103500000D01*
%TO.N,/EN*%
X124350000Y-82400000D02*
X128450000Y-82400000D01*
X145675000Y-82400000D02*
X146175000Y-81900000D01*
X128450000Y-82400000D02*
X145675000Y-82400000D01*
X147185000Y-84785000D02*
X150000000Y-84785000D01*
X146900000Y-84500000D02*
X147185000Y-84785000D01*
X146900000Y-82625000D02*
X146900000Y-84500000D01*
X146175000Y-81900000D02*
X146900000Y-82625000D01*
%TO.N,/ENC_SW*%
X154025000Y-99785000D02*
X154055000Y-99755000D01*
X154025000Y-102200000D02*
X154025000Y-99785000D01*
X154000000Y-99700000D02*
X154055000Y-99755000D01*
X154000000Y-96300000D02*
X154000000Y-99700000D01*
%TO.N,/PRESSURE*%
X144400000Y-100550000D02*
X144460000Y-100550000D01*
X144050000Y-100550000D02*
X144400000Y-100550000D01*
X142850000Y-99350000D02*
X144050000Y-100550000D01*
X141250000Y-99350000D02*
X142850000Y-99350000D01*
X146245000Y-98755000D02*
X150000000Y-98755000D01*
X144450000Y-100550000D02*
X146245000Y-98755000D01*
X144400000Y-100550000D02*
X144450000Y-100550000D01*
%TO.N,Net-(RV1-Pad2)*%
X135750000Y-100500000D02*
X142500000Y-100500000D01*
X145650000Y-101500000D02*
X146600000Y-102450000D01*
X145530002Y-101500000D02*
X145650000Y-101500000D01*
%TO.N,Net-(SW3-Pad4)*%
X140213600Y-89450011D02*
X148050011Y-89450011D01*
X148500000Y-89900000D02*
X149965000Y-89900000D01*
X124777168Y-84950011D02*
X135713601Y-84950011D01*
X123912178Y-85815001D02*
X124777168Y-84950011D01*
X119315001Y-85815001D02*
X123912178Y-85815001D01*
X118900000Y-85400000D02*
X119315001Y-85815001D01*
X149965000Y-89900000D02*
X150000000Y-89865000D01*
X118900000Y-82925000D02*
X118900000Y-85400000D01*
X148050011Y-89450011D02*
X148500000Y-89900000D01*
X135713601Y-84950011D02*
X140213600Y-89450011D01*
X119435000Y-82390000D02*
X118900000Y-82925000D01*
X120765000Y-82390000D02*
X119435000Y-82390000D01*
%TO.N,Net-(SW3-Pad3)*%
X148345000Y-89000000D02*
X148750000Y-88595000D01*
X140400000Y-89000000D02*
X148345000Y-89000000D01*
X135900000Y-84500000D02*
X140400000Y-89000000D01*
X124500000Y-84500000D02*
X135900000Y-84500000D01*
X124070000Y-84930000D02*
X124500000Y-84500000D01*
X148750000Y-88595000D02*
X150000000Y-88595000D01*
X120765000Y-84930000D02*
X124070000Y-84930000D01*
%TO.N,Net-(SW3-Pad2)*%
X123530000Y-87470000D02*
X125149967Y-85850033D01*
X125149967Y-85850033D02*
X135340803Y-85850033D01*
X135340803Y-85850033D02*
X139840800Y-90350033D01*
X139840800Y-90350033D02*
X147250033Y-90350033D01*
X120765000Y-87470000D02*
X123530000Y-87470000D01*
X147250033Y-90350033D02*
X149305000Y-92405000D01*
X149305000Y-92405000D02*
X150000000Y-92405000D01*
%TO.N,Net-(SW3-Pad1)*%
X140027200Y-89900022D02*
X135527202Y-85400022D01*
X119609998Y-86400000D02*
X118900000Y-87109998D01*
X118900000Y-87109998D02*
X118900000Y-89475000D01*
X123963590Y-86400000D02*
X119609998Y-86400000D01*
X118900000Y-89475000D02*
X119435000Y-90010000D01*
X147436433Y-89900022D02*
X140027200Y-89900022D01*
X119435000Y-90010000D02*
X120765000Y-90010000D01*
X135527202Y-85400022D02*
X124963568Y-85400022D01*
X124963568Y-85400022D02*
X123963590Y-86400000D01*
X148671411Y-91135000D02*
X147436433Y-89900022D01*
X150000000Y-91135000D02*
X148671411Y-91135000D01*
%TO.N,Net-(J3-Pad3)*%
X140182500Y-73065000D02*
X140875000Y-73065000D01*
X138500000Y-71382500D02*
X140182500Y-73065000D01*
X138500000Y-68200000D02*
X138500000Y-71382500D01*
X137600000Y-67300000D02*
X138500000Y-68200000D01*
X137600000Y-65100000D02*
X137600000Y-67300000D01*
%TO.N,Net-(J3-Pad2)*%
X139000000Y-71200000D02*
X139595000Y-71795000D01*
X139595000Y-71795000D02*
X140875000Y-71795000D01*
X139000000Y-68100000D02*
X139000000Y-71200000D01*
X140000000Y-67100000D02*
X139000000Y-68100000D01*
X140000000Y-64774998D02*
X140000000Y-67100000D01*
X139325002Y-64100000D02*
X140000000Y-64774998D01*
X138250000Y-64100000D02*
X139325002Y-64100000D01*
%TO.N,/IO0*%
X166774961Y-98980039D02*
X167000000Y-98755000D01*
X166774961Y-105525039D02*
X166774961Y-98980039D01*
X166200000Y-106100000D02*
X166774961Y-105525039D01*
X165765000Y-106100000D02*
X166200000Y-106100000D01*
%TO.N,/TX_ESP*%
X143795000Y-75605000D02*
X143800000Y-75600000D01*
X140875000Y-75605000D02*
X143795000Y-75605000D01*
X163155000Y-86055000D02*
X163100000Y-86000000D01*
X167000000Y-86055000D02*
X163155000Y-86055000D01*
%TO.N,/RX_ESP*%
X143175000Y-76875000D02*
X143200000Y-76900000D01*
X140875000Y-76875000D02*
X143175000Y-76875000D01*
X162825000Y-87325000D02*
X162200000Y-86700000D01*
X167000000Y-87325000D02*
X162825000Y-87325000D01*
%TO.N,Net-(R6-Pad1)*%
X143150000Y-70525000D02*
X143200000Y-70575000D01*
X140875000Y-70525000D02*
X143150000Y-70525000D01*
%TD*%
D39*
%TO.N,+12V*%
X125673000Y-110995250D02*
X125804750Y-111127000D01*
X126827000Y-111127000D01*
X126827000Y-111107000D01*
X127173000Y-111107000D01*
X127173000Y-111127000D01*
X128195250Y-111127000D01*
X128327000Y-110995250D01*
X128329225Y-110127000D01*
X129847142Y-110127000D01*
X129858520Y-110242517D01*
X129900090Y-110379557D01*
X129967597Y-110505853D01*
X130058446Y-110616554D01*
X130169147Y-110707403D01*
X130295443Y-110774910D01*
X130432483Y-110816480D01*
X130575000Y-110830517D01*
X132373000Y-110830517D01*
X132373000Y-117873000D01*
X128361555Y-117873000D01*
X128030464Y-117651772D01*
X127661573Y-117498972D01*
X127269961Y-117421076D01*
X126870677Y-117421076D01*
X126479065Y-117498972D01*
X126110174Y-117651772D01*
X125779083Y-117873000D01*
X122395328Y-117873000D01*
X122091254Y-117747048D01*
X121827000Y-117694485D01*
X121827000Y-116054630D01*
X123802197Y-116054630D01*
X123850421Y-116234603D01*
X124711058Y-116734437D01*
X124805615Y-116777280D01*
X124906713Y-116800852D01*
X125010467Y-116804249D01*
X125112891Y-116787339D01*
X125210047Y-116750772D01*
X125298202Y-116695953D01*
X125373970Y-116624990D01*
X125434437Y-116540608D01*
X125929853Y-115677421D01*
X125881630Y-115497447D01*
X124563322Y-114736322D01*
X123802197Y-116054630D01*
X121827000Y-116054630D01*
X121827000Y-115010467D01*
X122195751Y-115010467D01*
X122212661Y-115112891D01*
X122249228Y-115210047D01*
X122304047Y-115298202D01*
X122375010Y-115373970D01*
X122459392Y-115434437D01*
X123322579Y-115929853D01*
X123502553Y-115881630D01*
X124263678Y-114563322D01*
X124044325Y-114436678D01*
X124736322Y-114436678D01*
X126054630Y-115197803D01*
X126234603Y-115149579D01*
X126728014Y-114300000D01*
X130065450Y-114300000D01*
X130075625Y-114403310D01*
X130105760Y-114502650D01*
X130154695Y-114594202D01*
X130220552Y-114674448D01*
X130300798Y-114740305D01*
X130392350Y-114789240D01*
X130491690Y-114819375D01*
X130595000Y-114829550D01*
X130890250Y-114827000D01*
X131022000Y-114695250D01*
X131022000Y-113373000D01*
X131368000Y-113373000D01*
X131368000Y-114695250D01*
X131499750Y-114827000D01*
X131795000Y-114829550D01*
X131898310Y-114819375D01*
X131997650Y-114789240D01*
X132089202Y-114740305D01*
X132169448Y-114674448D01*
X132235305Y-114594202D01*
X132284240Y-114502650D01*
X132314375Y-114403310D01*
X132324550Y-114300000D01*
X132322000Y-113504750D01*
X132190250Y-113373000D01*
X131368000Y-113373000D01*
X131022000Y-113373000D01*
X130199750Y-113373000D01*
X130068000Y-113504750D01*
X130065450Y-114300000D01*
X126728014Y-114300000D01*
X126734437Y-114288942D01*
X126777280Y-114194385D01*
X126800852Y-114093287D01*
X126804249Y-113989533D01*
X126787339Y-113887109D01*
X126750772Y-113789953D01*
X126695953Y-113701798D01*
X126624990Y-113626030D01*
X126540608Y-113565563D01*
X125677421Y-113070147D01*
X125497447Y-113118370D01*
X124736322Y-114436678D01*
X124044325Y-114436678D01*
X122945370Y-113802197D01*
X122765397Y-113850421D01*
X122265563Y-114711058D01*
X122222720Y-114805615D01*
X122199148Y-114906713D01*
X122195751Y-115010467D01*
X121827000Y-115010467D01*
X121827000Y-113322579D01*
X123070147Y-113322579D01*
X123118370Y-113502553D01*
X124436678Y-114263678D01*
X125197803Y-112945370D01*
X125149579Y-112765397D01*
X124864791Y-112600000D01*
X125670450Y-112600000D01*
X125680625Y-112703310D01*
X125710760Y-112802650D01*
X125759695Y-112894202D01*
X125825552Y-112974448D01*
X125905798Y-113040305D01*
X125997350Y-113089240D01*
X126096690Y-113119375D01*
X126200000Y-113129550D01*
X126695250Y-113127000D01*
X126827000Y-112995250D01*
X126827000Y-111473000D01*
X127173000Y-111473000D01*
X127173000Y-112995250D01*
X127304750Y-113127000D01*
X127800000Y-113129550D01*
X127903310Y-113119375D01*
X128002650Y-113089240D01*
X128094202Y-113040305D01*
X128174448Y-112974448D01*
X128240305Y-112894202D01*
X128289240Y-112802650D01*
X128319375Y-112703310D01*
X128329550Y-112600000D01*
X128328269Y-112100000D01*
X130065450Y-112100000D01*
X130068000Y-112895250D01*
X130199750Y-113027000D01*
X131022000Y-113027000D01*
X131022000Y-111704750D01*
X131368000Y-111704750D01*
X131368000Y-113027000D01*
X132190250Y-113027000D01*
X132322000Y-112895250D01*
X132324550Y-112100000D01*
X132314375Y-111996690D01*
X132284240Y-111897350D01*
X132235305Y-111805798D01*
X132169448Y-111725552D01*
X132089202Y-111659695D01*
X131997650Y-111610760D01*
X131898310Y-111580625D01*
X131795000Y-111570450D01*
X131499750Y-111573000D01*
X131368000Y-111704750D01*
X131022000Y-111704750D01*
X130890250Y-111573000D01*
X130595000Y-111570450D01*
X130491690Y-111580625D01*
X130392350Y-111610760D01*
X130300798Y-111659695D01*
X130220552Y-111725552D01*
X130154695Y-111805798D01*
X130105760Y-111897350D01*
X130075625Y-111996690D01*
X130065450Y-112100000D01*
X128328269Y-112100000D01*
X128327000Y-111604750D01*
X128195250Y-111473000D01*
X127173000Y-111473000D01*
X126827000Y-111473000D01*
X125804750Y-111473000D01*
X125673000Y-111604750D01*
X125670450Y-112600000D01*
X124864791Y-112600000D01*
X124288942Y-112265563D01*
X124194385Y-112222720D01*
X124093287Y-112199148D01*
X123989533Y-112195751D01*
X123887109Y-112212661D01*
X123789953Y-112249228D01*
X123701798Y-112304047D01*
X123626030Y-112375010D01*
X123565563Y-112459392D01*
X123070147Y-113322579D01*
X121827000Y-113322579D01*
X121827000Y-110127000D01*
X125670775Y-110127000D01*
X125673000Y-110995250D01*
%TA.AperFunction,Conductor*%
D40*
G36*
X125673000Y-110995250D02*
G01*
X125804750Y-111127000D01*
X126827000Y-111127000D01*
X126827000Y-111107000D01*
X127173000Y-111107000D01*
X127173000Y-111127000D01*
X128195250Y-111127000D01*
X128327000Y-110995250D01*
X128329225Y-110127000D01*
X129847142Y-110127000D01*
X129858520Y-110242517D01*
X129900090Y-110379557D01*
X129967597Y-110505853D01*
X130058446Y-110616554D01*
X130169147Y-110707403D01*
X130295443Y-110774910D01*
X130432483Y-110816480D01*
X130575000Y-110830517D01*
X132373000Y-110830517D01*
X132373000Y-117873000D01*
X128361555Y-117873000D01*
X128030464Y-117651772D01*
X127661573Y-117498972D01*
X127269961Y-117421076D01*
X126870677Y-117421076D01*
X126479065Y-117498972D01*
X126110174Y-117651772D01*
X125779083Y-117873000D01*
X122395328Y-117873000D01*
X122091254Y-117747048D01*
X121827000Y-117694485D01*
X121827000Y-116054630D01*
X123802197Y-116054630D01*
X123850421Y-116234603D01*
X124711058Y-116734437D01*
X124805615Y-116777280D01*
X124906713Y-116800852D01*
X125010467Y-116804249D01*
X125112891Y-116787339D01*
X125210047Y-116750772D01*
X125298202Y-116695953D01*
X125373970Y-116624990D01*
X125434437Y-116540608D01*
X125929853Y-115677421D01*
X125881630Y-115497447D01*
X124563322Y-114736322D01*
X123802197Y-116054630D01*
X121827000Y-116054630D01*
X121827000Y-115010467D01*
X122195751Y-115010467D01*
X122212661Y-115112891D01*
X122249228Y-115210047D01*
X122304047Y-115298202D01*
X122375010Y-115373970D01*
X122459392Y-115434437D01*
X123322579Y-115929853D01*
X123502553Y-115881630D01*
X124263678Y-114563322D01*
X124044325Y-114436678D01*
X124736322Y-114436678D01*
X126054630Y-115197803D01*
X126234603Y-115149579D01*
X126728014Y-114300000D01*
X130065450Y-114300000D01*
X130075625Y-114403310D01*
X130105760Y-114502650D01*
X130154695Y-114594202D01*
X130220552Y-114674448D01*
X130300798Y-114740305D01*
X130392350Y-114789240D01*
X130491690Y-114819375D01*
X130595000Y-114829550D01*
X130890250Y-114827000D01*
X131022000Y-114695250D01*
X131022000Y-113373000D01*
X131368000Y-113373000D01*
X131368000Y-114695250D01*
X131499750Y-114827000D01*
X131795000Y-114829550D01*
X131898310Y-114819375D01*
X131997650Y-114789240D01*
X132089202Y-114740305D01*
X132169448Y-114674448D01*
X132235305Y-114594202D01*
X132284240Y-114502650D01*
X132314375Y-114403310D01*
X132324550Y-114300000D01*
X132322000Y-113504750D01*
X132190250Y-113373000D01*
X131368000Y-113373000D01*
X131022000Y-113373000D01*
X130199750Y-113373000D01*
X130068000Y-113504750D01*
X130065450Y-114300000D01*
X126728014Y-114300000D01*
X126734437Y-114288942D01*
X126777280Y-114194385D01*
X126800852Y-114093287D01*
X126804249Y-113989533D01*
X126787339Y-113887109D01*
X126750772Y-113789953D01*
X126695953Y-113701798D01*
X126624990Y-113626030D01*
X126540608Y-113565563D01*
X125677421Y-113070147D01*
X125497447Y-113118370D01*
X124736322Y-114436678D01*
X124044325Y-114436678D01*
X122945370Y-113802197D01*
X122765397Y-113850421D01*
X122265563Y-114711058D01*
X122222720Y-114805615D01*
X122199148Y-114906713D01*
X122195751Y-115010467D01*
X121827000Y-115010467D01*
X121827000Y-113322579D01*
X123070147Y-113322579D01*
X123118370Y-113502553D01*
X124436678Y-114263678D01*
X125197803Y-112945370D01*
X125149579Y-112765397D01*
X124864791Y-112600000D01*
X125670450Y-112600000D01*
X125680625Y-112703310D01*
X125710760Y-112802650D01*
X125759695Y-112894202D01*
X125825552Y-112974448D01*
X125905798Y-113040305D01*
X125997350Y-113089240D01*
X126096690Y-113119375D01*
X126200000Y-113129550D01*
X126695250Y-113127000D01*
X126827000Y-112995250D01*
X126827000Y-111473000D01*
X127173000Y-111473000D01*
X127173000Y-112995250D01*
X127304750Y-113127000D01*
X127800000Y-113129550D01*
X127903310Y-113119375D01*
X128002650Y-113089240D01*
X128094202Y-113040305D01*
X128174448Y-112974448D01*
X128240305Y-112894202D01*
X128289240Y-112802650D01*
X128319375Y-112703310D01*
X128329550Y-112600000D01*
X128328269Y-112100000D01*
X130065450Y-112100000D01*
X130068000Y-112895250D01*
X130199750Y-113027000D01*
X131022000Y-113027000D01*
X131022000Y-111704750D01*
X131368000Y-111704750D01*
X131368000Y-113027000D01*
X132190250Y-113027000D01*
X132322000Y-112895250D01*
X132324550Y-112100000D01*
X132314375Y-111996690D01*
X132284240Y-111897350D01*
X132235305Y-111805798D01*
X132169448Y-111725552D01*
X132089202Y-111659695D01*
X131997650Y-111610760D01*
X131898310Y-111580625D01*
X131795000Y-111570450D01*
X131499750Y-111573000D01*
X131368000Y-111704750D01*
X131022000Y-111704750D01*
X130890250Y-111573000D01*
X130595000Y-111570450D01*
X130491690Y-111580625D01*
X130392350Y-111610760D01*
X130300798Y-111659695D01*
X130220552Y-111725552D01*
X130154695Y-111805798D01*
X130105760Y-111897350D01*
X130075625Y-111996690D01*
X130065450Y-112100000D01*
X128328269Y-112100000D01*
X128327000Y-111604750D01*
X128195250Y-111473000D01*
X127173000Y-111473000D01*
X126827000Y-111473000D01*
X125804750Y-111473000D01*
X125673000Y-111604750D01*
X125670450Y-112600000D01*
X124864791Y-112600000D01*
X124288942Y-112265563D01*
X124194385Y-112222720D01*
X124093287Y-112199148D01*
X123989533Y-112195751D01*
X123887109Y-112212661D01*
X123789953Y-112249228D01*
X123701798Y-112304047D01*
X123626030Y-112375010D01*
X123565563Y-112459392D01*
X123070147Y-113322579D01*
X121827000Y-113322579D01*
X121827000Y-110127000D01*
X125670775Y-110127000D01*
X125673000Y-110995250D01*
G37*
%TD.AperFunction*%
%TD*%
D39*
%TO.N,Net-(J2-PadR1)*%
X155924602Y-106818421D02*
X156081579Y-106975398D01*
X156266165Y-107098734D01*
X156471266Y-107183690D01*
X156689000Y-107227000D01*
X156742110Y-107227000D01*
X164887226Y-120259185D01*
X163738689Y-121192273D01*
X161712559Y-122635073D01*
X159599000Y-123946464D01*
X157406523Y-125121164D01*
X155151719Y-126150899D01*
X154135633Y-124409037D01*
X154168016Y-124439366D01*
X154256171Y-124494185D01*
X154353328Y-124530752D01*
X154455751Y-124547663D01*
X154559505Y-124544266D01*
X154660604Y-124520693D01*
X154755160Y-124477850D01*
X155572496Y-124003017D01*
X155620720Y-123823043D01*
X155209595Y-123110953D01*
X155192274Y-123120953D01*
X155086619Y-122937953D01*
X155509239Y-122937953D01*
X155920364Y-123650043D01*
X156100338Y-123698267D01*
X156920224Y-123227850D01*
X157004605Y-123167383D01*
X157075569Y-123091616D01*
X157130388Y-123003461D01*
X157166954Y-122906304D01*
X157183865Y-122803880D01*
X157180468Y-122700126D01*
X157156896Y-122599028D01*
X157114053Y-122504471D01*
X157105413Y-122489799D01*
X157410500Y-122489799D01*
X157410500Y-122780743D01*
X157467260Y-123066096D01*
X157578599Y-123334893D01*
X157740239Y-123576804D01*
X157945967Y-123782532D01*
X158187878Y-123944172D01*
X158456675Y-124055511D01*
X158742028Y-124112271D01*
X159032972Y-124112271D01*
X159318325Y-124055511D01*
X159587122Y-123944172D01*
X159829033Y-123782532D01*
X160034761Y-123576804D01*
X160196401Y-123334893D01*
X160307740Y-123066096D01*
X160364500Y-122780743D01*
X160364500Y-122489799D01*
X160307740Y-122204446D01*
X160196401Y-121935649D01*
X160034761Y-121693738D01*
X159829033Y-121488010D01*
X159587122Y-121326370D01*
X159318325Y-121215031D01*
X159032972Y-121158271D01*
X158742028Y-121158271D01*
X158456675Y-121215031D01*
X158187878Y-121326370D01*
X157945967Y-121488010D01*
X157740239Y-121693738D01*
X157578599Y-121935649D01*
X157467260Y-122204446D01*
X157410500Y-122489799D01*
X157105413Y-122489799D01*
X156964219Y-122250052D01*
X156784245Y-122201828D01*
X155509239Y-122937953D01*
X155086619Y-122937953D01*
X155019274Y-122821309D01*
X155036595Y-122811309D01*
X154625470Y-122099219D01*
X154445496Y-122050995D01*
X153625610Y-122521412D01*
X153541229Y-122581879D01*
X153516278Y-122608519D01*
X153498734Y-122566165D01*
X153375398Y-122381579D01*
X153218421Y-122224602D01*
X153033835Y-122101266D01*
X152828734Y-122016310D01*
X152728212Y-121996315D01*
X152601368Y-121778868D01*
X152668016Y-121841289D01*
X152756171Y-121896108D01*
X152853328Y-121932675D01*
X152955751Y-121949586D01*
X153059505Y-121946189D01*
X153145151Y-121926219D01*
X154925114Y-121926219D01*
X155336239Y-122638309D01*
X156611245Y-121902184D01*
X156659469Y-121722210D01*
X156514053Y-121465241D01*
X156453586Y-121380859D01*
X156377818Y-121309896D01*
X156289663Y-121255077D01*
X156192506Y-121218510D01*
X156090083Y-121201599D01*
X155986329Y-121204996D01*
X155885230Y-121228569D01*
X155790674Y-121271412D01*
X154973338Y-121746245D01*
X154925114Y-121926219D01*
X153145151Y-121926219D01*
X153160604Y-121922616D01*
X153255160Y-121879773D01*
X154072496Y-121404940D01*
X154120720Y-121224966D01*
X153709595Y-120512876D01*
X153692274Y-120522876D01*
X153586619Y-120339876D01*
X154009239Y-120339876D01*
X154420364Y-121051966D01*
X154600338Y-121100190D01*
X155420224Y-120629773D01*
X155504605Y-120569306D01*
X155575569Y-120493539D01*
X155630388Y-120405384D01*
X155666954Y-120308227D01*
X155683865Y-120205803D01*
X155680468Y-120102049D01*
X155656896Y-120000951D01*
X155614053Y-119906394D01*
X155464219Y-119651975D01*
X155284245Y-119603751D01*
X154009239Y-120339876D01*
X153586619Y-120339876D01*
X153519274Y-120223232D01*
X153536595Y-120213232D01*
X153125470Y-119501142D01*
X152945496Y-119452918D01*
X152125610Y-119923335D01*
X152041229Y-119983802D01*
X151970265Y-120059569D01*
X151915446Y-120147724D01*
X151878880Y-120244881D01*
X151861969Y-120347305D01*
X151865366Y-120451059D01*
X151888938Y-120552157D01*
X151899900Y-120576352D01*
X151171779Y-119328142D01*
X153425114Y-119328142D01*
X153836239Y-120040232D01*
X155111245Y-119304107D01*
X155159469Y-119124133D01*
X155014053Y-118867164D01*
X154953586Y-118782782D01*
X154877818Y-118711819D01*
X154789663Y-118657000D01*
X154692506Y-118620433D01*
X154590083Y-118603522D01*
X154486329Y-118606919D01*
X154385230Y-118630492D01*
X154290674Y-118673335D01*
X153473338Y-119148168D01*
X153425114Y-119328142D01*
X151171779Y-119328142D01*
X150778617Y-118654151D01*
X150801313Y-118662693D01*
X150942607Y-118686021D01*
X151085737Y-118681335D01*
X151225202Y-118648817D01*
X151355643Y-118589714D01*
X151442698Y-118539453D01*
X151857758Y-118539453D01*
X152111468Y-118514465D01*
X152437009Y-118415713D01*
X152737029Y-118255349D01*
X152999999Y-118039535D01*
X153215813Y-117776565D01*
X153376177Y-117476545D01*
X153395810Y-117411823D01*
X153520707Y-117339714D01*
X153637112Y-117256300D01*
X153735007Y-117151778D01*
X153810630Y-117030167D01*
X153861074Y-116896140D01*
X153884402Y-116754846D01*
X153879716Y-116611716D01*
X153847198Y-116472251D01*
X153826977Y-116427621D01*
X153910500Y-116427621D01*
X153910500Y-116718565D01*
X153967260Y-117003918D01*
X154078599Y-117272715D01*
X154240239Y-117514626D01*
X154445967Y-117720354D01*
X154687878Y-117881994D01*
X154956675Y-117993333D01*
X155242028Y-118050093D01*
X155532972Y-118050093D01*
X155818325Y-117993333D01*
X156087122Y-117881994D01*
X156329033Y-117720354D01*
X156534761Y-117514626D01*
X156696401Y-117272715D01*
X156807740Y-117003918D01*
X156864500Y-116718565D01*
X156864500Y-116427621D01*
X156807740Y-116142268D01*
X156696401Y-115873471D01*
X156534761Y-115631560D01*
X156329033Y-115425832D01*
X156087122Y-115264192D01*
X155818325Y-115152853D01*
X155532972Y-115096093D01*
X155242028Y-115096093D01*
X154956675Y-115152853D01*
X154687878Y-115264192D01*
X154445967Y-115425832D01*
X154240239Y-115631560D01*
X154078599Y-115873471D01*
X153967260Y-116142268D01*
X153910500Y-116427621D01*
X153826977Y-116427621D01*
X153788095Y-116341809D01*
X153188095Y-115302579D01*
X153104681Y-115186175D01*
X153000160Y-115088280D01*
X152878548Y-115012657D01*
X152744521Y-114962213D01*
X152603227Y-114938885D01*
X152460097Y-114943571D01*
X152320632Y-114976089D01*
X152190191Y-115035192D01*
X152067377Y-115106098D01*
X151857758Y-115085453D01*
X148696876Y-115085453D01*
X148627000Y-114965665D01*
X148627000Y-113762246D01*
X155465531Y-113762246D01*
X155610947Y-114019215D01*
X155671414Y-114103597D01*
X155747182Y-114174560D01*
X155835337Y-114229379D01*
X155932494Y-114265946D01*
X156034917Y-114282857D01*
X156138671Y-114279460D01*
X156239770Y-114255887D01*
X156334326Y-114213044D01*
X157151662Y-113738211D01*
X157199886Y-113558237D01*
X156788761Y-112846147D01*
X155513755Y-113582272D01*
X155465531Y-113762246D01*
X148627000Y-113762246D01*
X148627000Y-112680576D01*
X154941135Y-112680576D01*
X154944532Y-112784330D01*
X154968104Y-112885428D01*
X155010947Y-112979985D01*
X155160781Y-113234404D01*
X155340755Y-113282628D01*
X156396407Y-112673147D01*
X157088405Y-112673147D01*
X157499530Y-113385237D01*
X157679504Y-113433461D01*
X158499390Y-112963044D01*
X158583771Y-112902577D01*
X158654735Y-112826810D01*
X158709554Y-112738655D01*
X158746120Y-112641498D01*
X158763031Y-112539074D01*
X158759634Y-112435320D01*
X158736062Y-112334222D01*
X158693219Y-112239665D01*
X158543385Y-111985246D01*
X158363411Y-111937022D01*
X157088405Y-112673147D01*
X156396407Y-112673147D01*
X156615761Y-112546503D01*
X156204636Y-111834413D01*
X156024662Y-111786189D01*
X155204776Y-112256606D01*
X155120395Y-112317073D01*
X155049431Y-112392840D01*
X154994612Y-112480995D01*
X154958046Y-112578152D01*
X154941135Y-112680576D01*
X148627000Y-112680576D01*
X148627000Y-111661413D01*
X156504280Y-111661413D01*
X156915405Y-112373503D01*
X158190411Y-111637378D01*
X158238635Y-111457404D01*
X158093219Y-111200435D01*
X158032752Y-111116053D01*
X157956984Y-111045090D01*
X157868829Y-110990271D01*
X157771672Y-110953704D01*
X157669249Y-110936793D01*
X157565495Y-110940190D01*
X157464396Y-110963763D01*
X157369840Y-111006606D01*
X156552504Y-111481439D01*
X156504280Y-111661413D01*
X148627000Y-111661413D01*
X148627000Y-111351638D01*
X148697350Y-111389240D01*
X148796690Y-111419375D01*
X148900000Y-111429550D01*
X151795250Y-111427000D01*
X151927000Y-111295250D01*
X151927000Y-108173000D01*
X152273000Y-108173000D01*
X152273000Y-111295250D01*
X152404750Y-111427000D01*
X155300000Y-111429550D01*
X155403310Y-111419375D01*
X155502650Y-111389240D01*
X155594202Y-111340305D01*
X155674448Y-111274448D01*
X155740305Y-111194202D01*
X155789240Y-111102650D01*
X155819375Y-111003310D01*
X155829550Y-110900000D01*
X155827000Y-108304750D01*
X155695250Y-108173000D01*
X152273000Y-108173000D01*
X151927000Y-108173000D01*
X151907000Y-108173000D01*
X151907000Y-107827000D01*
X151927000Y-107827000D01*
X151927000Y-107807000D01*
X152273000Y-107807000D01*
X152273000Y-107827000D01*
X155695250Y-107827000D01*
X155827000Y-107695250D01*
X155828004Y-106673851D01*
X155924602Y-106818421D01*
%TA.AperFunction,Conductor*%
D40*
G36*
X155924602Y-106818421D02*
G01*
X156081579Y-106975398D01*
X156266165Y-107098734D01*
X156471266Y-107183690D01*
X156689000Y-107227000D01*
X156742110Y-107227000D01*
X164887226Y-120259185D01*
X163738689Y-121192273D01*
X161712559Y-122635073D01*
X159599000Y-123946464D01*
X157406523Y-125121164D01*
X155151719Y-126150899D01*
X154135633Y-124409037D01*
X154168016Y-124439366D01*
X154256171Y-124494185D01*
X154353328Y-124530752D01*
X154455751Y-124547663D01*
X154559505Y-124544266D01*
X154660604Y-124520693D01*
X154755160Y-124477850D01*
X155572496Y-124003017D01*
X155620720Y-123823043D01*
X155209595Y-123110953D01*
X155192274Y-123120953D01*
X155086619Y-122937953D01*
X155509239Y-122937953D01*
X155920364Y-123650043D01*
X156100338Y-123698267D01*
X156920224Y-123227850D01*
X157004605Y-123167383D01*
X157075569Y-123091616D01*
X157130388Y-123003461D01*
X157166954Y-122906304D01*
X157183865Y-122803880D01*
X157180468Y-122700126D01*
X157156896Y-122599028D01*
X157114053Y-122504471D01*
X157105413Y-122489799D01*
X157410500Y-122489799D01*
X157410500Y-122780743D01*
X157467260Y-123066096D01*
X157578599Y-123334893D01*
X157740239Y-123576804D01*
X157945967Y-123782532D01*
X158187878Y-123944172D01*
X158456675Y-124055511D01*
X158742028Y-124112271D01*
X159032972Y-124112271D01*
X159318325Y-124055511D01*
X159587122Y-123944172D01*
X159829033Y-123782532D01*
X160034761Y-123576804D01*
X160196401Y-123334893D01*
X160307740Y-123066096D01*
X160364500Y-122780743D01*
X160364500Y-122489799D01*
X160307740Y-122204446D01*
X160196401Y-121935649D01*
X160034761Y-121693738D01*
X159829033Y-121488010D01*
X159587122Y-121326370D01*
X159318325Y-121215031D01*
X159032972Y-121158271D01*
X158742028Y-121158271D01*
X158456675Y-121215031D01*
X158187878Y-121326370D01*
X157945967Y-121488010D01*
X157740239Y-121693738D01*
X157578599Y-121935649D01*
X157467260Y-122204446D01*
X157410500Y-122489799D01*
X157105413Y-122489799D01*
X156964219Y-122250052D01*
X156784245Y-122201828D01*
X155509239Y-122937953D01*
X155086619Y-122937953D01*
X155019274Y-122821309D01*
X155036595Y-122811309D01*
X154625470Y-122099219D01*
X154445496Y-122050995D01*
X153625610Y-122521412D01*
X153541229Y-122581879D01*
X153516278Y-122608519D01*
X153498734Y-122566165D01*
X153375398Y-122381579D01*
X153218421Y-122224602D01*
X153033835Y-122101266D01*
X152828734Y-122016310D01*
X152728212Y-121996315D01*
X152601368Y-121778868D01*
X152668016Y-121841289D01*
X152756171Y-121896108D01*
X152853328Y-121932675D01*
X152955751Y-121949586D01*
X153059505Y-121946189D01*
X153145151Y-121926219D01*
X154925114Y-121926219D01*
X155336239Y-122638309D01*
X156611245Y-121902184D01*
X156659469Y-121722210D01*
X156514053Y-121465241D01*
X156453586Y-121380859D01*
X156377818Y-121309896D01*
X156289663Y-121255077D01*
X156192506Y-121218510D01*
X156090083Y-121201599D01*
X155986329Y-121204996D01*
X155885230Y-121228569D01*
X155790674Y-121271412D01*
X154973338Y-121746245D01*
X154925114Y-121926219D01*
X153145151Y-121926219D01*
X153160604Y-121922616D01*
X153255160Y-121879773D01*
X154072496Y-121404940D01*
X154120720Y-121224966D01*
X153709595Y-120512876D01*
X153692274Y-120522876D01*
X153586619Y-120339876D01*
X154009239Y-120339876D01*
X154420364Y-121051966D01*
X154600338Y-121100190D01*
X155420224Y-120629773D01*
X155504605Y-120569306D01*
X155575569Y-120493539D01*
X155630388Y-120405384D01*
X155666954Y-120308227D01*
X155683865Y-120205803D01*
X155680468Y-120102049D01*
X155656896Y-120000951D01*
X155614053Y-119906394D01*
X155464219Y-119651975D01*
X155284245Y-119603751D01*
X154009239Y-120339876D01*
X153586619Y-120339876D01*
X153519274Y-120223232D01*
X153536595Y-120213232D01*
X153125470Y-119501142D01*
X152945496Y-119452918D01*
X152125610Y-119923335D01*
X152041229Y-119983802D01*
X151970265Y-120059569D01*
X151915446Y-120147724D01*
X151878880Y-120244881D01*
X151861969Y-120347305D01*
X151865366Y-120451059D01*
X151888938Y-120552157D01*
X151899900Y-120576352D01*
X151171779Y-119328142D01*
X153425114Y-119328142D01*
X153836239Y-120040232D01*
X155111245Y-119304107D01*
X155159469Y-119124133D01*
X155014053Y-118867164D01*
X154953586Y-118782782D01*
X154877818Y-118711819D01*
X154789663Y-118657000D01*
X154692506Y-118620433D01*
X154590083Y-118603522D01*
X154486329Y-118606919D01*
X154385230Y-118630492D01*
X154290674Y-118673335D01*
X153473338Y-119148168D01*
X153425114Y-119328142D01*
X151171779Y-119328142D01*
X150778617Y-118654151D01*
X150801313Y-118662693D01*
X150942607Y-118686021D01*
X151085737Y-118681335D01*
X151225202Y-118648817D01*
X151355643Y-118589714D01*
X151442698Y-118539453D01*
X151857758Y-118539453D01*
X152111468Y-118514465D01*
X152437009Y-118415713D01*
X152737029Y-118255349D01*
X152999999Y-118039535D01*
X153215813Y-117776565D01*
X153376177Y-117476545D01*
X153395810Y-117411823D01*
X153520707Y-117339714D01*
X153637112Y-117256300D01*
X153735007Y-117151778D01*
X153810630Y-117030167D01*
X153861074Y-116896140D01*
X153884402Y-116754846D01*
X153879716Y-116611716D01*
X153847198Y-116472251D01*
X153826977Y-116427621D01*
X153910500Y-116427621D01*
X153910500Y-116718565D01*
X153967260Y-117003918D01*
X154078599Y-117272715D01*
X154240239Y-117514626D01*
X154445967Y-117720354D01*
X154687878Y-117881994D01*
X154956675Y-117993333D01*
X155242028Y-118050093D01*
X155532972Y-118050093D01*
X155818325Y-117993333D01*
X156087122Y-117881994D01*
X156329033Y-117720354D01*
X156534761Y-117514626D01*
X156696401Y-117272715D01*
X156807740Y-117003918D01*
X156864500Y-116718565D01*
X156864500Y-116427621D01*
X156807740Y-116142268D01*
X156696401Y-115873471D01*
X156534761Y-115631560D01*
X156329033Y-115425832D01*
X156087122Y-115264192D01*
X155818325Y-115152853D01*
X155532972Y-115096093D01*
X155242028Y-115096093D01*
X154956675Y-115152853D01*
X154687878Y-115264192D01*
X154445967Y-115425832D01*
X154240239Y-115631560D01*
X154078599Y-115873471D01*
X153967260Y-116142268D01*
X153910500Y-116427621D01*
X153826977Y-116427621D01*
X153788095Y-116341809D01*
X153188095Y-115302579D01*
X153104681Y-115186175D01*
X153000160Y-115088280D01*
X152878548Y-115012657D01*
X152744521Y-114962213D01*
X152603227Y-114938885D01*
X152460097Y-114943571D01*
X152320632Y-114976089D01*
X152190191Y-115035192D01*
X152067377Y-115106098D01*
X151857758Y-115085453D01*
X148696876Y-115085453D01*
X148627000Y-114965665D01*
X148627000Y-113762246D01*
X155465531Y-113762246D01*
X155610947Y-114019215D01*
X155671414Y-114103597D01*
X155747182Y-114174560D01*
X155835337Y-114229379D01*
X155932494Y-114265946D01*
X156034917Y-114282857D01*
X156138671Y-114279460D01*
X156239770Y-114255887D01*
X156334326Y-114213044D01*
X157151662Y-113738211D01*
X157199886Y-113558237D01*
X156788761Y-112846147D01*
X155513755Y-113582272D01*
X155465531Y-113762246D01*
X148627000Y-113762246D01*
X148627000Y-112680576D01*
X154941135Y-112680576D01*
X154944532Y-112784330D01*
X154968104Y-112885428D01*
X155010947Y-112979985D01*
X155160781Y-113234404D01*
X155340755Y-113282628D01*
X156396407Y-112673147D01*
X157088405Y-112673147D01*
X157499530Y-113385237D01*
X157679504Y-113433461D01*
X158499390Y-112963044D01*
X158583771Y-112902577D01*
X158654735Y-112826810D01*
X158709554Y-112738655D01*
X158746120Y-112641498D01*
X158763031Y-112539074D01*
X158759634Y-112435320D01*
X158736062Y-112334222D01*
X158693219Y-112239665D01*
X158543385Y-111985246D01*
X158363411Y-111937022D01*
X157088405Y-112673147D01*
X156396407Y-112673147D01*
X156615761Y-112546503D01*
X156204636Y-111834413D01*
X156024662Y-111786189D01*
X155204776Y-112256606D01*
X155120395Y-112317073D01*
X155049431Y-112392840D01*
X154994612Y-112480995D01*
X154958046Y-112578152D01*
X154941135Y-112680576D01*
X148627000Y-112680576D01*
X148627000Y-111661413D01*
X156504280Y-111661413D01*
X156915405Y-112373503D01*
X158190411Y-111637378D01*
X158238635Y-111457404D01*
X158093219Y-111200435D01*
X158032752Y-111116053D01*
X157956984Y-111045090D01*
X157868829Y-110990271D01*
X157771672Y-110953704D01*
X157669249Y-110936793D01*
X157565495Y-110940190D01*
X157464396Y-110963763D01*
X157369840Y-111006606D01*
X156552504Y-111481439D01*
X156504280Y-111661413D01*
X148627000Y-111661413D01*
X148627000Y-111351638D01*
X148697350Y-111389240D01*
X148796690Y-111419375D01*
X148900000Y-111429550D01*
X151795250Y-111427000D01*
X151927000Y-111295250D01*
X151927000Y-108173000D01*
X152273000Y-108173000D01*
X152273000Y-111295250D01*
X152404750Y-111427000D01*
X155300000Y-111429550D01*
X155403310Y-111419375D01*
X155502650Y-111389240D01*
X155594202Y-111340305D01*
X155674448Y-111274448D01*
X155740305Y-111194202D01*
X155789240Y-111102650D01*
X155819375Y-111003310D01*
X155829550Y-110900000D01*
X155827000Y-108304750D01*
X155695250Y-108173000D01*
X152273000Y-108173000D01*
X151927000Y-108173000D01*
X151907000Y-108173000D01*
X151907000Y-107827000D01*
X151927000Y-107827000D01*
X151927000Y-107807000D01*
X152273000Y-107807000D01*
X152273000Y-107827000D01*
X155695250Y-107827000D01*
X155827000Y-107695250D01*
X155828004Y-106673851D01*
X155924602Y-106818421D01*
G37*
%TD.AperFunction*%
%TD*%
D39*
%TO.N,+3V3*%
X138759695Y-111405798D02*
X138710760Y-111497350D01*
X138680625Y-111596690D01*
X138670450Y-111700000D01*
X138673000Y-112695250D01*
X138804750Y-112827000D01*
X139827000Y-112827000D01*
X139827000Y-112807000D01*
X140173000Y-112807000D01*
X140173000Y-114973000D01*
X134227000Y-114973000D01*
X134227000Y-114300000D01*
X134625450Y-114300000D01*
X134635625Y-114403310D01*
X134665760Y-114502650D01*
X134714695Y-114594202D01*
X134780552Y-114674448D01*
X134860798Y-114740305D01*
X134952350Y-114789240D01*
X135051690Y-114819375D01*
X135155000Y-114829550D01*
X135450250Y-114827000D01*
X135582000Y-114695250D01*
X135582000Y-113373000D01*
X135928000Y-113373000D01*
X135928000Y-114695250D01*
X136059750Y-114827000D01*
X136355000Y-114829550D01*
X136458310Y-114819375D01*
X136557650Y-114789240D01*
X136649202Y-114740305D01*
X136729448Y-114674448D01*
X136795305Y-114594202D01*
X136844240Y-114502650D01*
X136874375Y-114403310D01*
X136884550Y-114300000D01*
X138670450Y-114300000D01*
X138680625Y-114403310D01*
X138710760Y-114502650D01*
X138759695Y-114594202D01*
X138825552Y-114674448D01*
X138905798Y-114740305D01*
X138997350Y-114789240D01*
X139096690Y-114819375D01*
X139200000Y-114829550D01*
X139695250Y-114827000D01*
X139827000Y-114695250D01*
X139827000Y-113173000D01*
X138804750Y-113173000D01*
X138673000Y-113304750D01*
X138670450Y-114300000D01*
X136884550Y-114300000D01*
X136882000Y-113504750D01*
X136750250Y-113373000D01*
X135928000Y-113373000D01*
X135582000Y-113373000D01*
X134759750Y-113373000D01*
X134628000Y-113504750D01*
X134625450Y-114300000D01*
X134227000Y-114300000D01*
X134227000Y-112100000D01*
X134625450Y-112100000D01*
X134628000Y-112895250D01*
X134759750Y-113027000D01*
X135582000Y-113027000D01*
X135582000Y-111704750D01*
X135928000Y-111704750D01*
X135928000Y-113027000D01*
X136750250Y-113027000D01*
X136882000Y-112895250D01*
X136884550Y-112100000D01*
X136874375Y-111996690D01*
X136844240Y-111897350D01*
X136795305Y-111805798D01*
X136729448Y-111725552D01*
X136649202Y-111659695D01*
X136557650Y-111610760D01*
X136458310Y-111580625D01*
X136355000Y-111570450D01*
X136059750Y-111573000D01*
X135928000Y-111704750D01*
X135582000Y-111704750D01*
X135450250Y-111573000D01*
X135155000Y-111570450D01*
X135051690Y-111580625D01*
X134952350Y-111610760D01*
X134860798Y-111659695D01*
X134780552Y-111725552D01*
X134714695Y-111805798D01*
X134665760Y-111897350D01*
X134635625Y-111996690D01*
X134625450Y-112100000D01*
X134227000Y-112100000D01*
X134227000Y-111327000D01*
X138824364Y-111327000D01*
X138759695Y-111405798D01*
%TA.AperFunction,Conductor*%
D40*
G36*
X138759695Y-111405798D02*
G01*
X138710760Y-111497350D01*
X138680625Y-111596690D01*
X138670450Y-111700000D01*
X138673000Y-112695250D01*
X138804750Y-112827000D01*
X139827000Y-112827000D01*
X139827000Y-112807000D01*
X140173000Y-112807000D01*
X140173000Y-114973000D01*
X134227000Y-114973000D01*
X134227000Y-114300000D01*
X134625450Y-114300000D01*
X134635625Y-114403310D01*
X134665760Y-114502650D01*
X134714695Y-114594202D01*
X134780552Y-114674448D01*
X134860798Y-114740305D01*
X134952350Y-114789240D01*
X135051690Y-114819375D01*
X135155000Y-114829550D01*
X135450250Y-114827000D01*
X135582000Y-114695250D01*
X135582000Y-113373000D01*
X135928000Y-113373000D01*
X135928000Y-114695250D01*
X136059750Y-114827000D01*
X136355000Y-114829550D01*
X136458310Y-114819375D01*
X136557650Y-114789240D01*
X136649202Y-114740305D01*
X136729448Y-114674448D01*
X136795305Y-114594202D01*
X136844240Y-114502650D01*
X136874375Y-114403310D01*
X136884550Y-114300000D01*
X138670450Y-114300000D01*
X138680625Y-114403310D01*
X138710760Y-114502650D01*
X138759695Y-114594202D01*
X138825552Y-114674448D01*
X138905798Y-114740305D01*
X138997350Y-114789240D01*
X139096690Y-114819375D01*
X139200000Y-114829550D01*
X139695250Y-114827000D01*
X139827000Y-114695250D01*
X139827000Y-113173000D01*
X138804750Y-113173000D01*
X138673000Y-113304750D01*
X138670450Y-114300000D01*
X136884550Y-114300000D01*
X136882000Y-113504750D01*
X136750250Y-113373000D01*
X135928000Y-113373000D01*
X135582000Y-113373000D01*
X134759750Y-113373000D01*
X134628000Y-113504750D01*
X134625450Y-114300000D01*
X134227000Y-114300000D01*
X134227000Y-112100000D01*
X134625450Y-112100000D01*
X134628000Y-112895250D01*
X134759750Y-113027000D01*
X135582000Y-113027000D01*
X135582000Y-111704750D01*
X135928000Y-111704750D01*
X135928000Y-113027000D01*
X136750250Y-113027000D01*
X136882000Y-112895250D01*
X136884550Y-112100000D01*
X136874375Y-111996690D01*
X136844240Y-111897350D01*
X136795305Y-111805798D01*
X136729448Y-111725552D01*
X136649202Y-111659695D01*
X136557650Y-111610760D01*
X136458310Y-111580625D01*
X136355000Y-111570450D01*
X136059750Y-111573000D01*
X135928000Y-111704750D01*
X135582000Y-111704750D01*
X135450250Y-111573000D01*
X135155000Y-111570450D01*
X135051690Y-111580625D01*
X134952350Y-111610760D01*
X134860798Y-111659695D01*
X134780552Y-111725552D01*
X134714695Y-111805798D01*
X134665760Y-111897350D01*
X134635625Y-111996690D01*
X134625450Y-112100000D01*
X134227000Y-112100000D01*
X134227000Y-111327000D01*
X138824364Y-111327000D01*
X138759695Y-111405798D01*
G37*
%TD.AperFunction*%
%TD*%
D39*
%TO.N,+5V*%
X117773000Y-94224750D02*
X117693000Y-94304750D01*
X117693000Y-95627000D01*
X117713000Y-95627000D01*
X117713000Y-95973000D01*
X117693000Y-95973000D01*
X117693000Y-97295250D01*
X117773000Y-97375250D01*
X117773000Y-97973000D01*
X115595250Y-97973000D01*
X115495250Y-97873000D01*
X114473000Y-97873000D01*
X114473000Y-97893000D01*
X114127000Y-97893000D01*
X114127000Y-97873000D01*
X113104750Y-97873000D01*
X113004750Y-97973000D01*
X106631796Y-97973000D01*
X106444275Y-96687591D01*
X106427000Y-96617915D01*
X106427000Y-96400000D01*
X112970450Y-96400000D01*
X112973000Y-97395250D01*
X113104750Y-97527000D01*
X114127000Y-97527000D01*
X114127000Y-96004750D01*
X114473000Y-96004750D01*
X114473000Y-97527000D01*
X115495250Y-97527000D01*
X115627000Y-97395250D01*
X115628268Y-96900000D01*
X116390450Y-96900000D01*
X116400625Y-97003310D01*
X116430760Y-97102650D01*
X116479695Y-97194202D01*
X116545552Y-97274448D01*
X116625798Y-97340305D01*
X116717350Y-97389240D01*
X116816690Y-97419375D01*
X116920000Y-97429550D01*
X117215250Y-97427000D01*
X117347000Y-97295250D01*
X117347000Y-95973000D01*
X116524750Y-95973000D01*
X116393000Y-96104750D01*
X116390450Y-96900000D01*
X115628268Y-96900000D01*
X115629550Y-96400000D01*
X115619375Y-96296690D01*
X115589240Y-96197350D01*
X115540305Y-96105798D01*
X115474448Y-96025552D01*
X115394202Y-95959695D01*
X115302650Y-95910760D01*
X115203310Y-95880625D01*
X115100000Y-95870450D01*
X114604750Y-95873000D01*
X114473000Y-96004750D01*
X114127000Y-96004750D01*
X113995250Y-95873000D01*
X113500000Y-95870450D01*
X113396690Y-95880625D01*
X113297350Y-95910760D01*
X113205798Y-95959695D01*
X113125552Y-96025552D01*
X113059695Y-96105798D01*
X113010760Y-96197350D01*
X112980625Y-96296690D01*
X112970450Y-96400000D01*
X106427000Y-96400000D01*
X106427000Y-94877909D01*
X106604909Y-94700000D01*
X116390450Y-94700000D01*
X116393000Y-95495250D01*
X116524750Y-95627000D01*
X117347000Y-95627000D01*
X117347000Y-94304750D01*
X117215250Y-94173000D01*
X116920000Y-94170450D01*
X116816690Y-94180625D01*
X116717350Y-94210760D01*
X116625798Y-94259695D01*
X116545552Y-94325552D01*
X116479695Y-94405798D01*
X116430760Y-94497350D01*
X116400625Y-94596690D01*
X116390450Y-94700000D01*
X106604909Y-94700000D01*
X106867379Y-94437530D01*
X107050000Y-94455517D01*
X107550000Y-94455517D01*
X107736412Y-94437157D01*
X107915661Y-94382783D01*
X108080857Y-94294483D01*
X108225653Y-94175653D01*
X108265581Y-94127000D01*
X117773000Y-94127000D01*
X117773000Y-94224750D01*
%TA.AperFunction,Conductor*%
D40*
G36*
X117773000Y-94224750D02*
G01*
X117693000Y-94304750D01*
X117693000Y-95627000D01*
X117713000Y-95627000D01*
X117713000Y-95973000D01*
X117693000Y-95973000D01*
X117693000Y-97295250D01*
X117773000Y-97375250D01*
X117773000Y-97973000D01*
X115595250Y-97973000D01*
X115495250Y-97873000D01*
X114473000Y-97873000D01*
X114473000Y-97893000D01*
X114127000Y-97893000D01*
X114127000Y-97873000D01*
X113104750Y-97873000D01*
X113004750Y-97973000D01*
X106631796Y-97973000D01*
X106444275Y-96687591D01*
X106427000Y-96617915D01*
X106427000Y-96400000D01*
X112970450Y-96400000D01*
X112973000Y-97395250D01*
X113104750Y-97527000D01*
X114127000Y-97527000D01*
X114127000Y-96004750D01*
X114473000Y-96004750D01*
X114473000Y-97527000D01*
X115495250Y-97527000D01*
X115627000Y-97395250D01*
X115628268Y-96900000D01*
X116390450Y-96900000D01*
X116400625Y-97003310D01*
X116430760Y-97102650D01*
X116479695Y-97194202D01*
X116545552Y-97274448D01*
X116625798Y-97340305D01*
X116717350Y-97389240D01*
X116816690Y-97419375D01*
X116920000Y-97429550D01*
X117215250Y-97427000D01*
X117347000Y-97295250D01*
X117347000Y-95973000D01*
X116524750Y-95973000D01*
X116393000Y-96104750D01*
X116390450Y-96900000D01*
X115628268Y-96900000D01*
X115629550Y-96400000D01*
X115619375Y-96296690D01*
X115589240Y-96197350D01*
X115540305Y-96105798D01*
X115474448Y-96025552D01*
X115394202Y-95959695D01*
X115302650Y-95910760D01*
X115203310Y-95880625D01*
X115100000Y-95870450D01*
X114604750Y-95873000D01*
X114473000Y-96004750D01*
X114127000Y-96004750D01*
X113995250Y-95873000D01*
X113500000Y-95870450D01*
X113396690Y-95880625D01*
X113297350Y-95910760D01*
X113205798Y-95959695D01*
X113125552Y-96025552D01*
X113059695Y-96105798D01*
X113010760Y-96197350D01*
X112980625Y-96296690D01*
X112970450Y-96400000D01*
X106427000Y-96400000D01*
X106427000Y-94877909D01*
X106604909Y-94700000D01*
X116390450Y-94700000D01*
X116393000Y-95495250D01*
X116524750Y-95627000D01*
X117347000Y-95627000D01*
X117347000Y-94304750D01*
X117215250Y-94173000D01*
X116920000Y-94170450D01*
X116816690Y-94180625D01*
X116717350Y-94210760D01*
X116625798Y-94259695D01*
X116545552Y-94325552D01*
X116479695Y-94405798D01*
X116430760Y-94497350D01*
X116400625Y-94596690D01*
X116390450Y-94700000D01*
X106604909Y-94700000D01*
X106867379Y-94437530D01*
X107050000Y-94455517D01*
X107550000Y-94455517D01*
X107736412Y-94437157D01*
X107915661Y-94382783D01*
X108080857Y-94294483D01*
X108225653Y-94175653D01*
X108265581Y-94127000D01*
X117773000Y-94127000D01*
X117773000Y-94224750D01*
G37*
%TD.AperFunction*%
%TD*%
D39*
%TO.N,GND*%
X147973000Y-107775441D02*
X147973000Y-112621423D01*
X144352000Y-112576719D01*
X144352000Y-111276154D01*
X144405798Y-111320305D01*
X144497350Y-111369240D01*
X144596690Y-111399375D01*
X144700000Y-111409550D01*
X145495250Y-111407000D01*
X145627000Y-111275250D01*
X145627000Y-110453000D01*
X145973000Y-110453000D01*
X145973000Y-111275250D01*
X146104750Y-111407000D01*
X146900000Y-111409550D01*
X147003310Y-111399375D01*
X147102650Y-111369240D01*
X147194202Y-111320305D01*
X147274448Y-111254448D01*
X147340305Y-111174202D01*
X147389240Y-111082650D01*
X147419375Y-110983310D01*
X147429550Y-110880000D01*
X147427000Y-110584750D01*
X147295250Y-110453000D01*
X145973000Y-110453000D01*
X145627000Y-110453000D01*
X145607000Y-110453000D01*
X145607000Y-110107000D01*
X145627000Y-110107000D01*
X145627000Y-109284750D01*
X145973000Y-109284750D01*
X145973000Y-110107000D01*
X147295250Y-110107000D01*
X147427000Y-109975250D01*
X147429550Y-109680000D01*
X147419375Y-109576690D01*
X147389240Y-109477350D01*
X147340305Y-109385798D01*
X147274448Y-109305552D01*
X147194202Y-109239695D01*
X147102650Y-109190760D01*
X147003310Y-109160625D01*
X146900000Y-109150450D01*
X146104750Y-109153000D01*
X145973000Y-109284750D01*
X145627000Y-109284750D01*
X145495250Y-109153000D01*
X144700000Y-109150450D01*
X144596690Y-109160625D01*
X144497350Y-109190760D01*
X144405798Y-109239695D01*
X144352000Y-109283846D01*
X144352000Y-107749430D01*
X144374439Y-107731015D01*
X147973000Y-107775441D01*
%TA.AperFunction,Conductor*%
D40*
G36*
X147973000Y-107775441D02*
G01*
X147973000Y-112621423D01*
X144352000Y-112576719D01*
X144352000Y-111276154D01*
X144405798Y-111320305D01*
X144497350Y-111369240D01*
X144596690Y-111399375D01*
X144700000Y-111409550D01*
X145495250Y-111407000D01*
X145627000Y-111275250D01*
X145627000Y-110453000D01*
X145973000Y-110453000D01*
X145973000Y-111275250D01*
X146104750Y-111407000D01*
X146900000Y-111409550D01*
X147003310Y-111399375D01*
X147102650Y-111369240D01*
X147194202Y-111320305D01*
X147274448Y-111254448D01*
X147340305Y-111174202D01*
X147389240Y-111082650D01*
X147419375Y-110983310D01*
X147429550Y-110880000D01*
X147427000Y-110584750D01*
X147295250Y-110453000D01*
X145973000Y-110453000D01*
X145627000Y-110453000D01*
X145607000Y-110453000D01*
X145607000Y-110107000D01*
X145627000Y-110107000D01*
X145627000Y-109284750D01*
X145973000Y-109284750D01*
X145973000Y-110107000D01*
X147295250Y-110107000D01*
X147427000Y-109975250D01*
X147429550Y-109680000D01*
X147419375Y-109576690D01*
X147389240Y-109477350D01*
X147340305Y-109385798D01*
X147274448Y-109305552D01*
X147194202Y-109239695D01*
X147102650Y-109190760D01*
X147003310Y-109160625D01*
X146900000Y-109150450D01*
X146104750Y-109153000D01*
X145973000Y-109284750D01*
X145627000Y-109284750D01*
X145495250Y-109153000D01*
X144700000Y-109150450D01*
X144596690Y-109160625D01*
X144497350Y-109190760D01*
X144405798Y-109239695D01*
X144352000Y-109283846D01*
X144352000Y-107749430D01*
X144374439Y-107731015D01*
X147973000Y-107775441D01*
G37*
%TD.AperFunction*%
%TD*%
M02*
