%TF.GenerationSoftware,KiCad,Pcbnew,(5.1.9)-1*%
%TF.CreationDate,2021-08-26T18:25:25+02:00*%
%TF.ProjectId,nogasm,6e6f6761-736d-42e6-9b69-6361645f7063,rev?*%
%TF.SameCoordinates,Original*%
%TF.FileFunction,Copper,L4,Bot*%
%TF.FilePolarity,Positive*%
%FSLAX46Y46*%
G04 Gerber Fmt 4.6, Leading zero omitted, Abs format (unit mm)*
G04 Created by KiCad (PCBNEW (5.1.9)-1) date 2021-08-26 18:25:25*
%MOMM*%
%LPD*%
G01*
G04 APERTURE LIST*
%TA.AperFunction,ComponentPad*%
%ADD10O,0.850000X1.850000*%
%TD*%
%TA.AperFunction,ComponentPad*%
%ADD11C,0.840000*%
%TD*%
%TA.AperFunction,ComponentPad*%
%ADD12R,0.840000X0.840000*%
%TD*%
%TA.AperFunction,ComponentPad*%
%ADD13R,2.000000X2.000000*%
%TD*%
%TA.AperFunction,ComponentPad*%
%ADD14C,2.000000*%
%TD*%
%TA.AperFunction,ComponentPad*%
%ADD15R,3.200000X2.000000*%
%TD*%
%TA.AperFunction,ComponentPad*%
%ADD16C,2.600000*%
%TD*%
%TA.AperFunction,ComponentPad*%
%ADD17C,0.100000*%
%TD*%
%TA.AperFunction,ViaPad*%
%ADD18C,5.500000*%
%TD*%
%TA.AperFunction,ViaPad*%
%ADD19C,3.200000*%
%TD*%
%TA.AperFunction,ViaPad*%
%ADD20C,0.800000*%
%TD*%
%TA.AperFunction,Conductor*%
%ADD21C,0.250000*%
%TD*%
G04 APERTURE END LIST*
D10*
%TO.P,J3,6*%
%TO.N,GND*%
X134025000Y-64880000D03*
X141175000Y-64880000D03*
D11*
%TO.P,J3,5*%
X136300000Y-65100000D03*
%TO.P,J3,4*%
%TO.N,Net-(J3-Pad4)*%
X136950000Y-64100000D03*
%TO.P,J3,3*%
%TO.N,Net-(J3-Pad3)*%
X137600000Y-65100000D03*
%TO.P,J3,2*%
%TO.N,Net-(J3-Pad2)*%
X138250000Y-64100000D03*
D12*
%TO.P,J3,1*%
%TO.N,Net-(J3-Pad1)*%
X138900000Y-65100000D03*
%TD*%
D13*
%TO.P,SW2,A*%
%TO.N,/ENC_A*%
X132500000Y-87500000D03*
D14*
%TO.P,SW2,C*%
%TO.N,GND*%
X132500000Y-90000000D03*
%TO.P,SW2,B*%
%TO.N,/ENC_B*%
X132500000Y-92500000D03*
D15*
%TO.P,SW2,MP*%
%TO.N,N/C*%
X140000000Y-84400000D03*
X140000000Y-95600000D03*
D14*
%TO.P,SW2,S2*%
%TO.N,GND*%
X147000000Y-87500000D03*
%TO.P,SW2,S1*%
%TO.N,/ENC_SW*%
X147000000Y-92500000D03*
%TD*%
D16*
%TO.P,J1,3*%
%TO.N,N/C*%
X127070319Y-119448076D03*
%TO.P,J1,2*%
%TO.N,GND*%
X121500000Y-119696152D03*
%TA.AperFunction,ComponentPad*%
D17*
%TO.P,J1,1*%
%TO.N,+12V*%
G36*
X122724167Y-114975833D02*
G01*
X124024167Y-112724167D01*
X126275833Y-114024167D01*
X124975833Y-116275833D01*
X122724167Y-114975833D01*
G37*
%TD.AperFunction*%
%TD*%
D18*
%TO.N,*%
X125000000Y-70000000D03*
D19*
X132000000Y-101000000D03*
D18*
X150000000Y-65000000D03*
D20*
%TO.N,GND*%
X112200000Y-90000000D03*
X112200000Y-87500000D03*
X112200000Y-84900000D03*
X119700000Y-103200000D03*
X119700000Y-101200000D03*
X133400000Y-105600000D03*
X133400000Y-107700000D03*
X135800000Y-109500000D03*
X131200000Y-109500000D03*
X135800000Y-104300000D03*
X131200000Y-104300000D03*
X117500000Y-104700000D03*
X122100000Y-104700000D03*
X122000000Y-99500000D03*
X117600000Y-99500000D03*
X157500000Y-91800000D03*
X157500000Y-87700000D03*
X157500000Y-89700000D03*
X159500000Y-89700000D03*
X155400000Y-89700000D03*
X155400000Y-91800000D03*
X159400000Y-91800000D03*
X159500000Y-87700000D03*
X155400000Y-87700000D03*
X168500000Y-114600000D03*
X172800000Y-108200000D03*
X175700000Y-101000000D03*
X178300000Y-94700000D03*
X178400000Y-86900000D03*
X176600000Y-79300000D03*
X173500000Y-72200000D03*
X169000000Y-65700000D03*
X163300000Y-60400000D03*
X156500000Y-56500000D03*
X149200000Y-53900000D03*
X143000000Y-51400000D03*
X135100000Y-52000000D03*
X127600000Y-53900000D03*
X120900000Y-57400000D03*
X114400000Y-62200000D03*
X109500000Y-68300000D03*
X105700000Y-75100000D03*
X103400000Y-82500000D03*
X101300000Y-88900000D03*
X102100000Y-96700000D03*
X104500000Y-104100000D03*
X108400000Y-110900000D03*
X113500000Y-116800000D03*
X122700000Y-81700000D03*
X151800000Y-82200000D03*
X165300000Y-82300000D03*
X152800000Y-98225000D03*
X156800000Y-106100000D03*
X159000000Y-107300000D03*
X151000000Y-123100000D03*
X152500000Y-123100000D03*
X150900000Y-121300000D03*
X150100000Y-121300000D03*
X141200000Y-103200000D03*
X147600000Y-100600000D03*
X127000000Y-92500000D03*
X127000000Y-87500000D03*
X140000000Y-104800000D03*
X112200000Y-82400000D03*
X144700000Y-108100000D03*
X145600000Y-108100000D03*
X146500000Y-108100000D03*
X147500000Y-108100000D03*
X144700000Y-112200000D03*
X145600000Y-112200000D03*
X146500000Y-112200000D03*
X147400000Y-112200000D03*
X142400000Y-78200000D03*
%TO.N,+3V3*%
X151800000Y-83500000D03*
X143500000Y-118600000D03*
X143500000Y-119400000D03*
X143500000Y-120200000D03*
X137300000Y-111700000D03*
X138200000Y-111700000D03*
X137300000Y-112600000D03*
X138200000Y-112600000D03*
X137300000Y-113500000D03*
X138200000Y-113500000D03*
X137300000Y-114400000D03*
X138200000Y-114400000D03*
X143000000Y-102000000D03*
X151100000Y-102100000D03*
X143200000Y-73100000D03*
X143200000Y-74400000D03*
X134300000Y-78200000D03*
%TO.N,+5V*%
X113400000Y-111500000D03*
X109500000Y-105500000D03*
X107200000Y-99200000D03*
X105800000Y-92600000D03*
X106300000Y-85600000D03*
X107800000Y-78600000D03*
X110600000Y-72800000D03*
X114600000Y-67400000D03*
X120000000Y-62600000D03*
X125900000Y-59200000D03*
X131700000Y-57100000D03*
X146000000Y-56700000D03*
X152900000Y-58600000D03*
X158000000Y-61500000D03*
X163700000Y-65800000D03*
X168300000Y-71200000D03*
X171600000Y-77600000D03*
X173200000Y-83300000D03*
X173700000Y-90500000D03*
X172600000Y-97400000D03*
X170400000Y-104300000D03*
X166900000Y-110500000D03*
X162900000Y-114600000D03*
X138800000Y-56400000D03*
X107700000Y-94500000D03*
X108600000Y-94500000D03*
X108600000Y-95400000D03*
X108600000Y-96300000D03*
X107700000Y-96300000D03*
X107700000Y-95400000D03*
X106800000Y-95400000D03*
X106800000Y-96300000D03*
X106800000Y-97200000D03*
X107700000Y-97200000D03*
X108600000Y-97200000D03*
X106800000Y-94500000D03*
%TO.N,/ENC_A*%
X147000000Y-95500000D03*
%TO.N,/ENC_B*%
X162000000Y-97500000D03*
%TO.N,/LED*%
X160900000Y-102300000D03*
X117400000Y-114700000D03*
%TO.N,Net-(R1-Pad1)*%
X146000000Y-119500000D03*
X146000000Y-114900000D03*
%TO.N,/Motor*%
X166000000Y-103500000D03*
X167499962Y-102000000D03*
%TO.N,/ENC_SW*%
X154000000Y-96300000D03*
%TO.N,Net-(RV1-Pad2)*%
X142500000Y-100500000D03*
X145530002Y-101500000D03*
%TO.N,/TX_ESP*%
X163100000Y-86000000D03*
X143800000Y-75600000D03*
%TO.N,/RX_ESP*%
X143200000Y-76900000D03*
X162200000Y-86700000D03*
%TD*%
D21*
%TO.N,/ENC_A*%
X143400000Y-91900000D02*
X147000000Y-95500000D01*
X137000000Y-91900000D02*
X143400000Y-91900000D01*
X132600000Y-87500000D02*
X137000000Y-91900000D01*
X132500000Y-87500000D02*
X132600000Y-87500000D01*
%TO.N,/ENC_B*%
X147926998Y-97500000D02*
X162000000Y-97500000D01*
X142926998Y-92500000D02*
X147926998Y-97500000D01*
X132500000Y-92500000D02*
X142926998Y-92500000D01*
%TO.N,/LED*%
X158274999Y-104925001D02*
X158274999Y-109125001D01*
X160900000Y-102300000D02*
X158274999Y-104925001D01*
X158274999Y-109125001D02*
X153900000Y-113500000D01*
X153900000Y-113500000D02*
X144900000Y-113500000D01*
X144900000Y-113500000D02*
X141500000Y-116900000D01*
X141500000Y-116900000D02*
X119600000Y-116900000D01*
X119600000Y-116900000D02*
X117400000Y-114700000D01*
%TO.N,Net-(R1-Pad1)*%
X146000000Y-119500000D02*
X146000000Y-114900000D01*
%TO.N,/Motor*%
X166000000Y-103500000D02*
X167499962Y-102000038D01*
X167499962Y-102000038D02*
X167499962Y-102000000D01*
%TO.N,/ENC_SW*%
X147000000Y-92500000D02*
X150800000Y-96300000D01*
X150800000Y-96300000D02*
X154000000Y-96300000D01*
%TO.N,Net-(RV1-Pad2)*%
X144530002Y-100500000D02*
X145530002Y-101500000D01*
X142500000Y-100500000D02*
X144530002Y-100500000D01*
%TO.N,/TX_ESP*%
X143800000Y-75600000D02*
X144000000Y-75800000D01*
X144000000Y-75800000D02*
X144000000Y-81063590D01*
X144000000Y-81063590D02*
X149186400Y-86249990D01*
X161577008Y-86249990D02*
X161851999Y-85974999D01*
X149186400Y-86249990D02*
X161577008Y-86249990D01*
X163074999Y-85974999D02*
X163100000Y-86000000D01*
X161851999Y-85974999D02*
X163074999Y-85974999D01*
%TO.N,/RX_ESP*%
X143200000Y-80900000D02*
X149000000Y-86700000D01*
X143200000Y-76900000D02*
X143200000Y-80900000D01*
X149000000Y-86700000D02*
X162200000Y-86700000D01*
%TD*%
M02*
