%TF.GenerationSoftware,KiCad,Pcbnew,(5.1.9)-1*%
%TF.CreationDate,2021-08-26T18:30:52+02:00*%
%TF.ProjectId,nogasm,6e6f6761-736d-42e6-9b69-6361645f7063,rev?*%
%TF.SameCoordinates,Original*%
%TF.FileFunction,Copper,L2,Inr*%
%TF.FilePolarity,Positive*%
%FSLAX46Y46*%
G04 Gerber Fmt 4.6, Leading zero omitted, Abs format (unit mm)*
G04 Created by KiCad (PCBNEW (5.1.9)-1) date 2021-08-26 18:30:52*
%MOMM*%
%LPD*%
G01*
G04 APERTURE LIST*
%TA.AperFunction,ComponentPad*%
%ADD10O,0.850000X1.850000*%
%TD*%
%TA.AperFunction,ComponentPad*%
%ADD11C,0.840000*%
%TD*%
%TA.AperFunction,ComponentPad*%
%ADD12R,0.840000X0.840000*%
%TD*%
%TA.AperFunction,ComponentPad*%
%ADD13R,2.000000X2.000000*%
%TD*%
%TA.AperFunction,ComponentPad*%
%ADD14C,2.000000*%
%TD*%
%TA.AperFunction,ComponentPad*%
%ADD15R,3.200000X2.000000*%
%TD*%
%TA.AperFunction,ComponentPad*%
%ADD16C,2.600000*%
%TD*%
%TA.AperFunction,ComponentPad*%
%ADD17C,0.100000*%
%TD*%
%TA.AperFunction,ViaPad*%
%ADD18C,5.500000*%
%TD*%
%TA.AperFunction,ViaPad*%
%ADD19C,3.200000*%
%TD*%
%TA.AperFunction,ViaPad*%
%ADD20C,0.800000*%
%TD*%
%TA.AperFunction,Conductor*%
%ADD21C,0.254000*%
%TD*%
%TA.AperFunction,Conductor*%
%ADD22C,0.100000*%
%TD*%
G04 APERTURE END LIST*
D10*
%TO.N,GND*%
%TO.C,J3*%
X134025000Y-64880000D03*
X141175000Y-64880000D03*
D11*
X136300000Y-65100000D03*
%TO.N,Net-(J3-Pad4)*%
X136950000Y-64100000D03*
%TO.N,Net-(J3-Pad3)*%
X137600000Y-65100000D03*
%TO.N,Net-(J3-Pad2)*%
X138250000Y-64100000D03*
D12*
%TO.N,Net-(J3-Pad1)*%
X138900000Y-65100000D03*
%TD*%
D13*
%TO.N,/ENC_A*%
%TO.C,SW2*%
X132500000Y-87500000D03*
D14*
%TO.N,GND*%
X132500000Y-90000000D03*
%TO.N,/ENC_B*%
X132500000Y-92500000D03*
D15*
%TO.N,N/C*%
X140000000Y-84400000D03*
X140000000Y-95600000D03*
D14*
%TO.N,GND*%
X147000000Y-87500000D03*
%TO.N,/ENC_SW*%
X147000000Y-92500000D03*
%TD*%
D16*
%TO.N,N/C*%
%TO.C,J1*%
X127070319Y-119448076D03*
%TO.N,GND*%
X121500000Y-119696152D03*
%TA.AperFunction,ComponentPad*%
D17*
%TO.N,+12V*%
G36*
X122724167Y-114975833D02*
G01*
X124024167Y-112724167D01*
X126275833Y-114024167D01*
X124975833Y-116275833D01*
X122724167Y-114975833D01*
G37*
%TD.AperFunction*%
%TD*%
D18*
%TO.N,*%
X125000000Y-70000000D03*
D19*
X132000000Y-101000000D03*
D18*
X150000000Y-65000000D03*
D20*
%TO.N,GND*%
X112200000Y-90000000D03*
X112200000Y-87500000D03*
X112200000Y-84900000D03*
X119700000Y-103200000D03*
X119700000Y-101200000D03*
X133400000Y-105600000D03*
X133400000Y-107700000D03*
X135800000Y-109500000D03*
X131200000Y-109500000D03*
X135800000Y-104300000D03*
X131200000Y-104300000D03*
X117500000Y-104700000D03*
X122100000Y-104700000D03*
X122000000Y-99500000D03*
X117600000Y-99500000D03*
X157500000Y-91800000D03*
X157500000Y-87700000D03*
X157500000Y-89700000D03*
X159500000Y-89700000D03*
X155400000Y-89700000D03*
X155400000Y-91800000D03*
X159400000Y-91800000D03*
X159500000Y-87700000D03*
X155400000Y-87700000D03*
X168500000Y-114600000D03*
X172800000Y-108200000D03*
X175700000Y-101000000D03*
X178300000Y-94700000D03*
X178400000Y-86900000D03*
X176600000Y-79300000D03*
X173500000Y-72200000D03*
X169000000Y-65700000D03*
X163300000Y-60400000D03*
X156500000Y-56500000D03*
X149200000Y-53900000D03*
X143000000Y-51400000D03*
X135100000Y-52000000D03*
X127600000Y-53900000D03*
X120900000Y-57400000D03*
X114400000Y-62200000D03*
X109500000Y-68300000D03*
X105700000Y-75100000D03*
X103400000Y-82500000D03*
X101300000Y-88900000D03*
X102100000Y-96700000D03*
X104500000Y-104100000D03*
X108400000Y-110900000D03*
X113500000Y-116800000D03*
X122700000Y-81700000D03*
X151800000Y-82200000D03*
X165300000Y-82300000D03*
X152800000Y-98225000D03*
X156800000Y-106100000D03*
X159000000Y-107300000D03*
X151000000Y-123100000D03*
X152500000Y-123100000D03*
X150900000Y-121300000D03*
X150100000Y-121300000D03*
X141200000Y-103200000D03*
X147600000Y-100600000D03*
X127000000Y-92500000D03*
X127000000Y-87500000D03*
X140000000Y-104800000D03*
X112200000Y-82400000D03*
X144700000Y-108100000D03*
X145600000Y-108100000D03*
X146500000Y-108100000D03*
X147500000Y-108100000D03*
X144700000Y-112200000D03*
X145600000Y-112200000D03*
X146500000Y-112200000D03*
X147400000Y-112200000D03*
X142400000Y-78200000D03*
%TO.N,+3V3*%
X151800000Y-83500000D03*
X143500000Y-118600000D03*
X143500000Y-119400000D03*
X143500000Y-120200000D03*
X137300000Y-111700000D03*
X138200000Y-111700000D03*
X137300000Y-112600000D03*
X138200000Y-112600000D03*
X137300000Y-113500000D03*
X138200000Y-113500000D03*
X137300000Y-114400000D03*
X138200000Y-114400000D03*
X143000000Y-102000000D03*
X151100000Y-102100000D03*
X143200000Y-73100000D03*
X143200000Y-74400000D03*
X134300000Y-78200000D03*
%TO.N,+5V*%
X113400000Y-111500000D03*
X109500000Y-105500000D03*
X107200000Y-99200000D03*
X105800000Y-92600000D03*
X106300000Y-85600000D03*
X107800000Y-78600000D03*
X110600000Y-72800000D03*
X114600000Y-67400000D03*
X120000000Y-62600000D03*
X125900000Y-59200000D03*
X131700000Y-57100000D03*
X146000000Y-56700000D03*
X152900000Y-58600000D03*
X158000000Y-61500000D03*
X163700000Y-65800000D03*
X168300000Y-71200000D03*
X171600000Y-77600000D03*
X173200000Y-83300000D03*
X173700000Y-90500000D03*
X172600000Y-97400000D03*
X170400000Y-104300000D03*
X166900000Y-110500000D03*
X162900000Y-114600000D03*
X138800000Y-56400000D03*
X107700000Y-94500000D03*
X108600000Y-94500000D03*
X108600000Y-95400000D03*
X108600000Y-96300000D03*
X107700000Y-96300000D03*
X107700000Y-95400000D03*
X106800000Y-95400000D03*
X106800000Y-96300000D03*
X106800000Y-97200000D03*
X107700000Y-97200000D03*
X108600000Y-97200000D03*
X106800000Y-94500000D03*
%TO.N,/ENC_A*%
X147000000Y-95500000D03*
%TO.N,/ENC_B*%
X162000000Y-97500000D03*
%TO.N,/LED*%
X160900000Y-102300000D03*
X117400000Y-114700000D03*
%TO.N,Net-(R1-Pad1)*%
X146000000Y-119500000D03*
X146000000Y-114900000D03*
%TO.N,/Motor*%
X166000000Y-103500000D03*
X167499962Y-102000000D03*
%TO.N,/ENC_SW*%
X154000000Y-96300000D03*
%TO.N,Net-(RV1-Pad2)*%
X142500000Y-100500000D03*
X145530002Y-101500000D03*
%TO.N,/TX_ESP*%
X163100000Y-86000000D03*
X143800000Y-75600000D03*
%TO.N,/RX_ESP*%
X143200000Y-76900000D03*
X162200000Y-86700000D03*
%TD*%
D21*
%TO.N,GND*%
X143106440Y-50925286D02*
X145578457Y-51200979D01*
X148028012Y-51632902D01*
X150445241Y-52219315D01*
X152820410Y-52957858D01*
X155143956Y-53845556D01*
X157406523Y-54878836D01*
X159599000Y-56053536D01*
X161712559Y-57364927D01*
X163738689Y-58807727D01*
X165669231Y-60376128D01*
X167496413Y-62063814D01*
X169212876Y-63863989D01*
X170811709Y-65769404D01*
X172286475Y-67772387D01*
X173631234Y-69864874D01*
X174840572Y-72038437D01*
X175909619Y-74284325D01*
X176834071Y-76593494D01*
X177610206Y-78956647D01*
X178234897Y-81364268D01*
X178705630Y-83806661D01*
X179020508Y-86273993D01*
X179178265Y-88756328D01*
X179178265Y-91243672D01*
X179020508Y-93726007D01*
X178705630Y-96193339D01*
X178234897Y-98635732D01*
X177610206Y-101043353D01*
X176834071Y-103406506D01*
X175909619Y-105715675D01*
X174840572Y-107961563D01*
X173631234Y-110135126D01*
X172286475Y-112227613D01*
X170811709Y-114230596D01*
X169212876Y-116136011D01*
X167496413Y-117936186D01*
X165669231Y-119623872D01*
X163738689Y-121192273D01*
X161712559Y-122635073D01*
X159599000Y-123946464D01*
X157406523Y-125121164D01*
X155143956Y-126154444D01*
X152820410Y-127042142D01*
X150445241Y-127780685D01*
X148028012Y-128367098D01*
X145578457Y-128799021D01*
X143106440Y-129074714D01*
X140621914Y-129193066D01*
X138134884Y-129153602D01*
X135655364Y-128956480D01*
X133193339Y-128602494D01*
X130758721Y-128093070D01*
X128361315Y-127430258D01*
X126010774Y-126616728D01*
X123716562Y-125655755D01*
X121487918Y-124551209D01*
X119333816Y-123307537D01*
X118104715Y-122489799D01*
X157410500Y-122489799D01*
X157410500Y-122780743D01*
X157467260Y-123066096D01*
X157578599Y-123334893D01*
X157740239Y-123576804D01*
X157945967Y-123782532D01*
X158187878Y-123944172D01*
X158456675Y-124055511D01*
X158742028Y-124112271D01*
X159032972Y-124112271D01*
X159318325Y-124055511D01*
X159587122Y-123944172D01*
X159829033Y-123782532D01*
X160034761Y-123576804D01*
X160196401Y-123334893D01*
X160307740Y-123066096D01*
X160364500Y-122780743D01*
X160364500Y-122489799D01*
X160307740Y-122204446D01*
X160196401Y-121935649D01*
X160034761Y-121693738D01*
X159829033Y-121488010D01*
X159587122Y-121326370D01*
X159318325Y-121215031D01*
X159032972Y-121158271D01*
X158742028Y-121158271D01*
X158456675Y-121215031D01*
X158187878Y-121326370D01*
X157945967Y-121488010D01*
X157740239Y-121693738D01*
X157578599Y-121935649D01*
X157467260Y-122204446D01*
X157410500Y-122489799D01*
X118104715Y-122489799D01*
X117262929Y-121929748D01*
X115517405Y-120601327D01*
X119779184Y-120601327D01*
X119988840Y-120919649D01*
X120256569Y-121190952D01*
X120572081Y-121404811D01*
X120923254Y-121553008D01*
X121296591Y-121629846D01*
X121576503Y-121639010D01*
X121838308Y-121449424D01*
X121410197Y-119851695D01*
X119812468Y-120279805D01*
X119779184Y-120601327D01*
X115517405Y-120601327D01*
X115283597Y-120423389D01*
X114532610Y-119772655D01*
X119557142Y-119772655D01*
X119746728Y-120034460D01*
X120674159Y-119785955D01*
X121655543Y-119785955D01*
X122083653Y-121383684D01*
X122405175Y-121416968D01*
X122723497Y-121207312D01*
X122994800Y-120939583D01*
X123208659Y-120624071D01*
X123356856Y-120272898D01*
X123433694Y-119899561D01*
X123442858Y-119619649D01*
X123253272Y-119357844D01*
X121655543Y-119785955D01*
X120674159Y-119785955D01*
X121344457Y-119606349D01*
X120916347Y-118008620D01*
X120594825Y-117975336D01*
X120276503Y-118184992D01*
X120005200Y-118452721D01*
X119791341Y-118768233D01*
X119643144Y-119119406D01*
X119566306Y-119492743D01*
X119557142Y-119772655D01*
X114532610Y-119772655D01*
X113403788Y-118794526D01*
X112538522Y-117942880D01*
X121161692Y-117942880D01*
X121589803Y-119540609D01*
X122680215Y-119248434D01*
X125043319Y-119248434D01*
X125043319Y-119647718D01*
X125121215Y-120039330D01*
X125274015Y-120408221D01*
X125495845Y-120740213D01*
X125778182Y-121022550D01*
X126110174Y-121244380D01*
X126479065Y-121397180D01*
X126870677Y-121475076D01*
X127269961Y-121475076D01*
X127661573Y-121397180D01*
X128030464Y-121244380D01*
X128362456Y-121022550D01*
X128644793Y-120740213D01*
X128866623Y-120408221D01*
X129019423Y-120039330D01*
X129097319Y-119647718D01*
X129097319Y-119248434D01*
X129019423Y-118856822D01*
X128867066Y-118489000D01*
X142373000Y-118489000D01*
X142373000Y-118711000D01*
X142416310Y-118928734D01*
X142445829Y-119000000D01*
X142416310Y-119071266D01*
X142373000Y-119289000D01*
X142373000Y-119511000D01*
X142416310Y-119728734D01*
X142445829Y-119800000D01*
X142416310Y-119871266D01*
X142373000Y-120089000D01*
X142373000Y-120311000D01*
X142416310Y-120528734D01*
X142501266Y-120733835D01*
X142624602Y-120918421D01*
X142781579Y-121075398D01*
X142966165Y-121198734D01*
X143171266Y-121283690D01*
X143389000Y-121327000D01*
X143611000Y-121327000D01*
X143828734Y-121283690D01*
X144033835Y-121198734D01*
X144218421Y-121075398D01*
X144375398Y-120918421D01*
X144498734Y-120733835D01*
X144583690Y-120528734D01*
X144627000Y-120311000D01*
X144627000Y-120089000D01*
X144583690Y-119871266D01*
X144554171Y-119800000D01*
X144583690Y-119728734D01*
X144627000Y-119511000D01*
X144627000Y-119389000D01*
X144873000Y-119389000D01*
X144873000Y-119611000D01*
X144916310Y-119828734D01*
X145001266Y-120033835D01*
X145124602Y-120218421D01*
X145281579Y-120375398D01*
X145466165Y-120498734D01*
X145671266Y-120583690D01*
X145889000Y-120627000D01*
X146111000Y-120627000D01*
X146328734Y-120583690D01*
X146533835Y-120498734D01*
X146718421Y-120375398D01*
X146875398Y-120218421D01*
X146998734Y-120033835D01*
X147083690Y-119828734D01*
X147127000Y-119611000D01*
X147127000Y-119389000D01*
X147083690Y-119171266D01*
X146998734Y-118966165D01*
X146875398Y-118781579D01*
X146718421Y-118624602D01*
X146533835Y-118501266D01*
X146328734Y-118416310D01*
X146111000Y-118373000D01*
X145889000Y-118373000D01*
X145671266Y-118416310D01*
X145466165Y-118501266D01*
X145281579Y-118624602D01*
X145124602Y-118781579D01*
X145001266Y-118966165D01*
X144916310Y-119171266D01*
X144873000Y-119389000D01*
X144627000Y-119389000D01*
X144627000Y-119289000D01*
X144583690Y-119071266D01*
X144554171Y-119000000D01*
X144583690Y-118928734D01*
X144627000Y-118711000D01*
X144627000Y-118489000D01*
X144583690Y-118271266D01*
X144498734Y-118066165D01*
X144375398Y-117881579D01*
X144218421Y-117724602D01*
X144033835Y-117601266D01*
X143828734Y-117516310D01*
X143611000Y-117473000D01*
X143389000Y-117473000D01*
X143171266Y-117516310D01*
X142966165Y-117601266D01*
X142781579Y-117724602D01*
X142624602Y-117881579D01*
X142501266Y-118066165D01*
X142416310Y-118271266D01*
X142373000Y-118489000D01*
X128867066Y-118489000D01*
X128866623Y-118487931D01*
X128644793Y-118155939D01*
X128362456Y-117873602D01*
X128030464Y-117651772D01*
X127661573Y-117498972D01*
X127269961Y-117421076D01*
X126870677Y-117421076D01*
X126479065Y-117498972D01*
X126110174Y-117651772D01*
X125778182Y-117873602D01*
X125495845Y-118155939D01*
X125274015Y-118487931D01*
X125121215Y-118856822D01*
X125043319Y-119248434D01*
X122680215Y-119248434D01*
X123187532Y-119112499D01*
X123220816Y-118790977D01*
X123011160Y-118472655D01*
X122743431Y-118201352D01*
X122427919Y-117987493D01*
X122076746Y-117839296D01*
X121703409Y-117762458D01*
X121423497Y-117753294D01*
X121161692Y-117942880D01*
X112538522Y-117942880D01*
X111631073Y-117049717D01*
X109972590Y-115195989D01*
X109495249Y-114589000D01*
X116273000Y-114589000D01*
X116273000Y-114811000D01*
X116316310Y-115028734D01*
X116401266Y-115233835D01*
X116524602Y-115418421D01*
X116681579Y-115575398D01*
X116866165Y-115698734D01*
X117071266Y-115783690D01*
X117289000Y-115827000D01*
X117511000Y-115827000D01*
X117728734Y-115783690D01*
X117933835Y-115698734D01*
X118118421Y-115575398D01*
X118275398Y-115418421D01*
X118398734Y-115233835D01*
X118483690Y-115028734D01*
X118484709Y-115023611D01*
X121995214Y-115023611D01*
X122018542Y-115164905D01*
X122068986Y-115298932D01*
X122144609Y-115420544D01*
X122242504Y-115525065D01*
X122358908Y-115608479D01*
X124610574Y-116908479D01*
X124741016Y-116967582D01*
X124880481Y-117000100D01*
X125023611Y-117004786D01*
X125164905Y-116981458D01*
X125298932Y-116931014D01*
X125420544Y-116855391D01*
X125525065Y-116757496D01*
X125608479Y-116641092D01*
X125731726Y-116427621D01*
X153910500Y-116427621D01*
X153910500Y-116718565D01*
X153967260Y-117003918D01*
X154078599Y-117272715D01*
X154240239Y-117514626D01*
X154445967Y-117720354D01*
X154687878Y-117881994D01*
X154956675Y-117993333D01*
X155242028Y-118050093D01*
X155532972Y-118050093D01*
X155818325Y-117993333D01*
X156087122Y-117881994D01*
X156329033Y-117720354D01*
X156534761Y-117514626D01*
X156696401Y-117272715D01*
X156807740Y-117003918D01*
X156864500Y-116718565D01*
X156864500Y-116427621D01*
X156807740Y-116142268D01*
X156696401Y-115873471D01*
X156534761Y-115631560D01*
X156329033Y-115425832D01*
X156087122Y-115264192D01*
X155818325Y-115152853D01*
X155532972Y-115096093D01*
X155242028Y-115096093D01*
X154956675Y-115152853D01*
X154687878Y-115264192D01*
X154445967Y-115425832D01*
X154240239Y-115631560D01*
X154078599Y-115873471D01*
X153967260Y-116142268D01*
X153910500Y-116427621D01*
X125731726Y-116427621D01*
X126908479Y-114389426D01*
X126967582Y-114258984D01*
X127000100Y-114119519D01*
X127004786Y-113976389D01*
X126981458Y-113835095D01*
X126931014Y-113701068D01*
X126855391Y-113579456D01*
X126757496Y-113474935D01*
X126641092Y-113391521D01*
X124389426Y-112091521D01*
X124258984Y-112032418D01*
X124119519Y-111999900D01*
X123976389Y-111995214D01*
X123835095Y-112018542D01*
X123701068Y-112068986D01*
X123579456Y-112144609D01*
X123474935Y-112242504D01*
X123391521Y-112358908D01*
X122091521Y-114610574D01*
X122032418Y-114741016D01*
X121999900Y-114880481D01*
X121995214Y-115023611D01*
X118484709Y-115023611D01*
X118527000Y-114811000D01*
X118527000Y-114589000D01*
X118483690Y-114371266D01*
X118398734Y-114166165D01*
X118275398Y-113981579D01*
X118118421Y-113824602D01*
X117933835Y-113701266D01*
X117728734Y-113616310D01*
X117511000Y-113573000D01*
X117289000Y-113573000D01*
X117071266Y-113616310D01*
X116866165Y-113701266D01*
X116681579Y-113824602D01*
X116524602Y-113981579D01*
X116401266Y-114166165D01*
X116316310Y-114371266D01*
X116273000Y-114589000D01*
X109495249Y-114589000D01*
X108435016Y-113240805D01*
X107160142Y-111389000D01*
X112273000Y-111389000D01*
X112273000Y-111611000D01*
X112316310Y-111828734D01*
X112401266Y-112033835D01*
X112524602Y-112218421D01*
X112681579Y-112375398D01*
X112866165Y-112498734D01*
X113071266Y-112583690D01*
X113289000Y-112627000D01*
X113511000Y-112627000D01*
X113728734Y-112583690D01*
X113933835Y-112498734D01*
X114118421Y-112375398D01*
X114275398Y-112218421D01*
X114398734Y-112033835D01*
X114483690Y-111828734D01*
X114527000Y-111611000D01*
X114527000Y-111589000D01*
X136173000Y-111589000D01*
X136173000Y-111811000D01*
X136216310Y-112028734D01*
X136266540Y-112150000D01*
X136216310Y-112271266D01*
X136173000Y-112489000D01*
X136173000Y-112711000D01*
X136216310Y-112928734D01*
X136266540Y-113050000D01*
X136216310Y-113171266D01*
X136173000Y-113389000D01*
X136173000Y-113611000D01*
X136216310Y-113828734D01*
X136266540Y-113950000D01*
X136216310Y-114071266D01*
X136173000Y-114289000D01*
X136173000Y-114511000D01*
X136216310Y-114728734D01*
X136301266Y-114933835D01*
X136424602Y-115118421D01*
X136581579Y-115275398D01*
X136766165Y-115398734D01*
X136971266Y-115483690D01*
X137189000Y-115527000D01*
X137411000Y-115527000D01*
X137628734Y-115483690D01*
X137750000Y-115433460D01*
X137871266Y-115483690D01*
X138089000Y-115527000D01*
X138311000Y-115527000D01*
X138528734Y-115483690D01*
X138733835Y-115398734D01*
X138918421Y-115275398D01*
X139075398Y-115118421D01*
X139198734Y-114933835D01*
X139258726Y-114789000D01*
X144873000Y-114789000D01*
X144873000Y-115011000D01*
X144916310Y-115228734D01*
X145001266Y-115433835D01*
X145124602Y-115618421D01*
X145281579Y-115775398D01*
X145466165Y-115898734D01*
X145671266Y-115983690D01*
X145889000Y-116027000D01*
X146111000Y-116027000D01*
X146328734Y-115983690D01*
X146533835Y-115898734D01*
X146718421Y-115775398D01*
X146875398Y-115618421D01*
X146998734Y-115433835D01*
X147083690Y-115228734D01*
X147127000Y-115011000D01*
X147127000Y-114789000D01*
X147083690Y-114571266D01*
X147049615Y-114489000D01*
X161773000Y-114489000D01*
X161773000Y-114711000D01*
X161816310Y-114928734D01*
X161901266Y-115133835D01*
X162024602Y-115318421D01*
X162181579Y-115475398D01*
X162366165Y-115598734D01*
X162571266Y-115683690D01*
X162789000Y-115727000D01*
X163011000Y-115727000D01*
X163228734Y-115683690D01*
X163433835Y-115598734D01*
X163618421Y-115475398D01*
X163775398Y-115318421D01*
X163898734Y-115133835D01*
X163983690Y-114928734D01*
X164027000Y-114711000D01*
X164027000Y-114489000D01*
X163983690Y-114271266D01*
X163898734Y-114066165D01*
X163775398Y-113881579D01*
X163618421Y-113724602D01*
X163433835Y-113601266D01*
X163228734Y-113516310D01*
X163011000Y-113473000D01*
X162789000Y-113473000D01*
X162571266Y-113516310D01*
X162366165Y-113601266D01*
X162181579Y-113724602D01*
X162024602Y-113881579D01*
X161901266Y-114066165D01*
X161816310Y-114271266D01*
X161773000Y-114489000D01*
X147049615Y-114489000D01*
X146998734Y-114366165D01*
X146875398Y-114181579D01*
X146718421Y-114024602D01*
X146533835Y-113901266D01*
X146328734Y-113816310D01*
X146111000Y-113773000D01*
X145889000Y-113773000D01*
X145671266Y-113816310D01*
X145466165Y-113901266D01*
X145281579Y-114024602D01*
X145124602Y-114181579D01*
X145001266Y-114366165D01*
X144916310Y-114571266D01*
X144873000Y-114789000D01*
X139258726Y-114789000D01*
X139283690Y-114728734D01*
X139327000Y-114511000D01*
X139327000Y-114289000D01*
X139283690Y-114071266D01*
X139233460Y-113950000D01*
X139283690Y-113828734D01*
X139327000Y-113611000D01*
X139327000Y-113389000D01*
X139283690Y-113171266D01*
X139233460Y-113050000D01*
X139283690Y-112928734D01*
X139327000Y-112711000D01*
X139327000Y-112489000D01*
X139283690Y-112271266D01*
X139233460Y-112150000D01*
X139283690Y-112028734D01*
X139327000Y-111811000D01*
X139327000Y-111589000D01*
X139283690Y-111371266D01*
X139198734Y-111166165D01*
X139075398Y-110981579D01*
X138918421Y-110824602D01*
X138733835Y-110701266D01*
X138528734Y-110616310D01*
X138311000Y-110573000D01*
X138089000Y-110573000D01*
X137871266Y-110616310D01*
X137750000Y-110666540D01*
X137628734Y-110616310D01*
X137411000Y-110573000D01*
X137189000Y-110573000D01*
X136971266Y-110616310D01*
X136766165Y-110701266D01*
X136581579Y-110824602D01*
X136424602Y-110981579D01*
X136301266Y-111166165D01*
X136216310Y-111371266D01*
X136173000Y-111589000D01*
X114527000Y-111589000D01*
X114527000Y-111389000D01*
X114483690Y-111171266D01*
X114398734Y-110966165D01*
X114275398Y-110781579D01*
X114118421Y-110624602D01*
X113933835Y-110501266D01*
X113728734Y-110416310D01*
X113591438Y-110389000D01*
X165773000Y-110389000D01*
X165773000Y-110611000D01*
X165816310Y-110828734D01*
X165901266Y-111033835D01*
X166024602Y-111218421D01*
X166181579Y-111375398D01*
X166366165Y-111498734D01*
X166571266Y-111583690D01*
X166789000Y-111627000D01*
X167011000Y-111627000D01*
X167228734Y-111583690D01*
X167433835Y-111498734D01*
X167618421Y-111375398D01*
X167775398Y-111218421D01*
X167898734Y-111033835D01*
X167983690Y-110828734D01*
X168027000Y-110611000D01*
X168027000Y-110389000D01*
X167983690Y-110171266D01*
X167898734Y-109966165D01*
X167775398Y-109781579D01*
X167618421Y-109624602D01*
X167433835Y-109501266D01*
X167228734Y-109416310D01*
X167011000Y-109373000D01*
X166789000Y-109373000D01*
X166571266Y-109416310D01*
X166366165Y-109501266D01*
X166181579Y-109624602D01*
X166024602Y-109781579D01*
X165901266Y-109966165D01*
X165816310Y-110171266D01*
X165773000Y-110389000D01*
X113591438Y-110389000D01*
X113511000Y-110373000D01*
X113289000Y-110373000D01*
X113071266Y-110416310D01*
X112866165Y-110501266D01*
X112681579Y-110624602D01*
X112524602Y-110781579D01*
X112401266Y-110966165D01*
X112316310Y-111171266D01*
X112273000Y-111389000D01*
X107160142Y-111389000D01*
X107024544Y-111192039D01*
X105746852Y-109057940D01*
X104607086Y-106847101D01*
X103968955Y-105389000D01*
X108373000Y-105389000D01*
X108373000Y-105611000D01*
X108416310Y-105828734D01*
X108501266Y-106033835D01*
X108624602Y-106218421D01*
X108781579Y-106375398D01*
X108966165Y-106498734D01*
X109171266Y-106583690D01*
X109389000Y-106627000D01*
X109611000Y-106627000D01*
X109828734Y-106583690D01*
X110033835Y-106498734D01*
X110218421Y-106375398D01*
X110375398Y-106218421D01*
X110498734Y-106033835D01*
X110583690Y-105828734D01*
X110627000Y-105611000D01*
X110627000Y-105389000D01*
X110583690Y-105171266D01*
X110498734Y-104966165D01*
X110375398Y-104781579D01*
X110218421Y-104624602D01*
X110033835Y-104501266D01*
X109828734Y-104416310D01*
X109611000Y-104373000D01*
X109389000Y-104373000D01*
X109171266Y-104416310D01*
X108966165Y-104501266D01*
X108781579Y-104624602D01*
X108624602Y-104781579D01*
X108501266Y-104966165D01*
X108416310Y-105171266D01*
X108373000Y-105389000D01*
X103968955Y-105389000D01*
X103609834Y-104568425D01*
X102759112Y-102231087D01*
X102330337Y-100770811D01*
X129673000Y-100770811D01*
X129673000Y-101229189D01*
X129762426Y-101678761D01*
X129937840Y-102102248D01*
X130192501Y-102483376D01*
X130516624Y-102807499D01*
X130897752Y-103062160D01*
X131321239Y-103237574D01*
X131770811Y-103327000D01*
X132229189Y-103327000D01*
X132678761Y-103237574D01*
X133102248Y-103062160D01*
X133483376Y-102807499D01*
X133807499Y-102483376D01*
X134062160Y-102102248D01*
X134237574Y-101678761D01*
X134327000Y-101229189D01*
X134327000Y-100770811D01*
X134251053Y-100389000D01*
X141373000Y-100389000D01*
X141373000Y-100611000D01*
X141416310Y-100828734D01*
X141501266Y-101033835D01*
X141624602Y-101218421D01*
X141781579Y-101375398D01*
X141966165Y-101498734D01*
X141984611Y-101506374D01*
X141916310Y-101671266D01*
X141873000Y-101889000D01*
X141873000Y-102111000D01*
X141916310Y-102328734D01*
X142001266Y-102533835D01*
X142124602Y-102718421D01*
X142281579Y-102875398D01*
X142466165Y-102998734D01*
X142671266Y-103083690D01*
X142889000Y-103127000D01*
X143111000Y-103127000D01*
X143328734Y-103083690D01*
X143533835Y-102998734D01*
X143718421Y-102875398D01*
X143875398Y-102718421D01*
X143998734Y-102533835D01*
X144083690Y-102328734D01*
X144127000Y-102111000D01*
X144127000Y-101889000D01*
X144083690Y-101671266D01*
X143998734Y-101466165D01*
X143947175Y-101389000D01*
X144403002Y-101389000D01*
X144403002Y-101611000D01*
X144446312Y-101828734D01*
X144531268Y-102033835D01*
X144654604Y-102218421D01*
X144811581Y-102375398D01*
X144996167Y-102498734D01*
X145201268Y-102583690D01*
X145419002Y-102627000D01*
X145641002Y-102627000D01*
X145858736Y-102583690D01*
X146063837Y-102498734D01*
X146248423Y-102375398D01*
X146405400Y-102218421D01*
X146528736Y-102033835D01*
X146547307Y-101989000D01*
X149973000Y-101989000D01*
X149973000Y-102211000D01*
X150016310Y-102428734D01*
X150101266Y-102633835D01*
X150224602Y-102818421D01*
X150381579Y-102975398D01*
X150566165Y-103098734D01*
X150771266Y-103183690D01*
X150989000Y-103227000D01*
X151211000Y-103227000D01*
X151428734Y-103183690D01*
X151633835Y-103098734D01*
X151818421Y-102975398D01*
X151975398Y-102818421D01*
X152098734Y-102633835D01*
X152183690Y-102428734D01*
X152227000Y-102211000D01*
X152227000Y-102189000D01*
X159773000Y-102189000D01*
X159773000Y-102411000D01*
X159816310Y-102628734D01*
X159901266Y-102833835D01*
X160024602Y-103018421D01*
X160181579Y-103175398D01*
X160366165Y-103298734D01*
X160571266Y-103383690D01*
X160789000Y-103427000D01*
X161011000Y-103427000D01*
X161202038Y-103389000D01*
X164873000Y-103389000D01*
X164873000Y-103611000D01*
X164916310Y-103828734D01*
X165001266Y-104033835D01*
X165124602Y-104218421D01*
X165281579Y-104375398D01*
X165466165Y-104498734D01*
X165671266Y-104583690D01*
X165889000Y-104627000D01*
X166111000Y-104627000D01*
X166328734Y-104583690D01*
X166533835Y-104498734D01*
X166718421Y-104375398D01*
X166875398Y-104218421D01*
X166895056Y-104189000D01*
X169273000Y-104189000D01*
X169273000Y-104411000D01*
X169316310Y-104628734D01*
X169401266Y-104833835D01*
X169524602Y-105018421D01*
X169681579Y-105175398D01*
X169866165Y-105298734D01*
X170071266Y-105383690D01*
X170289000Y-105427000D01*
X170511000Y-105427000D01*
X170728734Y-105383690D01*
X170933835Y-105298734D01*
X171118421Y-105175398D01*
X171275398Y-105018421D01*
X171398734Y-104833835D01*
X171483690Y-104628734D01*
X171527000Y-104411000D01*
X171527000Y-104189000D01*
X171483690Y-103971266D01*
X171398734Y-103766165D01*
X171275398Y-103581579D01*
X171118421Y-103424602D01*
X170933835Y-103301266D01*
X170728734Y-103216310D01*
X170511000Y-103173000D01*
X170289000Y-103173000D01*
X170071266Y-103216310D01*
X169866165Y-103301266D01*
X169681579Y-103424602D01*
X169524602Y-103581579D01*
X169401266Y-103766165D01*
X169316310Y-103971266D01*
X169273000Y-104189000D01*
X166895056Y-104189000D01*
X166998734Y-104033835D01*
X167083690Y-103828734D01*
X167127000Y-103611000D01*
X167127000Y-103389000D01*
X167083690Y-103171266D01*
X167021772Y-103021783D01*
X167171228Y-103083690D01*
X167388962Y-103127000D01*
X167610962Y-103127000D01*
X167828696Y-103083690D01*
X168033797Y-102998734D01*
X168218383Y-102875398D01*
X168375360Y-102718421D01*
X168498696Y-102533835D01*
X168583652Y-102328734D01*
X168626962Y-102111000D01*
X168626962Y-101889000D01*
X168583652Y-101671266D01*
X168498696Y-101466165D01*
X168375360Y-101281579D01*
X168218383Y-101124602D01*
X168033797Y-101001266D01*
X167828696Y-100916310D01*
X167610962Y-100873000D01*
X167388962Y-100873000D01*
X167171228Y-100916310D01*
X166966127Y-101001266D01*
X166781541Y-101124602D01*
X166624564Y-101281579D01*
X166501228Y-101466165D01*
X166416272Y-101671266D01*
X166372962Y-101889000D01*
X166372962Y-102111000D01*
X166416272Y-102328734D01*
X166478190Y-102478217D01*
X166328734Y-102416310D01*
X166111000Y-102373000D01*
X165889000Y-102373000D01*
X165671266Y-102416310D01*
X165466165Y-102501266D01*
X165281579Y-102624602D01*
X165124602Y-102781579D01*
X165001266Y-102966165D01*
X164916310Y-103171266D01*
X164873000Y-103389000D01*
X161202038Y-103389000D01*
X161228734Y-103383690D01*
X161433835Y-103298734D01*
X161618421Y-103175398D01*
X161775398Y-103018421D01*
X161898734Y-102833835D01*
X161983690Y-102628734D01*
X162027000Y-102411000D01*
X162027000Y-102189000D01*
X161983690Y-101971266D01*
X161898734Y-101766165D01*
X161775398Y-101581579D01*
X161618421Y-101424602D01*
X161433835Y-101301266D01*
X161228734Y-101216310D01*
X161011000Y-101173000D01*
X160789000Y-101173000D01*
X160571266Y-101216310D01*
X160366165Y-101301266D01*
X160181579Y-101424602D01*
X160024602Y-101581579D01*
X159901266Y-101766165D01*
X159816310Y-101971266D01*
X159773000Y-102189000D01*
X152227000Y-102189000D01*
X152227000Y-101989000D01*
X152183690Y-101771266D01*
X152098734Y-101566165D01*
X151975398Y-101381579D01*
X151818421Y-101224602D01*
X151633835Y-101101266D01*
X151428734Y-101016310D01*
X151211000Y-100973000D01*
X150989000Y-100973000D01*
X150771266Y-101016310D01*
X150566165Y-101101266D01*
X150381579Y-101224602D01*
X150224602Y-101381579D01*
X150101266Y-101566165D01*
X150016310Y-101771266D01*
X149973000Y-101989000D01*
X146547307Y-101989000D01*
X146613692Y-101828734D01*
X146657002Y-101611000D01*
X146657002Y-101389000D01*
X146613692Y-101171266D01*
X146528736Y-100966165D01*
X146405400Y-100781579D01*
X146248423Y-100624602D01*
X146063837Y-100501266D01*
X145858736Y-100416310D01*
X145641002Y-100373000D01*
X145419002Y-100373000D01*
X145201268Y-100416310D01*
X144996167Y-100501266D01*
X144811581Y-100624602D01*
X144654604Y-100781579D01*
X144531268Y-100966165D01*
X144446312Y-101171266D01*
X144403002Y-101389000D01*
X143947175Y-101389000D01*
X143875398Y-101281579D01*
X143718421Y-101124602D01*
X143533835Y-101001266D01*
X143515389Y-100993626D01*
X143583690Y-100828734D01*
X143627000Y-100611000D01*
X143627000Y-100389000D01*
X143583690Y-100171266D01*
X143498734Y-99966165D01*
X143375398Y-99781579D01*
X143218421Y-99624602D01*
X143033835Y-99501266D01*
X142828734Y-99416310D01*
X142611000Y-99373000D01*
X142389000Y-99373000D01*
X142171266Y-99416310D01*
X141966165Y-99501266D01*
X141781579Y-99624602D01*
X141624602Y-99781579D01*
X141501266Y-99966165D01*
X141416310Y-100171266D01*
X141373000Y-100389000D01*
X134251053Y-100389000D01*
X134237574Y-100321239D01*
X134062160Y-99897752D01*
X133807499Y-99516624D01*
X133483376Y-99192501D01*
X133102248Y-98937840D01*
X132678761Y-98762426D01*
X132229189Y-98673000D01*
X131770811Y-98673000D01*
X131321239Y-98762426D01*
X130897752Y-98937840D01*
X130516624Y-99192501D01*
X130192501Y-99516624D01*
X129937840Y-99897752D01*
X129762426Y-100321239D01*
X129673000Y-100770811D01*
X102330337Y-100770811D01*
X102058347Y-99844499D01*
X101510359Y-97418270D01*
X101117355Y-94962171D01*
X100881196Y-92489000D01*
X104673000Y-92489000D01*
X104673000Y-92711000D01*
X104716310Y-92928734D01*
X104801266Y-93133835D01*
X104924602Y-93318421D01*
X105081579Y-93475398D01*
X105266165Y-93598734D01*
X105471266Y-93683690D01*
X105689000Y-93727000D01*
X105911000Y-93727000D01*
X105996111Y-93710070D01*
X105924602Y-93781579D01*
X105801266Y-93966165D01*
X105716310Y-94171266D01*
X105673000Y-94389000D01*
X105673000Y-94611000D01*
X105716310Y-94828734D01*
X105766540Y-94950000D01*
X105716310Y-95071266D01*
X105673000Y-95289000D01*
X105673000Y-95511000D01*
X105716310Y-95728734D01*
X105766540Y-95850000D01*
X105716310Y-95971266D01*
X105673000Y-96189000D01*
X105673000Y-96411000D01*
X105716310Y-96628734D01*
X105766540Y-96750000D01*
X105716310Y-96871266D01*
X105673000Y-97089000D01*
X105673000Y-97311000D01*
X105716310Y-97528734D01*
X105801266Y-97733835D01*
X105924602Y-97918421D01*
X106081579Y-98075398D01*
X106266165Y-98198734D01*
X106471266Y-98283690D01*
X106526396Y-98294656D01*
X106481579Y-98324602D01*
X106324602Y-98481579D01*
X106201266Y-98666165D01*
X106116310Y-98871266D01*
X106073000Y-99089000D01*
X106073000Y-99311000D01*
X106116310Y-99528734D01*
X106201266Y-99733835D01*
X106324602Y-99918421D01*
X106481579Y-100075398D01*
X106666165Y-100198734D01*
X106871266Y-100283690D01*
X107089000Y-100327000D01*
X107311000Y-100327000D01*
X107528734Y-100283690D01*
X107733835Y-100198734D01*
X107918421Y-100075398D01*
X108075398Y-99918421D01*
X108198734Y-99733835D01*
X108283690Y-99528734D01*
X108327000Y-99311000D01*
X108327000Y-99089000D01*
X108283690Y-98871266D01*
X108198734Y-98666165D01*
X108075398Y-98481579D01*
X107918421Y-98324602D01*
X107896544Y-98309984D01*
X108028734Y-98283690D01*
X108150000Y-98233460D01*
X108271266Y-98283690D01*
X108489000Y-98327000D01*
X108711000Y-98327000D01*
X108928734Y-98283690D01*
X109133835Y-98198734D01*
X109318421Y-98075398D01*
X109475398Y-97918421D01*
X109598734Y-97733835D01*
X109683690Y-97528734D01*
X109727000Y-97311000D01*
X109727000Y-97089000D01*
X109683690Y-96871266D01*
X109633460Y-96750000D01*
X109683690Y-96628734D01*
X109727000Y-96411000D01*
X109727000Y-96189000D01*
X109683690Y-95971266D01*
X109633460Y-95850000D01*
X109683690Y-95728734D01*
X109727000Y-95511000D01*
X109727000Y-95289000D01*
X109683690Y-95071266D01*
X109633460Y-94950000D01*
X109683690Y-94828734D01*
X109727000Y-94611000D01*
X109727000Y-94600000D01*
X137669483Y-94600000D01*
X137669483Y-96600000D01*
X137683520Y-96742517D01*
X137725090Y-96879557D01*
X137792597Y-97005853D01*
X137883446Y-97116554D01*
X137994147Y-97207403D01*
X138120443Y-97274910D01*
X138257483Y-97316480D01*
X138400000Y-97330517D01*
X141600000Y-97330517D01*
X141742517Y-97316480D01*
X141879557Y-97274910D01*
X142005853Y-97207403D01*
X142116554Y-97116554D01*
X142207403Y-97005853D01*
X142274910Y-96879557D01*
X142316480Y-96742517D01*
X142330517Y-96600000D01*
X142330517Y-95389000D01*
X145873000Y-95389000D01*
X145873000Y-95611000D01*
X145916310Y-95828734D01*
X146001266Y-96033835D01*
X146124602Y-96218421D01*
X146281579Y-96375398D01*
X146466165Y-96498734D01*
X146671266Y-96583690D01*
X146889000Y-96627000D01*
X147111000Y-96627000D01*
X147328734Y-96583690D01*
X147533835Y-96498734D01*
X147718421Y-96375398D01*
X147875398Y-96218421D01*
X147895056Y-96189000D01*
X152873000Y-96189000D01*
X152873000Y-96411000D01*
X152916310Y-96628734D01*
X153001266Y-96833835D01*
X153124602Y-97018421D01*
X153281579Y-97175398D01*
X153466165Y-97298734D01*
X153671266Y-97383690D01*
X153889000Y-97427000D01*
X154111000Y-97427000D01*
X154302038Y-97389000D01*
X160873000Y-97389000D01*
X160873000Y-97611000D01*
X160916310Y-97828734D01*
X161001266Y-98033835D01*
X161124602Y-98218421D01*
X161281579Y-98375398D01*
X161466165Y-98498734D01*
X161671266Y-98583690D01*
X161889000Y-98627000D01*
X162111000Y-98627000D01*
X162328734Y-98583690D01*
X162533835Y-98498734D01*
X162718421Y-98375398D01*
X162875398Y-98218421D01*
X162998734Y-98033835D01*
X163083690Y-97828734D01*
X163127000Y-97611000D01*
X163127000Y-97389000D01*
X163107109Y-97289000D01*
X171473000Y-97289000D01*
X171473000Y-97511000D01*
X171516310Y-97728734D01*
X171601266Y-97933835D01*
X171724602Y-98118421D01*
X171881579Y-98275398D01*
X172066165Y-98398734D01*
X172271266Y-98483690D01*
X172489000Y-98527000D01*
X172711000Y-98527000D01*
X172928734Y-98483690D01*
X173133835Y-98398734D01*
X173318421Y-98275398D01*
X173475398Y-98118421D01*
X173598734Y-97933835D01*
X173683690Y-97728734D01*
X173727000Y-97511000D01*
X173727000Y-97289000D01*
X173683690Y-97071266D01*
X173598734Y-96866165D01*
X173475398Y-96681579D01*
X173318421Y-96524602D01*
X173133835Y-96401266D01*
X172928734Y-96316310D01*
X172711000Y-96273000D01*
X172489000Y-96273000D01*
X172271266Y-96316310D01*
X172066165Y-96401266D01*
X171881579Y-96524602D01*
X171724602Y-96681579D01*
X171601266Y-96866165D01*
X171516310Y-97071266D01*
X171473000Y-97289000D01*
X163107109Y-97289000D01*
X163083690Y-97171266D01*
X162998734Y-96966165D01*
X162875398Y-96781579D01*
X162718421Y-96624602D01*
X162533835Y-96501266D01*
X162328734Y-96416310D01*
X162111000Y-96373000D01*
X161889000Y-96373000D01*
X161671266Y-96416310D01*
X161466165Y-96501266D01*
X161281579Y-96624602D01*
X161124602Y-96781579D01*
X161001266Y-96966165D01*
X160916310Y-97171266D01*
X160873000Y-97389000D01*
X154302038Y-97389000D01*
X154328734Y-97383690D01*
X154533835Y-97298734D01*
X154718421Y-97175398D01*
X154875398Y-97018421D01*
X154998734Y-96833835D01*
X155083690Y-96628734D01*
X155127000Y-96411000D01*
X155127000Y-96189000D01*
X155083690Y-95971266D01*
X154998734Y-95766165D01*
X154875398Y-95581579D01*
X154718421Y-95424602D01*
X154533835Y-95301266D01*
X154328734Y-95216310D01*
X154111000Y-95173000D01*
X153889000Y-95173000D01*
X153671266Y-95216310D01*
X153466165Y-95301266D01*
X153281579Y-95424602D01*
X153124602Y-95581579D01*
X153001266Y-95766165D01*
X152916310Y-95971266D01*
X152873000Y-96189000D01*
X147895056Y-96189000D01*
X147998734Y-96033835D01*
X148083690Y-95828734D01*
X148127000Y-95611000D01*
X148127000Y-95389000D01*
X148083690Y-95171266D01*
X147998734Y-94966165D01*
X147875398Y-94781579D01*
X147718421Y-94624602D01*
X147533835Y-94501266D01*
X147328734Y-94416310D01*
X147111000Y-94373000D01*
X146889000Y-94373000D01*
X146671266Y-94416310D01*
X146466165Y-94501266D01*
X146281579Y-94624602D01*
X146124602Y-94781579D01*
X146001266Y-94966165D01*
X145916310Y-95171266D01*
X145873000Y-95389000D01*
X142330517Y-95389000D01*
X142330517Y-94600000D01*
X142316480Y-94457483D01*
X142274910Y-94320443D01*
X142207403Y-94194147D01*
X142116554Y-94083446D01*
X142005853Y-93992597D01*
X141879557Y-93925090D01*
X141742517Y-93883520D01*
X141600000Y-93869483D01*
X138400000Y-93869483D01*
X138257483Y-93883520D01*
X138120443Y-93925090D01*
X137994147Y-93992597D01*
X137883446Y-94083446D01*
X137792597Y-94194147D01*
X137725090Y-94320443D01*
X137683520Y-94457483D01*
X137669483Y-94600000D01*
X109727000Y-94600000D01*
X109727000Y-94389000D01*
X109683690Y-94171266D01*
X109598734Y-93966165D01*
X109475398Y-93781579D01*
X109318421Y-93624602D01*
X109133835Y-93501266D01*
X108928734Y-93416310D01*
X108711000Y-93373000D01*
X108489000Y-93373000D01*
X108271266Y-93416310D01*
X108150000Y-93466540D01*
X108028734Y-93416310D01*
X107811000Y-93373000D01*
X107589000Y-93373000D01*
X107371266Y-93416310D01*
X107250000Y-93466540D01*
X107128734Y-93416310D01*
X106911000Y-93373000D01*
X106689000Y-93373000D01*
X106603889Y-93389930D01*
X106675398Y-93318421D01*
X106798734Y-93133835D01*
X106883690Y-92928734D01*
X106927000Y-92711000D01*
X106927000Y-92489000D01*
X106895355Y-92329905D01*
X130773000Y-92329905D01*
X130773000Y-92670095D01*
X130839368Y-93003747D01*
X130969553Y-93318041D01*
X131158552Y-93600898D01*
X131399102Y-93841448D01*
X131681959Y-94030447D01*
X131996253Y-94160632D01*
X132329905Y-94227000D01*
X132670095Y-94227000D01*
X133003747Y-94160632D01*
X133318041Y-94030447D01*
X133600898Y-93841448D01*
X133841448Y-93600898D01*
X134030447Y-93318041D01*
X134160632Y-93003747D01*
X134227000Y-92670095D01*
X134227000Y-92329905D01*
X145273000Y-92329905D01*
X145273000Y-92670095D01*
X145339368Y-93003747D01*
X145469553Y-93318041D01*
X145658552Y-93600898D01*
X145899102Y-93841448D01*
X146181959Y-94030447D01*
X146496253Y-94160632D01*
X146829905Y-94227000D01*
X147170095Y-94227000D01*
X147503747Y-94160632D01*
X147818041Y-94030447D01*
X148100898Y-93841448D01*
X148341448Y-93600898D01*
X148530447Y-93318041D01*
X148660632Y-93003747D01*
X148727000Y-92670095D01*
X148727000Y-92329905D01*
X148660632Y-91996253D01*
X148530447Y-91681959D01*
X148341448Y-91399102D01*
X148100898Y-91158552D01*
X147818041Y-90969553D01*
X147503747Y-90839368D01*
X147170095Y-90773000D01*
X146829905Y-90773000D01*
X146496253Y-90839368D01*
X146181959Y-90969553D01*
X145899102Y-91158552D01*
X145658552Y-91399102D01*
X145469553Y-91681959D01*
X145339368Y-91996253D01*
X145273000Y-92329905D01*
X134227000Y-92329905D01*
X134160632Y-91996253D01*
X134030447Y-91681959D01*
X133841448Y-91399102D01*
X133600898Y-91158552D01*
X133318041Y-90969553D01*
X133270083Y-90949688D01*
X132500000Y-90179605D01*
X131729917Y-90949688D01*
X131681959Y-90969553D01*
X131399102Y-91158552D01*
X131158552Y-91399102D01*
X130969553Y-91681959D01*
X130839368Y-91996253D01*
X130773000Y-92329905D01*
X106895355Y-92329905D01*
X106883690Y-92271266D01*
X106798734Y-92066165D01*
X106675398Y-91881579D01*
X106518421Y-91724602D01*
X106333835Y-91601266D01*
X106128734Y-91516310D01*
X105911000Y-91473000D01*
X105689000Y-91473000D01*
X105471266Y-91516310D01*
X105266165Y-91601266D01*
X105081579Y-91724602D01*
X104924602Y-91881579D01*
X104801266Y-92066165D01*
X104716310Y-92271266D01*
X104673000Y-92489000D01*
X100881196Y-92489000D01*
X100880918Y-92486091D01*
X100802000Y-90000000D01*
X100880918Y-87513909D01*
X101074273Y-85489000D01*
X105173000Y-85489000D01*
X105173000Y-85711000D01*
X105216310Y-85928734D01*
X105301266Y-86133835D01*
X105424602Y-86318421D01*
X105581579Y-86475398D01*
X105766165Y-86598734D01*
X105971266Y-86683690D01*
X106189000Y-86727000D01*
X106411000Y-86727000D01*
X106628734Y-86683690D01*
X106833835Y-86598734D01*
X106981601Y-86500000D01*
X130769483Y-86500000D01*
X130769483Y-88500000D01*
X130783520Y-88642517D01*
X130825090Y-88779557D01*
X130892597Y-88905853D01*
X130983446Y-89016554D01*
X131094147Y-89107403D01*
X131132889Y-89128111D01*
X131100186Y-89139956D01*
X130959296Y-89429571D01*
X130877616Y-89741108D01*
X130858282Y-90062595D01*
X130902039Y-90381675D01*
X131007205Y-90686088D01*
X131100186Y-90860044D01*
X131364587Y-90955808D01*
X132320395Y-90000000D01*
X132306253Y-89985858D01*
X132485858Y-89806253D01*
X132500000Y-89820395D01*
X132514143Y-89806253D01*
X132693748Y-89985858D01*
X132679605Y-90000000D01*
X133635413Y-90955808D01*
X133899814Y-90860044D01*
X134040704Y-90570429D01*
X134088271Y-90389000D01*
X172573000Y-90389000D01*
X172573000Y-90611000D01*
X172616310Y-90828734D01*
X172701266Y-91033835D01*
X172824602Y-91218421D01*
X172981579Y-91375398D01*
X173166165Y-91498734D01*
X173371266Y-91583690D01*
X173589000Y-91627000D01*
X173811000Y-91627000D01*
X174028734Y-91583690D01*
X174233835Y-91498734D01*
X174418421Y-91375398D01*
X174575398Y-91218421D01*
X174698734Y-91033835D01*
X174783690Y-90828734D01*
X174827000Y-90611000D01*
X174827000Y-90389000D01*
X174783690Y-90171266D01*
X174698734Y-89966165D01*
X174575398Y-89781579D01*
X174418421Y-89624602D01*
X174233835Y-89501266D01*
X174028734Y-89416310D01*
X173811000Y-89373000D01*
X173589000Y-89373000D01*
X173371266Y-89416310D01*
X173166165Y-89501266D01*
X172981579Y-89624602D01*
X172824602Y-89781579D01*
X172701266Y-89966165D01*
X172616310Y-90171266D01*
X172573000Y-90389000D01*
X134088271Y-90389000D01*
X134122384Y-90258892D01*
X134141718Y-89937405D01*
X134097961Y-89618325D01*
X133992795Y-89313912D01*
X133899814Y-89139956D01*
X133867111Y-89128111D01*
X133905853Y-89107403D01*
X134016554Y-89016554D01*
X134107403Y-88905853D01*
X134174910Y-88779557D01*
X134216480Y-88642517D01*
X134217179Y-88635413D01*
X146044192Y-88635413D01*
X146139956Y-88899814D01*
X146429571Y-89040704D01*
X146741108Y-89122384D01*
X147062595Y-89141718D01*
X147381675Y-89097961D01*
X147686088Y-88992795D01*
X147860044Y-88899814D01*
X147955808Y-88635413D01*
X147000000Y-87679605D01*
X146044192Y-88635413D01*
X134217179Y-88635413D01*
X134230517Y-88500000D01*
X134230517Y-87562595D01*
X145358282Y-87562595D01*
X145402039Y-87881675D01*
X145507205Y-88186088D01*
X145600186Y-88360044D01*
X145864587Y-88455808D01*
X146820395Y-87500000D01*
X147179605Y-87500000D01*
X148135413Y-88455808D01*
X148399814Y-88360044D01*
X148540704Y-88070429D01*
X148622384Y-87758892D01*
X148641718Y-87437405D01*
X148597961Y-87118325D01*
X148492795Y-86813912D01*
X148399814Y-86639956D01*
X148259127Y-86589000D01*
X161073000Y-86589000D01*
X161073000Y-86811000D01*
X161116310Y-87028734D01*
X161201266Y-87233835D01*
X161324602Y-87418421D01*
X161481579Y-87575398D01*
X161666165Y-87698734D01*
X161871266Y-87783690D01*
X162089000Y-87827000D01*
X162311000Y-87827000D01*
X162528734Y-87783690D01*
X162733835Y-87698734D01*
X162918421Y-87575398D01*
X163075398Y-87418421D01*
X163198734Y-87233835D01*
X163245859Y-87120066D01*
X163428734Y-87083690D01*
X163633835Y-86998734D01*
X163818421Y-86875398D01*
X163975398Y-86718421D01*
X164098734Y-86533835D01*
X164183690Y-86328734D01*
X164227000Y-86111000D01*
X164227000Y-85889000D01*
X164183690Y-85671266D01*
X164098734Y-85466165D01*
X163975398Y-85281579D01*
X163818421Y-85124602D01*
X163633835Y-85001266D01*
X163428734Y-84916310D01*
X163211000Y-84873000D01*
X162989000Y-84873000D01*
X162771266Y-84916310D01*
X162566165Y-85001266D01*
X162381579Y-85124602D01*
X162224602Y-85281579D01*
X162101266Y-85466165D01*
X162054141Y-85579934D01*
X161871266Y-85616310D01*
X161666165Y-85701266D01*
X161481579Y-85824602D01*
X161324602Y-85981579D01*
X161201266Y-86166165D01*
X161116310Y-86371266D01*
X161073000Y-86589000D01*
X148259127Y-86589000D01*
X148135413Y-86544192D01*
X147179605Y-87500000D01*
X146820395Y-87500000D01*
X145864587Y-86544192D01*
X145600186Y-86639956D01*
X145459296Y-86929571D01*
X145377616Y-87241108D01*
X145358282Y-87562595D01*
X134230517Y-87562595D01*
X134230517Y-86500000D01*
X134217180Y-86364587D01*
X146044192Y-86364587D01*
X147000000Y-87320395D01*
X147955808Y-86364587D01*
X147860044Y-86100186D01*
X147570429Y-85959296D01*
X147258892Y-85877616D01*
X146937405Y-85858282D01*
X146618325Y-85902039D01*
X146313912Y-86007205D01*
X146139956Y-86100186D01*
X146044192Y-86364587D01*
X134217180Y-86364587D01*
X134216480Y-86357483D01*
X134174910Y-86220443D01*
X134107403Y-86094147D01*
X134016554Y-85983446D01*
X133905853Y-85892597D01*
X133779557Y-85825090D01*
X133642517Y-85783520D01*
X133500000Y-85769483D01*
X131500000Y-85769483D01*
X131357483Y-85783520D01*
X131220443Y-85825090D01*
X131094147Y-85892597D01*
X130983446Y-85983446D01*
X130892597Y-86094147D01*
X130825090Y-86220443D01*
X130783520Y-86357483D01*
X130769483Y-86500000D01*
X106981601Y-86500000D01*
X107018421Y-86475398D01*
X107175398Y-86318421D01*
X107298734Y-86133835D01*
X107383690Y-85928734D01*
X107427000Y-85711000D01*
X107427000Y-85489000D01*
X107383690Y-85271266D01*
X107298734Y-85066165D01*
X107175398Y-84881579D01*
X107018421Y-84724602D01*
X106833835Y-84601266D01*
X106628734Y-84516310D01*
X106411000Y-84473000D01*
X106189000Y-84473000D01*
X105971266Y-84516310D01*
X105766165Y-84601266D01*
X105581579Y-84724602D01*
X105424602Y-84881579D01*
X105301266Y-85066165D01*
X105216310Y-85271266D01*
X105173000Y-85489000D01*
X101074273Y-85489000D01*
X101117355Y-85037829D01*
X101379426Y-83400000D01*
X137669483Y-83400000D01*
X137669483Y-85400000D01*
X137683520Y-85542517D01*
X137725090Y-85679557D01*
X137792597Y-85805853D01*
X137883446Y-85916554D01*
X137994147Y-86007403D01*
X138120443Y-86074910D01*
X138257483Y-86116480D01*
X138400000Y-86130517D01*
X141600000Y-86130517D01*
X141742517Y-86116480D01*
X141879557Y-86074910D01*
X142005853Y-86007403D01*
X142116554Y-85916554D01*
X142207403Y-85805853D01*
X142274910Y-85679557D01*
X142316480Y-85542517D01*
X142330517Y-85400000D01*
X142330517Y-83400000D01*
X142329434Y-83389000D01*
X150673000Y-83389000D01*
X150673000Y-83611000D01*
X150716310Y-83828734D01*
X150801266Y-84033835D01*
X150924602Y-84218421D01*
X151081579Y-84375398D01*
X151266165Y-84498734D01*
X151471266Y-84583690D01*
X151689000Y-84627000D01*
X151911000Y-84627000D01*
X152128734Y-84583690D01*
X152333835Y-84498734D01*
X152518421Y-84375398D01*
X152675398Y-84218421D01*
X152798734Y-84033835D01*
X152883690Y-83828734D01*
X152927000Y-83611000D01*
X152927000Y-83389000D01*
X152887218Y-83189000D01*
X172073000Y-83189000D01*
X172073000Y-83411000D01*
X172116310Y-83628734D01*
X172201266Y-83833835D01*
X172324602Y-84018421D01*
X172481579Y-84175398D01*
X172666165Y-84298734D01*
X172871266Y-84383690D01*
X173089000Y-84427000D01*
X173311000Y-84427000D01*
X173528734Y-84383690D01*
X173733835Y-84298734D01*
X173918421Y-84175398D01*
X174075398Y-84018421D01*
X174198734Y-83833835D01*
X174283690Y-83628734D01*
X174327000Y-83411000D01*
X174327000Y-83189000D01*
X174283690Y-82971266D01*
X174198734Y-82766165D01*
X174075398Y-82581579D01*
X173918421Y-82424602D01*
X173733835Y-82301266D01*
X173528734Y-82216310D01*
X173311000Y-82173000D01*
X173089000Y-82173000D01*
X172871266Y-82216310D01*
X172666165Y-82301266D01*
X172481579Y-82424602D01*
X172324602Y-82581579D01*
X172201266Y-82766165D01*
X172116310Y-82971266D01*
X172073000Y-83189000D01*
X152887218Y-83189000D01*
X152883690Y-83171266D01*
X152798734Y-82966165D01*
X152675398Y-82781579D01*
X152518421Y-82624602D01*
X152333835Y-82501266D01*
X152128734Y-82416310D01*
X151911000Y-82373000D01*
X151689000Y-82373000D01*
X151471266Y-82416310D01*
X151266165Y-82501266D01*
X151081579Y-82624602D01*
X150924602Y-82781579D01*
X150801266Y-82966165D01*
X150716310Y-83171266D01*
X150673000Y-83389000D01*
X142329434Y-83389000D01*
X142316480Y-83257483D01*
X142274910Y-83120443D01*
X142207403Y-82994147D01*
X142116554Y-82883446D01*
X142005853Y-82792597D01*
X141879557Y-82725090D01*
X141742517Y-82683520D01*
X141600000Y-82669483D01*
X138400000Y-82669483D01*
X138257483Y-82683520D01*
X138120443Y-82725090D01*
X137994147Y-82792597D01*
X137883446Y-82883446D01*
X137792597Y-82994147D01*
X137725090Y-83120443D01*
X137683520Y-83257483D01*
X137669483Y-83400000D01*
X101379426Y-83400000D01*
X101510359Y-82581730D01*
X102058347Y-80155501D01*
X102547675Y-78489000D01*
X106673000Y-78489000D01*
X106673000Y-78711000D01*
X106716310Y-78928734D01*
X106801266Y-79133835D01*
X106924602Y-79318421D01*
X107081579Y-79475398D01*
X107266165Y-79598734D01*
X107471266Y-79683690D01*
X107689000Y-79727000D01*
X107911000Y-79727000D01*
X108128734Y-79683690D01*
X108333835Y-79598734D01*
X108518421Y-79475398D01*
X108675398Y-79318421D01*
X108798734Y-79133835D01*
X108883690Y-78928734D01*
X108927000Y-78711000D01*
X108927000Y-78489000D01*
X108883690Y-78271266D01*
X108808193Y-78089000D01*
X133173000Y-78089000D01*
X133173000Y-78311000D01*
X133216310Y-78528734D01*
X133301266Y-78733835D01*
X133424602Y-78918421D01*
X133581579Y-79075398D01*
X133766165Y-79198734D01*
X133971266Y-79283690D01*
X134189000Y-79327000D01*
X134411000Y-79327000D01*
X134628734Y-79283690D01*
X134833835Y-79198734D01*
X135018421Y-79075398D01*
X135175398Y-78918421D01*
X135298734Y-78733835D01*
X135383690Y-78528734D01*
X135427000Y-78311000D01*
X135427000Y-78089000D01*
X135383690Y-77871266D01*
X135298734Y-77666165D01*
X135175398Y-77481579D01*
X135018421Y-77324602D01*
X134833835Y-77201266D01*
X134628734Y-77116310D01*
X134411000Y-77073000D01*
X134189000Y-77073000D01*
X133971266Y-77116310D01*
X133766165Y-77201266D01*
X133581579Y-77324602D01*
X133424602Y-77481579D01*
X133301266Y-77666165D01*
X133216310Y-77871266D01*
X133173000Y-78089000D01*
X108808193Y-78089000D01*
X108798734Y-78066165D01*
X108675398Y-77881579D01*
X108518421Y-77724602D01*
X108333835Y-77601266D01*
X108128734Y-77516310D01*
X107911000Y-77473000D01*
X107689000Y-77473000D01*
X107471266Y-77516310D01*
X107266165Y-77601266D01*
X107081579Y-77724602D01*
X106924602Y-77881579D01*
X106801266Y-78066165D01*
X106716310Y-78271266D01*
X106673000Y-78489000D01*
X102547675Y-78489000D01*
X102759112Y-77768913D01*
X103609834Y-75431575D01*
X104607086Y-73152899D01*
X104846242Y-72689000D01*
X109473000Y-72689000D01*
X109473000Y-72911000D01*
X109516310Y-73128734D01*
X109601266Y-73333835D01*
X109724602Y-73518421D01*
X109881579Y-73675398D01*
X110066165Y-73798734D01*
X110271266Y-73883690D01*
X110489000Y-73927000D01*
X110711000Y-73927000D01*
X110928734Y-73883690D01*
X111133835Y-73798734D01*
X111318421Y-73675398D01*
X111475398Y-73518421D01*
X111598734Y-73333835D01*
X111683690Y-73128734D01*
X111727000Y-72911000D01*
X111727000Y-72689000D01*
X111683690Y-72471266D01*
X111598734Y-72266165D01*
X111475398Y-72081579D01*
X111318421Y-71924602D01*
X111133835Y-71801266D01*
X110928734Y-71716310D01*
X110711000Y-71673000D01*
X110489000Y-71673000D01*
X110271266Y-71716310D01*
X110066165Y-71801266D01*
X109881579Y-71924602D01*
X109724602Y-72081579D01*
X109601266Y-72266165D01*
X109516310Y-72471266D01*
X109473000Y-72689000D01*
X104846242Y-72689000D01*
X105746852Y-70942060D01*
X106515895Y-69657545D01*
X121523000Y-69657545D01*
X121523000Y-70342455D01*
X121656619Y-71014204D01*
X121918722Y-71646977D01*
X122299238Y-72216458D01*
X122783542Y-72700762D01*
X123353023Y-73081278D01*
X123985796Y-73343381D01*
X124657545Y-73477000D01*
X125342455Y-73477000D01*
X126014204Y-73343381D01*
X126646977Y-73081278D01*
X126785080Y-72989000D01*
X142073000Y-72989000D01*
X142073000Y-73211000D01*
X142116310Y-73428734D01*
X142201266Y-73633835D01*
X142278885Y-73750000D01*
X142201266Y-73866165D01*
X142116310Y-74071266D01*
X142073000Y-74289000D01*
X142073000Y-74511000D01*
X142116310Y-74728734D01*
X142201266Y-74933835D01*
X142324602Y-75118421D01*
X142481579Y-75275398D01*
X142666165Y-75398734D01*
X142689068Y-75408221D01*
X142673000Y-75489000D01*
X142673000Y-75711000D01*
X142707445Y-75884167D01*
X142666165Y-75901266D01*
X142481579Y-76024602D01*
X142324602Y-76181579D01*
X142201266Y-76366165D01*
X142116310Y-76571266D01*
X142073000Y-76789000D01*
X142073000Y-77011000D01*
X142116310Y-77228734D01*
X142201266Y-77433835D01*
X142324602Y-77618421D01*
X142481579Y-77775398D01*
X142666165Y-77898734D01*
X142871266Y-77983690D01*
X143089000Y-78027000D01*
X143311000Y-78027000D01*
X143528734Y-77983690D01*
X143733835Y-77898734D01*
X143918421Y-77775398D01*
X144075398Y-77618421D01*
X144161874Y-77489000D01*
X170473000Y-77489000D01*
X170473000Y-77711000D01*
X170516310Y-77928734D01*
X170601266Y-78133835D01*
X170724602Y-78318421D01*
X170881579Y-78475398D01*
X171066165Y-78598734D01*
X171271266Y-78683690D01*
X171489000Y-78727000D01*
X171711000Y-78727000D01*
X171928734Y-78683690D01*
X172133835Y-78598734D01*
X172318421Y-78475398D01*
X172475398Y-78318421D01*
X172598734Y-78133835D01*
X172683690Y-77928734D01*
X172727000Y-77711000D01*
X172727000Y-77489000D01*
X172683690Y-77271266D01*
X172598734Y-77066165D01*
X172475398Y-76881579D01*
X172318421Y-76724602D01*
X172133835Y-76601266D01*
X171928734Y-76516310D01*
X171711000Y-76473000D01*
X171489000Y-76473000D01*
X171271266Y-76516310D01*
X171066165Y-76601266D01*
X170881579Y-76724602D01*
X170724602Y-76881579D01*
X170601266Y-77066165D01*
X170516310Y-77271266D01*
X170473000Y-77489000D01*
X144161874Y-77489000D01*
X144198734Y-77433835D01*
X144283690Y-77228734D01*
X144327000Y-77011000D01*
X144327000Y-76789000D01*
X144292555Y-76615833D01*
X144333835Y-76598734D01*
X144518421Y-76475398D01*
X144675398Y-76318421D01*
X144798734Y-76133835D01*
X144883690Y-75928734D01*
X144927000Y-75711000D01*
X144927000Y-75489000D01*
X144883690Y-75271266D01*
X144798734Y-75066165D01*
X144675398Y-74881579D01*
X144518421Y-74724602D01*
X144333835Y-74601266D01*
X144310932Y-74591779D01*
X144327000Y-74511000D01*
X144327000Y-74289000D01*
X144283690Y-74071266D01*
X144198734Y-73866165D01*
X144121115Y-73750000D01*
X144198734Y-73633835D01*
X144283690Y-73428734D01*
X144327000Y-73211000D01*
X144327000Y-72989000D01*
X144283690Y-72771266D01*
X144198734Y-72566165D01*
X144075398Y-72381579D01*
X143918421Y-72224602D01*
X143733835Y-72101266D01*
X143528734Y-72016310D01*
X143311000Y-71973000D01*
X143089000Y-71973000D01*
X142871266Y-72016310D01*
X142666165Y-72101266D01*
X142481579Y-72224602D01*
X142324602Y-72381579D01*
X142201266Y-72566165D01*
X142116310Y-72771266D01*
X142073000Y-72989000D01*
X126785080Y-72989000D01*
X127216458Y-72700762D01*
X127700762Y-72216458D01*
X128081278Y-71646977D01*
X128312399Y-71089000D01*
X167173000Y-71089000D01*
X167173000Y-71311000D01*
X167216310Y-71528734D01*
X167301266Y-71733835D01*
X167424602Y-71918421D01*
X167581579Y-72075398D01*
X167766165Y-72198734D01*
X167971266Y-72283690D01*
X168189000Y-72327000D01*
X168411000Y-72327000D01*
X168628734Y-72283690D01*
X168833835Y-72198734D01*
X169018421Y-72075398D01*
X169175398Y-71918421D01*
X169298734Y-71733835D01*
X169383690Y-71528734D01*
X169427000Y-71311000D01*
X169427000Y-71089000D01*
X169383690Y-70871266D01*
X169298734Y-70666165D01*
X169175398Y-70481579D01*
X169018421Y-70324602D01*
X168833835Y-70201266D01*
X168628734Y-70116310D01*
X168411000Y-70073000D01*
X168189000Y-70073000D01*
X167971266Y-70116310D01*
X167766165Y-70201266D01*
X167581579Y-70324602D01*
X167424602Y-70481579D01*
X167301266Y-70666165D01*
X167216310Y-70871266D01*
X167173000Y-71089000D01*
X128312399Y-71089000D01*
X128343381Y-71014204D01*
X128477000Y-70342455D01*
X128477000Y-69657545D01*
X128343381Y-68985796D01*
X128081278Y-68353023D01*
X127700762Y-67783542D01*
X127216458Y-67299238D01*
X126646977Y-66918722D01*
X126014204Y-66656619D01*
X125342455Y-66523000D01*
X124657545Y-66523000D01*
X123985796Y-66656619D01*
X123353023Y-66918722D01*
X122783542Y-67299238D01*
X122299238Y-67783542D01*
X121918722Y-68353023D01*
X121656619Y-68985796D01*
X121523000Y-69657545D01*
X106515895Y-69657545D01*
X107024544Y-68807961D01*
X108070271Y-67289000D01*
X113473000Y-67289000D01*
X113473000Y-67511000D01*
X113516310Y-67728734D01*
X113601266Y-67933835D01*
X113724602Y-68118421D01*
X113881579Y-68275398D01*
X114066165Y-68398734D01*
X114271266Y-68483690D01*
X114489000Y-68527000D01*
X114711000Y-68527000D01*
X114928734Y-68483690D01*
X115133835Y-68398734D01*
X115318421Y-68275398D01*
X115475398Y-68118421D01*
X115598734Y-67933835D01*
X115683690Y-67728734D01*
X115727000Y-67511000D01*
X115727000Y-67289000D01*
X115683690Y-67071266D01*
X115598734Y-66866165D01*
X115475398Y-66681579D01*
X115318421Y-66524602D01*
X115133835Y-66401266D01*
X114928734Y-66316310D01*
X114711000Y-66273000D01*
X114489000Y-66273000D01*
X114271266Y-66316310D01*
X114066165Y-66401266D01*
X113881579Y-66524602D01*
X113724602Y-66681579D01*
X113601266Y-66866165D01*
X113516310Y-67071266D01*
X113473000Y-67289000D01*
X108070271Y-67289000D01*
X108435016Y-66759195D01*
X109812957Y-65007000D01*
X132965000Y-65007000D01*
X132965000Y-65507000D01*
X133010144Y-65711355D01*
X133094288Y-65902977D01*
X133214199Y-66074501D01*
X133365269Y-66219336D01*
X133541692Y-66331916D01*
X133734938Y-66399540D01*
X133898000Y-66272257D01*
X133898000Y-65007000D01*
X134152000Y-65007000D01*
X134152000Y-66272257D01*
X134315062Y-66399540D01*
X134508308Y-66331916D01*
X134684731Y-66219336D01*
X134835801Y-66074501D01*
X134955712Y-65902977D01*
X135039856Y-65711355D01*
X135085000Y-65507000D01*
X135085000Y-65185582D01*
X135243355Y-65185582D01*
X135280354Y-65390079D01*
X135356538Y-65583428D01*
X135373885Y-65615881D01*
X135579202Y-65641193D01*
X136120395Y-65100000D01*
X135579202Y-64558807D01*
X135373885Y-64584119D01*
X135291037Y-64774708D01*
X135246962Y-64977796D01*
X135243355Y-65185582D01*
X135085000Y-65185582D01*
X135085000Y-65007000D01*
X134152000Y-65007000D01*
X133898000Y-65007000D01*
X132965000Y-65007000D01*
X109812957Y-65007000D01*
X109972590Y-64804011D01*
X110465565Y-64253000D01*
X132965000Y-64253000D01*
X132965000Y-64753000D01*
X133898000Y-64753000D01*
X133898000Y-63487743D01*
X134152000Y-63487743D01*
X134152000Y-64753000D01*
X135085000Y-64753000D01*
X135085000Y-64379202D01*
X135758807Y-64379202D01*
X135870346Y-64490741D01*
X135933542Y-64643308D01*
X136059067Y-64831170D01*
X136218830Y-64990933D01*
X136406692Y-65116458D01*
X136453000Y-65135640D01*
X136453000Y-65154890D01*
X136314143Y-65293748D01*
X136300000Y-65279605D01*
X135758807Y-65820798D01*
X135784119Y-66026115D01*
X135974708Y-66108963D01*
X136177796Y-66153038D01*
X136385582Y-66156645D01*
X136590079Y-66119646D01*
X136783428Y-66043462D01*
X136815881Y-66026115D01*
X136825554Y-65947657D01*
X136868830Y-65990933D01*
X137056692Y-66116458D01*
X137265432Y-66202922D01*
X137487030Y-66247000D01*
X137712970Y-66247000D01*
X137934568Y-66202922D01*
X138092806Y-66137377D01*
X138200443Y-66194910D01*
X138337483Y-66236480D01*
X138480000Y-66250517D01*
X139320000Y-66250517D01*
X139462517Y-66236480D01*
X139599557Y-66194910D01*
X139725853Y-66127403D01*
X139836554Y-66036554D01*
X139927403Y-65925853D01*
X139994910Y-65799557D01*
X140036480Y-65662517D01*
X140050517Y-65520000D01*
X140050517Y-65007000D01*
X140115000Y-65007000D01*
X140115000Y-65507000D01*
X140160144Y-65711355D01*
X140244288Y-65902977D01*
X140364199Y-66074501D01*
X140515269Y-66219336D01*
X140691692Y-66331916D01*
X140884938Y-66399540D01*
X141048000Y-66272257D01*
X141048000Y-65007000D01*
X141302000Y-65007000D01*
X141302000Y-66272257D01*
X141465062Y-66399540D01*
X141658308Y-66331916D01*
X141834731Y-66219336D01*
X141985801Y-66074501D01*
X142105712Y-65902977D01*
X142189856Y-65711355D01*
X142235000Y-65507000D01*
X142235000Y-65007000D01*
X141302000Y-65007000D01*
X141048000Y-65007000D01*
X140115000Y-65007000D01*
X140050517Y-65007000D01*
X140050517Y-64680000D01*
X140036480Y-64537483D01*
X139994910Y-64400443D01*
X139927403Y-64274147D01*
X139910049Y-64253000D01*
X140115000Y-64253000D01*
X140115000Y-64753000D01*
X141048000Y-64753000D01*
X141048000Y-63487743D01*
X141302000Y-63487743D01*
X141302000Y-64753000D01*
X142235000Y-64753000D01*
X142235000Y-64657545D01*
X146523000Y-64657545D01*
X146523000Y-65342455D01*
X146656619Y-66014204D01*
X146918722Y-66646977D01*
X147299238Y-67216458D01*
X147783542Y-67700762D01*
X148353023Y-68081278D01*
X148985796Y-68343381D01*
X149657545Y-68477000D01*
X150342455Y-68477000D01*
X151014204Y-68343381D01*
X151646977Y-68081278D01*
X152216458Y-67700762D01*
X152700762Y-67216458D01*
X153081278Y-66646977D01*
X153343381Y-66014204D01*
X153408068Y-65689000D01*
X162573000Y-65689000D01*
X162573000Y-65911000D01*
X162616310Y-66128734D01*
X162701266Y-66333835D01*
X162824602Y-66518421D01*
X162981579Y-66675398D01*
X163166165Y-66798734D01*
X163371266Y-66883690D01*
X163589000Y-66927000D01*
X163811000Y-66927000D01*
X164028734Y-66883690D01*
X164233835Y-66798734D01*
X164418421Y-66675398D01*
X164575398Y-66518421D01*
X164698734Y-66333835D01*
X164783690Y-66128734D01*
X164827000Y-65911000D01*
X164827000Y-65689000D01*
X164783690Y-65471266D01*
X164698734Y-65266165D01*
X164575398Y-65081579D01*
X164418421Y-64924602D01*
X164233835Y-64801266D01*
X164028734Y-64716310D01*
X163811000Y-64673000D01*
X163589000Y-64673000D01*
X163371266Y-64716310D01*
X163166165Y-64801266D01*
X162981579Y-64924602D01*
X162824602Y-65081579D01*
X162701266Y-65266165D01*
X162616310Y-65471266D01*
X162573000Y-65689000D01*
X153408068Y-65689000D01*
X153477000Y-65342455D01*
X153477000Y-64657545D01*
X153343381Y-63985796D01*
X153081278Y-63353023D01*
X152700762Y-62783542D01*
X152216458Y-62299238D01*
X151646977Y-61918722D01*
X151014204Y-61656619D01*
X150342455Y-61523000D01*
X149657545Y-61523000D01*
X148985796Y-61656619D01*
X148353023Y-61918722D01*
X147783542Y-62299238D01*
X147299238Y-62783542D01*
X146918722Y-63353023D01*
X146656619Y-63985796D01*
X146523000Y-64657545D01*
X142235000Y-64657545D01*
X142235000Y-64253000D01*
X142189856Y-64048645D01*
X142105712Y-63857023D01*
X141985801Y-63685499D01*
X141834731Y-63540664D01*
X141658308Y-63428084D01*
X141465062Y-63360460D01*
X141302000Y-63487743D01*
X141048000Y-63487743D01*
X140884938Y-63360460D01*
X140691692Y-63428084D01*
X140515269Y-63540664D01*
X140364199Y-63685499D01*
X140244288Y-63857023D01*
X140160144Y-64048645D01*
X140115000Y-64253000D01*
X139910049Y-64253000D01*
X139836554Y-64163446D01*
X139725853Y-64072597D01*
X139599557Y-64005090D01*
X139462517Y-63963520D01*
X139390921Y-63956468D01*
X139352922Y-63765432D01*
X139266458Y-63556692D01*
X139140933Y-63368830D01*
X138981170Y-63209067D01*
X138793308Y-63083542D01*
X138584568Y-62997078D01*
X138362970Y-62953000D01*
X138137030Y-62953000D01*
X137915432Y-62997078D01*
X137706692Y-63083542D01*
X137600000Y-63154831D01*
X137493308Y-63083542D01*
X137284568Y-62997078D01*
X137062970Y-62953000D01*
X136837030Y-62953000D01*
X136615432Y-62997078D01*
X136406692Y-63083542D01*
X136218830Y-63209067D01*
X136059067Y-63368830D01*
X135933542Y-63556692D01*
X135847078Y-63765432D01*
X135803000Y-63987030D01*
X135803000Y-64163793D01*
X135784119Y-64173885D01*
X135758807Y-64379202D01*
X135085000Y-64379202D01*
X135085000Y-64253000D01*
X135039856Y-64048645D01*
X134955712Y-63857023D01*
X134835801Y-63685499D01*
X134684731Y-63540664D01*
X134508308Y-63428084D01*
X134315062Y-63360460D01*
X134152000Y-63487743D01*
X133898000Y-63487743D01*
X133734938Y-63360460D01*
X133541692Y-63428084D01*
X133365269Y-63540664D01*
X133214199Y-63685499D01*
X133094288Y-63857023D01*
X133010144Y-64048645D01*
X132965000Y-64253000D01*
X110465565Y-64253000D01*
X111631073Y-62950283D01*
X112099733Y-62489000D01*
X118873000Y-62489000D01*
X118873000Y-62711000D01*
X118916310Y-62928734D01*
X119001266Y-63133835D01*
X119124602Y-63318421D01*
X119281579Y-63475398D01*
X119466165Y-63598734D01*
X119671266Y-63683690D01*
X119889000Y-63727000D01*
X120111000Y-63727000D01*
X120328734Y-63683690D01*
X120533835Y-63598734D01*
X120718421Y-63475398D01*
X120875398Y-63318421D01*
X120998734Y-63133835D01*
X121083690Y-62928734D01*
X121127000Y-62711000D01*
X121127000Y-62489000D01*
X121083690Y-62271266D01*
X120998734Y-62066165D01*
X120875398Y-61881579D01*
X120718421Y-61724602D01*
X120533835Y-61601266D01*
X120328734Y-61516310D01*
X120111000Y-61473000D01*
X119889000Y-61473000D01*
X119671266Y-61516310D01*
X119466165Y-61601266D01*
X119281579Y-61724602D01*
X119124602Y-61881579D01*
X119001266Y-62066165D01*
X118916310Y-62271266D01*
X118873000Y-62489000D01*
X112099733Y-62489000D01*
X113217326Y-61389000D01*
X156873000Y-61389000D01*
X156873000Y-61611000D01*
X156916310Y-61828734D01*
X157001266Y-62033835D01*
X157124602Y-62218421D01*
X157281579Y-62375398D01*
X157466165Y-62498734D01*
X157671266Y-62583690D01*
X157889000Y-62627000D01*
X158111000Y-62627000D01*
X158328734Y-62583690D01*
X158533835Y-62498734D01*
X158718421Y-62375398D01*
X158875398Y-62218421D01*
X158998734Y-62033835D01*
X159083690Y-61828734D01*
X159127000Y-61611000D01*
X159127000Y-61389000D01*
X159083690Y-61171266D01*
X158998734Y-60966165D01*
X158875398Y-60781579D01*
X158718421Y-60624602D01*
X158533835Y-60501266D01*
X158328734Y-60416310D01*
X158111000Y-60373000D01*
X157889000Y-60373000D01*
X157671266Y-60416310D01*
X157466165Y-60501266D01*
X157281579Y-60624602D01*
X157124602Y-60781579D01*
X157001266Y-60966165D01*
X156916310Y-61171266D01*
X156873000Y-61389000D01*
X113217326Y-61389000D01*
X113403788Y-61205474D01*
X115283597Y-59576611D01*
X115924310Y-59089000D01*
X124773000Y-59089000D01*
X124773000Y-59311000D01*
X124816310Y-59528734D01*
X124901266Y-59733835D01*
X125024602Y-59918421D01*
X125181579Y-60075398D01*
X125366165Y-60198734D01*
X125571266Y-60283690D01*
X125789000Y-60327000D01*
X126011000Y-60327000D01*
X126228734Y-60283690D01*
X126433835Y-60198734D01*
X126618421Y-60075398D01*
X126775398Y-59918421D01*
X126898734Y-59733835D01*
X126983690Y-59528734D01*
X127027000Y-59311000D01*
X127027000Y-59089000D01*
X126983690Y-58871266D01*
X126898734Y-58666165D01*
X126780357Y-58489000D01*
X151773000Y-58489000D01*
X151773000Y-58711000D01*
X151816310Y-58928734D01*
X151901266Y-59133835D01*
X152024602Y-59318421D01*
X152181579Y-59475398D01*
X152366165Y-59598734D01*
X152571266Y-59683690D01*
X152789000Y-59727000D01*
X153011000Y-59727000D01*
X153228734Y-59683690D01*
X153433835Y-59598734D01*
X153618421Y-59475398D01*
X153775398Y-59318421D01*
X153898734Y-59133835D01*
X153983690Y-58928734D01*
X154027000Y-58711000D01*
X154027000Y-58489000D01*
X153983690Y-58271266D01*
X153898734Y-58066165D01*
X153775398Y-57881579D01*
X153618421Y-57724602D01*
X153433835Y-57601266D01*
X153228734Y-57516310D01*
X153011000Y-57473000D01*
X152789000Y-57473000D01*
X152571266Y-57516310D01*
X152366165Y-57601266D01*
X152181579Y-57724602D01*
X152024602Y-57881579D01*
X151901266Y-58066165D01*
X151816310Y-58271266D01*
X151773000Y-58489000D01*
X126780357Y-58489000D01*
X126775398Y-58481579D01*
X126618421Y-58324602D01*
X126433835Y-58201266D01*
X126228734Y-58116310D01*
X126011000Y-58073000D01*
X125789000Y-58073000D01*
X125571266Y-58116310D01*
X125366165Y-58201266D01*
X125181579Y-58324602D01*
X125024602Y-58481579D01*
X124901266Y-58666165D01*
X124816310Y-58871266D01*
X124773000Y-59089000D01*
X115924310Y-59089000D01*
X117262929Y-58070252D01*
X118888105Y-56989000D01*
X130573000Y-56989000D01*
X130573000Y-57211000D01*
X130616310Y-57428734D01*
X130701266Y-57633835D01*
X130824602Y-57818421D01*
X130981579Y-57975398D01*
X131166165Y-58098734D01*
X131371266Y-58183690D01*
X131589000Y-58227000D01*
X131811000Y-58227000D01*
X132028734Y-58183690D01*
X132233835Y-58098734D01*
X132418421Y-57975398D01*
X132575398Y-57818421D01*
X132698734Y-57633835D01*
X132783690Y-57428734D01*
X132827000Y-57211000D01*
X132827000Y-56989000D01*
X132783690Y-56771266D01*
X132698734Y-56566165D01*
X132575398Y-56381579D01*
X132482819Y-56289000D01*
X137673000Y-56289000D01*
X137673000Y-56511000D01*
X137716310Y-56728734D01*
X137801266Y-56933835D01*
X137924602Y-57118421D01*
X138081579Y-57275398D01*
X138266165Y-57398734D01*
X138471266Y-57483690D01*
X138689000Y-57527000D01*
X138911000Y-57527000D01*
X139128734Y-57483690D01*
X139333835Y-57398734D01*
X139518421Y-57275398D01*
X139675398Y-57118421D01*
X139798734Y-56933835D01*
X139883690Y-56728734D01*
X139911484Y-56589000D01*
X144873000Y-56589000D01*
X144873000Y-56811000D01*
X144916310Y-57028734D01*
X145001266Y-57233835D01*
X145124602Y-57418421D01*
X145281579Y-57575398D01*
X145466165Y-57698734D01*
X145671266Y-57783690D01*
X145889000Y-57827000D01*
X146111000Y-57827000D01*
X146328734Y-57783690D01*
X146533835Y-57698734D01*
X146718421Y-57575398D01*
X146875398Y-57418421D01*
X146998734Y-57233835D01*
X147083690Y-57028734D01*
X147127000Y-56811000D01*
X147127000Y-56589000D01*
X147083690Y-56371266D01*
X146998734Y-56166165D01*
X146875398Y-55981579D01*
X146718421Y-55824602D01*
X146533835Y-55701266D01*
X146328734Y-55616310D01*
X146111000Y-55573000D01*
X145889000Y-55573000D01*
X145671266Y-55616310D01*
X145466165Y-55701266D01*
X145281579Y-55824602D01*
X145124602Y-55981579D01*
X145001266Y-56166165D01*
X144916310Y-56371266D01*
X144873000Y-56589000D01*
X139911484Y-56589000D01*
X139927000Y-56511000D01*
X139927000Y-56289000D01*
X139883690Y-56071266D01*
X139798734Y-55866165D01*
X139675398Y-55681579D01*
X139518421Y-55524602D01*
X139333835Y-55401266D01*
X139128734Y-55316310D01*
X138911000Y-55273000D01*
X138689000Y-55273000D01*
X138471266Y-55316310D01*
X138266165Y-55401266D01*
X138081579Y-55524602D01*
X137924602Y-55681579D01*
X137801266Y-55866165D01*
X137716310Y-56071266D01*
X137673000Y-56289000D01*
X132482819Y-56289000D01*
X132418421Y-56224602D01*
X132233835Y-56101266D01*
X132028734Y-56016310D01*
X131811000Y-55973000D01*
X131589000Y-55973000D01*
X131371266Y-56016310D01*
X131166165Y-56101266D01*
X130981579Y-56224602D01*
X130824602Y-56381579D01*
X130701266Y-56566165D01*
X130616310Y-56771266D01*
X130573000Y-56989000D01*
X118888105Y-56989000D01*
X119333816Y-56692463D01*
X121487918Y-55448791D01*
X123716562Y-54344245D01*
X126010774Y-53383272D01*
X128361315Y-52569742D01*
X130758721Y-51906930D01*
X133193339Y-51397506D01*
X135655364Y-51043520D01*
X138134884Y-50846398D01*
X140621914Y-50806934D01*
X143106440Y-50925286D01*
%TA.AperFunction,Conductor*%
D22*
G36*
X143106440Y-50925286D02*
G01*
X145578457Y-51200979D01*
X148028012Y-51632902D01*
X150445241Y-52219315D01*
X152820410Y-52957858D01*
X155143956Y-53845556D01*
X157406523Y-54878836D01*
X159599000Y-56053536D01*
X161712559Y-57364927D01*
X163738689Y-58807727D01*
X165669231Y-60376128D01*
X167496413Y-62063814D01*
X169212876Y-63863989D01*
X170811709Y-65769404D01*
X172286475Y-67772387D01*
X173631234Y-69864874D01*
X174840572Y-72038437D01*
X175909619Y-74284325D01*
X176834071Y-76593494D01*
X177610206Y-78956647D01*
X178234897Y-81364268D01*
X178705630Y-83806661D01*
X179020508Y-86273993D01*
X179178265Y-88756328D01*
X179178265Y-91243672D01*
X179020508Y-93726007D01*
X178705630Y-96193339D01*
X178234897Y-98635732D01*
X177610206Y-101043353D01*
X176834071Y-103406506D01*
X175909619Y-105715675D01*
X174840572Y-107961563D01*
X173631234Y-110135126D01*
X172286475Y-112227613D01*
X170811709Y-114230596D01*
X169212876Y-116136011D01*
X167496413Y-117936186D01*
X165669231Y-119623872D01*
X163738689Y-121192273D01*
X161712559Y-122635073D01*
X159599000Y-123946464D01*
X157406523Y-125121164D01*
X155143956Y-126154444D01*
X152820410Y-127042142D01*
X150445241Y-127780685D01*
X148028012Y-128367098D01*
X145578457Y-128799021D01*
X143106440Y-129074714D01*
X140621914Y-129193066D01*
X138134884Y-129153602D01*
X135655364Y-128956480D01*
X133193339Y-128602494D01*
X130758721Y-128093070D01*
X128361315Y-127430258D01*
X126010774Y-126616728D01*
X123716562Y-125655755D01*
X121487918Y-124551209D01*
X119333816Y-123307537D01*
X118104715Y-122489799D01*
X157410500Y-122489799D01*
X157410500Y-122780743D01*
X157467260Y-123066096D01*
X157578599Y-123334893D01*
X157740239Y-123576804D01*
X157945967Y-123782532D01*
X158187878Y-123944172D01*
X158456675Y-124055511D01*
X158742028Y-124112271D01*
X159032972Y-124112271D01*
X159318325Y-124055511D01*
X159587122Y-123944172D01*
X159829033Y-123782532D01*
X160034761Y-123576804D01*
X160196401Y-123334893D01*
X160307740Y-123066096D01*
X160364500Y-122780743D01*
X160364500Y-122489799D01*
X160307740Y-122204446D01*
X160196401Y-121935649D01*
X160034761Y-121693738D01*
X159829033Y-121488010D01*
X159587122Y-121326370D01*
X159318325Y-121215031D01*
X159032972Y-121158271D01*
X158742028Y-121158271D01*
X158456675Y-121215031D01*
X158187878Y-121326370D01*
X157945967Y-121488010D01*
X157740239Y-121693738D01*
X157578599Y-121935649D01*
X157467260Y-122204446D01*
X157410500Y-122489799D01*
X118104715Y-122489799D01*
X117262929Y-121929748D01*
X115517405Y-120601327D01*
X119779184Y-120601327D01*
X119988840Y-120919649D01*
X120256569Y-121190952D01*
X120572081Y-121404811D01*
X120923254Y-121553008D01*
X121296591Y-121629846D01*
X121576503Y-121639010D01*
X121838308Y-121449424D01*
X121410197Y-119851695D01*
X119812468Y-120279805D01*
X119779184Y-120601327D01*
X115517405Y-120601327D01*
X115283597Y-120423389D01*
X114532610Y-119772655D01*
X119557142Y-119772655D01*
X119746728Y-120034460D01*
X120674159Y-119785955D01*
X121655543Y-119785955D01*
X122083653Y-121383684D01*
X122405175Y-121416968D01*
X122723497Y-121207312D01*
X122994800Y-120939583D01*
X123208659Y-120624071D01*
X123356856Y-120272898D01*
X123433694Y-119899561D01*
X123442858Y-119619649D01*
X123253272Y-119357844D01*
X121655543Y-119785955D01*
X120674159Y-119785955D01*
X121344457Y-119606349D01*
X120916347Y-118008620D01*
X120594825Y-117975336D01*
X120276503Y-118184992D01*
X120005200Y-118452721D01*
X119791341Y-118768233D01*
X119643144Y-119119406D01*
X119566306Y-119492743D01*
X119557142Y-119772655D01*
X114532610Y-119772655D01*
X113403788Y-118794526D01*
X112538522Y-117942880D01*
X121161692Y-117942880D01*
X121589803Y-119540609D01*
X122680215Y-119248434D01*
X125043319Y-119248434D01*
X125043319Y-119647718D01*
X125121215Y-120039330D01*
X125274015Y-120408221D01*
X125495845Y-120740213D01*
X125778182Y-121022550D01*
X126110174Y-121244380D01*
X126479065Y-121397180D01*
X126870677Y-121475076D01*
X127269961Y-121475076D01*
X127661573Y-121397180D01*
X128030464Y-121244380D01*
X128362456Y-121022550D01*
X128644793Y-120740213D01*
X128866623Y-120408221D01*
X129019423Y-120039330D01*
X129097319Y-119647718D01*
X129097319Y-119248434D01*
X129019423Y-118856822D01*
X128867066Y-118489000D01*
X142373000Y-118489000D01*
X142373000Y-118711000D01*
X142416310Y-118928734D01*
X142445829Y-119000000D01*
X142416310Y-119071266D01*
X142373000Y-119289000D01*
X142373000Y-119511000D01*
X142416310Y-119728734D01*
X142445829Y-119800000D01*
X142416310Y-119871266D01*
X142373000Y-120089000D01*
X142373000Y-120311000D01*
X142416310Y-120528734D01*
X142501266Y-120733835D01*
X142624602Y-120918421D01*
X142781579Y-121075398D01*
X142966165Y-121198734D01*
X143171266Y-121283690D01*
X143389000Y-121327000D01*
X143611000Y-121327000D01*
X143828734Y-121283690D01*
X144033835Y-121198734D01*
X144218421Y-121075398D01*
X144375398Y-120918421D01*
X144498734Y-120733835D01*
X144583690Y-120528734D01*
X144627000Y-120311000D01*
X144627000Y-120089000D01*
X144583690Y-119871266D01*
X144554171Y-119800000D01*
X144583690Y-119728734D01*
X144627000Y-119511000D01*
X144627000Y-119389000D01*
X144873000Y-119389000D01*
X144873000Y-119611000D01*
X144916310Y-119828734D01*
X145001266Y-120033835D01*
X145124602Y-120218421D01*
X145281579Y-120375398D01*
X145466165Y-120498734D01*
X145671266Y-120583690D01*
X145889000Y-120627000D01*
X146111000Y-120627000D01*
X146328734Y-120583690D01*
X146533835Y-120498734D01*
X146718421Y-120375398D01*
X146875398Y-120218421D01*
X146998734Y-120033835D01*
X147083690Y-119828734D01*
X147127000Y-119611000D01*
X147127000Y-119389000D01*
X147083690Y-119171266D01*
X146998734Y-118966165D01*
X146875398Y-118781579D01*
X146718421Y-118624602D01*
X146533835Y-118501266D01*
X146328734Y-118416310D01*
X146111000Y-118373000D01*
X145889000Y-118373000D01*
X145671266Y-118416310D01*
X145466165Y-118501266D01*
X145281579Y-118624602D01*
X145124602Y-118781579D01*
X145001266Y-118966165D01*
X144916310Y-119171266D01*
X144873000Y-119389000D01*
X144627000Y-119389000D01*
X144627000Y-119289000D01*
X144583690Y-119071266D01*
X144554171Y-119000000D01*
X144583690Y-118928734D01*
X144627000Y-118711000D01*
X144627000Y-118489000D01*
X144583690Y-118271266D01*
X144498734Y-118066165D01*
X144375398Y-117881579D01*
X144218421Y-117724602D01*
X144033835Y-117601266D01*
X143828734Y-117516310D01*
X143611000Y-117473000D01*
X143389000Y-117473000D01*
X143171266Y-117516310D01*
X142966165Y-117601266D01*
X142781579Y-117724602D01*
X142624602Y-117881579D01*
X142501266Y-118066165D01*
X142416310Y-118271266D01*
X142373000Y-118489000D01*
X128867066Y-118489000D01*
X128866623Y-118487931D01*
X128644793Y-118155939D01*
X128362456Y-117873602D01*
X128030464Y-117651772D01*
X127661573Y-117498972D01*
X127269961Y-117421076D01*
X126870677Y-117421076D01*
X126479065Y-117498972D01*
X126110174Y-117651772D01*
X125778182Y-117873602D01*
X125495845Y-118155939D01*
X125274015Y-118487931D01*
X125121215Y-118856822D01*
X125043319Y-119248434D01*
X122680215Y-119248434D01*
X123187532Y-119112499D01*
X123220816Y-118790977D01*
X123011160Y-118472655D01*
X122743431Y-118201352D01*
X122427919Y-117987493D01*
X122076746Y-117839296D01*
X121703409Y-117762458D01*
X121423497Y-117753294D01*
X121161692Y-117942880D01*
X112538522Y-117942880D01*
X111631073Y-117049717D01*
X109972590Y-115195989D01*
X109495249Y-114589000D01*
X116273000Y-114589000D01*
X116273000Y-114811000D01*
X116316310Y-115028734D01*
X116401266Y-115233835D01*
X116524602Y-115418421D01*
X116681579Y-115575398D01*
X116866165Y-115698734D01*
X117071266Y-115783690D01*
X117289000Y-115827000D01*
X117511000Y-115827000D01*
X117728734Y-115783690D01*
X117933835Y-115698734D01*
X118118421Y-115575398D01*
X118275398Y-115418421D01*
X118398734Y-115233835D01*
X118483690Y-115028734D01*
X118484709Y-115023611D01*
X121995214Y-115023611D01*
X122018542Y-115164905D01*
X122068986Y-115298932D01*
X122144609Y-115420544D01*
X122242504Y-115525065D01*
X122358908Y-115608479D01*
X124610574Y-116908479D01*
X124741016Y-116967582D01*
X124880481Y-117000100D01*
X125023611Y-117004786D01*
X125164905Y-116981458D01*
X125298932Y-116931014D01*
X125420544Y-116855391D01*
X125525065Y-116757496D01*
X125608479Y-116641092D01*
X125731726Y-116427621D01*
X153910500Y-116427621D01*
X153910500Y-116718565D01*
X153967260Y-117003918D01*
X154078599Y-117272715D01*
X154240239Y-117514626D01*
X154445967Y-117720354D01*
X154687878Y-117881994D01*
X154956675Y-117993333D01*
X155242028Y-118050093D01*
X155532972Y-118050093D01*
X155818325Y-117993333D01*
X156087122Y-117881994D01*
X156329033Y-117720354D01*
X156534761Y-117514626D01*
X156696401Y-117272715D01*
X156807740Y-117003918D01*
X156864500Y-116718565D01*
X156864500Y-116427621D01*
X156807740Y-116142268D01*
X156696401Y-115873471D01*
X156534761Y-115631560D01*
X156329033Y-115425832D01*
X156087122Y-115264192D01*
X155818325Y-115152853D01*
X155532972Y-115096093D01*
X155242028Y-115096093D01*
X154956675Y-115152853D01*
X154687878Y-115264192D01*
X154445967Y-115425832D01*
X154240239Y-115631560D01*
X154078599Y-115873471D01*
X153967260Y-116142268D01*
X153910500Y-116427621D01*
X125731726Y-116427621D01*
X126908479Y-114389426D01*
X126967582Y-114258984D01*
X127000100Y-114119519D01*
X127004786Y-113976389D01*
X126981458Y-113835095D01*
X126931014Y-113701068D01*
X126855391Y-113579456D01*
X126757496Y-113474935D01*
X126641092Y-113391521D01*
X124389426Y-112091521D01*
X124258984Y-112032418D01*
X124119519Y-111999900D01*
X123976389Y-111995214D01*
X123835095Y-112018542D01*
X123701068Y-112068986D01*
X123579456Y-112144609D01*
X123474935Y-112242504D01*
X123391521Y-112358908D01*
X122091521Y-114610574D01*
X122032418Y-114741016D01*
X121999900Y-114880481D01*
X121995214Y-115023611D01*
X118484709Y-115023611D01*
X118527000Y-114811000D01*
X118527000Y-114589000D01*
X118483690Y-114371266D01*
X118398734Y-114166165D01*
X118275398Y-113981579D01*
X118118421Y-113824602D01*
X117933835Y-113701266D01*
X117728734Y-113616310D01*
X117511000Y-113573000D01*
X117289000Y-113573000D01*
X117071266Y-113616310D01*
X116866165Y-113701266D01*
X116681579Y-113824602D01*
X116524602Y-113981579D01*
X116401266Y-114166165D01*
X116316310Y-114371266D01*
X116273000Y-114589000D01*
X109495249Y-114589000D01*
X108435016Y-113240805D01*
X107160142Y-111389000D01*
X112273000Y-111389000D01*
X112273000Y-111611000D01*
X112316310Y-111828734D01*
X112401266Y-112033835D01*
X112524602Y-112218421D01*
X112681579Y-112375398D01*
X112866165Y-112498734D01*
X113071266Y-112583690D01*
X113289000Y-112627000D01*
X113511000Y-112627000D01*
X113728734Y-112583690D01*
X113933835Y-112498734D01*
X114118421Y-112375398D01*
X114275398Y-112218421D01*
X114398734Y-112033835D01*
X114483690Y-111828734D01*
X114527000Y-111611000D01*
X114527000Y-111589000D01*
X136173000Y-111589000D01*
X136173000Y-111811000D01*
X136216310Y-112028734D01*
X136266540Y-112150000D01*
X136216310Y-112271266D01*
X136173000Y-112489000D01*
X136173000Y-112711000D01*
X136216310Y-112928734D01*
X136266540Y-113050000D01*
X136216310Y-113171266D01*
X136173000Y-113389000D01*
X136173000Y-113611000D01*
X136216310Y-113828734D01*
X136266540Y-113950000D01*
X136216310Y-114071266D01*
X136173000Y-114289000D01*
X136173000Y-114511000D01*
X136216310Y-114728734D01*
X136301266Y-114933835D01*
X136424602Y-115118421D01*
X136581579Y-115275398D01*
X136766165Y-115398734D01*
X136971266Y-115483690D01*
X137189000Y-115527000D01*
X137411000Y-115527000D01*
X137628734Y-115483690D01*
X137750000Y-115433460D01*
X137871266Y-115483690D01*
X138089000Y-115527000D01*
X138311000Y-115527000D01*
X138528734Y-115483690D01*
X138733835Y-115398734D01*
X138918421Y-115275398D01*
X139075398Y-115118421D01*
X139198734Y-114933835D01*
X139258726Y-114789000D01*
X144873000Y-114789000D01*
X144873000Y-115011000D01*
X144916310Y-115228734D01*
X145001266Y-115433835D01*
X145124602Y-115618421D01*
X145281579Y-115775398D01*
X145466165Y-115898734D01*
X145671266Y-115983690D01*
X145889000Y-116027000D01*
X146111000Y-116027000D01*
X146328734Y-115983690D01*
X146533835Y-115898734D01*
X146718421Y-115775398D01*
X146875398Y-115618421D01*
X146998734Y-115433835D01*
X147083690Y-115228734D01*
X147127000Y-115011000D01*
X147127000Y-114789000D01*
X147083690Y-114571266D01*
X147049615Y-114489000D01*
X161773000Y-114489000D01*
X161773000Y-114711000D01*
X161816310Y-114928734D01*
X161901266Y-115133835D01*
X162024602Y-115318421D01*
X162181579Y-115475398D01*
X162366165Y-115598734D01*
X162571266Y-115683690D01*
X162789000Y-115727000D01*
X163011000Y-115727000D01*
X163228734Y-115683690D01*
X163433835Y-115598734D01*
X163618421Y-115475398D01*
X163775398Y-115318421D01*
X163898734Y-115133835D01*
X163983690Y-114928734D01*
X164027000Y-114711000D01*
X164027000Y-114489000D01*
X163983690Y-114271266D01*
X163898734Y-114066165D01*
X163775398Y-113881579D01*
X163618421Y-113724602D01*
X163433835Y-113601266D01*
X163228734Y-113516310D01*
X163011000Y-113473000D01*
X162789000Y-113473000D01*
X162571266Y-113516310D01*
X162366165Y-113601266D01*
X162181579Y-113724602D01*
X162024602Y-113881579D01*
X161901266Y-114066165D01*
X161816310Y-114271266D01*
X161773000Y-114489000D01*
X147049615Y-114489000D01*
X146998734Y-114366165D01*
X146875398Y-114181579D01*
X146718421Y-114024602D01*
X146533835Y-113901266D01*
X146328734Y-113816310D01*
X146111000Y-113773000D01*
X145889000Y-113773000D01*
X145671266Y-113816310D01*
X145466165Y-113901266D01*
X145281579Y-114024602D01*
X145124602Y-114181579D01*
X145001266Y-114366165D01*
X144916310Y-114571266D01*
X144873000Y-114789000D01*
X139258726Y-114789000D01*
X139283690Y-114728734D01*
X139327000Y-114511000D01*
X139327000Y-114289000D01*
X139283690Y-114071266D01*
X139233460Y-113950000D01*
X139283690Y-113828734D01*
X139327000Y-113611000D01*
X139327000Y-113389000D01*
X139283690Y-113171266D01*
X139233460Y-113050000D01*
X139283690Y-112928734D01*
X139327000Y-112711000D01*
X139327000Y-112489000D01*
X139283690Y-112271266D01*
X139233460Y-112150000D01*
X139283690Y-112028734D01*
X139327000Y-111811000D01*
X139327000Y-111589000D01*
X139283690Y-111371266D01*
X139198734Y-111166165D01*
X139075398Y-110981579D01*
X138918421Y-110824602D01*
X138733835Y-110701266D01*
X138528734Y-110616310D01*
X138311000Y-110573000D01*
X138089000Y-110573000D01*
X137871266Y-110616310D01*
X137750000Y-110666540D01*
X137628734Y-110616310D01*
X137411000Y-110573000D01*
X137189000Y-110573000D01*
X136971266Y-110616310D01*
X136766165Y-110701266D01*
X136581579Y-110824602D01*
X136424602Y-110981579D01*
X136301266Y-111166165D01*
X136216310Y-111371266D01*
X136173000Y-111589000D01*
X114527000Y-111589000D01*
X114527000Y-111389000D01*
X114483690Y-111171266D01*
X114398734Y-110966165D01*
X114275398Y-110781579D01*
X114118421Y-110624602D01*
X113933835Y-110501266D01*
X113728734Y-110416310D01*
X113591438Y-110389000D01*
X165773000Y-110389000D01*
X165773000Y-110611000D01*
X165816310Y-110828734D01*
X165901266Y-111033835D01*
X166024602Y-111218421D01*
X166181579Y-111375398D01*
X166366165Y-111498734D01*
X166571266Y-111583690D01*
X166789000Y-111627000D01*
X167011000Y-111627000D01*
X167228734Y-111583690D01*
X167433835Y-111498734D01*
X167618421Y-111375398D01*
X167775398Y-111218421D01*
X167898734Y-111033835D01*
X167983690Y-110828734D01*
X168027000Y-110611000D01*
X168027000Y-110389000D01*
X167983690Y-110171266D01*
X167898734Y-109966165D01*
X167775398Y-109781579D01*
X167618421Y-109624602D01*
X167433835Y-109501266D01*
X167228734Y-109416310D01*
X167011000Y-109373000D01*
X166789000Y-109373000D01*
X166571266Y-109416310D01*
X166366165Y-109501266D01*
X166181579Y-109624602D01*
X166024602Y-109781579D01*
X165901266Y-109966165D01*
X165816310Y-110171266D01*
X165773000Y-110389000D01*
X113591438Y-110389000D01*
X113511000Y-110373000D01*
X113289000Y-110373000D01*
X113071266Y-110416310D01*
X112866165Y-110501266D01*
X112681579Y-110624602D01*
X112524602Y-110781579D01*
X112401266Y-110966165D01*
X112316310Y-111171266D01*
X112273000Y-111389000D01*
X107160142Y-111389000D01*
X107024544Y-111192039D01*
X105746852Y-109057940D01*
X104607086Y-106847101D01*
X103968955Y-105389000D01*
X108373000Y-105389000D01*
X108373000Y-105611000D01*
X108416310Y-105828734D01*
X108501266Y-106033835D01*
X108624602Y-106218421D01*
X108781579Y-106375398D01*
X108966165Y-106498734D01*
X109171266Y-106583690D01*
X109389000Y-106627000D01*
X109611000Y-106627000D01*
X109828734Y-106583690D01*
X110033835Y-106498734D01*
X110218421Y-106375398D01*
X110375398Y-106218421D01*
X110498734Y-106033835D01*
X110583690Y-105828734D01*
X110627000Y-105611000D01*
X110627000Y-105389000D01*
X110583690Y-105171266D01*
X110498734Y-104966165D01*
X110375398Y-104781579D01*
X110218421Y-104624602D01*
X110033835Y-104501266D01*
X109828734Y-104416310D01*
X109611000Y-104373000D01*
X109389000Y-104373000D01*
X109171266Y-104416310D01*
X108966165Y-104501266D01*
X108781579Y-104624602D01*
X108624602Y-104781579D01*
X108501266Y-104966165D01*
X108416310Y-105171266D01*
X108373000Y-105389000D01*
X103968955Y-105389000D01*
X103609834Y-104568425D01*
X102759112Y-102231087D01*
X102330337Y-100770811D01*
X129673000Y-100770811D01*
X129673000Y-101229189D01*
X129762426Y-101678761D01*
X129937840Y-102102248D01*
X130192501Y-102483376D01*
X130516624Y-102807499D01*
X130897752Y-103062160D01*
X131321239Y-103237574D01*
X131770811Y-103327000D01*
X132229189Y-103327000D01*
X132678761Y-103237574D01*
X133102248Y-103062160D01*
X133483376Y-102807499D01*
X133807499Y-102483376D01*
X134062160Y-102102248D01*
X134237574Y-101678761D01*
X134327000Y-101229189D01*
X134327000Y-100770811D01*
X134251053Y-100389000D01*
X141373000Y-100389000D01*
X141373000Y-100611000D01*
X141416310Y-100828734D01*
X141501266Y-101033835D01*
X141624602Y-101218421D01*
X141781579Y-101375398D01*
X141966165Y-101498734D01*
X141984611Y-101506374D01*
X141916310Y-101671266D01*
X141873000Y-101889000D01*
X141873000Y-102111000D01*
X141916310Y-102328734D01*
X142001266Y-102533835D01*
X142124602Y-102718421D01*
X142281579Y-102875398D01*
X142466165Y-102998734D01*
X142671266Y-103083690D01*
X142889000Y-103127000D01*
X143111000Y-103127000D01*
X143328734Y-103083690D01*
X143533835Y-102998734D01*
X143718421Y-102875398D01*
X143875398Y-102718421D01*
X143998734Y-102533835D01*
X144083690Y-102328734D01*
X144127000Y-102111000D01*
X144127000Y-101889000D01*
X144083690Y-101671266D01*
X143998734Y-101466165D01*
X143947175Y-101389000D01*
X144403002Y-101389000D01*
X144403002Y-101611000D01*
X144446312Y-101828734D01*
X144531268Y-102033835D01*
X144654604Y-102218421D01*
X144811581Y-102375398D01*
X144996167Y-102498734D01*
X145201268Y-102583690D01*
X145419002Y-102627000D01*
X145641002Y-102627000D01*
X145858736Y-102583690D01*
X146063837Y-102498734D01*
X146248423Y-102375398D01*
X146405400Y-102218421D01*
X146528736Y-102033835D01*
X146547307Y-101989000D01*
X149973000Y-101989000D01*
X149973000Y-102211000D01*
X150016310Y-102428734D01*
X150101266Y-102633835D01*
X150224602Y-102818421D01*
X150381579Y-102975398D01*
X150566165Y-103098734D01*
X150771266Y-103183690D01*
X150989000Y-103227000D01*
X151211000Y-103227000D01*
X151428734Y-103183690D01*
X151633835Y-103098734D01*
X151818421Y-102975398D01*
X151975398Y-102818421D01*
X152098734Y-102633835D01*
X152183690Y-102428734D01*
X152227000Y-102211000D01*
X152227000Y-102189000D01*
X159773000Y-102189000D01*
X159773000Y-102411000D01*
X159816310Y-102628734D01*
X159901266Y-102833835D01*
X160024602Y-103018421D01*
X160181579Y-103175398D01*
X160366165Y-103298734D01*
X160571266Y-103383690D01*
X160789000Y-103427000D01*
X161011000Y-103427000D01*
X161202038Y-103389000D01*
X164873000Y-103389000D01*
X164873000Y-103611000D01*
X164916310Y-103828734D01*
X165001266Y-104033835D01*
X165124602Y-104218421D01*
X165281579Y-104375398D01*
X165466165Y-104498734D01*
X165671266Y-104583690D01*
X165889000Y-104627000D01*
X166111000Y-104627000D01*
X166328734Y-104583690D01*
X166533835Y-104498734D01*
X166718421Y-104375398D01*
X166875398Y-104218421D01*
X166895056Y-104189000D01*
X169273000Y-104189000D01*
X169273000Y-104411000D01*
X169316310Y-104628734D01*
X169401266Y-104833835D01*
X169524602Y-105018421D01*
X169681579Y-105175398D01*
X169866165Y-105298734D01*
X170071266Y-105383690D01*
X170289000Y-105427000D01*
X170511000Y-105427000D01*
X170728734Y-105383690D01*
X170933835Y-105298734D01*
X171118421Y-105175398D01*
X171275398Y-105018421D01*
X171398734Y-104833835D01*
X171483690Y-104628734D01*
X171527000Y-104411000D01*
X171527000Y-104189000D01*
X171483690Y-103971266D01*
X171398734Y-103766165D01*
X171275398Y-103581579D01*
X171118421Y-103424602D01*
X170933835Y-103301266D01*
X170728734Y-103216310D01*
X170511000Y-103173000D01*
X170289000Y-103173000D01*
X170071266Y-103216310D01*
X169866165Y-103301266D01*
X169681579Y-103424602D01*
X169524602Y-103581579D01*
X169401266Y-103766165D01*
X169316310Y-103971266D01*
X169273000Y-104189000D01*
X166895056Y-104189000D01*
X166998734Y-104033835D01*
X167083690Y-103828734D01*
X167127000Y-103611000D01*
X167127000Y-103389000D01*
X167083690Y-103171266D01*
X167021772Y-103021783D01*
X167171228Y-103083690D01*
X167388962Y-103127000D01*
X167610962Y-103127000D01*
X167828696Y-103083690D01*
X168033797Y-102998734D01*
X168218383Y-102875398D01*
X168375360Y-102718421D01*
X168498696Y-102533835D01*
X168583652Y-102328734D01*
X168626962Y-102111000D01*
X168626962Y-101889000D01*
X168583652Y-101671266D01*
X168498696Y-101466165D01*
X168375360Y-101281579D01*
X168218383Y-101124602D01*
X168033797Y-101001266D01*
X167828696Y-100916310D01*
X167610962Y-100873000D01*
X167388962Y-100873000D01*
X167171228Y-100916310D01*
X166966127Y-101001266D01*
X166781541Y-101124602D01*
X166624564Y-101281579D01*
X166501228Y-101466165D01*
X166416272Y-101671266D01*
X166372962Y-101889000D01*
X166372962Y-102111000D01*
X166416272Y-102328734D01*
X166478190Y-102478217D01*
X166328734Y-102416310D01*
X166111000Y-102373000D01*
X165889000Y-102373000D01*
X165671266Y-102416310D01*
X165466165Y-102501266D01*
X165281579Y-102624602D01*
X165124602Y-102781579D01*
X165001266Y-102966165D01*
X164916310Y-103171266D01*
X164873000Y-103389000D01*
X161202038Y-103389000D01*
X161228734Y-103383690D01*
X161433835Y-103298734D01*
X161618421Y-103175398D01*
X161775398Y-103018421D01*
X161898734Y-102833835D01*
X161983690Y-102628734D01*
X162027000Y-102411000D01*
X162027000Y-102189000D01*
X161983690Y-101971266D01*
X161898734Y-101766165D01*
X161775398Y-101581579D01*
X161618421Y-101424602D01*
X161433835Y-101301266D01*
X161228734Y-101216310D01*
X161011000Y-101173000D01*
X160789000Y-101173000D01*
X160571266Y-101216310D01*
X160366165Y-101301266D01*
X160181579Y-101424602D01*
X160024602Y-101581579D01*
X159901266Y-101766165D01*
X159816310Y-101971266D01*
X159773000Y-102189000D01*
X152227000Y-102189000D01*
X152227000Y-101989000D01*
X152183690Y-101771266D01*
X152098734Y-101566165D01*
X151975398Y-101381579D01*
X151818421Y-101224602D01*
X151633835Y-101101266D01*
X151428734Y-101016310D01*
X151211000Y-100973000D01*
X150989000Y-100973000D01*
X150771266Y-101016310D01*
X150566165Y-101101266D01*
X150381579Y-101224602D01*
X150224602Y-101381579D01*
X150101266Y-101566165D01*
X150016310Y-101771266D01*
X149973000Y-101989000D01*
X146547307Y-101989000D01*
X146613692Y-101828734D01*
X146657002Y-101611000D01*
X146657002Y-101389000D01*
X146613692Y-101171266D01*
X146528736Y-100966165D01*
X146405400Y-100781579D01*
X146248423Y-100624602D01*
X146063837Y-100501266D01*
X145858736Y-100416310D01*
X145641002Y-100373000D01*
X145419002Y-100373000D01*
X145201268Y-100416310D01*
X144996167Y-100501266D01*
X144811581Y-100624602D01*
X144654604Y-100781579D01*
X144531268Y-100966165D01*
X144446312Y-101171266D01*
X144403002Y-101389000D01*
X143947175Y-101389000D01*
X143875398Y-101281579D01*
X143718421Y-101124602D01*
X143533835Y-101001266D01*
X143515389Y-100993626D01*
X143583690Y-100828734D01*
X143627000Y-100611000D01*
X143627000Y-100389000D01*
X143583690Y-100171266D01*
X143498734Y-99966165D01*
X143375398Y-99781579D01*
X143218421Y-99624602D01*
X143033835Y-99501266D01*
X142828734Y-99416310D01*
X142611000Y-99373000D01*
X142389000Y-99373000D01*
X142171266Y-99416310D01*
X141966165Y-99501266D01*
X141781579Y-99624602D01*
X141624602Y-99781579D01*
X141501266Y-99966165D01*
X141416310Y-100171266D01*
X141373000Y-100389000D01*
X134251053Y-100389000D01*
X134237574Y-100321239D01*
X134062160Y-99897752D01*
X133807499Y-99516624D01*
X133483376Y-99192501D01*
X133102248Y-98937840D01*
X132678761Y-98762426D01*
X132229189Y-98673000D01*
X131770811Y-98673000D01*
X131321239Y-98762426D01*
X130897752Y-98937840D01*
X130516624Y-99192501D01*
X130192501Y-99516624D01*
X129937840Y-99897752D01*
X129762426Y-100321239D01*
X129673000Y-100770811D01*
X102330337Y-100770811D01*
X102058347Y-99844499D01*
X101510359Y-97418270D01*
X101117355Y-94962171D01*
X100881196Y-92489000D01*
X104673000Y-92489000D01*
X104673000Y-92711000D01*
X104716310Y-92928734D01*
X104801266Y-93133835D01*
X104924602Y-93318421D01*
X105081579Y-93475398D01*
X105266165Y-93598734D01*
X105471266Y-93683690D01*
X105689000Y-93727000D01*
X105911000Y-93727000D01*
X105996111Y-93710070D01*
X105924602Y-93781579D01*
X105801266Y-93966165D01*
X105716310Y-94171266D01*
X105673000Y-94389000D01*
X105673000Y-94611000D01*
X105716310Y-94828734D01*
X105766540Y-94950000D01*
X105716310Y-95071266D01*
X105673000Y-95289000D01*
X105673000Y-95511000D01*
X105716310Y-95728734D01*
X105766540Y-95850000D01*
X105716310Y-95971266D01*
X105673000Y-96189000D01*
X105673000Y-96411000D01*
X105716310Y-96628734D01*
X105766540Y-96750000D01*
X105716310Y-96871266D01*
X105673000Y-97089000D01*
X105673000Y-97311000D01*
X105716310Y-97528734D01*
X105801266Y-97733835D01*
X105924602Y-97918421D01*
X106081579Y-98075398D01*
X106266165Y-98198734D01*
X106471266Y-98283690D01*
X106526396Y-98294656D01*
X106481579Y-98324602D01*
X106324602Y-98481579D01*
X106201266Y-98666165D01*
X106116310Y-98871266D01*
X106073000Y-99089000D01*
X106073000Y-99311000D01*
X106116310Y-99528734D01*
X106201266Y-99733835D01*
X106324602Y-99918421D01*
X106481579Y-100075398D01*
X106666165Y-100198734D01*
X106871266Y-100283690D01*
X107089000Y-100327000D01*
X107311000Y-100327000D01*
X107528734Y-100283690D01*
X107733835Y-100198734D01*
X107918421Y-100075398D01*
X108075398Y-99918421D01*
X108198734Y-99733835D01*
X108283690Y-99528734D01*
X108327000Y-99311000D01*
X108327000Y-99089000D01*
X108283690Y-98871266D01*
X108198734Y-98666165D01*
X108075398Y-98481579D01*
X107918421Y-98324602D01*
X107896544Y-98309984D01*
X108028734Y-98283690D01*
X108150000Y-98233460D01*
X108271266Y-98283690D01*
X108489000Y-98327000D01*
X108711000Y-98327000D01*
X108928734Y-98283690D01*
X109133835Y-98198734D01*
X109318421Y-98075398D01*
X109475398Y-97918421D01*
X109598734Y-97733835D01*
X109683690Y-97528734D01*
X109727000Y-97311000D01*
X109727000Y-97089000D01*
X109683690Y-96871266D01*
X109633460Y-96750000D01*
X109683690Y-96628734D01*
X109727000Y-96411000D01*
X109727000Y-96189000D01*
X109683690Y-95971266D01*
X109633460Y-95850000D01*
X109683690Y-95728734D01*
X109727000Y-95511000D01*
X109727000Y-95289000D01*
X109683690Y-95071266D01*
X109633460Y-94950000D01*
X109683690Y-94828734D01*
X109727000Y-94611000D01*
X109727000Y-94600000D01*
X137669483Y-94600000D01*
X137669483Y-96600000D01*
X137683520Y-96742517D01*
X137725090Y-96879557D01*
X137792597Y-97005853D01*
X137883446Y-97116554D01*
X137994147Y-97207403D01*
X138120443Y-97274910D01*
X138257483Y-97316480D01*
X138400000Y-97330517D01*
X141600000Y-97330517D01*
X141742517Y-97316480D01*
X141879557Y-97274910D01*
X142005853Y-97207403D01*
X142116554Y-97116554D01*
X142207403Y-97005853D01*
X142274910Y-96879557D01*
X142316480Y-96742517D01*
X142330517Y-96600000D01*
X142330517Y-95389000D01*
X145873000Y-95389000D01*
X145873000Y-95611000D01*
X145916310Y-95828734D01*
X146001266Y-96033835D01*
X146124602Y-96218421D01*
X146281579Y-96375398D01*
X146466165Y-96498734D01*
X146671266Y-96583690D01*
X146889000Y-96627000D01*
X147111000Y-96627000D01*
X147328734Y-96583690D01*
X147533835Y-96498734D01*
X147718421Y-96375398D01*
X147875398Y-96218421D01*
X147895056Y-96189000D01*
X152873000Y-96189000D01*
X152873000Y-96411000D01*
X152916310Y-96628734D01*
X153001266Y-96833835D01*
X153124602Y-97018421D01*
X153281579Y-97175398D01*
X153466165Y-97298734D01*
X153671266Y-97383690D01*
X153889000Y-97427000D01*
X154111000Y-97427000D01*
X154302038Y-97389000D01*
X160873000Y-97389000D01*
X160873000Y-97611000D01*
X160916310Y-97828734D01*
X161001266Y-98033835D01*
X161124602Y-98218421D01*
X161281579Y-98375398D01*
X161466165Y-98498734D01*
X161671266Y-98583690D01*
X161889000Y-98627000D01*
X162111000Y-98627000D01*
X162328734Y-98583690D01*
X162533835Y-98498734D01*
X162718421Y-98375398D01*
X162875398Y-98218421D01*
X162998734Y-98033835D01*
X163083690Y-97828734D01*
X163127000Y-97611000D01*
X163127000Y-97389000D01*
X163107109Y-97289000D01*
X171473000Y-97289000D01*
X171473000Y-97511000D01*
X171516310Y-97728734D01*
X171601266Y-97933835D01*
X171724602Y-98118421D01*
X171881579Y-98275398D01*
X172066165Y-98398734D01*
X172271266Y-98483690D01*
X172489000Y-98527000D01*
X172711000Y-98527000D01*
X172928734Y-98483690D01*
X173133835Y-98398734D01*
X173318421Y-98275398D01*
X173475398Y-98118421D01*
X173598734Y-97933835D01*
X173683690Y-97728734D01*
X173727000Y-97511000D01*
X173727000Y-97289000D01*
X173683690Y-97071266D01*
X173598734Y-96866165D01*
X173475398Y-96681579D01*
X173318421Y-96524602D01*
X173133835Y-96401266D01*
X172928734Y-96316310D01*
X172711000Y-96273000D01*
X172489000Y-96273000D01*
X172271266Y-96316310D01*
X172066165Y-96401266D01*
X171881579Y-96524602D01*
X171724602Y-96681579D01*
X171601266Y-96866165D01*
X171516310Y-97071266D01*
X171473000Y-97289000D01*
X163107109Y-97289000D01*
X163083690Y-97171266D01*
X162998734Y-96966165D01*
X162875398Y-96781579D01*
X162718421Y-96624602D01*
X162533835Y-96501266D01*
X162328734Y-96416310D01*
X162111000Y-96373000D01*
X161889000Y-96373000D01*
X161671266Y-96416310D01*
X161466165Y-96501266D01*
X161281579Y-96624602D01*
X161124602Y-96781579D01*
X161001266Y-96966165D01*
X160916310Y-97171266D01*
X160873000Y-97389000D01*
X154302038Y-97389000D01*
X154328734Y-97383690D01*
X154533835Y-97298734D01*
X154718421Y-97175398D01*
X154875398Y-97018421D01*
X154998734Y-96833835D01*
X155083690Y-96628734D01*
X155127000Y-96411000D01*
X155127000Y-96189000D01*
X155083690Y-95971266D01*
X154998734Y-95766165D01*
X154875398Y-95581579D01*
X154718421Y-95424602D01*
X154533835Y-95301266D01*
X154328734Y-95216310D01*
X154111000Y-95173000D01*
X153889000Y-95173000D01*
X153671266Y-95216310D01*
X153466165Y-95301266D01*
X153281579Y-95424602D01*
X153124602Y-95581579D01*
X153001266Y-95766165D01*
X152916310Y-95971266D01*
X152873000Y-96189000D01*
X147895056Y-96189000D01*
X147998734Y-96033835D01*
X148083690Y-95828734D01*
X148127000Y-95611000D01*
X148127000Y-95389000D01*
X148083690Y-95171266D01*
X147998734Y-94966165D01*
X147875398Y-94781579D01*
X147718421Y-94624602D01*
X147533835Y-94501266D01*
X147328734Y-94416310D01*
X147111000Y-94373000D01*
X146889000Y-94373000D01*
X146671266Y-94416310D01*
X146466165Y-94501266D01*
X146281579Y-94624602D01*
X146124602Y-94781579D01*
X146001266Y-94966165D01*
X145916310Y-95171266D01*
X145873000Y-95389000D01*
X142330517Y-95389000D01*
X142330517Y-94600000D01*
X142316480Y-94457483D01*
X142274910Y-94320443D01*
X142207403Y-94194147D01*
X142116554Y-94083446D01*
X142005853Y-93992597D01*
X141879557Y-93925090D01*
X141742517Y-93883520D01*
X141600000Y-93869483D01*
X138400000Y-93869483D01*
X138257483Y-93883520D01*
X138120443Y-93925090D01*
X137994147Y-93992597D01*
X137883446Y-94083446D01*
X137792597Y-94194147D01*
X137725090Y-94320443D01*
X137683520Y-94457483D01*
X137669483Y-94600000D01*
X109727000Y-94600000D01*
X109727000Y-94389000D01*
X109683690Y-94171266D01*
X109598734Y-93966165D01*
X109475398Y-93781579D01*
X109318421Y-93624602D01*
X109133835Y-93501266D01*
X108928734Y-93416310D01*
X108711000Y-93373000D01*
X108489000Y-93373000D01*
X108271266Y-93416310D01*
X108150000Y-93466540D01*
X108028734Y-93416310D01*
X107811000Y-93373000D01*
X107589000Y-93373000D01*
X107371266Y-93416310D01*
X107250000Y-93466540D01*
X107128734Y-93416310D01*
X106911000Y-93373000D01*
X106689000Y-93373000D01*
X106603889Y-93389930D01*
X106675398Y-93318421D01*
X106798734Y-93133835D01*
X106883690Y-92928734D01*
X106927000Y-92711000D01*
X106927000Y-92489000D01*
X106895355Y-92329905D01*
X130773000Y-92329905D01*
X130773000Y-92670095D01*
X130839368Y-93003747D01*
X130969553Y-93318041D01*
X131158552Y-93600898D01*
X131399102Y-93841448D01*
X131681959Y-94030447D01*
X131996253Y-94160632D01*
X132329905Y-94227000D01*
X132670095Y-94227000D01*
X133003747Y-94160632D01*
X133318041Y-94030447D01*
X133600898Y-93841448D01*
X133841448Y-93600898D01*
X134030447Y-93318041D01*
X134160632Y-93003747D01*
X134227000Y-92670095D01*
X134227000Y-92329905D01*
X145273000Y-92329905D01*
X145273000Y-92670095D01*
X145339368Y-93003747D01*
X145469553Y-93318041D01*
X145658552Y-93600898D01*
X145899102Y-93841448D01*
X146181959Y-94030447D01*
X146496253Y-94160632D01*
X146829905Y-94227000D01*
X147170095Y-94227000D01*
X147503747Y-94160632D01*
X147818041Y-94030447D01*
X148100898Y-93841448D01*
X148341448Y-93600898D01*
X148530447Y-93318041D01*
X148660632Y-93003747D01*
X148727000Y-92670095D01*
X148727000Y-92329905D01*
X148660632Y-91996253D01*
X148530447Y-91681959D01*
X148341448Y-91399102D01*
X148100898Y-91158552D01*
X147818041Y-90969553D01*
X147503747Y-90839368D01*
X147170095Y-90773000D01*
X146829905Y-90773000D01*
X146496253Y-90839368D01*
X146181959Y-90969553D01*
X145899102Y-91158552D01*
X145658552Y-91399102D01*
X145469553Y-91681959D01*
X145339368Y-91996253D01*
X145273000Y-92329905D01*
X134227000Y-92329905D01*
X134160632Y-91996253D01*
X134030447Y-91681959D01*
X133841448Y-91399102D01*
X133600898Y-91158552D01*
X133318041Y-90969553D01*
X133270083Y-90949688D01*
X132500000Y-90179605D01*
X131729917Y-90949688D01*
X131681959Y-90969553D01*
X131399102Y-91158552D01*
X131158552Y-91399102D01*
X130969553Y-91681959D01*
X130839368Y-91996253D01*
X130773000Y-92329905D01*
X106895355Y-92329905D01*
X106883690Y-92271266D01*
X106798734Y-92066165D01*
X106675398Y-91881579D01*
X106518421Y-91724602D01*
X106333835Y-91601266D01*
X106128734Y-91516310D01*
X105911000Y-91473000D01*
X105689000Y-91473000D01*
X105471266Y-91516310D01*
X105266165Y-91601266D01*
X105081579Y-91724602D01*
X104924602Y-91881579D01*
X104801266Y-92066165D01*
X104716310Y-92271266D01*
X104673000Y-92489000D01*
X100881196Y-92489000D01*
X100880918Y-92486091D01*
X100802000Y-90000000D01*
X100880918Y-87513909D01*
X101074273Y-85489000D01*
X105173000Y-85489000D01*
X105173000Y-85711000D01*
X105216310Y-85928734D01*
X105301266Y-86133835D01*
X105424602Y-86318421D01*
X105581579Y-86475398D01*
X105766165Y-86598734D01*
X105971266Y-86683690D01*
X106189000Y-86727000D01*
X106411000Y-86727000D01*
X106628734Y-86683690D01*
X106833835Y-86598734D01*
X106981601Y-86500000D01*
X130769483Y-86500000D01*
X130769483Y-88500000D01*
X130783520Y-88642517D01*
X130825090Y-88779557D01*
X130892597Y-88905853D01*
X130983446Y-89016554D01*
X131094147Y-89107403D01*
X131132889Y-89128111D01*
X131100186Y-89139956D01*
X130959296Y-89429571D01*
X130877616Y-89741108D01*
X130858282Y-90062595D01*
X130902039Y-90381675D01*
X131007205Y-90686088D01*
X131100186Y-90860044D01*
X131364587Y-90955808D01*
X132320395Y-90000000D01*
X132306253Y-89985858D01*
X132485858Y-89806253D01*
X132500000Y-89820395D01*
X132514143Y-89806253D01*
X132693748Y-89985858D01*
X132679605Y-90000000D01*
X133635413Y-90955808D01*
X133899814Y-90860044D01*
X134040704Y-90570429D01*
X134088271Y-90389000D01*
X172573000Y-90389000D01*
X172573000Y-90611000D01*
X172616310Y-90828734D01*
X172701266Y-91033835D01*
X172824602Y-91218421D01*
X172981579Y-91375398D01*
X173166165Y-91498734D01*
X173371266Y-91583690D01*
X173589000Y-91627000D01*
X173811000Y-91627000D01*
X174028734Y-91583690D01*
X174233835Y-91498734D01*
X174418421Y-91375398D01*
X174575398Y-91218421D01*
X174698734Y-91033835D01*
X174783690Y-90828734D01*
X174827000Y-90611000D01*
X174827000Y-90389000D01*
X174783690Y-90171266D01*
X174698734Y-89966165D01*
X174575398Y-89781579D01*
X174418421Y-89624602D01*
X174233835Y-89501266D01*
X174028734Y-89416310D01*
X173811000Y-89373000D01*
X173589000Y-89373000D01*
X173371266Y-89416310D01*
X173166165Y-89501266D01*
X172981579Y-89624602D01*
X172824602Y-89781579D01*
X172701266Y-89966165D01*
X172616310Y-90171266D01*
X172573000Y-90389000D01*
X134088271Y-90389000D01*
X134122384Y-90258892D01*
X134141718Y-89937405D01*
X134097961Y-89618325D01*
X133992795Y-89313912D01*
X133899814Y-89139956D01*
X133867111Y-89128111D01*
X133905853Y-89107403D01*
X134016554Y-89016554D01*
X134107403Y-88905853D01*
X134174910Y-88779557D01*
X134216480Y-88642517D01*
X134217179Y-88635413D01*
X146044192Y-88635413D01*
X146139956Y-88899814D01*
X146429571Y-89040704D01*
X146741108Y-89122384D01*
X147062595Y-89141718D01*
X147381675Y-89097961D01*
X147686088Y-88992795D01*
X147860044Y-88899814D01*
X147955808Y-88635413D01*
X147000000Y-87679605D01*
X146044192Y-88635413D01*
X134217179Y-88635413D01*
X134230517Y-88500000D01*
X134230517Y-87562595D01*
X145358282Y-87562595D01*
X145402039Y-87881675D01*
X145507205Y-88186088D01*
X145600186Y-88360044D01*
X145864587Y-88455808D01*
X146820395Y-87500000D01*
X147179605Y-87500000D01*
X148135413Y-88455808D01*
X148399814Y-88360044D01*
X148540704Y-88070429D01*
X148622384Y-87758892D01*
X148641718Y-87437405D01*
X148597961Y-87118325D01*
X148492795Y-86813912D01*
X148399814Y-86639956D01*
X148259127Y-86589000D01*
X161073000Y-86589000D01*
X161073000Y-86811000D01*
X161116310Y-87028734D01*
X161201266Y-87233835D01*
X161324602Y-87418421D01*
X161481579Y-87575398D01*
X161666165Y-87698734D01*
X161871266Y-87783690D01*
X162089000Y-87827000D01*
X162311000Y-87827000D01*
X162528734Y-87783690D01*
X162733835Y-87698734D01*
X162918421Y-87575398D01*
X163075398Y-87418421D01*
X163198734Y-87233835D01*
X163245859Y-87120066D01*
X163428734Y-87083690D01*
X163633835Y-86998734D01*
X163818421Y-86875398D01*
X163975398Y-86718421D01*
X164098734Y-86533835D01*
X164183690Y-86328734D01*
X164227000Y-86111000D01*
X164227000Y-85889000D01*
X164183690Y-85671266D01*
X164098734Y-85466165D01*
X163975398Y-85281579D01*
X163818421Y-85124602D01*
X163633835Y-85001266D01*
X163428734Y-84916310D01*
X163211000Y-84873000D01*
X162989000Y-84873000D01*
X162771266Y-84916310D01*
X162566165Y-85001266D01*
X162381579Y-85124602D01*
X162224602Y-85281579D01*
X162101266Y-85466165D01*
X162054141Y-85579934D01*
X161871266Y-85616310D01*
X161666165Y-85701266D01*
X161481579Y-85824602D01*
X161324602Y-85981579D01*
X161201266Y-86166165D01*
X161116310Y-86371266D01*
X161073000Y-86589000D01*
X148259127Y-86589000D01*
X148135413Y-86544192D01*
X147179605Y-87500000D01*
X146820395Y-87500000D01*
X145864587Y-86544192D01*
X145600186Y-86639956D01*
X145459296Y-86929571D01*
X145377616Y-87241108D01*
X145358282Y-87562595D01*
X134230517Y-87562595D01*
X134230517Y-86500000D01*
X134217180Y-86364587D01*
X146044192Y-86364587D01*
X147000000Y-87320395D01*
X147955808Y-86364587D01*
X147860044Y-86100186D01*
X147570429Y-85959296D01*
X147258892Y-85877616D01*
X146937405Y-85858282D01*
X146618325Y-85902039D01*
X146313912Y-86007205D01*
X146139956Y-86100186D01*
X146044192Y-86364587D01*
X134217180Y-86364587D01*
X134216480Y-86357483D01*
X134174910Y-86220443D01*
X134107403Y-86094147D01*
X134016554Y-85983446D01*
X133905853Y-85892597D01*
X133779557Y-85825090D01*
X133642517Y-85783520D01*
X133500000Y-85769483D01*
X131500000Y-85769483D01*
X131357483Y-85783520D01*
X131220443Y-85825090D01*
X131094147Y-85892597D01*
X130983446Y-85983446D01*
X130892597Y-86094147D01*
X130825090Y-86220443D01*
X130783520Y-86357483D01*
X130769483Y-86500000D01*
X106981601Y-86500000D01*
X107018421Y-86475398D01*
X107175398Y-86318421D01*
X107298734Y-86133835D01*
X107383690Y-85928734D01*
X107427000Y-85711000D01*
X107427000Y-85489000D01*
X107383690Y-85271266D01*
X107298734Y-85066165D01*
X107175398Y-84881579D01*
X107018421Y-84724602D01*
X106833835Y-84601266D01*
X106628734Y-84516310D01*
X106411000Y-84473000D01*
X106189000Y-84473000D01*
X105971266Y-84516310D01*
X105766165Y-84601266D01*
X105581579Y-84724602D01*
X105424602Y-84881579D01*
X105301266Y-85066165D01*
X105216310Y-85271266D01*
X105173000Y-85489000D01*
X101074273Y-85489000D01*
X101117355Y-85037829D01*
X101379426Y-83400000D01*
X137669483Y-83400000D01*
X137669483Y-85400000D01*
X137683520Y-85542517D01*
X137725090Y-85679557D01*
X137792597Y-85805853D01*
X137883446Y-85916554D01*
X137994147Y-86007403D01*
X138120443Y-86074910D01*
X138257483Y-86116480D01*
X138400000Y-86130517D01*
X141600000Y-86130517D01*
X141742517Y-86116480D01*
X141879557Y-86074910D01*
X142005853Y-86007403D01*
X142116554Y-85916554D01*
X142207403Y-85805853D01*
X142274910Y-85679557D01*
X142316480Y-85542517D01*
X142330517Y-85400000D01*
X142330517Y-83400000D01*
X142329434Y-83389000D01*
X150673000Y-83389000D01*
X150673000Y-83611000D01*
X150716310Y-83828734D01*
X150801266Y-84033835D01*
X150924602Y-84218421D01*
X151081579Y-84375398D01*
X151266165Y-84498734D01*
X151471266Y-84583690D01*
X151689000Y-84627000D01*
X151911000Y-84627000D01*
X152128734Y-84583690D01*
X152333835Y-84498734D01*
X152518421Y-84375398D01*
X152675398Y-84218421D01*
X152798734Y-84033835D01*
X152883690Y-83828734D01*
X152927000Y-83611000D01*
X152927000Y-83389000D01*
X152887218Y-83189000D01*
X172073000Y-83189000D01*
X172073000Y-83411000D01*
X172116310Y-83628734D01*
X172201266Y-83833835D01*
X172324602Y-84018421D01*
X172481579Y-84175398D01*
X172666165Y-84298734D01*
X172871266Y-84383690D01*
X173089000Y-84427000D01*
X173311000Y-84427000D01*
X173528734Y-84383690D01*
X173733835Y-84298734D01*
X173918421Y-84175398D01*
X174075398Y-84018421D01*
X174198734Y-83833835D01*
X174283690Y-83628734D01*
X174327000Y-83411000D01*
X174327000Y-83189000D01*
X174283690Y-82971266D01*
X174198734Y-82766165D01*
X174075398Y-82581579D01*
X173918421Y-82424602D01*
X173733835Y-82301266D01*
X173528734Y-82216310D01*
X173311000Y-82173000D01*
X173089000Y-82173000D01*
X172871266Y-82216310D01*
X172666165Y-82301266D01*
X172481579Y-82424602D01*
X172324602Y-82581579D01*
X172201266Y-82766165D01*
X172116310Y-82971266D01*
X172073000Y-83189000D01*
X152887218Y-83189000D01*
X152883690Y-83171266D01*
X152798734Y-82966165D01*
X152675398Y-82781579D01*
X152518421Y-82624602D01*
X152333835Y-82501266D01*
X152128734Y-82416310D01*
X151911000Y-82373000D01*
X151689000Y-82373000D01*
X151471266Y-82416310D01*
X151266165Y-82501266D01*
X151081579Y-82624602D01*
X150924602Y-82781579D01*
X150801266Y-82966165D01*
X150716310Y-83171266D01*
X150673000Y-83389000D01*
X142329434Y-83389000D01*
X142316480Y-83257483D01*
X142274910Y-83120443D01*
X142207403Y-82994147D01*
X142116554Y-82883446D01*
X142005853Y-82792597D01*
X141879557Y-82725090D01*
X141742517Y-82683520D01*
X141600000Y-82669483D01*
X138400000Y-82669483D01*
X138257483Y-82683520D01*
X138120443Y-82725090D01*
X137994147Y-82792597D01*
X137883446Y-82883446D01*
X137792597Y-82994147D01*
X137725090Y-83120443D01*
X137683520Y-83257483D01*
X137669483Y-83400000D01*
X101379426Y-83400000D01*
X101510359Y-82581730D01*
X102058347Y-80155501D01*
X102547675Y-78489000D01*
X106673000Y-78489000D01*
X106673000Y-78711000D01*
X106716310Y-78928734D01*
X106801266Y-79133835D01*
X106924602Y-79318421D01*
X107081579Y-79475398D01*
X107266165Y-79598734D01*
X107471266Y-79683690D01*
X107689000Y-79727000D01*
X107911000Y-79727000D01*
X108128734Y-79683690D01*
X108333835Y-79598734D01*
X108518421Y-79475398D01*
X108675398Y-79318421D01*
X108798734Y-79133835D01*
X108883690Y-78928734D01*
X108927000Y-78711000D01*
X108927000Y-78489000D01*
X108883690Y-78271266D01*
X108808193Y-78089000D01*
X133173000Y-78089000D01*
X133173000Y-78311000D01*
X133216310Y-78528734D01*
X133301266Y-78733835D01*
X133424602Y-78918421D01*
X133581579Y-79075398D01*
X133766165Y-79198734D01*
X133971266Y-79283690D01*
X134189000Y-79327000D01*
X134411000Y-79327000D01*
X134628734Y-79283690D01*
X134833835Y-79198734D01*
X135018421Y-79075398D01*
X135175398Y-78918421D01*
X135298734Y-78733835D01*
X135383690Y-78528734D01*
X135427000Y-78311000D01*
X135427000Y-78089000D01*
X135383690Y-77871266D01*
X135298734Y-77666165D01*
X135175398Y-77481579D01*
X135018421Y-77324602D01*
X134833835Y-77201266D01*
X134628734Y-77116310D01*
X134411000Y-77073000D01*
X134189000Y-77073000D01*
X133971266Y-77116310D01*
X133766165Y-77201266D01*
X133581579Y-77324602D01*
X133424602Y-77481579D01*
X133301266Y-77666165D01*
X133216310Y-77871266D01*
X133173000Y-78089000D01*
X108808193Y-78089000D01*
X108798734Y-78066165D01*
X108675398Y-77881579D01*
X108518421Y-77724602D01*
X108333835Y-77601266D01*
X108128734Y-77516310D01*
X107911000Y-77473000D01*
X107689000Y-77473000D01*
X107471266Y-77516310D01*
X107266165Y-77601266D01*
X107081579Y-77724602D01*
X106924602Y-77881579D01*
X106801266Y-78066165D01*
X106716310Y-78271266D01*
X106673000Y-78489000D01*
X102547675Y-78489000D01*
X102759112Y-77768913D01*
X103609834Y-75431575D01*
X104607086Y-73152899D01*
X104846242Y-72689000D01*
X109473000Y-72689000D01*
X109473000Y-72911000D01*
X109516310Y-73128734D01*
X109601266Y-73333835D01*
X109724602Y-73518421D01*
X109881579Y-73675398D01*
X110066165Y-73798734D01*
X110271266Y-73883690D01*
X110489000Y-73927000D01*
X110711000Y-73927000D01*
X110928734Y-73883690D01*
X111133835Y-73798734D01*
X111318421Y-73675398D01*
X111475398Y-73518421D01*
X111598734Y-73333835D01*
X111683690Y-73128734D01*
X111727000Y-72911000D01*
X111727000Y-72689000D01*
X111683690Y-72471266D01*
X111598734Y-72266165D01*
X111475398Y-72081579D01*
X111318421Y-71924602D01*
X111133835Y-71801266D01*
X110928734Y-71716310D01*
X110711000Y-71673000D01*
X110489000Y-71673000D01*
X110271266Y-71716310D01*
X110066165Y-71801266D01*
X109881579Y-71924602D01*
X109724602Y-72081579D01*
X109601266Y-72266165D01*
X109516310Y-72471266D01*
X109473000Y-72689000D01*
X104846242Y-72689000D01*
X105746852Y-70942060D01*
X106515895Y-69657545D01*
X121523000Y-69657545D01*
X121523000Y-70342455D01*
X121656619Y-71014204D01*
X121918722Y-71646977D01*
X122299238Y-72216458D01*
X122783542Y-72700762D01*
X123353023Y-73081278D01*
X123985796Y-73343381D01*
X124657545Y-73477000D01*
X125342455Y-73477000D01*
X126014204Y-73343381D01*
X126646977Y-73081278D01*
X126785080Y-72989000D01*
X142073000Y-72989000D01*
X142073000Y-73211000D01*
X142116310Y-73428734D01*
X142201266Y-73633835D01*
X142278885Y-73750000D01*
X142201266Y-73866165D01*
X142116310Y-74071266D01*
X142073000Y-74289000D01*
X142073000Y-74511000D01*
X142116310Y-74728734D01*
X142201266Y-74933835D01*
X142324602Y-75118421D01*
X142481579Y-75275398D01*
X142666165Y-75398734D01*
X142689068Y-75408221D01*
X142673000Y-75489000D01*
X142673000Y-75711000D01*
X142707445Y-75884167D01*
X142666165Y-75901266D01*
X142481579Y-76024602D01*
X142324602Y-76181579D01*
X142201266Y-76366165D01*
X142116310Y-76571266D01*
X142073000Y-76789000D01*
X142073000Y-77011000D01*
X142116310Y-77228734D01*
X142201266Y-77433835D01*
X142324602Y-77618421D01*
X142481579Y-77775398D01*
X142666165Y-77898734D01*
X142871266Y-77983690D01*
X143089000Y-78027000D01*
X143311000Y-78027000D01*
X143528734Y-77983690D01*
X143733835Y-77898734D01*
X143918421Y-77775398D01*
X144075398Y-77618421D01*
X144161874Y-77489000D01*
X170473000Y-77489000D01*
X170473000Y-77711000D01*
X170516310Y-77928734D01*
X170601266Y-78133835D01*
X170724602Y-78318421D01*
X170881579Y-78475398D01*
X171066165Y-78598734D01*
X171271266Y-78683690D01*
X171489000Y-78727000D01*
X171711000Y-78727000D01*
X171928734Y-78683690D01*
X172133835Y-78598734D01*
X172318421Y-78475398D01*
X172475398Y-78318421D01*
X172598734Y-78133835D01*
X172683690Y-77928734D01*
X172727000Y-77711000D01*
X172727000Y-77489000D01*
X172683690Y-77271266D01*
X172598734Y-77066165D01*
X172475398Y-76881579D01*
X172318421Y-76724602D01*
X172133835Y-76601266D01*
X171928734Y-76516310D01*
X171711000Y-76473000D01*
X171489000Y-76473000D01*
X171271266Y-76516310D01*
X171066165Y-76601266D01*
X170881579Y-76724602D01*
X170724602Y-76881579D01*
X170601266Y-77066165D01*
X170516310Y-77271266D01*
X170473000Y-77489000D01*
X144161874Y-77489000D01*
X144198734Y-77433835D01*
X144283690Y-77228734D01*
X144327000Y-77011000D01*
X144327000Y-76789000D01*
X144292555Y-76615833D01*
X144333835Y-76598734D01*
X144518421Y-76475398D01*
X144675398Y-76318421D01*
X144798734Y-76133835D01*
X144883690Y-75928734D01*
X144927000Y-75711000D01*
X144927000Y-75489000D01*
X144883690Y-75271266D01*
X144798734Y-75066165D01*
X144675398Y-74881579D01*
X144518421Y-74724602D01*
X144333835Y-74601266D01*
X144310932Y-74591779D01*
X144327000Y-74511000D01*
X144327000Y-74289000D01*
X144283690Y-74071266D01*
X144198734Y-73866165D01*
X144121115Y-73750000D01*
X144198734Y-73633835D01*
X144283690Y-73428734D01*
X144327000Y-73211000D01*
X144327000Y-72989000D01*
X144283690Y-72771266D01*
X144198734Y-72566165D01*
X144075398Y-72381579D01*
X143918421Y-72224602D01*
X143733835Y-72101266D01*
X143528734Y-72016310D01*
X143311000Y-71973000D01*
X143089000Y-71973000D01*
X142871266Y-72016310D01*
X142666165Y-72101266D01*
X142481579Y-72224602D01*
X142324602Y-72381579D01*
X142201266Y-72566165D01*
X142116310Y-72771266D01*
X142073000Y-72989000D01*
X126785080Y-72989000D01*
X127216458Y-72700762D01*
X127700762Y-72216458D01*
X128081278Y-71646977D01*
X128312399Y-71089000D01*
X167173000Y-71089000D01*
X167173000Y-71311000D01*
X167216310Y-71528734D01*
X167301266Y-71733835D01*
X167424602Y-71918421D01*
X167581579Y-72075398D01*
X167766165Y-72198734D01*
X167971266Y-72283690D01*
X168189000Y-72327000D01*
X168411000Y-72327000D01*
X168628734Y-72283690D01*
X168833835Y-72198734D01*
X169018421Y-72075398D01*
X169175398Y-71918421D01*
X169298734Y-71733835D01*
X169383690Y-71528734D01*
X169427000Y-71311000D01*
X169427000Y-71089000D01*
X169383690Y-70871266D01*
X169298734Y-70666165D01*
X169175398Y-70481579D01*
X169018421Y-70324602D01*
X168833835Y-70201266D01*
X168628734Y-70116310D01*
X168411000Y-70073000D01*
X168189000Y-70073000D01*
X167971266Y-70116310D01*
X167766165Y-70201266D01*
X167581579Y-70324602D01*
X167424602Y-70481579D01*
X167301266Y-70666165D01*
X167216310Y-70871266D01*
X167173000Y-71089000D01*
X128312399Y-71089000D01*
X128343381Y-71014204D01*
X128477000Y-70342455D01*
X128477000Y-69657545D01*
X128343381Y-68985796D01*
X128081278Y-68353023D01*
X127700762Y-67783542D01*
X127216458Y-67299238D01*
X126646977Y-66918722D01*
X126014204Y-66656619D01*
X125342455Y-66523000D01*
X124657545Y-66523000D01*
X123985796Y-66656619D01*
X123353023Y-66918722D01*
X122783542Y-67299238D01*
X122299238Y-67783542D01*
X121918722Y-68353023D01*
X121656619Y-68985796D01*
X121523000Y-69657545D01*
X106515895Y-69657545D01*
X107024544Y-68807961D01*
X108070271Y-67289000D01*
X113473000Y-67289000D01*
X113473000Y-67511000D01*
X113516310Y-67728734D01*
X113601266Y-67933835D01*
X113724602Y-68118421D01*
X113881579Y-68275398D01*
X114066165Y-68398734D01*
X114271266Y-68483690D01*
X114489000Y-68527000D01*
X114711000Y-68527000D01*
X114928734Y-68483690D01*
X115133835Y-68398734D01*
X115318421Y-68275398D01*
X115475398Y-68118421D01*
X115598734Y-67933835D01*
X115683690Y-67728734D01*
X115727000Y-67511000D01*
X115727000Y-67289000D01*
X115683690Y-67071266D01*
X115598734Y-66866165D01*
X115475398Y-66681579D01*
X115318421Y-66524602D01*
X115133835Y-66401266D01*
X114928734Y-66316310D01*
X114711000Y-66273000D01*
X114489000Y-66273000D01*
X114271266Y-66316310D01*
X114066165Y-66401266D01*
X113881579Y-66524602D01*
X113724602Y-66681579D01*
X113601266Y-66866165D01*
X113516310Y-67071266D01*
X113473000Y-67289000D01*
X108070271Y-67289000D01*
X108435016Y-66759195D01*
X109812957Y-65007000D01*
X132965000Y-65007000D01*
X132965000Y-65507000D01*
X133010144Y-65711355D01*
X133094288Y-65902977D01*
X133214199Y-66074501D01*
X133365269Y-66219336D01*
X133541692Y-66331916D01*
X133734938Y-66399540D01*
X133898000Y-66272257D01*
X133898000Y-65007000D01*
X134152000Y-65007000D01*
X134152000Y-66272257D01*
X134315062Y-66399540D01*
X134508308Y-66331916D01*
X134684731Y-66219336D01*
X134835801Y-66074501D01*
X134955712Y-65902977D01*
X135039856Y-65711355D01*
X135085000Y-65507000D01*
X135085000Y-65185582D01*
X135243355Y-65185582D01*
X135280354Y-65390079D01*
X135356538Y-65583428D01*
X135373885Y-65615881D01*
X135579202Y-65641193D01*
X136120395Y-65100000D01*
X135579202Y-64558807D01*
X135373885Y-64584119D01*
X135291037Y-64774708D01*
X135246962Y-64977796D01*
X135243355Y-65185582D01*
X135085000Y-65185582D01*
X135085000Y-65007000D01*
X134152000Y-65007000D01*
X133898000Y-65007000D01*
X132965000Y-65007000D01*
X109812957Y-65007000D01*
X109972590Y-64804011D01*
X110465565Y-64253000D01*
X132965000Y-64253000D01*
X132965000Y-64753000D01*
X133898000Y-64753000D01*
X133898000Y-63487743D01*
X134152000Y-63487743D01*
X134152000Y-64753000D01*
X135085000Y-64753000D01*
X135085000Y-64379202D01*
X135758807Y-64379202D01*
X135870346Y-64490741D01*
X135933542Y-64643308D01*
X136059067Y-64831170D01*
X136218830Y-64990933D01*
X136406692Y-65116458D01*
X136453000Y-65135640D01*
X136453000Y-65154890D01*
X136314143Y-65293748D01*
X136300000Y-65279605D01*
X135758807Y-65820798D01*
X135784119Y-66026115D01*
X135974708Y-66108963D01*
X136177796Y-66153038D01*
X136385582Y-66156645D01*
X136590079Y-66119646D01*
X136783428Y-66043462D01*
X136815881Y-66026115D01*
X136825554Y-65947657D01*
X136868830Y-65990933D01*
X137056692Y-66116458D01*
X137265432Y-66202922D01*
X137487030Y-66247000D01*
X137712970Y-66247000D01*
X137934568Y-66202922D01*
X138092806Y-66137377D01*
X138200443Y-66194910D01*
X138337483Y-66236480D01*
X138480000Y-66250517D01*
X139320000Y-66250517D01*
X139462517Y-66236480D01*
X139599557Y-66194910D01*
X139725853Y-66127403D01*
X139836554Y-66036554D01*
X139927403Y-65925853D01*
X139994910Y-65799557D01*
X140036480Y-65662517D01*
X140050517Y-65520000D01*
X140050517Y-65007000D01*
X140115000Y-65007000D01*
X140115000Y-65507000D01*
X140160144Y-65711355D01*
X140244288Y-65902977D01*
X140364199Y-66074501D01*
X140515269Y-66219336D01*
X140691692Y-66331916D01*
X140884938Y-66399540D01*
X141048000Y-66272257D01*
X141048000Y-65007000D01*
X141302000Y-65007000D01*
X141302000Y-66272257D01*
X141465062Y-66399540D01*
X141658308Y-66331916D01*
X141834731Y-66219336D01*
X141985801Y-66074501D01*
X142105712Y-65902977D01*
X142189856Y-65711355D01*
X142235000Y-65507000D01*
X142235000Y-65007000D01*
X141302000Y-65007000D01*
X141048000Y-65007000D01*
X140115000Y-65007000D01*
X140050517Y-65007000D01*
X140050517Y-64680000D01*
X140036480Y-64537483D01*
X139994910Y-64400443D01*
X139927403Y-64274147D01*
X139910049Y-64253000D01*
X140115000Y-64253000D01*
X140115000Y-64753000D01*
X141048000Y-64753000D01*
X141048000Y-63487743D01*
X141302000Y-63487743D01*
X141302000Y-64753000D01*
X142235000Y-64753000D01*
X142235000Y-64657545D01*
X146523000Y-64657545D01*
X146523000Y-65342455D01*
X146656619Y-66014204D01*
X146918722Y-66646977D01*
X147299238Y-67216458D01*
X147783542Y-67700762D01*
X148353023Y-68081278D01*
X148985796Y-68343381D01*
X149657545Y-68477000D01*
X150342455Y-68477000D01*
X151014204Y-68343381D01*
X151646977Y-68081278D01*
X152216458Y-67700762D01*
X152700762Y-67216458D01*
X153081278Y-66646977D01*
X153343381Y-66014204D01*
X153408068Y-65689000D01*
X162573000Y-65689000D01*
X162573000Y-65911000D01*
X162616310Y-66128734D01*
X162701266Y-66333835D01*
X162824602Y-66518421D01*
X162981579Y-66675398D01*
X163166165Y-66798734D01*
X163371266Y-66883690D01*
X163589000Y-66927000D01*
X163811000Y-66927000D01*
X164028734Y-66883690D01*
X164233835Y-66798734D01*
X164418421Y-66675398D01*
X164575398Y-66518421D01*
X164698734Y-66333835D01*
X164783690Y-66128734D01*
X164827000Y-65911000D01*
X164827000Y-65689000D01*
X164783690Y-65471266D01*
X164698734Y-65266165D01*
X164575398Y-65081579D01*
X164418421Y-64924602D01*
X164233835Y-64801266D01*
X164028734Y-64716310D01*
X163811000Y-64673000D01*
X163589000Y-64673000D01*
X163371266Y-64716310D01*
X163166165Y-64801266D01*
X162981579Y-64924602D01*
X162824602Y-65081579D01*
X162701266Y-65266165D01*
X162616310Y-65471266D01*
X162573000Y-65689000D01*
X153408068Y-65689000D01*
X153477000Y-65342455D01*
X153477000Y-64657545D01*
X153343381Y-63985796D01*
X153081278Y-63353023D01*
X152700762Y-62783542D01*
X152216458Y-62299238D01*
X151646977Y-61918722D01*
X151014204Y-61656619D01*
X150342455Y-61523000D01*
X149657545Y-61523000D01*
X148985796Y-61656619D01*
X148353023Y-61918722D01*
X147783542Y-62299238D01*
X147299238Y-62783542D01*
X146918722Y-63353023D01*
X146656619Y-63985796D01*
X146523000Y-64657545D01*
X142235000Y-64657545D01*
X142235000Y-64253000D01*
X142189856Y-64048645D01*
X142105712Y-63857023D01*
X141985801Y-63685499D01*
X141834731Y-63540664D01*
X141658308Y-63428084D01*
X141465062Y-63360460D01*
X141302000Y-63487743D01*
X141048000Y-63487743D01*
X140884938Y-63360460D01*
X140691692Y-63428084D01*
X140515269Y-63540664D01*
X140364199Y-63685499D01*
X140244288Y-63857023D01*
X140160144Y-64048645D01*
X140115000Y-64253000D01*
X139910049Y-64253000D01*
X139836554Y-64163446D01*
X139725853Y-64072597D01*
X139599557Y-64005090D01*
X139462517Y-63963520D01*
X139390921Y-63956468D01*
X139352922Y-63765432D01*
X139266458Y-63556692D01*
X139140933Y-63368830D01*
X138981170Y-63209067D01*
X138793308Y-63083542D01*
X138584568Y-62997078D01*
X138362970Y-62953000D01*
X138137030Y-62953000D01*
X137915432Y-62997078D01*
X137706692Y-63083542D01*
X137600000Y-63154831D01*
X137493308Y-63083542D01*
X137284568Y-62997078D01*
X137062970Y-62953000D01*
X136837030Y-62953000D01*
X136615432Y-62997078D01*
X136406692Y-63083542D01*
X136218830Y-63209067D01*
X136059067Y-63368830D01*
X135933542Y-63556692D01*
X135847078Y-63765432D01*
X135803000Y-63987030D01*
X135803000Y-64163793D01*
X135784119Y-64173885D01*
X135758807Y-64379202D01*
X135085000Y-64379202D01*
X135085000Y-64253000D01*
X135039856Y-64048645D01*
X134955712Y-63857023D01*
X134835801Y-63685499D01*
X134684731Y-63540664D01*
X134508308Y-63428084D01*
X134315062Y-63360460D01*
X134152000Y-63487743D01*
X133898000Y-63487743D01*
X133734938Y-63360460D01*
X133541692Y-63428084D01*
X133365269Y-63540664D01*
X133214199Y-63685499D01*
X133094288Y-63857023D01*
X133010144Y-64048645D01*
X132965000Y-64253000D01*
X110465565Y-64253000D01*
X111631073Y-62950283D01*
X112099733Y-62489000D01*
X118873000Y-62489000D01*
X118873000Y-62711000D01*
X118916310Y-62928734D01*
X119001266Y-63133835D01*
X119124602Y-63318421D01*
X119281579Y-63475398D01*
X119466165Y-63598734D01*
X119671266Y-63683690D01*
X119889000Y-63727000D01*
X120111000Y-63727000D01*
X120328734Y-63683690D01*
X120533835Y-63598734D01*
X120718421Y-63475398D01*
X120875398Y-63318421D01*
X120998734Y-63133835D01*
X121083690Y-62928734D01*
X121127000Y-62711000D01*
X121127000Y-62489000D01*
X121083690Y-62271266D01*
X120998734Y-62066165D01*
X120875398Y-61881579D01*
X120718421Y-61724602D01*
X120533835Y-61601266D01*
X120328734Y-61516310D01*
X120111000Y-61473000D01*
X119889000Y-61473000D01*
X119671266Y-61516310D01*
X119466165Y-61601266D01*
X119281579Y-61724602D01*
X119124602Y-61881579D01*
X119001266Y-62066165D01*
X118916310Y-62271266D01*
X118873000Y-62489000D01*
X112099733Y-62489000D01*
X113217326Y-61389000D01*
X156873000Y-61389000D01*
X156873000Y-61611000D01*
X156916310Y-61828734D01*
X157001266Y-62033835D01*
X157124602Y-62218421D01*
X157281579Y-62375398D01*
X157466165Y-62498734D01*
X157671266Y-62583690D01*
X157889000Y-62627000D01*
X158111000Y-62627000D01*
X158328734Y-62583690D01*
X158533835Y-62498734D01*
X158718421Y-62375398D01*
X158875398Y-62218421D01*
X158998734Y-62033835D01*
X159083690Y-61828734D01*
X159127000Y-61611000D01*
X159127000Y-61389000D01*
X159083690Y-61171266D01*
X158998734Y-60966165D01*
X158875398Y-60781579D01*
X158718421Y-60624602D01*
X158533835Y-60501266D01*
X158328734Y-60416310D01*
X158111000Y-60373000D01*
X157889000Y-60373000D01*
X157671266Y-60416310D01*
X157466165Y-60501266D01*
X157281579Y-60624602D01*
X157124602Y-60781579D01*
X157001266Y-60966165D01*
X156916310Y-61171266D01*
X156873000Y-61389000D01*
X113217326Y-61389000D01*
X113403788Y-61205474D01*
X115283597Y-59576611D01*
X115924310Y-59089000D01*
X124773000Y-59089000D01*
X124773000Y-59311000D01*
X124816310Y-59528734D01*
X124901266Y-59733835D01*
X125024602Y-59918421D01*
X125181579Y-60075398D01*
X125366165Y-60198734D01*
X125571266Y-60283690D01*
X125789000Y-60327000D01*
X126011000Y-60327000D01*
X126228734Y-60283690D01*
X126433835Y-60198734D01*
X126618421Y-60075398D01*
X126775398Y-59918421D01*
X126898734Y-59733835D01*
X126983690Y-59528734D01*
X127027000Y-59311000D01*
X127027000Y-59089000D01*
X126983690Y-58871266D01*
X126898734Y-58666165D01*
X126780357Y-58489000D01*
X151773000Y-58489000D01*
X151773000Y-58711000D01*
X151816310Y-58928734D01*
X151901266Y-59133835D01*
X152024602Y-59318421D01*
X152181579Y-59475398D01*
X152366165Y-59598734D01*
X152571266Y-59683690D01*
X152789000Y-59727000D01*
X153011000Y-59727000D01*
X153228734Y-59683690D01*
X153433835Y-59598734D01*
X153618421Y-59475398D01*
X153775398Y-59318421D01*
X153898734Y-59133835D01*
X153983690Y-58928734D01*
X154027000Y-58711000D01*
X154027000Y-58489000D01*
X153983690Y-58271266D01*
X153898734Y-58066165D01*
X153775398Y-57881579D01*
X153618421Y-57724602D01*
X153433835Y-57601266D01*
X153228734Y-57516310D01*
X153011000Y-57473000D01*
X152789000Y-57473000D01*
X152571266Y-57516310D01*
X152366165Y-57601266D01*
X152181579Y-57724602D01*
X152024602Y-57881579D01*
X151901266Y-58066165D01*
X151816310Y-58271266D01*
X151773000Y-58489000D01*
X126780357Y-58489000D01*
X126775398Y-58481579D01*
X126618421Y-58324602D01*
X126433835Y-58201266D01*
X126228734Y-58116310D01*
X126011000Y-58073000D01*
X125789000Y-58073000D01*
X125571266Y-58116310D01*
X125366165Y-58201266D01*
X125181579Y-58324602D01*
X125024602Y-58481579D01*
X124901266Y-58666165D01*
X124816310Y-58871266D01*
X124773000Y-59089000D01*
X115924310Y-59089000D01*
X117262929Y-58070252D01*
X118888105Y-56989000D01*
X130573000Y-56989000D01*
X130573000Y-57211000D01*
X130616310Y-57428734D01*
X130701266Y-57633835D01*
X130824602Y-57818421D01*
X130981579Y-57975398D01*
X131166165Y-58098734D01*
X131371266Y-58183690D01*
X131589000Y-58227000D01*
X131811000Y-58227000D01*
X132028734Y-58183690D01*
X132233835Y-58098734D01*
X132418421Y-57975398D01*
X132575398Y-57818421D01*
X132698734Y-57633835D01*
X132783690Y-57428734D01*
X132827000Y-57211000D01*
X132827000Y-56989000D01*
X132783690Y-56771266D01*
X132698734Y-56566165D01*
X132575398Y-56381579D01*
X132482819Y-56289000D01*
X137673000Y-56289000D01*
X137673000Y-56511000D01*
X137716310Y-56728734D01*
X137801266Y-56933835D01*
X137924602Y-57118421D01*
X138081579Y-57275398D01*
X138266165Y-57398734D01*
X138471266Y-57483690D01*
X138689000Y-57527000D01*
X138911000Y-57527000D01*
X139128734Y-57483690D01*
X139333835Y-57398734D01*
X139518421Y-57275398D01*
X139675398Y-57118421D01*
X139798734Y-56933835D01*
X139883690Y-56728734D01*
X139911484Y-56589000D01*
X144873000Y-56589000D01*
X144873000Y-56811000D01*
X144916310Y-57028734D01*
X145001266Y-57233835D01*
X145124602Y-57418421D01*
X145281579Y-57575398D01*
X145466165Y-57698734D01*
X145671266Y-57783690D01*
X145889000Y-57827000D01*
X146111000Y-57827000D01*
X146328734Y-57783690D01*
X146533835Y-57698734D01*
X146718421Y-57575398D01*
X146875398Y-57418421D01*
X146998734Y-57233835D01*
X147083690Y-57028734D01*
X147127000Y-56811000D01*
X147127000Y-56589000D01*
X147083690Y-56371266D01*
X146998734Y-56166165D01*
X146875398Y-55981579D01*
X146718421Y-55824602D01*
X146533835Y-55701266D01*
X146328734Y-55616310D01*
X146111000Y-55573000D01*
X145889000Y-55573000D01*
X145671266Y-55616310D01*
X145466165Y-55701266D01*
X145281579Y-55824602D01*
X145124602Y-55981579D01*
X145001266Y-56166165D01*
X144916310Y-56371266D01*
X144873000Y-56589000D01*
X139911484Y-56589000D01*
X139927000Y-56511000D01*
X139927000Y-56289000D01*
X139883690Y-56071266D01*
X139798734Y-55866165D01*
X139675398Y-55681579D01*
X139518421Y-55524602D01*
X139333835Y-55401266D01*
X139128734Y-55316310D01*
X138911000Y-55273000D01*
X138689000Y-55273000D01*
X138471266Y-55316310D01*
X138266165Y-55401266D01*
X138081579Y-55524602D01*
X137924602Y-55681579D01*
X137801266Y-55866165D01*
X137716310Y-56071266D01*
X137673000Y-56289000D01*
X132482819Y-56289000D01*
X132418421Y-56224602D01*
X132233835Y-56101266D01*
X132028734Y-56016310D01*
X131811000Y-55973000D01*
X131589000Y-55973000D01*
X131371266Y-56016310D01*
X131166165Y-56101266D01*
X130981579Y-56224602D01*
X130824602Y-56381579D01*
X130701266Y-56566165D01*
X130616310Y-56771266D01*
X130573000Y-56989000D01*
X118888105Y-56989000D01*
X119333816Y-56692463D01*
X121487918Y-55448791D01*
X123716562Y-54344245D01*
X126010774Y-53383272D01*
X128361315Y-52569742D01*
X130758721Y-51906930D01*
X133193339Y-51397506D01*
X135655364Y-51043520D01*
X138134884Y-50846398D01*
X140621914Y-50806934D01*
X143106440Y-50925286D01*
G37*
%TD.AperFunction*%
%TD*%
M02*
