%TF.GenerationSoftware,KiCad,Pcbnew,(5.1.9)-1*%
%TF.CreationDate,2021-08-08T14:50:10+02:00*%
%TF.ProjectId,nogasm,6e6f6761-736d-42e6-9b69-6361645f7063,rev?*%
%TF.SameCoordinates,Original*%
%TF.FileFunction,Copper,L3,Inr*%
%TF.FilePolarity,Positive*%
%FSLAX46Y46*%
G04 Gerber Fmt 4.6, Leading zero omitted, Abs format (unit mm)*
G04 Created by KiCad (PCBNEW (5.1.9)-1) date 2021-08-08 14:50:10*
%MOMM*%
%LPD*%
G01*
G04 APERTURE LIST*
%TA.AperFunction,ComponentPad*%
%ADD10O,0.850000X1.850000*%
%TD*%
%TA.AperFunction,ComponentPad*%
%ADD11C,0.840000*%
%TD*%
%TA.AperFunction,ComponentPad*%
%ADD12R,0.840000X0.840000*%
%TD*%
%TA.AperFunction,ComponentPad*%
%ADD13R,2.000000X2.000000*%
%TD*%
%TA.AperFunction,ComponentPad*%
%ADD14C,2.000000*%
%TD*%
%TA.AperFunction,ComponentPad*%
%ADD15R,3.200000X2.000000*%
%TD*%
%TA.AperFunction,ComponentPad*%
%ADD16C,2.600000*%
%TD*%
%TA.AperFunction,ComponentPad*%
%ADD17C,0.100000*%
%TD*%
%TA.AperFunction,ViaPad*%
%ADD18C,0.800000*%
%TD*%
%TA.AperFunction,Conductor*%
%ADD19C,0.254000*%
%TD*%
%TA.AperFunction,Conductor*%
%ADD20C,0.100000*%
%TD*%
G04 APERTURE END LIST*
D10*
%TO.N,GND*%
%TO.C,J3*%
X134025000Y-64880000D03*
X141175000Y-64880000D03*
D11*
X136300000Y-65100000D03*
%TO.N,Net-(J3-Pad4)*%
X136950000Y-64100000D03*
%TO.N,Net-(J3-Pad3)*%
X137600000Y-65100000D03*
%TO.N,Net-(J3-Pad2)*%
X138250000Y-64100000D03*
D12*
%TO.N,Net-(J3-Pad1)*%
X138900000Y-65100000D03*
%TD*%
D13*
%TO.N,/ENC_A*%
%TO.C,SW2*%
X132500000Y-87500000D03*
D14*
%TO.N,GND*%
X132500000Y-90000000D03*
%TO.N,/ENC_B*%
X132500000Y-92500000D03*
D15*
%TO.N,N/C*%
X140000000Y-84400000D03*
X140000000Y-95600000D03*
D14*
%TO.N,GND*%
X147000000Y-87500000D03*
%TO.N,/ENC_SW*%
X147000000Y-92500000D03*
%TD*%
D16*
%TO.N,N/C*%
%TO.C,J1*%
X127070319Y-119448076D03*
%TO.N,GND*%
X121500000Y-119696152D03*
%TA.AperFunction,ComponentPad*%
D17*
%TO.N,+12V*%
G36*
X122724167Y-114975833D02*
G01*
X124024167Y-112724167D01*
X126275833Y-114024167D01*
X124975833Y-116275833D01*
X122724167Y-114975833D01*
G37*
%TD.AperFunction*%
%TD*%
D18*
%TO.N,GND*%
X112200000Y-90000000D03*
X112200000Y-87500000D03*
X112200000Y-84900000D03*
X119700000Y-103200000D03*
X119700000Y-101200000D03*
X133400000Y-105600000D03*
X133400000Y-107700000D03*
X135800000Y-109500000D03*
X131200000Y-109500000D03*
X135800000Y-104300000D03*
X131200000Y-104300000D03*
X117500000Y-104700000D03*
X122100000Y-104700000D03*
X122000000Y-99500000D03*
X117600000Y-99500000D03*
X157500000Y-91800000D03*
X157500000Y-87700000D03*
X157500000Y-89700000D03*
X159500000Y-89700000D03*
X155400000Y-89700000D03*
X155400000Y-91800000D03*
X159400000Y-91800000D03*
X159500000Y-87700000D03*
X155400000Y-87700000D03*
X168500000Y-114600000D03*
X172800000Y-108200000D03*
X175700000Y-101000000D03*
X178300000Y-94700000D03*
X178400000Y-86900000D03*
X176600000Y-79300000D03*
X173500000Y-72200000D03*
X169000000Y-65700000D03*
X163300000Y-60400000D03*
X156500000Y-56500000D03*
X149200000Y-53900000D03*
X143000000Y-51400000D03*
X135100000Y-52000000D03*
X127600000Y-53900000D03*
X120900000Y-57400000D03*
X114400000Y-62200000D03*
X109500000Y-68300000D03*
X105700000Y-75100000D03*
X103400000Y-82500000D03*
X101300000Y-88900000D03*
X102100000Y-96700000D03*
X104500000Y-104100000D03*
X108400000Y-110900000D03*
X113500000Y-116800000D03*
X122700000Y-81700000D03*
X151800000Y-82200000D03*
X165300000Y-82300000D03*
X152800000Y-98225000D03*
X156800000Y-106100000D03*
X159000000Y-107300000D03*
X151000000Y-123100000D03*
X152500000Y-123100000D03*
X150900000Y-121300000D03*
X150100000Y-121300000D03*
X141200000Y-103200000D03*
X147600000Y-100600000D03*
X127000000Y-92500000D03*
X127000000Y-87500000D03*
X140000000Y-104800000D03*
X112200000Y-82400000D03*
X144700000Y-108100000D03*
X145600000Y-108100000D03*
X146500000Y-108100000D03*
X147500000Y-108100000D03*
X144700000Y-112200000D03*
X145600000Y-112200000D03*
X146500000Y-112200000D03*
X147400000Y-112200000D03*
X142400000Y-78200000D03*
%TO.N,+3V3*%
X151800000Y-83500000D03*
X143500000Y-118600000D03*
X143500000Y-119400000D03*
X143500000Y-120200000D03*
X137300000Y-111700000D03*
X138200000Y-111700000D03*
X137300000Y-112600000D03*
X138200000Y-112600000D03*
X137300000Y-113500000D03*
X138200000Y-113500000D03*
X137300000Y-114400000D03*
X138200000Y-114400000D03*
X143000000Y-102000000D03*
X151100000Y-102100000D03*
X143200000Y-73100000D03*
X143200000Y-74400000D03*
X134300000Y-78200000D03*
%TO.N,+5V*%
X113400000Y-111500000D03*
X109500000Y-105500000D03*
X107200000Y-99200000D03*
X105800000Y-92600000D03*
X106300000Y-85600000D03*
X107800000Y-78600000D03*
X110600000Y-72800000D03*
X114600000Y-67400000D03*
X120000000Y-62600000D03*
X125900000Y-59200000D03*
X131700000Y-57100000D03*
X146000000Y-56700000D03*
X152900000Y-58600000D03*
X158000000Y-61500000D03*
X163700000Y-65800000D03*
X168300000Y-71200000D03*
X171600000Y-77600000D03*
X173200000Y-83300000D03*
X173700000Y-90500000D03*
X172600000Y-97400000D03*
X170400000Y-104300000D03*
X166900000Y-110500000D03*
X162900000Y-114600000D03*
X138800000Y-56400000D03*
X107700000Y-94500000D03*
X108600000Y-94500000D03*
X108600000Y-95400000D03*
X108600000Y-96300000D03*
X107700000Y-96300000D03*
X107700000Y-95400000D03*
X106800000Y-95400000D03*
X106800000Y-96300000D03*
X106800000Y-97200000D03*
X107700000Y-97200000D03*
X108600000Y-97200000D03*
X106800000Y-94500000D03*
%TO.N,/ENC_A*%
X147000000Y-95500000D03*
%TO.N,/ENC_B*%
X162000000Y-97500000D03*
%TO.N,/LED*%
X160900000Y-102300000D03*
X117400000Y-114700000D03*
%TO.N,Net-(R1-Pad1)*%
X146000000Y-119500000D03*
X146000000Y-114900000D03*
%TO.N,/Motor*%
X166000000Y-103500000D03*
X167499962Y-102000000D03*
%TO.N,/ENC_SW*%
X154000000Y-96300000D03*
%TO.N,Net-(RV1-Pad2)*%
X142500000Y-100500000D03*
X145530002Y-101500000D03*
%TO.N,/TX_ESP*%
X163100000Y-86000000D03*
X143800000Y-75600000D03*
%TO.N,/RX_ESP*%
X143200000Y-76900000D03*
X162200000Y-86700000D03*
%TD*%
D19*
%TO.N,+5V*%
X141998636Y-50872515D02*
X141916310Y-51071266D01*
X141873000Y-51289000D01*
X141873000Y-51511000D01*
X141916310Y-51728734D01*
X142001266Y-51933835D01*
X142124602Y-52118421D01*
X142281579Y-52275398D01*
X142466165Y-52398734D01*
X142671266Y-52483690D01*
X142889000Y-52527000D01*
X143111000Y-52527000D01*
X143328734Y-52483690D01*
X143533835Y-52398734D01*
X143718421Y-52275398D01*
X143875398Y-52118421D01*
X143998734Y-51933835D01*
X144083690Y-51728734D01*
X144127000Y-51511000D01*
X144127000Y-51289000D01*
X144083690Y-51071266D01*
X144067625Y-51032483D01*
X145578457Y-51200979D01*
X148028012Y-51632902D01*
X150445241Y-52219315D01*
X152820410Y-52957858D01*
X155143956Y-53845556D01*
X157406523Y-54878836D01*
X159599000Y-56053536D01*
X161712559Y-57364927D01*
X163738689Y-58807727D01*
X165669231Y-60376128D01*
X167496413Y-62063814D01*
X169212876Y-63863989D01*
X170811709Y-65769404D01*
X172286475Y-67772387D01*
X173631234Y-69864874D01*
X174840572Y-72038437D01*
X175909619Y-74284325D01*
X176834071Y-76593494D01*
X177498258Y-78615792D01*
X177475398Y-78581579D01*
X177318421Y-78424602D01*
X177133835Y-78301266D01*
X176928734Y-78216310D01*
X176711000Y-78173000D01*
X176489000Y-78173000D01*
X176271266Y-78216310D01*
X176066165Y-78301266D01*
X175881579Y-78424602D01*
X175724602Y-78581579D01*
X175601266Y-78766165D01*
X175516310Y-78971266D01*
X175473000Y-79189000D01*
X175473000Y-79411000D01*
X175516310Y-79628734D01*
X175601266Y-79833835D01*
X175724602Y-80018421D01*
X175881579Y-80175398D01*
X176066165Y-80298734D01*
X176271266Y-80383690D01*
X176489000Y-80427000D01*
X176711000Y-80427000D01*
X176928734Y-80383690D01*
X177133835Y-80298734D01*
X177318421Y-80175398D01*
X177475398Y-80018421D01*
X177598734Y-79833835D01*
X177683690Y-79628734D01*
X177727000Y-79411000D01*
X177727000Y-79406783D01*
X178234897Y-81364268D01*
X178705630Y-83806661D01*
X178976587Y-85929832D01*
X178933835Y-85901266D01*
X178728734Y-85816310D01*
X178511000Y-85773000D01*
X178289000Y-85773000D01*
X178071266Y-85816310D01*
X177866165Y-85901266D01*
X177681579Y-86024602D01*
X177524602Y-86181579D01*
X177401266Y-86366165D01*
X177316310Y-86571266D01*
X177273000Y-86789000D01*
X177273000Y-87011000D01*
X177316310Y-87228734D01*
X177401266Y-87433835D01*
X177524602Y-87618421D01*
X177681579Y-87775398D01*
X177866165Y-87898734D01*
X178071266Y-87983690D01*
X178289000Y-88027000D01*
X178511000Y-88027000D01*
X178728734Y-87983690D01*
X178933835Y-87898734D01*
X179116027Y-87776998D01*
X179178265Y-88756328D01*
X179178265Y-91243672D01*
X179020508Y-93726007D01*
X179008750Y-93818140D01*
X178833835Y-93701266D01*
X178628734Y-93616310D01*
X178411000Y-93573000D01*
X178189000Y-93573000D01*
X177971266Y-93616310D01*
X177766165Y-93701266D01*
X177581579Y-93824602D01*
X177424602Y-93981579D01*
X177301266Y-94166165D01*
X177216310Y-94371266D01*
X177173000Y-94589000D01*
X177173000Y-94811000D01*
X177216310Y-95028734D01*
X177301266Y-95233835D01*
X177424602Y-95418421D01*
X177581579Y-95575398D01*
X177766165Y-95698734D01*
X177971266Y-95783690D01*
X178189000Y-95827000D01*
X178411000Y-95827000D01*
X178628734Y-95783690D01*
X178765118Y-95727197D01*
X178705630Y-96193339D01*
X178234897Y-98635732D01*
X177610206Y-101043353D01*
X176834071Y-103406506D01*
X175909619Y-105715675D01*
X174840572Y-107961563D01*
X173631234Y-110135126D01*
X172286475Y-112227613D01*
X170811709Y-114230596D01*
X169212876Y-116136011D01*
X167496413Y-117936186D01*
X165669231Y-119623872D01*
X163738689Y-121192273D01*
X161712559Y-122635073D01*
X159599000Y-123946464D01*
X157406523Y-125121164D01*
X155143956Y-126154444D01*
X152820410Y-127042142D01*
X150445241Y-127780685D01*
X148028012Y-128367098D01*
X145578457Y-128799021D01*
X143106440Y-129074714D01*
X140621914Y-129193066D01*
X138134884Y-129153602D01*
X135655364Y-128956480D01*
X133193339Y-128602494D01*
X130758721Y-128093070D01*
X128361315Y-127430258D01*
X126010774Y-126616728D01*
X123716562Y-125655755D01*
X121487918Y-124551209D01*
X119333816Y-123307537D01*
X117262929Y-121929748D01*
X115283597Y-120423389D01*
X114213922Y-119496510D01*
X119473000Y-119496510D01*
X119473000Y-119895794D01*
X119550896Y-120287406D01*
X119703696Y-120656297D01*
X119925526Y-120988289D01*
X120207863Y-121270626D01*
X120539855Y-121492456D01*
X120908746Y-121645256D01*
X121300358Y-121723152D01*
X121699642Y-121723152D01*
X122091254Y-121645256D01*
X122460145Y-121492456D01*
X122792137Y-121270626D01*
X123074474Y-120988289D01*
X123296304Y-120656297D01*
X123449104Y-120287406D01*
X123527000Y-119895794D01*
X123527000Y-119496510D01*
X123449104Y-119104898D01*
X123296304Y-118736007D01*
X123074474Y-118404015D01*
X122792137Y-118121678D01*
X122460145Y-117899848D01*
X122091254Y-117747048D01*
X121699642Y-117669152D01*
X121300358Y-117669152D01*
X120908746Y-117747048D01*
X120539855Y-117899848D01*
X120207863Y-118121678D01*
X119925526Y-118404015D01*
X119703696Y-118736007D01*
X119550896Y-119104898D01*
X119473000Y-119496510D01*
X114213922Y-119496510D01*
X113403788Y-118794526D01*
X111631073Y-117049717D01*
X111308349Y-116689000D01*
X112373000Y-116689000D01*
X112373000Y-116911000D01*
X112416310Y-117128734D01*
X112501266Y-117333835D01*
X112624602Y-117518421D01*
X112781579Y-117675398D01*
X112966165Y-117798734D01*
X113171266Y-117883690D01*
X113389000Y-117927000D01*
X113611000Y-117927000D01*
X113828734Y-117883690D01*
X114033835Y-117798734D01*
X114218421Y-117675398D01*
X114375398Y-117518421D01*
X114498734Y-117333835D01*
X114583690Y-117128734D01*
X114627000Y-116911000D01*
X114627000Y-116689000D01*
X114583690Y-116471266D01*
X114498734Y-116266165D01*
X114375398Y-116081579D01*
X114218421Y-115924602D01*
X114033835Y-115801266D01*
X113828734Y-115716310D01*
X113611000Y-115673000D01*
X113389000Y-115673000D01*
X113171266Y-115716310D01*
X112966165Y-115801266D01*
X112781579Y-115924602D01*
X112624602Y-116081579D01*
X112501266Y-116266165D01*
X112416310Y-116471266D01*
X112373000Y-116689000D01*
X111308349Y-116689000D01*
X109972590Y-115195989D01*
X109495249Y-114589000D01*
X116273000Y-114589000D01*
X116273000Y-114811000D01*
X116316310Y-115028734D01*
X116401266Y-115233835D01*
X116524602Y-115418421D01*
X116681579Y-115575398D01*
X116866165Y-115698734D01*
X117071266Y-115783690D01*
X117289000Y-115827000D01*
X117511000Y-115827000D01*
X117728734Y-115783690D01*
X117933835Y-115698734D01*
X118118421Y-115575398D01*
X118275398Y-115418421D01*
X118398734Y-115233835D01*
X118483690Y-115028734D01*
X118527000Y-114811000D01*
X118527000Y-114589000D01*
X118483690Y-114371266D01*
X118398734Y-114166165D01*
X118275398Y-113981579D01*
X118118421Y-113824602D01*
X117933835Y-113701266D01*
X117728734Y-113616310D01*
X117511000Y-113573000D01*
X117289000Y-113573000D01*
X117071266Y-113616310D01*
X116866165Y-113701266D01*
X116681579Y-113824602D01*
X116524602Y-113981579D01*
X116401266Y-114166165D01*
X116316310Y-114371266D01*
X116273000Y-114589000D01*
X109495249Y-114589000D01*
X108435016Y-113240805D01*
X107024544Y-111192039D01*
X106783244Y-110789000D01*
X107273000Y-110789000D01*
X107273000Y-111011000D01*
X107316310Y-111228734D01*
X107401266Y-111433835D01*
X107524602Y-111618421D01*
X107681579Y-111775398D01*
X107866165Y-111898734D01*
X108071266Y-111983690D01*
X108289000Y-112027000D01*
X108511000Y-112027000D01*
X108728734Y-111983690D01*
X108933835Y-111898734D01*
X109118421Y-111775398D01*
X109275398Y-111618421D01*
X109398734Y-111433835D01*
X109483690Y-111228734D01*
X109527000Y-111011000D01*
X109527000Y-110789000D01*
X109483690Y-110571266D01*
X109398734Y-110366165D01*
X109275398Y-110181579D01*
X109118421Y-110024602D01*
X108933835Y-109901266D01*
X108728734Y-109816310D01*
X108511000Y-109773000D01*
X108289000Y-109773000D01*
X108071266Y-109816310D01*
X107866165Y-109901266D01*
X107681579Y-110024602D01*
X107524602Y-110181579D01*
X107401266Y-110366165D01*
X107316310Y-110571266D01*
X107273000Y-110789000D01*
X106783244Y-110789000D01*
X105746852Y-109057940D01*
X104607086Y-106847101D01*
X103790574Y-104981408D01*
X103966165Y-105098734D01*
X104171266Y-105183690D01*
X104389000Y-105227000D01*
X104611000Y-105227000D01*
X104828734Y-105183690D01*
X105033835Y-105098734D01*
X105218421Y-104975398D01*
X105375398Y-104818421D01*
X105498734Y-104633835D01*
X105583690Y-104428734D01*
X105627000Y-104211000D01*
X105627000Y-103989000D01*
X105583690Y-103771266D01*
X105498734Y-103566165D01*
X105375398Y-103381579D01*
X105218421Y-103224602D01*
X105033835Y-103101266D01*
X104828734Y-103016310D01*
X104611000Y-102973000D01*
X104389000Y-102973000D01*
X104171266Y-103016310D01*
X103966165Y-103101266D01*
X103781579Y-103224602D01*
X103624602Y-103381579D01*
X103501266Y-103566165D01*
X103416310Y-103771266D01*
X103382167Y-103942915D01*
X102759112Y-102231087D01*
X102058347Y-99844499D01*
X101574483Y-97702179D01*
X101771266Y-97783690D01*
X101989000Y-97827000D01*
X102211000Y-97827000D01*
X102428734Y-97783690D01*
X102633835Y-97698734D01*
X102818421Y-97575398D01*
X102975398Y-97418421D01*
X103098734Y-97233835D01*
X103183690Y-97028734D01*
X103227000Y-96811000D01*
X103227000Y-96589000D01*
X103183690Y-96371266D01*
X103098734Y-96166165D01*
X102975398Y-95981579D01*
X102818421Y-95824602D01*
X102633835Y-95701266D01*
X102428734Y-95616310D01*
X102211000Y-95573000D01*
X101989000Y-95573000D01*
X101771266Y-95616310D01*
X101566165Y-95701266D01*
X101381579Y-95824602D01*
X101272765Y-95933416D01*
X101117355Y-94962171D01*
X100880918Y-92486091D01*
X100802000Y-90000000D01*
X100804708Y-89914699D01*
X100971266Y-89983690D01*
X101189000Y-90027000D01*
X101411000Y-90027000D01*
X101628734Y-89983690D01*
X101833835Y-89898734D01*
X102018421Y-89775398D01*
X102175398Y-89618421D01*
X102298734Y-89433835D01*
X102383690Y-89228734D01*
X102427000Y-89011000D01*
X102427000Y-88789000D01*
X102383690Y-88571266D01*
X102318471Y-88413813D01*
X108273000Y-88413813D01*
X108273000Y-92504902D01*
X108273885Y-92540763D01*
X108298218Y-93033452D01*
X108305286Y-93104829D01*
X108378050Y-93592721D01*
X108384215Y-93628059D01*
X109226069Y-97837332D01*
X109236306Y-97881354D01*
X109395793Y-98481912D01*
X109408745Y-98525212D01*
X110197939Y-100892794D01*
X110206527Y-100917111D01*
X110330546Y-101249389D01*
X110350280Y-101297030D01*
X110497541Y-101619681D01*
X110508663Y-101642949D01*
X113090228Y-106806078D01*
X113103230Y-106830876D01*
X113288566Y-107168394D01*
X113317383Y-107216395D01*
X113528143Y-107538650D01*
X113560568Y-107584289D01*
X113795501Y-107889370D01*
X113813009Y-107911222D01*
X117977267Y-112908331D01*
X118000247Y-112934598D01*
X118324816Y-113288104D01*
X118374419Y-113337179D01*
X118731383Y-113657941D01*
X118785465Y-113702036D01*
X119171537Y-113987097D01*
X119200102Y-114007147D01*
X124214772Y-117350260D01*
X124242875Y-117368080D01*
X124634852Y-117604230D01*
X124693357Y-117635922D01*
X125105284Y-117835246D01*
X125135564Y-117849051D01*
X125602582Y-118049202D01*
X125495845Y-118155939D01*
X125274015Y-118487931D01*
X125121215Y-118856822D01*
X125043319Y-119248434D01*
X125043319Y-119647718D01*
X125121215Y-120039330D01*
X125274015Y-120408221D01*
X125495845Y-120740213D01*
X125778182Y-121022550D01*
X126110174Y-121244380D01*
X126479065Y-121397180D01*
X126870677Y-121475076D01*
X127269961Y-121475076D01*
X127661573Y-121397180D01*
X128030464Y-121244380D01*
X128362456Y-121022550D01*
X128644793Y-120740213D01*
X128866623Y-120408221D01*
X129019423Y-120039330D01*
X129097319Y-119647718D01*
X129097319Y-119546946D01*
X131064725Y-120390120D01*
X131096270Y-120402775D01*
X131534006Y-120566609D01*
X131598696Y-120587430D01*
X132049817Y-120709674D01*
X132116170Y-120724363D01*
X132576736Y-120803949D01*
X132610354Y-120808952D01*
X139600942Y-121682775D01*
X139645941Y-121686984D01*
X140266115Y-121725595D01*
X140311289Y-121727000D01*
X141586187Y-121727000D01*
X141616195Y-121726380D01*
X142028598Y-121709343D01*
X142088406Y-121704394D01*
X142497998Y-121653401D01*
X142527700Y-121649078D01*
X145288167Y-121189000D01*
X148973000Y-121189000D01*
X148973000Y-121411000D01*
X149016310Y-121628734D01*
X149101266Y-121833835D01*
X149224602Y-122018421D01*
X149381579Y-122175398D01*
X149566165Y-122298734D01*
X149771266Y-122383690D01*
X149989000Y-122427000D01*
X150094253Y-122427000D01*
X150001266Y-122566165D01*
X149916310Y-122771266D01*
X149873000Y-122989000D01*
X149873000Y-123211000D01*
X149916310Y-123428734D01*
X150001266Y-123633835D01*
X150124602Y-123818421D01*
X150281579Y-123975398D01*
X150466165Y-124098734D01*
X150671266Y-124183690D01*
X150889000Y-124227000D01*
X151111000Y-124227000D01*
X151328734Y-124183690D01*
X151533835Y-124098734D01*
X151718421Y-123975398D01*
X151750000Y-123943819D01*
X151781579Y-123975398D01*
X151966165Y-124098734D01*
X152171266Y-124183690D01*
X152389000Y-124227000D01*
X152611000Y-124227000D01*
X152828734Y-124183690D01*
X153033835Y-124098734D01*
X153218421Y-123975398D01*
X153375398Y-123818421D01*
X153498734Y-123633835D01*
X153583690Y-123428734D01*
X153627000Y-123211000D01*
X153627000Y-122989000D01*
X153583690Y-122771266D01*
X153498734Y-122566165D01*
X153447709Y-122489799D01*
X157410500Y-122489799D01*
X157410500Y-122780743D01*
X157467260Y-123066096D01*
X157578599Y-123334893D01*
X157740239Y-123576804D01*
X157945967Y-123782532D01*
X158187878Y-123944172D01*
X158456675Y-124055511D01*
X158742028Y-124112271D01*
X159032972Y-124112271D01*
X159318325Y-124055511D01*
X159587122Y-123944172D01*
X159829033Y-123782532D01*
X160034761Y-123576804D01*
X160196401Y-123334893D01*
X160307740Y-123066096D01*
X160364500Y-122780743D01*
X160364500Y-122489799D01*
X160307740Y-122204446D01*
X160196401Y-121935649D01*
X160034761Y-121693738D01*
X159829033Y-121488010D01*
X159587122Y-121326370D01*
X159318325Y-121215031D01*
X159032972Y-121158271D01*
X158742028Y-121158271D01*
X158456675Y-121215031D01*
X158187878Y-121326370D01*
X157945967Y-121488010D01*
X157740239Y-121693738D01*
X157578599Y-121935649D01*
X157467260Y-122204446D01*
X157410500Y-122489799D01*
X153447709Y-122489799D01*
X153375398Y-122381579D01*
X153218421Y-122224602D01*
X153033835Y-122101266D01*
X152828734Y-122016310D01*
X152611000Y-121973000D01*
X152389000Y-121973000D01*
X152171266Y-122016310D01*
X151966165Y-122101266D01*
X151781579Y-122224602D01*
X151750000Y-122256181D01*
X151718421Y-122224602D01*
X151628980Y-122164839D01*
X151775398Y-122018421D01*
X151898734Y-121833835D01*
X151983690Y-121628734D01*
X152027000Y-121411000D01*
X152027000Y-121189000D01*
X151983690Y-120971266D01*
X151898734Y-120766165D01*
X151775398Y-120581579D01*
X151618421Y-120424602D01*
X151433835Y-120301266D01*
X151228734Y-120216310D01*
X151011000Y-120173000D01*
X150789000Y-120173000D01*
X150571266Y-120216310D01*
X150500000Y-120245829D01*
X150428734Y-120216310D01*
X150211000Y-120173000D01*
X149989000Y-120173000D01*
X149771266Y-120216310D01*
X149566165Y-120301266D01*
X149381579Y-120424602D01*
X149224602Y-120581579D01*
X149101266Y-120766165D01*
X149016310Y-120971266D01*
X148973000Y-121189000D01*
X145288167Y-121189000D01*
X147732549Y-120781603D01*
X147760526Y-120776376D01*
X148143791Y-120696967D01*
X148199022Y-120683249D01*
X148574901Y-120574105D01*
X148602073Y-120565635D01*
X150892794Y-119802061D01*
X150917111Y-119793473D01*
X151249389Y-119669454D01*
X151297030Y-119649720D01*
X151619681Y-119502459D01*
X151642949Y-119491337D01*
X154782909Y-117921357D01*
X154956675Y-117993333D01*
X155242028Y-118050093D01*
X155532972Y-118050093D01*
X155818325Y-117993333D01*
X156087122Y-117881994D01*
X156329033Y-117720354D01*
X156534761Y-117514626D01*
X156696401Y-117272715D01*
X156807740Y-117003918D01*
X156828718Y-116898452D01*
X156921872Y-116851875D01*
X156950772Y-116836603D01*
X157343359Y-116617721D01*
X157398952Y-116583363D01*
X157770297Y-116330109D01*
X157796880Y-116311090D01*
X160226333Y-114489000D01*
X167373000Y-114489000D01*
X167373000Y-114711000D01*
X167416310Y-114928734D01*
X167501266Y-115133835D01*
X167624602Y-115318421D01*
X167781579Y-115475398D01*
X167966165Y-115598734D01*
X168171266Y-115683690D01*
X168389000Y-115727000D01*
X168611000Y-115727000D01*
X168828734Y-115683690D01*
X169033835Y-115598734D01*
X169218421Y-115475398D01*
X169375398Y-115318421D01*
X169498734Y-115133835D01*
X169583690Y-114928734D01*
X169627000Y-114711000D01*
X169627000Y-114489000D01*
X169583690Y-114271266D01*
X169498734Y-114066165D01*
X169375398Y-113881579D01*
X169218421Y-113724602D01*
X169033835Y-113601266D01*
X168828734Y-113516310D01*
X168611000Y-113473000D01*
X168389000Y-113473000D01*
X168171266Y-113516310D01*
X167966165Y-113601266D01*
X167781579Y-113724602D01*
X167624602Y-113881579D01*
X167501266Y-114066165D01*
X167416310Y-114271266D01*
X167373000Y-114489000D01*
X160226333Y-114489000D01*
X161151929Y-113794803D01*
X161172283Y-113778966D01*
X161448291Y-113556236D01*
X161487247Y-113522449D01*
X161746773Y-113280713D01*
X161765330Y-113262804D01*
X163262804Y-111765330D01*
X163280713Y-111746773D01*
X163522449Y-111487247D01*
X163556236Y-111448291D01*
X163778966Y-111172283D01*
X163794803Y-111151929D01*
X166091999Y-108089000D01*
X171673000Y-108089000D01*
X171673000Y-108311000D01*
X171716310Y-108528734D01*
X171801266Y-108733835D01*
X171924602Y-108918421D01*
X172081579Y-109075398D01*
X172266165Y-109198734D01*
X172471266Y-109283690D01*
X172689000Y-109327000D01*
X172911000Y-109327000D01*
X173128734Y-109283690D01*
X173333835Y-109198734D01*
X173518421Y-109075398D01*
X173675398Y-108918421D01*
X173798734Y-108733835D01*
X173883690Y-108528734D01*
X173927000Y-108311000D01*
X173927000Y-108089000D01*
X173883690Y-107871266D01*
X173798734Y-107666165D01*
X173675398Y-107481579D01*
X173518421Y-107324602D01*
X173333835Y-107201266D01*
X173128734Y-107116310D01*
X172911000Y-107073000D01*
X172689000Y-107073000D01*
X172471266Y-107116310D01*
X172266165Y-107201266D01*
X172081579Y-107324602D01*
X171924602Y-107481579D01*
X171801266Y-107666165D01*
X171716310Y-107871266D01*
X171673000Y-108089000D01*
X166091999Y-108089000D01*
X166311090Y-107796880D01*
X166330109Y-107770297D01*
X166583363Y-107398952D01*
X166617721Y-107343359D01*
X166836603Y-106950772D01*
X166851875Y-106921872D01*
X169491337Y-101642949D01*
X169502459Y-101619681D01*
X169649720Y-101297030D01*
X169669454Y-101249389D01*
X169793473Y-100917111D01*
X169802061Y-100892794D01*
X169803325Y-100889000D01*
X174573000Y-100889000D01*
X174573000Y-101111000D01*
X174616310Y-101328734D01*
X174701266Y-101533835D01*
X174824602Y-101718421D01*
X174981579Y-101875398D01*
X175166165Y-101998734D01*
X175371266Y-102083690D01*
X175589000Y-102127000D01*
X175811000Y-102127000D01*
X176028734Y-102083690D01*
X176233835Y-101998734D01*
X176418421Y-101875398D01*
X176575398Y-101718421D01*
X176698734Y-101533835D01*
X176783690Y-101328734D01*
X176827000Y-101111000D01*
X176827000Y-100889000D01*
X176783690Y-100671266D01*
X176698734Y-100466165D01*
X176575398Y-100281579D01*
X176418421Y-100124602D01*
X176233835Y-100001266D01*
X176028734Y-99916310D01*
X175811000Y-99873000D01*
X175589000Y-99873000D01*
X175371266Y-99916310D01*
X175166165Y-100001266D01*
X174981579Y-100124602D01*
X174824602Y-100281579D01*
X174701266Y-100466165D01*
X174616310Y-100671266D01*
X174573000Y-100889000D01*
X169803325Y-100889000D01*
X170565635Y-98602073D01*
X170574105Y-98574901D01*
X170683249Y-98199022D01*
X170696967Y-98143791D01*
X170776376Y-97760526D01*
X170781603Y-97732549D01*
X171649078Y-92527700D01*
X171653401Y-92497998D01*
X171704394Y-92088406D01*
X171709343Y-92028598D01*
X171726380Y-91616195D01*
X171727000Y-91586187D01*
X171727000Y-87495098D01*
X171726115Y-87459237D01*
X171701782Y-86966548D01*
X171694714Y-86895171D01*
X171621950Y-86407279D01*
X171615785Y-86371941D01*
X170773931Y-82162668D01*
X170763694Y-82118646D01*
X170604207Y-81518088D01*
X170591255Y-81474788D01*
X169802061Y-79107206D01*
X169793473Y-79082889D01*
X169669454Y-78750611D01*
X169649720Y-78702970D01*
X169502459Y-78380319D01*
X169491337Y-78357051D01*
X166909772Y-73193922D01*
X166896770Y-73169124D01*
X166711434Y-72831606D01*
X166682617Y-72783605D01*
X166471857Y-72461350D01*
X166439432Y-72415711D01*
X166204499Y-72110630D01*
X166187169Y-72089000D01*
X172373000Y-72089000D01*
X172373000Y-72311000D01*
X172416310Y-72528734D01*
X172501266Y-72733835D01*
X172624602Y-72918421D01*
X172781579Y-73075398D01*
X172966165Y-73198734D01*
X173171266Y-73283690D01*
X173389000Y-73327000D01*
X173611000Y-73327000D01*
X173828734Y-73283690D01*
X174033835Y-73198734D01*
X174218421Y-73075398D01*
X174375398Y-72918421D01*
X174498734Y-72733835D01*
X174583690Y-72528734D01*
X174627000Y-72311000D01*
X174627000Y-72089000D01*
X174583690Y-71871266D01*
X174498734Y-71666165D01*
X174375398Y-71481579D01*
X174218421Y-71324602D01*
X174033835Y-71201266D01*
X173828734Y-71116310D01*
X173611000Y-71073000D01*
X173389000Y-71073000D01*
X173171266Y-71116310D01*
X172966165Y-71201266D01*
X172781579Y-71324602D01*
X172624602Y-71481579D01*
X172501266Y-71666165D01*
X172416310Y-71871266D01*
X172373000Y-72089000D01*
X166187169Y-72089000D01*
X166186991Y-72088778D01*
X162022733Y-67091669D01*
X161999753Y-67065402D01*
X161675184Y-66711896D01*
X161625581Y-66662821D01*
X161268617Y-66342059D01*
X161214535Y-66297964D01*
X160828463Y-66012903D01*
X160799898Y-65992853D01*
X160194119Y-65589000D01*
X167873000Y-65589000D01*
X167873000Y-65811000D01*
X167916310Y-66028734D01*
X168001266Y-66233835D01*
X168124602Y-66418421D01*
X168281579Y-66575398D01*
X168466165Y-66698734D01*
X168671266Y-66783690D01*
X168889000Y-66827000D01*
X169111000Y-66827000D01*
X169328734Y-66783690D01*
X169533835Y-66698734D01*
X169718421Y-66575398D01*
X169875398Y-66418421D01*
X169998734Y-66233835D01*
X170083690Y-66028734D01*
X170127000Y-65811000D01*
X170127000Y-65589000D01*
X170083690Y-65371266D01*
X169998734Y-65166165D01*
X169875398Y-64981579D01*
X169718421Y-64824602D01*
X169533835Y-64701266D01*
X169328734Y-64616310D01*
X169111000Y-64573000D01*
X168889000Y-64573000D01*
X168671266Y-64616310D01*
X168466165Y-64701266D01*
X168281579Y-64824602D01*
X168124602Y-64981579D01*
X168001266Y-65166165D01*
X167916310Y-65371266D01*
X167873000Y-65589000D01*
X160194119Y-65589000D01*
X155785228Y-62649740D01*
X155757125Y-62631920D01*
X155365148Y-62395770D01*
X155306643Y-62364078D01*
X154894716Y-62164754D01*
X154864436Y-62150949D01*
X150519889Y-60289000D01*
X162173000Y-60289000D01*
X162173000Y-60511000D01*
X162216310Y-60728734D01*
X162301266Y-60933835D01*
X162424602Y-61118421D01*
X162581579Y-61275398D01*
X162766165Y-61398734D01*
X162971266Y-61483690D01*
X163189000Y-61527000D01*
X163411000Y-61527000D01*
X163628734Y-61483690D01*
X163833835Y-61398734D01*
X164018421Y-61275398D01*
X164175398Y-61118421D01*
X164298734Y-60933835D01*
X164383690Y-60728734D01*
X164427000Y-60511000D01*
X164427000Y-60289000D01*
X164383690Y-60071266D01*
X164298734Y-59866165D01*
X164175398Y-59681579D01*
X164018421Y-59524602D01*
X163833835Y-59401266D01*
X163628734Y-59316310D01*
X163411000Y-59273000D01*
X163189000Y-59273000D01*
X162971266Y-59316310D01*
X162766165Y-59401266D01*
X162581579Y-59524602D01*
X162424602Y-59681579D01*
X162301266Y-59866165D01*
X162216310Y-60071266D01*
X162173000Y-60289000D01*
X150519889Y-60289000D01*
X148935275Y-59609880D01*
X148903730Y-59597225D01*
X148465994Y-59433391D01*
X148401304Y-59412570D01*
X147950183Y-59290326D01*
X147883830Y-59275637D01*
X147423264Y-59196051D01*
X147389646Y-59191048D01*
X140399058Y-58317225D01*
X140354059Y-58313016D01*
X139733885Y-58274405D01*
X139688711Y-58273000D01*
X138413813Y-58273000D01*
X138383805Y-58273620D01*
X137971402Y-58290657D01*
X137911594Y-58295606D01*
X137502002Y-58346599D01*
X137472300Y-58350922D01*
X132267451Y-59218397D01*
X132239474Y-59223624D01*
X131856209Y-59303033D01*
X131800978Y-59316751D01*
X131425099Y-59425895D01*
X131397927Y-59434365D01*
X129107206Y-60197939D01*
X129082889Y-60206527D01*
X128750611Y-60330546D01*
X128702970Y-60350280D01*
X128380319Y-60497541D01*
X128357051Y-60508663D01*
X123078128Y-63148125D01*
X123049228Y-63163397D01*
X122656641Y-63382279D01*
X122601048Y-63416637D01*
X122229703Y-63669891D01*
X122203120Y-63688910D01*
X118848071Y-66205197D01*
X118827717Y-66221034D01*
X118551709Y-66443764D01*
X118512753Y-66477551D01*
X118253227Y-66719287D01*
X118234670Y-66737196D01*
X116737196Y-68234670D01*
X116719287Y-68253227D01*
X116477551Y-68512753D01*
X116443764Y-68551709D01*
X116221034Y-68827717D01*
X116205197Y-68848071D01*
X113688910Y-72203120D01*
X113669891Y-72229703D01*
X113416637Y-72601048D01*
X113382279Y-72656641D01*
X113163397Y-73049228D01*
X113148125Y-73078128D01*
X110508663Y-78357051D01*
X110497541Y-78380319D01*
X110350280Y-78702970D01*
X110330546Y-78750611D01*
X110206527Y-79082889D01*
X110197939Y-79107206D01*
X109434365Y-81397927D01*
X109425895Y-81425099D01*
X109316751Y-81800978D01*
X109303033Y-81856209D01*
X109223624Y-82239474D01*
X109218397Y-82267451D01*
X108350922Y-87472300D01*
X108346599Y-87502002D01*
X108295606Y-87911594D01*
X108290657Y-87971402D01*
X108273620Y-88383805D01*
X108273000Y-88413813D01*
X102318471Y-88413813D01*
X102298734Y-88366165D01*
X102175398Y-88181579D01*
X102018421Y-88024602D01*
X101833835Y-87901266D01*
X101628734Y-87816310D01*
X101411000Y-87773000D01*
X101189000Y-87773000D01*
X100971266Y-87816310D01*
X100869987Y-87858261D01*
X100880918Y-87513909D01*
X101117355Y-85037829D01*
X101510359Y-82581730D01*
X101553888Y-82389000D01*
X102273000Y-82389000D01*
X102273000Y-82611000D01*
X102316310Y-82828734D01*
X102401266Y-83033835D01*
X102524602Y-83218421D01*
X102681579Y-83375398D01*
X102866165Y-83498734D01*
X103071266Y-83583690D01*
X103289000Y-83627000D01*
X103511000Y-83627000D01*
X103728734Y-83583690D01*
X103933835Y-83498734D01*
X104118421Y-83375398D01*
X104275398Y-83218421D01*
X104398734Y-83033835D01*
X104483690Y-82828734D01*
X104527000Y-82611000D01*
X104527000Y-82389000D01*
X104483690Y-82171266D01*
X104398734Y-81966165D01*
X104275398Y-81781579D01*
X104118421Y-81624602D01*
X103933835Y-81501266D01*
X103728734Y-81416310D01*
X103511000Y-81373000D01*
X103289000Y-81373000D01*
X103071266Y-81416310D01*
X102866165Y-81501266D01*
X102681579Y-81624602D01*
X102524602Y-81781579D01*
X102401266Y-81966165D01*
X102316310Y-82171266D01*
X102273000Y-82389000D01*
X101553888Y-82389000D01*
X102058347Y-80155501D01*
X102759112Y-77768913D01*
X103609834Y-75431575D01*
X103803524Y-74989000D01*
X104573000Y-74989000D01*
X104573000Y-75211000D01*
X104616310Y-75428734D01*
X104701266Y-75633835D01*
X104824602Y-75818421D01*
X104981579Y-75975398D01*
X105166165Y-76098734D01*
X105371266Y-76183690D01*
X105589000Y-76227000D01*
X105811000Y-76227000D01*
X106028734Y-76183690D01*
X106233835Y-76098734D01*
X106418421Y-75975398D01*
X106575398Y-75818421D01*
X106698734Y-75633835D01*
X106783690Y-75428734D01*
X106827000Y-75211000D01*
X106827000Y-74989000D01*
X106783690Y-74771266D01*
X106698734Y-74566165D01*
X106575398Y-74381579D01*
X106418421Y-74224602D01*
X106233835Y-74101266D01*
X106028734Y-74016310D01*
X105811000Y-73973000D01*
X105589000Y-73973000D01*
X105371266Y-74016310D01*
X105166165Y-74101266D01*
X104981579Y-74224602D01*
X104824602Y-74381579D01*
X104701266Y-74566165D01*
X104616310Y-74771266D01*
X104573000Y-74989000D01*
X103803524Y-74989000D01*
X104607086Y-73152899D01*
X105746852Y-70942060D01*
X107024544Y-68807961D01*
X107450667Y-68189000D01*
X108373000Y-68189000D01*
X108373000Y-68411000D01*
X108416310Y-68628734D01*
X108501266Y-68833835D01*
X108624602Y-69018421D01*
X108781579Y-69175398D01*
X108966165Y-69298734D01*
X109171266Y-69383690D01*
X109389000Y-69427000D01*
X109611000Y-69427000D01*
X109828734Y-69383690D01*
X110033835Y-69298734D01*
X110218421Y-69175398D01*
X110375398Y-69018421D01*
X110498734Y-68833835D01*
X110583690Y-68628734D01*
X110627000Y-68411000D01*
X110627000Y-68189000D01*
X110583690Y-67971266D01*
X110498734Y-67766165D01*
X110375398Y-67581579D01*
X110218421Y-67424602D01*
X110033835Y-67301266D01*
X109828734Y-67216310D01*
X109611000Y-67173000D01*
X109389000Y-67173000D01*
X109171266Y-67216310D01*
X108966165Y-67301266D01*
X108781579Y-67424602D01*
X108624602Y-67581579D01*
X108501266Y-67766165D01*
X108416310Y-67971266D01*
X108373000Y-68189000D01*
X107450667Y-68189000D01*
X108435016Y-66759195D01*
X109972590Y-64804011D01*
X111631073Y-62950283D01*
X112506131Y-62089000D01*
X113273000Y-62089000D01*
X113273000Y-62311000D01*
X113316310Y-62528734D01*
X113401266Y-62733835D01*
X113524602Y-62918421D01*
X113681579Y-63075398D01*
X113866165Y-63198734D01*
X114071266Y-63283690D01*
X114289000Y-63327000D01*
X114511000Y-63327000D01*
X114728734Y-63283690D01*
X114933835Y-63198734D01*
X115118421Y-63075398D01*
X115275398Y-62918421D01*
X115398734Y-62733835D01*
X115483690Y-62528734D01*
X115527000Y-62311000D01*
X115527000Y-62089000D01*
X115483690Y-61871266D01*
X115398734Y-61666165D01*
X115275398Y-61481579D01*
X115118421Y-61324602D01*
X114933835Y-61201266D01*
X114728734Y-61116310D01*
X114511000Y-61073000D01*
X114289000Y-61073000D01*
X114071266Y-61116310D01*
X113866165Y-61201266D01*
X113681579Y-61324602D01*
X113524602Y-61481579D01*
X113401266Y-61666165D01*
X113316310Y-61871266D01*
X113273000Y-62089000D01*
X112506131Y-62089000D01*
X113403788Y-61205474D01*
X115283597Y-59576611D01*
X117262929Y-58070252D01*
X118437190Y-57289000D01*
X119773000Y-57289000D01*
X119773000Y-57511000D01*
X119816310Y-57728734D01*
X119901266Y-57933835D01*
X120024602Y-58118421D01*
X120181579Y-58275398D01*
X120366165Y-58398734D01*
X120571266Y-58483690D01*
X120789000Y-58527000D01*
X121011000Y-58527000D01*
X121228734Y-58483690D01*
X121433835Y-58398734D01*
X121618421Y-58275398D01*
X121775398Y-58118421D01*
X121898734Y-57933835D01*
X121983690Y-57728734D01*
X122027000Y-57511000D01*
X122027000Y-57289000D01*
X121983690Y-57071266D01*
X121898734Y-56866165D01*
X121775398Y-56681579D01*
X121618421Y-56524602D01*
X121433835Y-56401266D01*
X121404223Y-56389000D01*
X155373000Y-56389000D01*
X155373000Y-56611000D01*
X155416310Y-56828734D01*
X155501266Y-57033835D01*
X155624602Y-57218421D01*
X155781579Y-57375398D01*
X155966165Y-57498734D01*
X156171266Y-57583690D01*
X156389000Y-57627000D01*
X156611000Y-57627000D01*
X156828734Y-57583690D01*
X157033835Y-57498734D01*
X157218421Y-57375398D01*
X157375398Y-57218421D01*
X157498734Y-57033835D01*
X157583690Y-56828734D01*
X157627000Y-56611000D01*
X157627000Y-56389000D01*
X157583690Y-56171266D01*
X157498734Y-55966165D01*
X157375398Y-55781579D01*
X157218421Y-55624602D01*
X157033835Y-55501266D01*
X156828734Y-55416310D01*
X156611000Y-55373000D01*
X156389000Y-55373000D01*
X156171266Y-55416310D01*
X155966165Y-55501266D01*
X155781579Y-55624602D01*
X155624602Y-55781579D01*
X155501266Y-55966165D01*
X155416310Y-56171266D01*
X155373000Y-56389000D01*
X121404223Y-56389000D01*
X121228734Y-56316310D01*
X121011000Y-56273000D01*
X120789000Y-56273000D01*
X120571266Y-56316310D01*
X120366165Y-56401266D01*
X120181579Y-56524602D01*
X120024602Y-56681579D01*
X119901266Y-56866165D01*
X119816310Y-57071266D01*
X119773000Y-57289000D01*
X118437190Y-57289000D01*
X119333816Y-56692463D01*
X121487918Y-55448791D01*
X123716562Y-54344245D01*
X126010774Y-53383272D01*
X126793979Y-53112202D01*
X126724602Y-53181579D01*
X126601266Y-53366165D01*
X126516310Y-53571266D01*
X126473000Y-53789000D01*
X126473000Y-54011000D01*
X126516310Y-54228734D01*
X126601266Y-54433835D01*
X126724602Y-54618421D01*
X126881579Y-54775398D01*
X127066165Y-54898734D01*
X127271266Y-54983690D01*
X127489000Y-55027000D01*
X127711000Y-55027000D01*
X127928734Y-54983690D01*
X128133835Y-54898734D01*
X128318421Y-54775398D01*
X128475398Y-54618421D01*
X128598734Y-54433835D01*
X128683690Y-54228734D01*
X128727000Y-54011000D01*
X128727000Y-53789000D01*
X148073000Y-53789000D01*
X148073000Y-54011000D01*
X148116310Y-54228734D01*
X148201266Y-54433835D01*
X148324602Y-54618421D01*
X148481579Y-54775398D01*
X148666165Y-54898734D01*
X148871266Y-54983690D01*
X149089000Y-55027000D01*
X149311000Y-55027000D01*
X149528734Y-54983690D01*
X149733835Y-54898734D01*
X149918421Y-54775398D01*
X150075398Y-54618421D01*
X150198734Y-54433835D01*
X150283690Y-54228734D01*
X150327000Y-54011000D01*
X150327000Y-53789000D01*
X150283690Y-53571266D01*
X150198734Y-53366165D01*
X150075398Y-53181579D01*
X149918421Y-53024602D01*
X149733835Y-52901266D01*
X149528734Y-52816310D01*
X149311000Y-52773000D01*
X149089000Y-52773000D01*
X148871266Y-52816310D01*
X148666165Y-52901266D01*
X148481579Y-53024602D01*
X148324602Y-53181579D01*
X148201266Y-53366165D01*
X148116310Y-53571266D01*
X148073000Y-53789000D01*
X128727000Y-53789000D01*
X128683690Y-53571266D01*
X128598734Y-53366165D01*
X128475398Y-53181579D01*
X128318421Y-53024602D01*
X128133835Y-52901266D01*
X127928734Y-52816310D01*
X127751032Y-52780963D01*
X128361315Y-52569742D01*
X130758721Y-51906930D01*
X133193339Y-51397506D01*
X134262380Y-51243801D01*
X134224602Y-51281579D01*
X134101266Y-51466165D01*
X134016310Y-51671266D01*
X133973000Y-51889000D01*
X133973000Y-52111000D01*
X134016310Y-52328734D01*
X134101266Y-52533835D01*
X134224602Y-52718421D01*
X134381579Y-52875398D01*
X134566165Y-52998734D01*
X134771266Y-53083690D01*
X134989000Y-53127000D01*
X135211000Y-53127000D01*
X135428734Y-53083690D01*
X135633835Y-52998734D01*
X135818421Y-52875398D01*
X135975398Y-52718421D01*
X136098734Y-52533835D01*
X136183690Y-52328734D01*
X136227000Y-52111000D01*
X136227000Y-51889000D01*
X136183690Y-51671266D01*
X136098734Y-51466165D01*
X135975398Y-51281579D01*
X135818421Y-51124602D01*
X135692638Y-51040557D01*
X138134884Y-50846398D01*
X140621914Y-50806934D01*
X141998636Y-50872515D01*
%TA.AperFunction,Conductor*%
D20*
G36*
X141998636Y-50872515D02*
G01*
X141916310Y-51071266D01*
X141873000Y-51289000D01*
X141873000Y-51511000D01*
X141916310Y-51728734D01*
X142001266Y-51933835D01*
X142124602Y-52118421D01*
X142281579Y-52275398D01*
X142466165Y-52398734D01*
X142671266Y-52483690D01*
X142889000Y-52527000D01*
X143111000Y-52527000D01*
X143328734Y-52483690D01*
X143533835Y-52398734D01*
X143718421Y-52275398D01*
X143875398Y-52118421D01*
X143998734Y-51933835D01*
X144083690Y-51728734D01*
X144127000Y-51511000D01*
X144127000Y-51289000D01*
X144083690Y-51071266D01*
X144067625Y-51032483D01*
X145578457Y-51200979D01*
X148028012Y-51632902D01*
X150445241Y-52219315D01*
X152820410Y-52957858D01*
X155143956Y-53845556D01*
X157406523Y-54878836D01*
X159599000Y-56053536D01*
X161712559Y-57364927D01*
X163738689Y-58807727D01*
X165669231Y-60376128D01*
X167496413Y-62063814D01*
X169212876Y-63863989D01*
X170811709Y-65769404D01*
X172286475Y-67772387D01*
X173631234Y-69864874D01*
X174840572Y-72038437D01*
X175909619Y-74284325D01*
X176834071Y-76593494D01*
X177498258Y-78615792D01*
X177475398Y-78581579D01*
X177318421Y-78424602D01*
X177133835Y-78301266D01*
X176928734Y-78216310D01*
X176711000Y-78173000D01*
X176489000Y-78173000D01*
X176271266Y-78216310D01*
X176066165Y-78301266D01*
X175881579Y-78424602D01*
X175724602Y-78581579D01*
X175601266Y-78766165D01*
X175516310Y-78971266D01*
X175473000Y-79189000D01*
X175473000Y-79411000D01*
X175516310Y-79628734D01*
X175601266Y-79833835D01*
X175724602Y-80018421D01*
X175881579Y-80175398D01*
X176066165Y-80298734D01*
X176271266Y-80383690D01*
X176489000Y-80427000D01*
X176711000Y-80427000D01*
X176928734Y-80383690D01*
X177133835Y-80298734D01*
X177318421Y-80175398D01*
X177475398Y-80018421D01*
X177598734Y-79833835D01*
X177683690Y-79628734D01*
X177727000Y-79411000D01*
X177727000Y-79406783D01*
X178234897Y-81364268D01*
X178705630Y-83806661D01*
X178976587Y-85929832D01*
X178933835Y-85901266D01*
X178728734Y-85816310D01*
X178511000Y-85773000D01*
X178289000Y-85773000D01*
X178071266Y-85816310D01*
X177866165Y-85901266D01*
X177681579Y-86024602D01*
X177524602Y-86181579D01*
X177401266Y-86366165D01*
X177316310Y-86571266D01*
X177273000Y-86789000D01*
X177273000Y-87011000D01*
X177316310Y-87228734D01*
X177401266Y-87433835D01*
X177524602Y-87618421D01*
X177681579Y-87775398D01*
X177866165Y-87898734D01*
X178071266Y-87983690D01*
X178289000Y-88027000D01*
X178511000Y-88027000D01*
X178728734Y-87983690D01*
X178933835Y-87898734D01*
X179116027Y-87776998D01*
X179178265Y-88756328D01*
X179178265Y-91243672D01*
X179020508Y-93726007D01*
X179008750Y-93818140D01*
X178833835Y-93701266D01*
X178628734Y-93616310D01*
X178411000Y-93573000D01*
X178189000Y-93573000D01*
X177971266Y-93616310D01*
X177766165Y-93701266D01*
X177581579Y-93824602D01*
X177424602Y-93981579D01*
X177301266Y-94166165D01*
X177216310Y-94371266D01*
X177173000Y-94589000D01*
X177173000Y-94811000D01*
X177216310Y-95028734D01*
X177301266Y-95233835D01*
X177424602Y-95418421D01*
X177581579Y-95575398D01*
X177766165Y-95698734D01*
X177971266Y-95783690D01*
X178189000Y-95827000D01*
X178411000Y-95827000D01*
X178628734Y-95783690D01*
X178765118Y-95727197D01*
X178705630Y-96193339D01*
X178234897Y-98635732D01*
X177610206Y-101043353D01*
X176834071Y-103406506D01*
X175909619Y-105715675D01*
X174840572Y-107961563D01*
X173631234Y-110135126D01*
X172286475Y-112227613D01*
X170811709Y-114230596D01*
X169212876Y-116136011D01*
X167496413Y-117936186D01*
X165669231Y-119623872D01*
X163738689Y-121192273D01*
X161712559Y-122635073D01*
X159599000Y-123946464D01*
X157406523Y-125121164D01*
X155143956Y-126154444D01*
X152820410Y-127042142D01*
X150445241Y-127780685D01*
X148028012Y-128367098D01*
X145578457Y-128799021D01*
X143106440Y-129074714D01*
X140621914Y-129193066D01*
X138134884Y-129153602D01*
X135655364Y-128956480D01*
X133193339Y-128602494D01*
X130758721Y-128093070D01*
X128361315Y-127430258D01*
X126010774Y-126616728D01*
X123716562Y-125655755D01*
X121487918Y-124551209D01*
X119333816Y-123307537D01*
X117262929Y-121929748D01*
X115283597Y-120423389D01*
X114213922Y-119496510D01*
X119473000Y-119496510D01*
X119473000Y-119895794D01*
X119550896Y-120287406D01*
X119703696Y-120656297D01*
X119925526Y-120988289D01*
X120207863Y-121270626D01*
X120539855Y-121492456D01*
X120908746Y-121645256D01*
X121300358Y-121723152D01*
X121699642Y-121723152D01*
X122091254Y-121645256D01*
X122460145Y-121492456D01*
X122792137Y-121270626D01*
X123074474Y-120988289D01*
X123296304Y-120656297D01*
X123449104Y-120287406D01*
X123527000Y-119895794D01*
X123527000Y-119496510D01*
X123449104Y-119104898D01*
X123296304Y-118736007D01*
X123074474Y-118404015D01*
X122792137Y-118121678D01*
X122460145Y-117899848D01*
X122091254Y-117747048D01*
X121699642Y-117669152D01*
X121300358Y-117669152D01*
X120908746Y-117747048D01*
X120539855Y-117899848D01*
X120207863Y-118121678D01*
X119925526Y-118404015D01*
X119703696Y-118736007D01*
X119550896Y-119104898D01*
X119473000Y-119496510D01*
X114213922Y-119496510D01*
X113403788Y-118794526D01*
X111631073Y-117049717D01*
X111308349Y-116689000D01*
X112373000Y-116689000D01*
X112373000Y-116911000D01*
X112416310Y-117128734D01*
X112501266Y-117333835D01*
X112624602Y-117518421D01*
X112781579Y-117675398D01*
X112966165Y-117798734D01*
X113171266Y-117883690D01*
X113389000Y-117927000D01*
X113611000Y-117927000D01*
X113828734Y-117883690D01*
X114033835Y-117798734D01*
X114218421Y-117675398D01*
X114375398Y-117518421D01*
X114498734Y-117333835D01*
X114583690Y-117128734D01*
X114627000Y-116911000D01*
X114627000Y-116689000D01*
X114583690Y-116471266D01*
X114498734Y-116266165D01*
X114375398Y-116081579D01*
X114218421Y-115924602D01*
X114033835Y-115801266D01*
X113828734Y-115716310D01*
X113611000Y-115673000D01*
X113389000Y-115673000D01*
X113171266Y-115716310D01*
X112966165Y-115801266D01*
X112781579Y-115924602D01*
X112624602Y-116081579D01*
X112501266Y-116266165D01*
X112416310Y-116471266D01*
X112373000Y-116689000D01*
X111308349Y-116689000D01*
X109972590Y-115195989D01*
X109495249Y-114589000D01*
X116273000Y-114589000D01*
X116273000Y-114811000D01*
X116316310Y-115028734D01*
X116401266Y-115233835D01*
X116524602Y-115418421D01*
X116681579Y-115575398D01*
X116866165Y-115698734D01*
X117071266Y-115783690D01*
X117289000Y-115827000D01*
X117511000Y-115827000D01*
X117728734Y-115783690D01*
X117933835Y-115698734D01*
X118118421Y-115575398D01*
X118275398Y-115418421D01*
X118398734Y-115233835D01*
X118483690Y-115028734D01*
X118527000Y-114811000D01*
X118527000Y-114589000D01*
X118483690Y-114371266D01*
X118398734Y-114166165D01*
X118275398Y-113981579D01*
X118118421Y-113824602D01*
X117933835Y-113701266D01*
X117728734Y-113616310D01*
X117511000Y-113573000D01*
X117289000Y-113573000D01*
X117071266Y-113616310D01*
X116866165Y-113701266D01*
X116681579Y-113824602D01*
X116524602Y-113981579D01*
X116401266Y-114166165D01*
X116316310Y-114371266D01*
X116273000Y-114589000D01*
X109495249Y-114589000D01*
X108435016Y-113240805D01*
X107024544Y-111192039D01*
X106783244Y-110789000D01*
X107273000Y-110789000D01*
X107273000Y-111011000D01*
X107316310Y-111228734D01*
X107401266Y-111433835D01*
X107524602Y-111618421D01*
X107681579Y-111775398D01*
X107866165Y-111898734D01*
X108071266Y-111983690D01*
X108289000Y-112027000D01*
X108511000Y-112027000D01*
X108728734Y-111983690D01*
X108933835Y-111898734D01*
X109118421Y-111775398D01*
X109275398Y-111618421D01*
X109398734Y-111433835D01*
X109483690Y-111228734D01*
X109527000Y-111011000D01*
X109527000Y-110789000D01*
X109483690Y-110571266D01*
X109398734Y-110366165D01*
X109275398Y-110181579D01*
X109118421Y-110024602D01*
X108933835Y-109901266D01*
X108728734Y-109816310D01*
X108511000Y-109773000D01*
X108289000Y-109773000D01*
X108071266Y-109816310D01*
X107866165Y-109901266D01*
X107681579Y-110024602D01*
X107524602Y-110181579D01*
X107401266Y-110366165D01*
X107316310Y-110571266D01*
X107273000Y-110789000D01*
X106783244Y-110789000D01*
X105746852Y-109057940D01*
X104607086Y-106847101D01*
X103790574Y-104981408D01*
X103966165Y-105098734D01*
X104171266Y-105183690D01*
X104389000Y-105227000D01*
X104611000Y-105227000D01*
X104828734Y-105183690D01*
X105033835Y-105098734D01*
X105218421Y-104975398D01*
X105375398Y-104818421D01*
X105498734Y-104633835D01*
X105583690Y-104428734D01*
X105627000Y-104211000D01*
X105627000Y-103989000D01*
X105583690Y-103771266D01*
X105498734Y-103566165D01*
X105375398Y-103381579D01*
X105218421Y-103224602D01*
X105033835Y-103101266D01*
X104828734Y-103016310D01*
X104611000Y-102973000D01*
X104389000Y-102973000D01*
X104171266Y-103016310D01*
X103966165Y-103101266D01*
X103781579Y-103224602D01*
X103624602Y-103381579D01*
X103501266Y-103566165D01*
X103416310Y-103771266D01*
X103382167Y-103942915D01*
X102759112Y-102231087D01*
X102058347Y-99844499D01*
X101574483Y-97702179D01*
X101771266Y-97783690D01*
X101989000Y-97827000D01*
X102211000Y-97827000D01*
X102428734Y-97783690D01*
X102633835Y-97698734D01*
X102818421Y-97575398D01*
X102975398Y-97418421D01*
X103098734Y-97233835D01*
X103183690Y-97028734D01*
X103227000Y-96811000D01*
X103227000Y-96589000D01*
X103183690Y-96371266D01*
X103098734Y-96166165D01*
X102975398Y-95981579D01*
X102818421Y-95824602D01*
X102633835Y-95701266D01*
X102428734Y-95616310D01*
X102211000Y-95573000D01*
X101989000Y-95573000D01*
X101771266Y-95616310D01*
X101566165Y-95701266D01*
X101381579Y-95824602D01*
X101272765Y-95933416D01*
X101117355Y-94962171D01*
X100880918Y-92486091D01*
X100802000Y-90000000D01*
X100804708Y-89914699D01*
X100971266Y-89983690D01*
X101189000Y-90027000D01*
X101411000Y-90027000D01*
X101628734Y-89983690D01*
X101833835Y-89898734D01*
X102018421Y-89775398D01*
X102175398Y-89618421D01*
X102298734Y-89433835D01*
X102383690Y-89228734D01*
X102427000Y-89011000D01*
X102427000Y-88789000D01*
X102383690Y-88571266D01*
X102318471Y-88413813D01*
X108273000Y-88413813D01*
X108273000Y-92504902D01*
X108273885Y-92540763D01*
X108298218Y-93033452D01*
X108305286Y-93104829D01*
X108378050Y-93592721D01*
X108384215Y-93628059D01*
X109226069Y-97837332D01*
X109236306Y-97881354D01*
X109395793Y-98481912D01*
X109408745Y-98525212D01*
X110197939Y-100892794D01*
X110206527Y-100917111D01*
X110330546Y-101249389D01*
X110350280Y-101297030D01*
X110497541Y-101619681D01*
X110508663Y-101642949D01*
X113090228Y-106806078D01*
X113103230Y-106830876D01*
X113288566Y-107168394D01*
X113317383Y-107216395D01*
X113528143Y-107538650D01*
X113560568Y-107584289D01*
X113795501Y-107889370D01*
X113813009Y-107911222D01*
X117977267Y-112908331D01*
X118000247Y-112934598D01*
X118324816Y-113288104D01*
X118374419Y-113337179D01*
X118731383Y-113657941D01*
X118785465Y-113702036D01*
X119171537Y-113987097D01*
X119200102Y-114007147D01*
X124214772Y-117350260D01*
X124242875Y-117368080D01*
X124634852Y-117604230D01*
X124693357Y-117635922D01*
X125105284Y-117835246D01*
X125135564Y-117849051D01*
X125602582Y-118049202D01*
X125495845Y-118155939D01*
X125274015Y-118487931D01*
X125121215Y-118856822D01*
X125043319Y-119248434D01*
X125043319Y-119647718D01*
X125121215Y-120039330D01*
X125274015Y-120408221D01*
X125495845Y-120740213D01*
X125778182Y-121022550D01*
X126110174Y-121244380D01*
X126479065Y-121397180D01*
X126870677Y-121475076D01*
X127269961Y-121475076D01*
X127661573Y-121397180D01*
X128030464Y-121244380D01*
X128362456Y-121022550D01*
X128644793Y-120740213D01*
X128866623Y-120408221D01*
X129019423Y-120039330D01*
X129097319Y-119647718D01*
X129097319Y-119546946D01*
X131064725Y-120390120D01*
X131096270Y-120402775D01*
X131534006Y-120566609D01*
X131598696Y-120587430D01*
X132049817Y-120709674D01*
X132116170Y-120724363D01*
X132576736Y-120803949D01*
X132610354Y-120808952D01*
X139600942Y-121682775D01*
X139645941Y-121686984D01*
X140266115Y-121725595D01*
X140311289Y-121727000D01*
X141586187Y-121727000D01*
X141616195Y-121726380D01*
X142028598Y-121709343D01*
X142088406Y-121704394D01*
X142497998Y-121653401D01*
X142527700Y-121649078D01*
X145288167Y-121189000D01*
X148973000Y-121189000D01*
X148973000Y-121411000D01*
X149016310Y-121628734D01*
X149101266Y-121833835D01*
X149224602Y-122018421D01*
X149381579Y-122175398D01*
X149566165Y-122298734D01*
X149771266Y-122383690D01*
X149989000Y-122427000D01*
X150094253Y-122427000D01*
X150001266Y-122566165D01*
X149916310Y-122771266D01*
X149873000Y-122989000D01*
X149873000Y-123211000D01*
X149916310Y-123428734D01*
X150001266Y-123633835D01*
X150124602Y-123818421D01*
X150281579Y-123975398D01*
X150466165Y-124098734D01*
X150671266Y-124183690D01*
X150889000Y-124227000D01*
X151111000Y-124227000D01*
X151328734Y-124183690D01*
X151533835Y-124098734D01*
X151718421Y-123975398D01*
X151750000Y-123943819D01*
X151781579Y-123975398D01*
X151966165Y-124098734D01*
X152171266Y-124183690D01*
X152389000Y-124227000D01*
X152611000Y-124227000D01*
X152828734Y-124183690D01*
X153033835Y-124098734D01*
X153218421Y-123975398D01*
X153375398Y-123818421D01*
X153498734Y-123633835D01*
X153583690Y-123428734D01*
X153627000Y-123211000D01*
X153627000Y-122989000D01*
X153583690Y-122771266D01*
X153498734Y-122566165D01*
X153447709Y-122489799D01*
X157410500Y-122489799D01*
X157410500Y-122780743D01*
X157467260Y-123066096D01*
X157578599Y-123334893D01*
X157740239Y-123576804D01*
X157945967Y-123782532D01*
X158187878Y-123944172D01*
X158456675Y-124055511D01*
X158742028Y-124112271D01*
X159032972Y-124112271D01*
X159318325Y-124055511D01*
X159587122Y-123944172D01*
X159829033Y-123782532D01*
X160034761Y-123576804D01*
X160196401Y-123334893D01*
X160307740Y-123066096D01*
X160364500Y-122780743D01*
X160364500Y-122489799D01*
X160307740Y-122204446D01*
X160196401Y-121935649D01*
X160034761Y-121693738D01*
X159829033Y-121488010D01*
X159587122Y-121326370D01*
X159318325Y-121215031D01*
X159032972Y-121158271D01*
X158742028Y-121158271D01*
X158456675Y-121215031D01*
X158187878Y-121326370D01*
X157945967Y-121488010D01*
X157740239Y-121693738D01*
X157578599Y-121935649D01*
X157467260Y-122204446D01*
X157410500Y-122489799D01*
X153447709Y-122489799D01*
X153375398Y-122381579D01*
X153218421Y-122224602D01*
X153033835Y-122101266D01*
X152828734Y-122016310D01*
X152611000Y-121973000D01*
X152389000Y-121973000D01*
X152171266Y-122016310D01*
X151966165Y-122101266D01*
X151781579Y-122224602D01*
X151750000Y-122256181D01*
X151718421Y-122224602D01*
X151628980Y-122164839D01*
X151775398Y-122018421D01*
X151898734Y-121833835D01*
X151983690Y-121628734D01*
X152027000Y-121411000D01*
X152027000Y-121189000D01*
X151983690Y-120971266D01*
X151898734Y-120766165D01*
X151775398Y-120581579D01*
X151618421Y-120424602D01*
X151433835Y-120301266D01*
X151228734Y-120216310D01*
X151011000Y-120173000D01*
X150789000Y-120173000D01*
X150571266Y-120216310D01*
X150500000Y-120245829D01*
X150428734Y-120216310D01*
X150211000Y-120173000D01*
X149989000Y-120173000D01*
X149771266Y-120216310D01*
X149566165Y-120301266D01*
X149381579Y-120424602D01*
X149224602Y-120581579D01*
X149101266Y-120766165D01*
X149016310Y-120971266D01*
X148973000Y-121189000D01*
X145288167Y-121189000D01*
X147732549Y-120781603D01*
X147760526Y-120776376D01*
X148143791Y-120696967D01*
X148199022Y-120683249D01*
X148574901Y-120574105D01*
X148602073Y-120565635D01*
X150892794Y-119802061D01*
X150917111Y-119793473D01*
X151249389Y-119669454D01*
X151297030Y-119649720D01*
X151619681Y-119502459D01*
X151642949Y-119491337D01*
X154782909Y-117921357D01*
X154956675Y-117993333D01*
X155242028Y-118050093D01*
X155532972Y-118050093D01*
X155818325Y-117993333D01*
X156087122Y-117881994D01*
X156329033Y-117720354D01*
X156534761Y-117514626D01*
X156696401Y-117272715D01*
X156807740Y-117003918D01*
X156828718Y-116898452D01*
X156921872Y-116851875D01*
X156950772Y-116836603D01*
X157343359Y-116617721D01*
X157398952Y-116583363D01*
X157770297Y-116330109D01*
X157796880Y-116311090D01*
X160226333Y-114489000D01*
X167373000Y-114489000D01*
X167373000Y-114711000D01*
X167416310Y-114928734D01*
X167501266Y-115133835D01*
X167624602Y-115318421D01*
X167781579Y-115475398D01*
X167966165Y-115598734D01*
X168171266Y-115683690D01*
X168389000Y-115727000D01*
X168611000Y-115727000D01*
X168828734Y-115683690D01*
X169033835Y-115598734D01*
X169218421Y-115475398D01*
X169375398Y-115318421D01*
X169498734Y-115133835D01*
X169583690Y-114928734D01*
X169627000Y-114711000D01*
X169627000Y-114489000D01*
X169583690Y-114271266D01*
X169498734Y-114066165D01*
X169375398Y-113881579D01*
X169218421Y-113724602D01*
X169033835Y-113601266D01*
X168828734Y-113516310D01*
X168611000Y-113473000D01*
X168389000Y-113473000D01*
X168171266Y-113516310D01*
X167966165Y-113601266D01*
X167781579Y-113724602D01*
X167624602Y-113881579D01*
X167501266Y-114066165D01*
X167416310Y-114271266D01*
X167373000Y-114489000D01*
X160226333Y-114489000D01*
X161151929Y-113794803D01*
X161172283Y-113778966D01*
X161448291Y-113556236D01*
X161487247Y-113522449D01*
X161746773Y-113280713D01*
X161765330Y-113262804D01*
X163262804Y-111765330D01*
X163280713Y-111746773D01*
X163522449Y-111487247D01*
X163556236Y-111448291D01*
X163778966Y-111172283D01*
X163794803Y-111151929D01*
X166091999Y-108089000D01*
X171673000Y-108089000D01*
X171673000Y-108311000D01*
X171716310Y-108528734D01*
X171801266Y-108733835D01*
X171924602Y-108918421D01*
X172081579Y-109075398D01*
X172266165Y-109198734D01*
X172471266Y-109283690D01*
X172689000Y-109327000D01*
X172911000Y-109327000D01*
X173128734Y-109283690D01*
X173333835Y-109198734D01*
X173518421Y-109075398D01*
X173675398Y-108918421D01*
X173798734Y-108733835D01*
X173883690Y-108528734D01*
X173927000Y-108311000D01*
X173927000Y-108089000D01*
X173883690Y-107871266D01*
X173798734Y-107666165D01*
X173675398Y-107481579D01*
X173518421Y-107324602D01*
X173333835Y-107201266D01*
X173128734Y-107116310D01*
X172911000Y-107073000D01*
X172689000Y-107073000D01*
X172471266Y-107116310D01*
X172266165Y-107201266D01*
X172081579Y-107324602D01*
X171924602Y-107481579D01*
X171801266Y-107666165D01*
X171716310Y-107871266D01*
X171673000Y-108089000D01*
X166091999Y-108089000D01*
X166311090Y-107796880D01*
X166330109Y-107770297D01*
X166583363Y-107398952D01*
X166617721Y-107343359D01*
X166836603Y-106950772D01*
X166851875Y-106921872D01*
X169491337Y-101642949D01*
X169502459Y-101619681D01*
X169649720Y-101297030D01*
X169669454Y-101249389D01*
X169793473Y-100917111D01*
X169802061Y-100892794D01*
X169803325Y-100889000D01*
X174573000Y-100889000D01*
X174573000Y-101111000D01*
X174616310Y-101328734D01*
X174701266Y-101533835D01*
X174824602Y-101718421D01*
X174981579Y-101875398D01*
X175166165Y-101998734D01*
X175371266Y-102083690D01*
X175589000Y-102127000D01*
X175811000Y-102127000D01*
X176028734Y-102083690D01*
X176233835Y-101998734D01*
X176418421Y-101875398D01*
X176575398Y-101718421D01*
X176698734Y-101533835D01*
X176783690Y-101328734D01*
X176827000Y-101111000D01*
X176827000Y-100889000D01*
X176783690Y-100671266D01*
X176698734Y-100466165D01*
X176575398Y-100281579D01*
X176418421Y-100124602D01*
X176233835Y-100001266D01*
X176028734Y-99916310D01*
X175811000Y-99873000D01*
X175589000Y-99873000D01*
X175371266Y-99916310D01*
X175166165Y-100001266D01*
X174981579Y-100124602D01*
X174824602Y-100281579D01*
X174701266Y-100466165D01*
X174616310Y-100671266D01*
X174573000Y-100889000D01*
X169803325Y-100889000D01*
X170565635Y-98602073D01*
X170574105Y-98574901D01*
X170683249Y-98199022D01*
X170696967Y-98143791D01*
X170776376Y-97760526D01*
X170781603Y-97732549D01*
X171649078Y-92527700D01*
X171653401Y-92497998D01*
X171704394Y-92088406D01*
X171709343Y-92028598D01*
X171726380Y-91616195D01*
X171727000Y-91586187D01*
X171727000Y-87495098D01*
X171726115Y-87459237D01*
X171701782Y-86966548D01*
X171694714Y-86895171D01*
X171621950Y-86407279D01*
X171615785Y-86371941D01*
X170773931Y-82162668D01*
X170763694Y-82118646D01*
X170604207Y-81518088D01*
X170591255Y-81474788D01*
X169802061Y-79107206D01*
X169793473Y-79082889D01*
X169669454Y-78750611D01*
X169649720Y-78702970D01*
X169502459Y-78380319D01*
X169491337Y-78357051D01*
X166909772Y-73193922D01*
X166896770Y-73169124D01*
X166711434Y-72831606D01*
X166682617Y-72783605D01*
X166471857Y-72461350D01*
X166439432Y-72415711D01*
X166204499Y-72110630D01*
X166187169Y-72089000D01*
X172373000Y-72089000D01*
X172373000Y-72311000D01*
X172416310Y-72528734D01*
X172501266Y-72733835D01*
X172624602Y-72918421D01*
X172781579Y-73075398D01*
X172966165Y-73198734D01*
X173171266Y-73283690D01*
X173389000Y-73327000D01*
X173611000Y-73327000D01*
X173828734Y-73283690D01*
X174033835Y-73198734D01*
X174218421Y-73075398D01*
X174375398Y-72918421D01*
X174498734Y-72733835D01*
X174583690Y-72528734D01*
X174627000Y-72311000D01*
X174627000Y-72089000D01*
X174583690Y-71871266D01*
X174498734Y-71666165D01*
X174375398Y-71481579D01*
X174218421Y-71324602D01*
X174033835Y-71201266D01*
X173828734Y-71116310D01*
X173611000Y-71073000D01*
X173389000Y-71073000D01*
X173171266Y-71116310D01*
X172966165Y-71201266D01*
X172781579Y-71324602D01*
X172624602Y-71481579D01*
X172501266Y-71666165D01*
X172416310Y-71871266D01*
X172373000Y-72089000D01*
X166187169Y-72089000D01*
X166186991Y-72088778D01*
X162022733Y-67091669D01*
X161999753Y-67065402D01*
X161675184Y-66711896D01*
X161625581Y-66662821D01*
X161268617Y-66342059D01*
X161214535Y-66297964D01*
X160828463Y-66012903D01*
X160799898Y-65992853D01*
X160194119Y-65589000D01*
X167873000Y-65589000D01*
X167873000Y-65811000D01*
X167916310Y-66028734D01*
X168001266Y-66233835D01*
X168124602Y-66418421D01*
X168281579Y-66575398D01*
X168466165Y-66698734D01*
X168671266Y-66783690D01*
X168889000Y-66827000D01*
X169111000Y-66827000D01*
X169328734Y-66783690D01*
X169533835Y-66698734D01*
X169718421Y-66575398D01*
X169875398Y-66418421D01*
X169998734Y-66233835D01*
X170083690Y-66028734D01*
X170127000Y-65811000D01*
X170127000Y-65589000D01*
X170083690Y-65371266D01*
X169998734Y-65166165D01*
X169875398Y-64981579D01*
X169718421Y-64824602D01*
X169533835Y-64701266D01*
X169328734Y-64616310D01*
X169111000Y-64573000D01*
X168889000Y-64573000D01*
X168671266Y-64616310D01*
X168466165Y-64701266D01*
X168281579Y-64824602D01*
X168124602Y-64981579D01*
X168001266Y-65166165D01*
X167916310Y-65371266D01*
X167873000Y-65589000D01*
X160194119Y-65589000D01*
X155785228Y-62649740D01*
X155757125Y-62631920D01*
X155365148Y-62395770D01*
X155306643Y-62364078D01*
X154894716Y-62164754D01*
X154864436Y-62150949D01*
X150519889Y-60289000D01*
X162173000Y-60289000D01*
X162173000Y-60511000D01*
X162216310Y-60728734D01*
X162301266Y-60933835D01*
X162424602Y-61118421D01*
X162581579Y-61275398D01*
X162766165Y-61398734D01*
X162971266Y-61483690D01*
X163189000Y-61527000D01*
X163411000Y-61527000D01*
X163628734Y-61483690D01*
X163833835Y-61398734D01*
X164018421Y-61275398D01*
X164175398Y-61118421D01*
X164298734Y-60933835D01*
X164383690Y-60728734D01*
X164427000Y-60511000D01*
X164427000Y-60289000D01*
X164383690Y-60071266D01*
X164298734Y-59866165D01*
X164175398Y-59681579D01*
X164018421Y-59524602D01*
X163833835Y-59401266D01*
X163628734Y-59316310D01*
X163411000Y-59273000D01*
X163189000Y-59273000D01*
X162971266Y-59316310D01*
X162766165Y-59401266D01*
X162581579Y-59524602D01*
X162424602Y-59681579D01*
X162301266Y-59866165D01*
X162216310Y-60071266D01*
X162173000Y-60289000D01*
X150519889Y-60289000D01*
X148935275Y-59609880D01*
X148903730Y-59597225D01*
X148465994Y-59433391D01*
X148401304Y-59412570D01*
X147950183Y-59290326D01*
X147883830Y-59275637D01*
X147423264Y-59196051D01*
X147389646Y-59191048D01*
X140399058Y-58317225D01*
X140354059Y-58313016D01*
X139733885Y-58274405D01*
X139688711Y-58273000D01*
X138413813Y-58273000D01*
X138383805Y-58273620D01*
X137971402Y-58290657D01*
X137911594Y-58295606D01*
X137502002Y-58346599D01*
X137472300Y-58350922D01*
X132267451Y-59218397D01*
X132239474Y-59223624D01*
X131856209Y-59303033D01*
X131800978Y-59316751D01*
X131425099Y-59425895D01*
X131397927Y-59434365D01*
X129107206Y-60197939D01*
X129082889Y-60206527D01*
X128750611Y-60330546D01*
X128702970Y-60350280D01*
X128380319Y-60497541D01*
X128357051Y-60508663D01*
X123078128Y-63148125D01*
X123049228Y-63163397D01*
X122656641Y-63382279D01*
X122601048Y-63416637D01*
X122229703Y-63669891D01*
X122203120Y-63688910D01*
X118848071Y-66205197D01*
X118827717Y-66221034D01*
X118551709Y-66443764D01*
X118512753Y-66477551D01*
X118253227Y-66719287D01*
X118234670Y-66737196D01*
X116737196Y-68234670D01*
X116719287Y-68253227D01*
X116477551Y-68512753D01*
X116443764Y-68551709D01*
X116221034Y-68827717D01*
X116205197Y-68848071D01*
X113688910Y-72203120D01*
X113669891Y-72229703D01*
X113416637Y-72601048D01*
X113382279Y-72656641D01*
X113163397Y-73049228D01*
X113148125Y-73078128D01*
X110508663Y-78357051D01*
X110497541Y-78380319D01*
X110350280Y-78702970D01*
X110330546Y-78750611D01*
X110206527Y-79082889D01*
X110197939Y-79107206D01*
X109434365Y-81397927D01*
X109425895Y-81425099D01*
X109316751Y-81800978D01*
X109303033Y-81856209D01*
X109223624Y-82239474D01*
X109218397Y-82267451D01*
X108350922Y-87472300D01*
X108346599Y-87502002D01*
X108295606Y-87911594D01*
X108290657Y-87971402D01*
X108273620Y-88383805D01*
X108273000Y-88413813D01*
X102318471Y-88413813D01*
X102298734Y-88366165D01*
X102175398Y-88181579D01*
X102018421Y-88024602D01*
X101833835Y-87901266D01*
X101628734Y-87816310D01*
X101411000Y-87773000D01*
X101189000Y-87773000D01*
X100971266Y-87816310D01*
X100869987Y-87858261D01*
X100880918Y-87513909D01*
X101117355Y-85037829D01*
X101510359Y-82581730D01*
X101553888Y-82389000D01*
X102273000Y-82389000D01*
X102273000Y-82611000D01*
X102316310Y-82828734D01*
X102401266Y-83033835D01*
X102524602Y-83218421D01*
X102681579Y-83375398D01*
X102866165Y-83498734D01*
X103071266Y-83583690D01*
X103289000Y-83627000D01*
X103511000Y-83627000D01*
X103728734Y-83583690D01*
X103933835Y-83498734D01*
X104118421Y-83375398D01*
X104275398Y-83218421D01*
X104398734Y-83033835D01*
X104483690Y-82828734D01*
X104527000Y-82611000D01*
X104527000Y-82389000D01*
X104483690Y-82171266D01*
X104398734Y-81966165D01*
X104275398Y-81781579D01*
X104118421Y-81624602D01*
X103933835Y-81501266D01*
X103728734Y-81416310D01*
X103511000Y-81373000D01*
X103289000Y-81373000D01*
X103071266Y-81416310D01*
X102866165Y-81501266D01*
X102681579Y-81624602D01*
X102524602Y-81781579D01*
X102401266Y-81966165D01*
X102316310Y-82171266D01*
X102273000Y-82389000D01*
X101553888Y-82389000D01*
X102058347Y-80155501D01*
X102759112Y-77768913D01*
X103609834Y-75431575D01*
X103803524Y-74989000D01*
X104573000Y-74989000D01*
X104573000Y-75211000D01*
X104616310Y-75428734D01*
X104701266Y-75633835D01*
X104824602Y-75818421D01*
X104981579Y-75975398D01*
X105166165Y-76098734D01*
X105371266Y-76183690D01*
X105589000Y-76227000D01*
X105811000Y-76227000D01*
X106028734Y-76183690D01*
X106233835Y-76098734D01*
X106418421Y-75975398D01*
X106575398Y-75818421D01*
X106698734Y-75633835D01*
X106783690Y-75428734D01*
X106827000Y-75211000D01*
X106827000Y-74989000D01*
X106783690Y-74771266D01*
X106698734Y-74566165D01*
X106575398Y-74381579D01*
X106418421Y-74224602D01*
X106233835Y-74101266D01*
X106028734Y-74016310D01*
X105811000Y-73973000D01*
X105589000Y-73973000D01*
X105371266Y-74016310D01*
X105166165Y-74101266D01*
X104981579Y-74224602D01*
X104824602Y-74381579D01*
X104701266Y-74566165D01*
X104616310Y-74771266D01*
X104573000Y-74989000D01*
X103803524Y-74989000D01*
X104607086Y-73152899D01*
X105746852Y-70942060D01*
X107024544Y-68807961D01*
X107450667Y-68189000D01*
X108373000Y-68189000D01*
X108373000Y-68411000D01*
X108416310Y-68628734D01*
X108501266Y-68833835D01*
X108624602Y-69018421D01*
X108781579Y-69175398D01*
X108966165Y-69298734D01*
X109171266Y-69383690D01*
X109389000Y-69427000D01*
X109611000Y-69427000D01*
X109828734Y-69383690D01*
X110033835Y-69298734D01*
X110218421Y-69175398D01*
X110375398Y-69018421D01*
X110498734Y-68833835D01*
X110583690Y-68628734D01*
X110627000Y-68411000D01*
X110627000Y-68189000D01*
X110583690Y-67971266D01*
X110498734Y-67766165D01*
X110375398Y-67581579D01*
X110218421Y-67424602D01*
X110033835Y-67301266D01*
X109828734Y-67216310D01*
X109611000Y-67173000D01*
X109389000Y-67173000D01*
X109171266Y-67216310D01*
X108966165Y-67301266D01*
X108781579Y-67424602D01*
X108624602Y-67581579D01*
X108501266Y-67766165D01*
X108416310Y-67971266D01*
X108373000Y-68189000D01*
X107450667Y-68189000D01*
X108435016Y-66759195D01*
X109972590Y-64804011D01*
X111631073Y-62950283D01*
X112506131Y-62089000D01*
X113273000Y-62089000D01*
X113273000Y-62311000D01*
X113316310Y-62528734D01*
X113401266Y-62733835D01*
X113524602Y-62918421D01*
X113681579Y-63075398D01*
X113866165Y-63198734D01*
X114071266Y-63283690D01*
X114289000Y-63327000D01*
X114511000Y-63327000D01*
X114728734Y-63283690D01*
X114933835Y-63198734D01*
X115118421Y-63075398D01*
X115275398Y-62918421D01*
X115398734Y-62733835D01*
X115483690Y-62528734D01*
X115527000Y-62311000D01*
X115527000Y-62089000D01*
X115483690Y-61871266D01*
X115398734Y-61666165D01*
X115275398Y-61481579D01*
X115118421Y-61324602D01*
X114933835Y-61201266D01*
X114728734Y-61116310D01*
X114511000Y-61073000D01*
X114289000Y-61073000D01*
X114071266Y-61116310D01*
X113866165Y-61201266D01*
X113681579Y-61324602D01*
X113524602Y-61481579D01*
X113401266Y-61666165D01*
X113316310Y-61871266D01*
X113273000Y-62089000D01*
X112506131Y-62089000D01*
X113403788Y-61205474D01*
X115283597Y-59576611D01*
X117262929Y-58070252D01*
X118437190Y-57289000D01*
X119773000Y-57289000D01*
X119773000Y-57511000D01*
X119816310Y-57728734D01*
X119901266Y-57933835D01*
X120024602Y-58118421D01*
X120181579Y-58275398D01*
X120366165Y-58398734D01*
X120571266Y-58483690D01*
X120789000Y-58527000D01*
X121011000Y-58527000D01*
X121228734Y-58483690D01*
X121433835Y-58398734D01*
X121618421Y-58275398D01*
X121775398Y-58118421D01*
X121898734Y-57933835D01*
X121983690Y-57728734D01*
X122027000Y-57511000D01*
X122027000Y-57289000D01*
X121983690Y-57071266D01*
X121898734Y-56866165D01*
X121775398Y-56681579D01*
X121618421Y-56524602D01*
X121433835Y-56401266D01*
X121404223Y-56389000D01*
X155373000Y-56389000D01*
X155373000Y-56611000D01*
X155416310Y-56828734D01*
X155501266Y-57033835D01*
X155624602Y-57218421D01*
X155781579Y-57375398D01*
X155966165Y-57498734D01*
X156171266Y-57583690D01*
X156389000Y-57627000D01*
X156611000Y-57627000D01*
X156828734Y-57583690D01*
X157033835Y-57498734D01*
X157218421Y-57375398D01*
X157375398Y-57218421D01*
X157498734Y-57033835D01*
X157583690Y-56828734D01*
X157627000Y-56611000D01*
X157627000Y-56389000D01*
X157583690Y-56171266D01*
X157498734Y-55966165D01*
X157375398Y-55781579D01*
X157218421Y-55624602D01*
X157033835Y-55501266D01*
X156828734Y-55416310D01*
X156611000Y-55373000D01*
X156389000Y-55373000D01*
X156171266Y-55416310D01*
X155966165Y-55501266D01*
X155781579Y-55624602D01*
X155624602Y-55781579D01*
X155501266Y-55966165D01*
X155416310Y-56171266D01*
X155373000Y-56389000D01*
X121404223Y-56389000D01*
X121228734Y-56316310D01*
X121011000Y-56273000D01*
X120789000Y-56273000D01*
X120571266Y-56316310D01*
X120366165Y-56401266D01*
X120181579Y-56524602D01*
X120024602Y-56681579D01*
X119901266Y-56866165D01*
X119816310Y-57071266D01*
X119773000Y-57289000D01*
X118437190Y-57289000D01*
X119333816Y-56692463D01*
X121487918Y-55448791D01*
X123716562Y-54344245D01*
X126010774Y-53383272D01*
X126793979Y-53112202D01*
X126724602Y-53181579D01*
X126601266Y-53366165D01*
X126516310Y-53571266D01*
X126473000Y-53789000D01*
X126473000Y-54011000D01*
X126516310Y-54228734D01*
X126601266Y-54433835D01*
X126724602Y-54618421D01*
X126881579Y-54775398D01*
X127066165Y-54898734D01*
X127271266Y-54983690D01*
X127489000Y-55027000D01*
X127711000Y-55027000D01*
X127928734Y-54983690D01*
X128133835Y-54898734D01*
X128318421Y-54775398D01*
X128475398Y-54618421D01*
X128598734Y-54433835D01*
X128683690Y-54228734D01*
X128727000Y-54011000D01*
X128727000Y-53789000D01*
X148073000Y-53789000D01*
X148073000Y-54011000D01*
X148116310Y-54228734D01*
X148201266Y-54433835D01*
X148324602Y-54618421D01*
X148481579Y-54775398D01*
X148666165Y-54898734D01*
X148871266Y-54983690D01*
X149089000Y-55027000D01*
X149311000Y-55027000D01*
X149528734Y-54983690D01*
X149733835Y-54898734D01*
X149918421Y-54775398D01*
X150075398Y-54618421D01*
X150198734Y-54433835D01*
X150283690Y-54228734D01*
X150327000Y-54011000D01*
X150327000Y-53789000D01*
X150283690Y-53571266D01*
X150198734Y-53366165D01*
X150075398Y-53181579D01*
X149918421Y-53024602D01*
X149733835Y-52901266D01*
X149528734Y-52816310D01*
X149311000Y-52773000D01*
X149089000Y-52773000D01*
X148871266Y-52816310D01*
X148666165Y-52901266D01*
X148481579Y-53024602D01*
X148324602Y-53181579D01*
X148201266Y-53366165D01*
X148116310Y-53571266D01*
X148073000Y-53789000D01*
X128727000Y-53789000D01*
X128683690Y-53571266D01*
X128598734Y-53366165D01*
X128475398Y-53181579D01*
X128318421Y-53024602D01*
X128133835Y-52901266D01*
X127928734Y-52816310D01*
X127751032Y-52780963D01*
X128361315Y-52569742D01*
X130758721Y-51906930D01*
X133193339Y-51397506D01*
X134262380Y-51243801D01*
X134224602Y-51281579D01*
X134101266Y-51466165D01*
X134016310Y-51671266D01*
X133973000Y-51889000D01*
X133973000Y-52111000D01*
X134016310Y-52328734D01*
X134101266Y-52533835D01*
X134224602Y-52718421D01*
X134381579Y-52875398D01*
X134566165Y-52998734D01*
X134771266Y-53083690D01*
X134989000Y-53127000D01*
X135211000Y-53127000D01*
X135428734Y-53083690D01*
X135633835Y-52998734D01*
X135818421Y-52875398D01*
X135975398Y-52718421D01*
X136098734Y-52533835D01*
X136183690Y-52328734D01*
X136227000Y-52111000D01*
X136227000Y-51889000D01*
X136183690Y-51671266D01*
X136098734Y-51466165D01*
X135975398Y-51281579D01*
X135818421Y-51124602D01*
X135692638Y-51040557D01*
X138134884Y-50846398D01*
X140621914Y-50806934D01*
X141998636Y-50872515D01*
G37*
%TD.AperFunction*%
%TD*%
D19*
%TO.N,+3V3*%
X140297064Y-59165121D02*
X147280774Y-60038085D01*
X147732558Y-60116153D01*
X148172206Y-60235288D01*
X148601601Y-60396000D01*
X154525349Y-62934749D01*
X154929432Y-63130278D01*
X155313936Y-63361926D01*
X160323640Y-66701728D01*
X160702355Y-66981357D01*
X161050245Y-67293966D01*
X161368631Y-67640737D01*
X165529354Y-72633604D01*
X165759821Y-72932885D01*
X165965221Y-73246945D01*
X166147028Y-73578036D01*
X168726490Y-78736959D01*
X168870938Y-79053446D01*
X168992599Y-79379408D01*
X169779833Y-81741110D01*
X169937287Y-82334013D01*
X170777754Y-86536350D01*
X170849132Y-87014946D01*
X170873000Y-87498225D01*
X170873000Y-91583559D01*
X170856287Y-91988110D01*
X170806267Y-92389887D01*
X169939632Y-97589696D01*
X169861735Y-97965667D01*
X169754678Y-98334356D01*
X168992599Y-100620592D01*
X168870938Y-100946554D01*
X168726490Y-101263041D01*
X168555890Y-101604242D01*
X168498696Y-101466165D01*
X168375360Y-101281579D01*
X168218383Y-101124602D01*
X168033797Y-101001266D01*
X167828696Y-100916310D01*
X167610962Y-100873000D01*
X167388962Y-100873000D01*
X167171228Y-100916310D01*
X166966127Y-101001266D01*
X166781541Y-101124602D01*
X166624564Y-101281579D01*
X166501228Y-101466165D01*
X166416272Y-101671266D01*
X166372962Y-101889000D01*
X166372962Y-102111000D01*
X166416272Y-102328734D01*
X166478190Y-102478217D01*
X166328734Y-102416310D01*
X166111000Y-102373000D01*
X165889000Y-102373000D01*
X165671266Y-102416310D01*
X165466165Y-102501266D01*
X165281579Y-102624602D01*
X165124602Y-102781579D01*
X165001266Y-102966165D01*
X164916310Y-103171266D01*
X164873000Y-103389000D01*
X164873000Y-103611000D01*
X164916310Y-103828734D01*
X165001266Y-104033835D01*
X165124602Y-104218421D01*
X165281579Y-104375398D01*
X165466165Y-104498734D01*
X165671266Y-104583690D01*
X165889000Y-104627000D01*
X166111000Y-104627000D01*
X166328734Y-104583690D01*
X166533835Y-104498734D01*
X166718421Y-104375398D01*
X166875398Y-104218421D01*
X166998734Y-104033835D01*
X167083690Y-103828734D01*
X167127000Y-103611000D01*
X167127000Y-103389000D01*
X167083690Y-103171266D01*
X167021772Y-103021783D01*
X167171228Y-103083690D01*
X167388962Y-103127000D01*
X167610962Y-103127000D01*
X167814781Y-103086458D01*
X166089320Y-106537380D01*
X165874596Y-106922510D01*
X165626183Y-107286757D01*
X163112954Y-110637728D01*
X162894470Y-110908474D01*
X162657355Y-111163039D01*
X161163039Y-112657355D01*
X160908474Y-112894470D01*
X160637728Y-113112954D01*
X157286757Y-115626183D01*
X156922510Y-115874596D01*
X156739200Y-115976798D01*
X156696401Y-115873471D01*
X156534761Y-115631560D01*
X156329033Y-115425832D01*
X156087122Y-115264192D01*
X155818325Y-115152853D01*
X155532972Y-115096093D01*
X155242028Y-115096093D01*
X154956675Y-115152853D01*
X154687878Y-115264192D01*
X154445967Y-115425832D01*
X154240239Y-115631560D01*
X154078599Y-115873471D01*
X153967260Y-116142268D01*
X153910500Y-116427621D01*
X153910500Y-116718565D01*
X153967260Y-117003918D01*
X154078599Y-117272715D01*
X154101636Y-117307192D01*
X151263041Y-118726490D01*
X150946554Y-118870938D01*
X150620592Y-118992599D01*
X148334356Y-119754678D01*
X147965667Y-119861735D01*
X147589696Y-119939632D01*
X146995508Y-120038663D01*
X146998734Y-120033835D01*
X147083690Y-119828734D01*
X147127000Y-119611000D01*
X147127000Y-119389000D01*
X147083690Y-119171266D01*
X146998734Y-118966165D01*
X146875398Y-118781579D01*
X146718421Y-118624602D01*
X146533835Y-118501266D01*
X146328734Y-118416310D01*
X146111000Y-118373000D01*
X145889000Y-118373000D01*
X145671266Y-118416310D01*
X145466165Y-118501266D01*
X145281579Y-118624602D01*
X145124602Y-118781579D01*
X145001266Y-118966165D01*
X144916310Y-119171266D01*
X144873000Y-119389000D01*
X144873000Y-119611000D01*
X144916310Y-119828734D01*
X145001266Y-120033835D01*
X145124602Y-120218421D01*
X145237796Y-120331615D01*
X142389887Y-120806267D01*
X141988110Y-120856287D01*
X141583559Y-120873000D01*
X140315246Y-120873000D01*
X139702936Y-120834879D01*
X132719226Y-119961915D01*
X132267442Y-119883847D01*
X131827794Y-119764712D01*
X131398399Y-119604000D01*
X128882246Y-118525649D01*
X128866623Y-118487931D01*
X128644793Y-118155939D01*
X128362456Y-117873602D01*
X128030464Y-117651772D01*
X127661573Y-117498972D01*
X127269961Y-117421076D01*
X126870677Y-117421076D01*
X126484257Y-117497939D01*
X125474651Y-117065251D01*
X125241729Y-116952544D01*
X125298932Y-116931014D01*
X125420544Y-116855391D01*
X125525065Y-116757496D01*
X125608479Y-116641092D01*
X126677784Y-114789000D01*
X144873000Y-114789000D01*
X144873000Y-115011000D01*
X144916310Y-115228734D01*
X145001266Y-115433835D01*
X145124602Y-115618421D01*
X145281579Y-115775398D01*
X145466165Y-115898734D01*
X145671266Y-115983690D01*
X145889000Y-116027000D01*
X146111000Y-116027000D01*
X146328734Y-115983690D01*
X146533835Y-115898734D01*
X146718421Y-115775398D01*
X146875398Y-115618421D01*
X146998734Y-115433835D01*
X147083690Y-115228734D01*
X147127000Y-115011000D01*
X147127000Y-114789000D01*
X147083690Y-114571266D01*
X146998734Y-114366165D01*
X146875398Y-114181579D01*
X146718421Y-114024602D01*
X146533835Y-113901266D01*
X146328734Y-113816310D01*
X146111000Y-113773000D01*
X145889000Y-113773000D01*
X145671266Y-113816310D01*
X145466165Y-113901266D01*
X145281579Y-114024602D01*
X145124602Y-114181579D01*
X145001266Y-114366165D01*
X144916310Y-114571266D01*
X144873000Y-114789000D01*
X126677784Y-114789000D01*
X126908479Y-114389426D01*
X126967582Y-114258984D01*
X127000100Y-114119519D01*
X127004786Y-113976389D01*
X126981458Y-113835095D01*
X126931014Y-113701068D01*
X126855391Y-113579456D01*
X126757496Y-113474935D01*
X126641092Y-113391521D01*
X124389426Y-112091521D01*
X124383863Y-112089000D01*
X143573000Y-112089000D01*
X143573000Y-112311000D01*
X143616310Y-112528734D01*
X143701266Y-112733835D01*
X143824602Y-112918421D01*
X143981579Y-113075398D01*
X144166165Y-113198734D01*
X144371266Y-113283690D01*
X144589000Y-113327000D01*
X144811000Y-113327000D01*
X145028734Y-113283690D01*
X145150000Y-113233460D01*
X145271266Y-113283690D01*
X145489000Y-113327000D01*
X145711000Y-113327000D01*
X145928734Y-113283690D01*
X146050000Y-113233460D01*
X146171266Y-113283690D01*
X146389000Y-113327000D01*
X146611000Y-113327000D01*
X146828734Y-113283690D01*
X146950000Y-113233460D01*
X147071266Y-113283690D01*
X147289000Y-113327000D01*
X147511000Y-113327000D01*
X147728734Y-113283690D01*
X147933835Y-113198734D01*
X148118421Y-113075398D01*
X148275398Y-112918421D01*
X148398734Y-112733835D01*
X148483690Y-112528734D01*
X148527000Y-112311000D01*
X148527000Y-112089000D01*
X148483690Y-111871266D01*
X148398734Y-111666165D01*
X148275398Y-111481579D01*
X148118421Y-111324602D01*
X147933835Y-111201266D01*
X147728734Y-111116310D01*
X147511000Y-111073000D01*
X147289000Y-111073000D01*
X147071266Y-111116310D01*
X146950000Y-111166540D01*
X146828734Y-111116310D01*
X146611000Y-111073000D01*
X146389000Y-111073000D01*
X146171266Y-111116310D01*
X146050000Y-111166540D01*
X145928734Y-111116310D01*
X145711000Y-111073000D01*
X145489000Y-111073000D01*
X145271266Y-111116310D01*
X145150000Y-111166540D01*
X145028734Y-111116310D01*
X144811000Y-111073000D01*
X144589000Y-111073000D01*
X144371266Y-111116310D01*
X144166165Y-111201266D01*
X143981579Y-111324602D01*
X143824602Y-111481579D01*
X143701266Y-111666165D01*
X143616310Y-111871266D01*
X143573000Y-112089000D01*
X124383863Y-112089000D01*
X124258984Y-112032418D01*
X124119519Y-111999900D01*
X123976389Y-111995214D01*
X123835095Y-112018542D01*
X123701068Y-112068986D01*
X123579456Y-112144609D01*
X123474935Y-112242504D01*
X123391521Y-112358908D01*
X122091521Y-114610574D01*
X122032418Y-114741016D01*
X122006596Y-114851762D01*
X119676360Y-113298272D01*
X119297645Y-113018643D01*
X118949755Y-112706034D01*
X118631369Y-112359263D01*
X116156150Y-109389000D01*
X130073000Y-109389000D01*
X130073000Y-109611000D01*
X130116310Y-109828734D01*
X130201266Y-110033835D01*
X130324602Y-110218421D01*
X130481579Y-110375398D01*
X130666165Y-110498734D01*
X130871266Y-110583690D01*
X131089000Y-110627000D01*
X131311000Y-110627000D01*
X131528734Y-110583690D01*
X131733835Y-110498734D01*
X131918421Y-110375398D01*
X132075398Y-110218421D01*
X132198734Y-110033835D01*
X132283690Y-109828734D01*
X132327000Y-109611000D01*
X132327000Y-109389000D01*
X134673000Y-109389000D01*
X134673000Y-109611000D01*
X134716310Y-109828734D01*
X134801266Y-110033835D01*
X134924602Y-110218421D01*
X135081579Y-110375398D01*
X135266165Y-110498734D01*
X135471266Y-110583690D01*
X135689000Y-110627000D01*
X135911000Y-110627000D01*
X136128734Y-110583690D01*
X136333835Y-110498734D01*
X136518421Y-110375398D01*
X136675398Y-110218421D01*
X136798734Y-110033835D01*
X136883690Y-109828734D01*
X136927000Y-109611000D01*
X136927000Y-109389000D01*
X136883690Y-109171266D01*
X136798734Y-108966165D01*
X136675398Y-108781579D01*
X136518421Y-108624602D01*
X136333835Y-108501266D01*
X136128734Y-108416310D01*
X135911000Y-108373000D01*
X135689000Y-108373000D01*
X135471266Y-108416310D01*
X135266165Y-108501266D01*
X135081579Y-108624602D01*
X134924602Y-108781579D01*
X134801266Y-108966165D01*
X134716310Y-109171266D01*
X134673000Y-109389000D01*
X132327000Y-109389000D01*
X132283690Y-109171266D01*
X132198734Y-108966165D01*
X132075398Y-108781579D01*
X131918421Y-108624602D01*
X131733835Y-108501266D01*
X131528734Y-108416310D01*
X131311000Y-108373000D01*
X131089000Y-108373000D01*
X130871266Y-108416310D01*
X130666165Y-108501266D01*
X130481579Y-108624602D01*
X130324602Y-108781579D01*
X130201266Y-108966165D01*
X130116310Y-109171266D01*
X130073000Y-109389000D01*
X116156150Y-109389000D01*
X114470646Y-107366396D01*
X114240179Y-107067115D01*
X114034779Y-106753055D01*
X113852972Y-106421964D01*
X112936490Y-104589000D01*
X116373000Y-104589000D01*
X116373000Y-104811000D01*
X116416310Y-105028734D01*
X116501266Y-105233835D01*
X116624602Y-105418421D01*
X116781579Y-105575398D01*
X116966165Y-105698734D01*
X117171266Y-105783690D01*
X117389000Y-105827000D01*
X117611000Y-105827000D01*
X117828734Y-105783690D01*
X118033835Y-105698734D01*
X118218421Y-105575398D01*
X118375398Y-105418421D01*
X118498734Y-105233835D01*
X118583690Y-105028734D01*
X118627000Y-104811000D01*
X118627000Y-104589000D01*
X120973000Y-104589000D01*
X120973000Y-104811000D01*
X121016310Y-105028734D01*
X121101266Y-105233835D01*
X121224602Y-105418421D01*
X121381579Y-105575398D01*
X121566165Y-105698734D01*
X121771266Y-105783690D01*
X121989000Y-105827000D01*
X122211000Y-105827000D01*
X122428734Y-105783690D01*
X122633835Y-105698734D01*
X122818421Y-105575398D01*
X122904819Y-105489000D01*
X132273000Y-105489000D01*
X132273000Y-105711000D01*
X132316310Y-105928734D01*
X132401266Y-106133835D01*
X132524602Y-106318421D01*
X132681579Y-106475398D01*
X132866165Y-106598734D01*
X132989932Y-106650000D01*
X132866165Y-106701266D01*
X132681579Y-106824602D01*
X132524602Y-106981579D01*
X132401266Y-107166165D01*
X132316310Y-107371266D01*
X132273000Y-107589000D01*
X132273000Y-107811000D01*
X132316310Y-108028734D01*
X132401266Y-108233835D01*
X132524602Y-108418421D01*
X132681579Y-108575398D01*
X132866165Y-108698734D01*
X133071266Y-108783690D01*
X133289000Y-108827000D01*
X133511000Y-108827000D01*
X133728734Y-108783690D01*
X133933835Y-108698734D01*
X134118421Y-108575398D01*
X134275398Y-108418421D01*
X134398734Y-108233835D01*
X134483690Y-108028734D01*
X134491593Y-107989000D01*
X143573000Y-107989000D01*
X143573000Y-108211000D01*
X143616310Y-108428734D01*
X143701266Y-108633835D01*
X143824602Y-108818421D01*
X143981579Y-108975398D01*
X144166165Y-109098734D01*
X144371266Y-109183690D01*
X144589000Y-109227000D01*
X144811000Y-109227000D01*
X145028734Y-109183690D01*
X145150000Y-109133460D01*
X145271266Y-109183690D01*
X145489000Y-109227000D01*
X145711000Y-109227000D01*
X145928734Y-109183690D01*
X146050000Y-109133460D01*
X146171266Y-109183690D01*
X146389000Y-109227000D01*
X146611000Y-109227000D01*
X146828734Y-109183690D01*
X147000000Y-109112749D01*
X147171266Y-109183690D01*
X147389000Y-109227000D01*
X147611000Y-109227000D01*
X147828734Y-109183690D01*
X148033835Y-109098734D01*
X148218421Y-108975398D01*
X148375398Y-108818421D01*
X148498734Y-108633835D01*
X148583690Y-108428734D01*
X148627000Y-108211000D01*
X148627000Y-107989000D01*
X148583690Y-107771266D01*
X148498734Y-107566165D01*
X148375398Y-107381579D01*
X148218421Y-107224602D01*
X148033835Y-107101266D01*
X147828734Y-107016310D01*
X147611000Y-106973000D01*
X147389000Y-106973000D01*
X147171266Y-107016310D01*
X147000000Y-107087251D01*
X146828734Y-107016310D01*
X146611000Y-106973000D01*
X146389000Y-106973000D01*
X146171266Y-107016310D01*
X146050000Y-107066540D01*
X145928734Y-107016310D01*
X145711000Y-106973000D01*
X145489000Y-106973000D01*
X145271266Y-107016310D01*
X145150000Y-107066540D01*
X145028734Y-107016310D01*
X144811000Y-106973000D01*
X144589000Y-106973000D01*
X144371266Y-107016310D01*
X144166165Y-107101266D01*
X143981579Y-107224602D01*
X143824602Y-107381579D01*
X143701266Y-107566165D01*
X143616310Y-107771266D01*
X143573000Y-107989000D01*
X134491593Y-107989000D01*
X134527000Y-107811000D01*
X134527000Y-107589000D01*
X134483690Y-107371266D01*
X134398734Y-107166165D01*
X134275398Y-106981579D01*
X134118421Y-106824602D01*
X133933835Y-106701266D01*
X133810068Y-106650000D01*
X133933835Y-106598734D01*
X134118421Y-106475398D01*
X134275398Y-106318421D01*
X134398734Y-106133835D01*
X134458726Y-105989000D01*
X155673000Y-105989000D01*
X155673000Y-106211000D01*
X155716310Y-106428734D01*
X155801266Y-106633835D01*
X155924602Y-106818421D01*
X156081579Y-106975398D01*
X156266165Y-107098734D01*
X156471266Y-107183690D01*
X156689000Y-107227000D01*
X156911000Y-107227000D01*
X157102038Y-107189000D01*
X157873000Y-107189000D01*
X157873000Y-107411000D01*
X157916310Y-107628734D01*
X158001266Y-107833835D01*
X158124602Y-108018421D01*
X158281579Y-108175398D01*
X158466165Y-108298734D01*
X158671266Y-108383690D01*
X158889000Y-108427000D01*
X159111000Y-108427000D01*
X159328734Y-108383690D01*
X159533835Y-108298734D01*
X159718421Y-108175398D01*
X159875398Y-108018421D01*
X159998734Y-107833835D01*
X160083690Y-107628734D01*
X160127000Y-107411000D01*
X160127000Y-107189000D01*
X160083690Y-106971266D01*
X159998734Y-106766165D01*
X159875398Y-106581579D01*
X159718421Y-106424602D01*
X159533835Y-106301266D01*
X159328734Y-106216310D01*
X159111000Y-106173000D01*
X158889000Y-106173000D01*
X158671266Y-106216310D01*
X158466165Y-106301266D01*
X158281579Y-106424602D01*
X158124602Y-106581579D01*
X158001266Y-106766165D01*
X157916310Y-106971266D01*
X157873000Y-107189000D01*
X157102038Y-107189000D01*
X157128734Y-107183690D01*
X157333835Y-107098734D01*
X157518421Y-106975398D01*
X157675398Y-106818421D01*
X157798734Y-106633835D01*
X157883690Y-106428734D01*
X157927000Y-106211000D01*
X157927000Y-105989000D01*
X157883690Y-105771266D01*
X157798734Y-105566165D01*
X157675398Y-105381579D01*
X157518421Y-105224602D01*
X157333835Y-105101266D01*
X157128734Y-105016310D01*
X156911000Y-104973000D01*
X156689000Y-104973000D01*
X156471266Y-105016310D01*
X156266165Y-105101266D01*
X156081579Y-105224602D01*
X155924602Y-105381579D01*
X155801266Y-105566165D01*
X155716310Y-105771266D01*
X155673000Y-105989000D01*
X134458726Y-105989000D01*
X134483690Y-105928734D01*
X134527000Y-105711000D01*
X134527000Y-105489000D01*
X134483690Y-105271266D01*
X134398734Y-105066165D01*
X134275398Y-104881579D01*
X134118421Y-104724602D01*
X133933835Y-104601266D01*
X133728734Y-104516310D01*
X133511000Y-104473000D01*
X133289000Y-104473000D01*
X133071266Y-104516310D01*
X132866165Y-104601266D01*
X132681579Y-104724602D01*
X132524602Y-104881579D01*
X132401266Y-105066165D01*
X132316310Y-105271266D01*
X132273000Y-105489000D01*
X122904819Y-105489000D01*
X122975398Y-105418421D01*
X123098734Y-105233835D01*
X123183690Y-105028734D01*
X123227000Y-104811000D01*
X123227000Y-104589000D01*
X123183690Y-104371266D01*
X123108193Y-104189000D01*
X130073000Y-104189000D01*
X130073000Y-104411000D01*
X130116310Y-104628734D01*
X130201266Y-104833835D01*
X130324602Y-105018421D01*
X130481579Y-105175398D01*
X130666165Y-105298734D01*
X130871266Y-105383690D01*
X131089000Y-105427000D01*
X131311000Y-105427000D01*
X131528734Y-105383690D01*
X131733835Y-105298734D01*
X131918421Y-105175398D01*
X132075398Y-105018421D01*
X132198734Y-104833835D01*
X132283690Y-104628734D01*
X132327000Y-104411000D01*
X132327000Y-104189000D01*
X134673000Y-104189000D01*
X134673000Y-104411000D01*
X134716310Y-104628734D01*
X134801266Y-104833835D01*
X134924602Y-105018421D01*
X135081579Y-105175398D01*
X135266165Y-105298734D01*
X135471266Y-105383690D01*
X135689000Y-105427000D01*
X135911000Y-105427000D01*
X136128734Y-105383690D01*
X136333835Y-105298734D01*
X136518421Y-105175398D01*
X136675398Y-105018421D01*
X136798734Y-104833835D01*
X136858726Y-104689000D01*
X138873000Y-104689000D01*
X138873000Y-104911000D01*
X138916310Y-105128734D01*
X139001266Y-105333835D01*
X139124602Y-105518421D01*
X139281579Y-105675398D01*
X139466165Y-105798734D01*
X139671266Y-105883690D01*
X139889000Y-105927000D01*
X140111000Y-105927000D01*
X140328734Y-105883690D01*
X140533835Y-105798734D01*
X140718421Y-105675398D01*
X140875398Y-105518421D01*
X140998734Y-105333835D01*
X141083690Y-105128734D01*
X141127000Y-104911000D01*
X141127000Y-104689000D01*
X141083690Y-104471266D01*
X141018090Y-104312895D01*
X141089000Y-104327000D01*
X141311000Y-104327000D01*
X141528734Y-104283690D01*
X141733835Y-104198734D01*
X141918421Y-104075398D01*
X142075398Y-103918421D01*
X142198734Y-103733835D01*
X142283690Y-103528734D01*
X142327000Y-103311000D01*
X142327000Y-103089000D01*
X142283690Y-102871266D01*
X142198734Y-102666165D01*
X142075398Y-102481579D01*
X141918421Y-102324602D01*
X141733835Y-102201266D01*
X141528734Y-102116310D01*
X141311000Y-102073000D01*
X141089000Y-102073000D01*
X140871266Y-102116310D01*
X140666165Y-102201266D01*
X140481579Y-102324602D01*
X140324602Y-102481579D01*
X140201266Y-102666165D01*
X140116310Y-102871266D01*
X140073000Y-103089000D01*
X140073000Y-103311000D01*
X140116310Y-103528734D01*
X140181910Y-103687105D01*
X140111000Y-103673000D01*
X139889000Y-103673000D01*
X139671266Y-103716310D01*
X139466165Y-103801266D01*
X139281579Y-103924602D01*
X139124602Y-104081579D01*
X139001266Y-104266165D01*
X138916310Y-104471266D01*
X138873000Y-104689000D01*
X136858726Y-104689000D01*
X136883690Y-104628734D01*
X136927000Y-104411000D01*
X136927000Y-104189000D01*
X136883690Y-103971266D01*
X136798734Y-103766165D01*
X136675398Y-103581579D01*
X136518421Y-103424602D01*
X136333835Y-103301266D01*
X136128734Y-103216310D01*
X135911000Y-103173000D01*
X135689000Y-103173000D01*
X135471266Y-103216310D01*
X135266165Y-103301266D01*
X135081579Y-103424602D01*
X134924602Y-103581579D01*
X134801266Y-103766165D01*
X134716310Y-103971266D01*
X134673000Y-104189000D01*
X132327000Y-104189000D01*
X132283690Y-103971266D01*
X132198734Y-103766165D01*
X132075398Y-103581579D01*
X131918421Y-103424602D01*
X131733835Y-103301266D01*
X131528734Y-103216310D01*
X131311000Y-103173000D01*
X131089000Y-103173000D01*
X130871266Y-103216310D01*
X130666165Y-103301266D01*
X130481579Y-103424602D01*
X130324602Y-103581579D01*
X130201266Y-103766165D01*
X130116310Y-103971266D01*
X130073000Y-104189000D01*
X123108193Y-104189000D01*
X123098734Y-104166165D01*
X122975398Y-103981579D01*
X122818421Y-103824602D01*
X122633835Y-103701266D01*
X122428734Y-103616310D01*
X122211000Y-103573000D01*
X121989000Y-103573000D01*
X121771266Y-103616310D01*
X121566165Y-103701266D01*
X121381579Y-103824602D01*
X121224602Y-103981579D01*
X121101266Y-104166165D01*
X121016310Y-104371266D01*
X120973000Y-104589000D01*
X118627000Y-104589000D01*
X118583690Y-104371266D01*
X118498734Y-104166165D01*
X118375398Y-103981579D01*
X118218421Y-103824602D01*
X118033835Y-103701266D01*
X117828734Y-103616310D01*
X117611000Y-103573000D01*
X117389000Y-103573000D01*
X117171266Y-103616310D01*
X116966165Y-103701266D01*
X116781579Y-103824602D01*
X116624602Y-103981579D01*
X116501266Y-104166165D01*
X116416310Y-104371266D01*
X116373000Y-104589000D01*
X112936490Y-104589000D01*
X111273510Y-101263041D01*
X111194076Y-101089000D01*
X118573000Y-101089000D01*
X118573000Y-101311000D01*
X118616310Y-101528734D01*
X118701266Y-101733835D01*
X118824602Y-101918421D01*
X118981579Y-102075398D01*
X119166165Y-102198734D01*
X119169221Y-102200000D01*
X119166165Y-102201266D01*
X118981579Y-102324602D01*
X118824602Y-102481579D01*
X118701266Y-102666165D01*
X118616310Y-102871266D01*
X118573000Y-103089000D01*
X118573000Y-103311000D01*
X118616310Y-103528734D01*
X118701266Y-103733835D01*
X118824602Y-103918421D01*
X118981579Y-104075398D01*
X119166165Y-104198734D01*
X119371266Y-104283690D01*
X119589000Y-104327000D01*
X119811000Y-104327000D01*
X120028734Y-104283690D01*
X120233835Y-104198734D01*
X120418421Y-104075398D01*
X120575398Y-103918421D01*
X120698734Y-103733835D01*
X120783690Y-103528734D01*
X120827000Y-103311000D01*
X120827000Y-103089000D01*
X120783690Y-102871266D01*
X120698734Y-102666165D01*
X120575398Y-102481579D01*
X120418421Y-102324602D01*
X120233835Y-102201266D01*
X120230779Y-102200000D01*
X120233835Y-102198734D01*
X120418421Y-102075398D01*
X120575398Y-101918421D01*
X120698734Y-101733835D01*
X120783690Y-101528734D01*
X120827000Y-101311000D01*
X120827000Y-101089000D01*
X120783690Y-100871266D01*
X120698734Y-100666165D01*
X120575398Y-100481579D01*
X120418421Y-100324602D01*
X120233835Y-100201266D01*
X120028734Y-100116310D01*
X119811000Y-100073000D01*
X119589000Y-100073000D01*
X119371266Y-100116310D01*
X119166165Y-100201266D01*
X118981579Y-100324602D01*
X118824602Y-100481579D01*
X118701266Y-100666165D01*
X118616310Y-100871266D01*
X118573000Y-101089000D01*
X111194076Y-101089000D01*
X111129062Y-100946554D01*
X111007401Y-100620592D01*
X110596871Y-99389000D01*
X116473000Y-99389000D01*
X116473000Y-99611000D01*
X116516310Y-99828734D01*
X116601266Y-100033835D01*
X116724602Y-100218421D01*
X116881579Y-100375398D01*
X117066165Y-100498734D01*
X117271266Y-100583690D01*
X117489000Y-100627000D01*
X117711000Y-100627000D01*
X117928734Y-100583690D01*
X118133835Y-100498734D01*
X118318421Y-100375398D01*
X118475398Y-100218421D01*
X118598734Y-100033835D01*
X118683690Y-99828734D01*
X118727000Y-99611000D01*
X118727000Y-99389000D01*
X120873000Y-99389000D01*
X120873000Y-99611000D01*
X120916310Y-99828734D01*
X121001266Y-100033835D01*
X121124602Y-100218421D01*
X121281579Y-100375398D01*
X121466165Y-100498734D01*
X121671266Y-100583690D01*
X121889000Y-100627000D01*
X122111000Y-100627000D01*
X122328734Y-100583690D01*
X122533835Y-100498734D01*
X122698064Y-100389000D01*
X141373000Y-100389000D01*
X141373000Y-100611000D01*
X141416310Y-100828734D01*
X141501266Y-101033835D01*
X141624602Y-101218421D01*
X141781579Y-101375398D01*
X141966165Y-101498734D01*
X142171266Y-101583690D01*
X142389000Y-101627000D01*
X142611000Y-101627000D01*
X142828734Y-101583690D01*
X143033835Y-101498734D01*
X143198064Y-101389000D01*
X144403002Y-101389000D01*
X144403002Y-101611000D01*
X144446312Y-101828734D01*
X144531268Y-102033835D01*
X144654604Y-102218421D01*
X144811581Y-102375398D01*
X144996167Y-102498734D01*
X145201268Y-102583690D01*
X145419002Y-102627000D01*
X145641002Y-102627000D01*
X145858736Y-102583690D01*
X146063837Y-102498734D01*
X146248423Y-102375398D01*
X146405400Y-102218421D01*
X146425058Y-102189000D01*
X159773000Y-102189000D01*
X159773000Y-102411000D01*
X159816310Y-102628734D01*
X159901266Y-102833835D01*
X160024602Y-103018421D01*
X160181579Y-103175398D01*
X160366165Y-103298734D01*
X160571266Y-103383690D01*
X160789000Y-103427000D01*
X161011000Y-103427000D01*
X161228734Y-103383690D01*
X161433835Y-103298734D01*
X161618421Y-103175398D01*
X161775398Y-103018421D01*
X161898734Y-102833835D01*
X161983690Y-102628734D01*
X162027000Y-102411000D01*
X162027000Y-102189000D01*
X161983690Y-101971266D01*
X161898734Y-101766165D01*
X161775398Y-101581579D01*
X161618421Y-101424602D01*
X161433835Y-101301266D01*
X161228734Y-101216310D01*
X161011000Y-101173000D01*
X160789000Y-101173000D01*
X160571266Y-101216310D01*
X160366165Y-101301266D01*
X160181579Y-101424602D01*
X160024602Y-101581579D01*
X159901266Y-101766165D01*
X159816310Y-101971266D01*
X159773000Y-102189000D01*
X146425058Y-102189000D01*
X146528736Y-102033835D01*
X146613692Y-101828734D01*
X146657002Y-101611000D01*
X146657002Y-101389000D01*
X146613692Y-101171266D01*
X146528736Y-100966165D01*
X146405400Y-100781579D01*
X146248423Y-100624602D01*
X146063837Y-100501266D01*
X146034225Y-100489000D01*
X146473000Y-100489000D01*
X146473000Y-100711000D01*
X146516310Y-100928734D01*
X146601266Y-101133835D01*
X146724602Y-101318421D01*
X146881579Y-101475398D01*
X147066165Y-101598734D01*
X147271266Y-101683690D01*
X147489000Y-101727000D01*
X147711000Y-101727000D01*
X147928734Y-101683690D01*
X148133835Y-101598734D01*
X148318421Y-101475398D01*
X148475398Y-101318421D01*
X148598734Y-101133835D01*
X148683690Y-100928734D01*
X148727000Y-100711000D01*
X148727000Y-100489000D01*
X148683690Y-100271266D01*
X148598734Y-100066165D01*
X148475398Y-99881579D01*
X148318421Y-99724602D01*
X148133835Y-99601266D01*
X147928734Y-99516310D01*
X147711000Y-99473000D01*
X147489000Y-99473000D01*
X147271266Y-99516310D01*
X147066165Y-99601266D01*
X146881579Y-99724602D01*
X146724602Y-99881579D01*
X146601266Y-100066165D01*
X146516310Y-100271266D01*
X146473000Y-100489000D01*
X146034225Y-100489000D01*
X145858736Y-100416310D01*
X145641002Y-100373000D01*
X145419002Y-100373000D01*
X145201268Y-100416310D01*
X144996167Y-100501266D01*
X144811581Y-100624602D01*
X144654604Y-100781579D01*
X144531268Y-100966165D01*
X144446312Y-101171266D01*
X144403002Y-101389000D01*
X143198064Y-101389000D01*
X143218421Y-101375398D01*
X143375398Y-101218421D01*
X143498734Y-101033835D01*
X143583690Y-100828734D01*
X143627000Y-100611000D01*
X143627000Y-100389000D01*
X143583690Y-100171266D01*
X143498734Y-99966165D01*
X143375398Y-99781579D01*
X143218421Y-99624602D01*
X143033835Y-99501266D01*
X142828734Y-99416310D01*
X142611000Y-99373000D01*
X142389000Y-99373000D01*
X142171266Y-99416310D01*
X141966165Y-99501266D01*
X141781579Y-99624602D01*
X141624602Y-99781579D01*
X141501266Y-99966165D01*
X141416310Y-100171266D01*
X141373000Y-100389000D01*
X122698064Y-100389000D01*
X122718421Y-100375398D01*
X122875398Y-100218421D01*
X122998734Y-100033835D01*
X123083690Y-99828734D01*
X123127000Y-99611000D01*
X123127000Y-99389000D01*
X123083690Y-99171266D01*
X122998734Y-98966165D01*
X122875398Y-98781579D01*
X122718421Y-98624602D01*
X122533835Y-98501266D01*
X122328734Y-98416310D01*
X122111000Y-98373000D01*
X121889000Y-98373000D01*
X121671266Y-98416310D01*
X121466165Y-98501266D01*
X121281579Y-98624602D01*
X121124602Y-98781579D01*
X121001266Y-98966165D01*
X120916310Y-99171266D01*
X120873000Y-99389000D01*
X118727000Y-99389000D01*
X118683690Y-99171266D01*
X118598734Y-98966165D01*
X118475398Y-98781579D01*
X118318421Y-98624602D01*
X118133835Y-98501266D01*
X117928734Y-98416310D01*
X117711000Y-98373000D01*
X117489000Y-98373000D01*
X117271266Y-98416310D01*
X117066165Y-98501266D01*
X116881579Y-98624602D01*
X116724602Y-98781579D01*
X116601266Y-98966165D01*
X116516310Y-99171266D01*
X116473000Y-99389000D01*
X110596871Y-99389000D01*
X110220167Y-98258890D01*
X110181690Y-98114000D01*
X151673000Y-98114000D01*
X151673000Y-98336000D01*
X151716310Y-98553734D01*
X151801266Y-98758835D01*
X151924602Y-98943421D01*
X152081579Y-99100398D01*
X152266165Y-99223734D01*
X152471266Y-99308690D01*
X152689000Y-99352000D01*
X152911000Y-99352000D01*
X153128734Y-99308690D01*
X153333835Y-99223734D01*
X153518421Y-99100398D01*
X153675398Y-98943421D01*
X153798734Y-98758835D01*
X153883690Y-98553734D01*
X153927000Y-98336000D01*
X153927000Y-98114000D01*
X153883690Y-97896266D01*
X153798734Y-97691165D01*
X153675398Y-97506579D01*
X153518421Y-97349602D01*
X153333835Y-97226266D01*
X153128734Y-97141310D01*
X152911000Y-97098000D01*
X152689000Y-97098000D01*
X152471266Y-97141310D01*
X152266165Y-97226266D01*
X152081579Y-97349602D01*
X151924602Y-97506579D01*
X151801266Y-97691165D01*
X151716310Y-97896266D01*
X151673000Y-98114000D01*
X110181690Y-98114000D01*
X110062713Y-97665987D01*
X109678007Y-95742455D01*
X109683690Y-95728734D01*
X109727000Y-95511000D01*
X109727000Y-95289000D01*
X109683690Y-95071266D01*
X109633460Y-94950000D01*
X109683690Y-94828734D01*
X109727000Y-94611000D01*
X109727000Y-94600000D01*
X137669483Y-94600000D01*
X137669483Y-96600000D01*
X137683520Y-96742517D01*
X137725090Y-96879557D01*
X137792597Y-97005853D01*
X137883446Y-97116554D01*
X137994147Y-97207403D01*
X138120443Y-97274910D01*
X138257483Y-97316480D01*
X138400000Y-97330517D01*
X141600000Y-97330517D01*
X141742517Y-97316480D01*
X141879557Y-97274910D01*
X142005853Y-97207403D01*
X142116554Y-97116554D01*
X142207403Y-97005853D01*
X142274910Y-96879557D01*
X142316480Y-96742517D01*
X142330517Y-96600000D01*
X142330517Y-95389000D01*
X145873000Y-95389000D01*
X145873000Y-95611000D01*
X145916310Y-95828734D01*
X146001266Y-96033835D01*
X146124602Y-96218421D01*
X146281579Y-96375398D01*
X146466165Y-96498734D01*
X146671266Y-96583690D01*
X146889000Y-96627000D01*
X147111000Y-96627000D01*
X147328734Y-96583690D01*
X147533835Y-96498734D01*
X147718421Y-96375398D01*
X147875398Y-96218421D01*
X147895056Y-96189000D01*
X152873000Y-96189000D01*
X152873000Y-96411000D01*
X152916310Y-96628734D01*
X153001266Y-96833835D01*
X153124602Y-97018421D01*
X153281579Y-97175398D01*
X153466165Y-97298734D01*
X153671266Y-97383690D01*
X153889000Y-97427000D01*
X154111000Y-97427000D01*
X154302038Y-97389000D01*
X160873000Y-97389000D01*
X160873000Y-97611000D01*
X160916310Y-97828734D01*
X161001266Y-98033835D01*
X161124602Y-98218421D01*
X161281579Y-98375398D01*
X161466165Y-98498734D01*
X161671266Y-98583690D01*
X161889000Y-98627000D01*
X162111000Y-98627000D01*
X162328734Y-98583690D01*
X162533835Y-98498734D01*
X162718421Y-98375398D01*
X162875398Y-98218421D01*
X162998734Y-98033835D01*
X163083690Y-97828734D01*
X163127000Y-97611000D01*
X163127000Y-97389000D01*
X163083690Y-97171266D01*
X162998734Y-96966165D01*
X162875398Y-96781579D01*
X162718421Y-96624602D01*
X162533835Y-96501266D01*
X162328734Y-96416310D01*
X162111000Y-96373000D01*
X161889000Y-96373000D01*
X161671266Y-96416310D01*
X161466165Y-96501266D01*
X161281579Y-96624602D01*
X161124602Y-96781579D01*
X161001266Y-96966165D01*
X160916310Y-97171266D01*
X160873000Y-97389000D01*
X154302038Y-97389000D01*
X154328734Y-97383690D01*
X154533835Y-97298734D01*
X154718421Y-97175398D01*
X154875398Y-97018421D01*
X154998734Y-96833835D01*
X155083690Y-96628734D01*
X155127000Y-96411000D01*
X155127000Y-96189000D01*
X155083690Y-95971266D01*
X154998734Y-95766165D01*
X154875398Y-95581579D01*
X154718421Y-95424602D01*
X154533835Y-95301266D01*
X154328734Y-95216310D01*
X154111000Y-95173000D01*
X153889000Y-95173000D01*
X153671266Y-95216310D01*
X153466165Y-95301266D01*
X153281579Y-95424602D01*
X153124602Y-95581579D01*
X153001266Y-95766165D01*
X152916310Y-95971266D01*
X152873000Y-96189000D01*
X147895056Y-96189000D01*
X147998734Y-96033835D01*
X148083690Y-95828734D01*
X148127000Y-95611000D01*
X148127000Y-95389000D01*
X148083690Y-95171266D01*
X147998734Y-94966165D01*
X147875398Y-94781579D01*
X147718421Y-94624602D01*
X147533835Y-94501266D01*
X147328734Y-94416310D01*
X147111000Y-94373000D01*
X146889000Y-94373000D01*
X146671266Y-94416310D01*
X146466165Y-94501266D01*
X146281579Y-94624602D01*
X146124602Y-94781579D01*
X146001266Y-94966165D01*
X145916310Y-95171266D01*
X145873000Y-95389000D01*
X142330517Y-95389000D01*
X142330517Y-94600000D01*
X142316480Y-94457483D01*
X142274910Y-94320443D01*
X142207403Y-94194147D01*
X142116554Y-94083446D01*
X142005853Y-93992597D01*
X141879557Y-93925090D01*
X141742517Y-93883520D01*
X141600000Y-93869483D01*
X138400000Y-93869483D01*
X138257483Y-93883520D01*
X138120443Y-93925090D01*
X137994147Y-93992597D01*
X137883446Y-94083446D01*
X137792597Y-94194147D01*
X137725090Y-94320443D01*
X137683520Y-94457483D01*
X137669483Y-94600000D01*
X109727000Y-94600000D01*
X109727000Y-94389000D01*
X109683690Y-94171266D01*
X109598734Y-93966165D01*
X109475398Y-93781579D01*
X109318421Y-93624602D01*
X109244567Y-93575254D01*
X109222246Y-93463650D01*
X109150868Y-92985054D01*
X109127000Y-92501775D01*
X109127000Y-92389000D01*
X125873000Y-92389000D01*
X125873000Y-92611000D01*
X125916310Y-92828734D01*
X126001266Y-93033835D01*
X126124602Y-93218421D01*
X126281579Y-93375398D01*
X126466165Y-93498734D01*
X126671266Y-93583690D01*
X126889000Y-93627000D01*
X127111000Y-93627000D01*
X127328734Y-93583690D01*
X127533835Y-93498734D01*
X127718421Y-93375398D01*
X127875398Y-93218421D01*
X127998734Y-93033835D01*
X128083690Y-92828734D01*
X128127000Y-92611000D01*
X128127000Y-92389000D01*
X128083690Y-92171266D01*
X127998734Y-91966165D01*
X127875398Y-91781579D01*
X127718421Y-91624602D01*
X127533835Y-91501266D01*
X127328734Y-91416310D01*
X127111000Y-91373000D01*
X126889000Y-91373000D01*
X126671266Y-91416310D01*
X126466165Y-91501266D01*
X126281579Y-91624602D01*
X126124602Y-91781579D01*
X126001266Y-91966165D01*
X125916310Y-92171266D01*
X125873000Y-92389000D01*
X109127000Y-92389000D01*
X109127000Y-89889000D01*
X111073000Y-89889000D01*
X111073000Y-90111000D01*
X111116310Y-90328734D01*
X111201266Y-90533835D01*
X111324602Y-90718421D01*
X111481579Y-90875398D01*
X111666165Y-90998734D01*
X111871266Y-91083690D01*
X112089000Y-91127000D01*
X112311000Y-91127000D01*
X112528734Y-91083690D01*
X112733835Y-90998734D01*
X112918421Y-90875398D01*
X113075398Y-90718421D01*
X113198734Y-90533835D01*
X113283690Y-90328734D01*
X113327000Y-90111000D01*
X113327000Y-89889000D01*
X113283690Y-89671266D01*
X113198734Y-89466165D01*
X113075398Y-89281579D01*
X112918421Y-89124602D01*
X112733835Y-89001266D01*
X112528734Y-88916310D01*
X112311000Y-88873000D01*
X112089000Y-88873000D01*
X111871266Y-88916310D01*
X111666165Y-89001266D01*
X111481579Y-89124602D01*
X111324602Y-89281579D01*
X111201266Y-89466165D01*
X111116310Y-89671266D01*
X111073000Y-89889000D01*
X109127000Y-89889000D01*
X109127000Y-88416441D01*
X109143713Y-88011890D01*
X109193733Y-87610113D01*
X109230585Y-87389000D01*
X111073000Y-87389000D01*
X111073000Y-87611000D01*
X111116310Y-87828734D01*
X111201266Y-88033835D01*
X111324602Y-88218421D01*
X111481579Y-88375398D01*
X111666165Y-88498734D01*
X111871266Y-88583690D01*
X112089000Y-88627000D01*
X112311000Y-88627000D01*
X112528734Y-88583690D01*
X112733835Y-88498734D01*
X112918421Y-88375398D01*
X113075398Y-88218421D01*
X113198734Y-88033835D01*
X113283690Y-87828734D01*
X113327000Y-87611000D01*
X113327000Y-87389000D01*
X125873000Y-87389000D01*
X125873000Y-87611000D01*
X125916310Y-87828734D01*
X126001266Y-88033835D01*
X126124602Y-88218421D01*
X126281579Y-88375398D01*
X126466165Y-88498734D01*
X126671266Y-88583690D01*
X126889000Y-88627000D01*
X127111000Y-88627000D01*
X127328734Y-88583690D01*
X127533835Y-88498734D01*
X127718421Y-88375398D01*
X127875398Y-88218421D01*
X127998734Y-88033835D01*
X128083690Y-87828734D01*
X128127000Y-87611000D01*
X128127000Y-87389000D01*
X128083690Y-87171266D01*
X127998734Y-86966165D01*
X127875398Y-86781579D01*
X127718421Y-86624602D01*
X127533835Y-86501266D01*
X127530779Y-86500000D01*
X130769483Y-86500000D01*
X130769483Y-88500000D01*
X130783520Y-88642517D01*
X130825090Y-88779557D01*
X130892597Y-88905853D01*
X130983446Y-89016554D01*
X131045852Y-89067769D01*
X130969553Y-89181959D01*
X130839368Y-89496253D01*
X130773000Y-89829905D01*
X130773000Y-90170095D01*
X130839368Y-90503747D01*
X130969553Y-90818041D01*
X131158552Y-91100898D01*
X131307654Y-91250000D01*
X131158552Y-91399102D01*
X130969553Y-91681959D01*
X130839368Y-91996253D01*
X130773000Y-92329905D01*
X130773000Y-92670095D01*
X130839368Y-93003747D01*
X130969553Y-93318041D01*
X131158552Y-93600898D01*
X131399102Y-93841448D01*
X131681959Y-94030447D01*
X131996253Y-94160632D01*
X132329905Y-94227000D01*
X132670095Y-94227000D01*
X133003747Y-94160632D01*
X133318041Y-94030447D01*
X133600898Y-93841448D01*
X133841448Y-93600898D01*
X134030447Y-93318041D01*
X134160632Y-93003747D01*
X134227000Y-92670095D01*
X134227000Y-92329905D01*
X145273000Y-92329905D01*
X145273000Y-92670095D01*
X145339368Y-93003747D01*
X145469553Y-93318041D01*
X145658552Y-93600898D01*
X145899102Y-93841448D01*
X146181959Y-94030447D01*
X146496253Y-94160632D01*
X146829905Y-94227000D01*
X147170095Y-94227000D01*
X147503747Y-94160632D01*
X147818041Y-94030447D01*
X148100898Y-93841448D01*
X148341448Y-93600898D01*
X148530447Y-93318041D01*
X148660632Y-93003747D01*
X148727000Y-92670095D01*
X148727000Y-92329905D01*
X148660632Y-91996253D01*
X148530447Y-91681959D01*
X148341448Y-91399102D01*
X148100898Y-91158552D01*
X147818041Y-90969553D01*
X147503747Y-90839368D01*
X147170095Y-90773000D01*
X146829905Y-90773000D01*
X146496253Y-90839368D01*
X146181959Y-90969553D01*
X145899102Y-91158552D01*
X145658552Y-91399102D01*
X145469553Y-91681959D01*
X145339368Y-91996253D01*
X145273000Y-92329905D01*
X134227000Y-92329905D01*
X134160632Y-91996253D01*
X134030447Y-91681959D01*
X133841448Y-91399102D01*
X133692346Y-91250000D01*
X133841448Y-91100898D01*
X134030447Y-90818041D01*
X134160632Y-90503747D01*
X134227000Y-90170095D01*
X134227000Y-89829905D01*
X134160632Y-89496253D01*
X134030447Y-89181959D01*
X133954148Y-89067769D01*
X134016554Y-89016554D01*
X134107403Y-88905853D01*
X134174910Y-88779557D01*
X134216480Y-88642517D01*
X134230517Y-88500000D01*
X134230517Y-87329905D01*
X145273000Y-87329905D01*
X145273000Y-87670095D01*
X145339368Y-88003747D01*
X145469553Y-88318041D01*
X145658552Y-88600898D01*
X145899102Y-88841448D01*
X146181959Y-89030447D01*
X146496253Y-89160632D01*
X146829905Y-89227000D01*
X147170095Y-89227000D01*
X147503747Y-89160632D01*
X147818041Y-89030447D01*
X148100898Y-88841448D01*
X148341448Y-88600898D01*
X148530447Y-88318041D01*
X148660632Y-88003747D01*
X148727000Y-87670095D01*
X148727000Y-87589000D01*
X154273000Y-87589000D01*
X154273000Y-87811000D01*
X154316310Y-88028734D01*
X154401266Y-88233835D01*
X154524602Y-88418421D01*
X154681579Y-88575398D01*
X154866165Y-88698734D01*
X154869221Y-88700000D01*
X154866165Y-88701266D01*
X154681579Y-88824602D01*
X154524602Y-88981579D01*
X154401266Y-89166165D01*
X154316310Y-89371266D01*
X154273000Y-89589000D01*
X154273000Y-89811000D01*
X154316310Y-90028734D01*
X154401266Y-90233835D01*
X154524602Y-90418421D01*
X154681579Y-90575398D01*
X154866165Y-90698734D01*
X154989932Y-90750000D01*
X154866165Y-90801266D01*
X154681579Y-90924602D01*
X154524602Y-91081579D01*
X154401266Y-91266165D01*
X154316310Y-91471266D01*
X154273000Y-91689000D01*
X154273000Y-91911000D01*
X154316310Y-92128734D01*
X154401266Y-92333835D01*
X154524602Y-92518421D01*
X154681579Y-92675398D01*
X154866165Y-92798734D01*
X155071266Y-92883690D01*
X155289000Y-92927000D01*
X155511000Y-92927000D01*
X155728734Y-92883690D01*
X155933835Y-92798734D01*
X156118421Y-92675398D01*
X156275398Y-92518421D01*
X156398734Y-92333835D01*
X156450000Y-92210068D01*
X156501266Y-92333835D01*
X156624602Y-92518421D01*
X156781579Y-92675398D01*
X156966165Y-92798734D01*
X157171266Y-92883690D01*
X157389000Y-92927000D01*
X157611000Y-92927000D01*
X157828734Y-92883690D01*
X158033835Y-92798734D01*
X158218421Y-92675398D01*
X158375398Y-92518421D01*
X158450000Y-92406771D01*
X158524602Y-92518421D01*
X158681579Y-92675398D01*
X158866165Y-92798734D01*
X159071266Y-92883690D01*
X159289000Y-92927000D01*
X159511000Y-92927000D01*
X159728734Y-92883690D01*
X159933835Y-92798734D01*
X160118421Y-92675398D01*
X160275398Y-92518421D01*
X160398734Y-92333835D01*
X160483690Y-92128734D01*
X160527000Y-91911000D01*
X160527000Y-91689000D01*
X160483690Y-91471266D01*
X160398734Y-91266165D01*
X160275398Y-91081579D01*
X160118421Y-90924602D01*
X159933835Y-90801266D01*
X159860068Y-90770711D01*
X160033835Y-90698734D01*
X160218421Y-90575398D01*
X160375398Y-90418421D01*
X160498734Y-90233835D01*
X160583690Y-90028734D01*
X160627000Y-89811000D01*
X160627000Y-89589000D01*
X160583690Y-89371266D01*
X160498734Y-89166165D01*
X160375398Y-88981579D01*
X160218421Y-88824602D01*
X160033835Y-88701266D01*
X160030779Y-88700000D01*
X160033835Y-88698734D01*
X160218421Y-88575398D01*
X160375398Y-88418421D01*
X160498734Y-88233835D01*
X160583690Y-88028734D01*
X160627000Y-87811000D01*
X160627000Y-87589000D01*
X160583690Y-87371266D01*
X160498734Y-87166165D01*
X160375398Y-86981579D01*
X160218421Y-86824602D01*
X160033835Y-86701266D01*
X159828734Y-86616310D01*
X159691438Y-86589000D01*
X161073000Y-86589000D01*
X161073000Y-86811000D01*
X161116310Y-87028734D01*
X161201266Y-87233835D01*
X161324602Y-87418421D01*
X161481579Y-87575398D01*
X161666165Y-87698734D01*
X161871266Y-87783690D01*
X162089000Y-87827000D01*
X162311000Y-87827000D01*
X162528734Y-87783690D01*
X162733835Y-87698734D01*
X162918421Y-87575398D01*
X163075398Y-87418421D01*
X163198734Y-87233835D01*
X163245859Y-87120066D01*
X163428734Y-87083690D01*
X163633835Y-86998734D01*
X163818421Y-86875398D01*
X163975398Y-86718421D01*
X164098734Y-86533835D01*
X164183690Y-86328734D01*
X164227000Y-86111000D01*
X164227000Y-85889000D01*
X164183690Y-85671266D01*
X164098734Y-85466165D01*
X163975398Y-85281579D01*
X163818421Y-85124602D01*
X163633835Y-85001266D01*
X163428734Y-84916310D01*
X163211000Y-84873000D01*
X162989000Y-84873000D01*
X162771266Y-84916310D01*
X162566165Y-85001266D01*
X162381579Y-85124602D01*
X162224602Y-85281579D01*
X162101266Y-85466165D01*
X162054141Y-85579934D01*
X161871266Y-85616310D01*
X161666165Y-85701266D01*
X161481579Y-85824602D01*
X161324602Y-85981579D01*
X161201266Y-86166165D01*
X161116310Y-86371266D01*
X161073000Y-86589000D01*
X159691438Y-86589000D01*
X159611000Y-86573000D01*
X159389000Y-86573000D01*
X159171266Y-86616310D01*
X158966165Y-86701266D01*
X158781579Y-86824602D01*
X158624602Y-86981579D01*
X158501266Y-87166165D01*
X158500000Y-87169221D01*
X158498734Y-87166165D01*
X158375398Y-86981579D01*
X158218421Y-86824602D01*
X158033835Y-86701266D01*
X157828734Y-86616310D01*
X157611000Y-86573000D01*
X157389000Y-86573000D01*
X157171266Y-86616310D01*
X156966165Y-86701266D01*
X156781579Y-86824602D01*
X156624602Y-86981579D01*
X156501266Y-87166165D01*
X156450000Y-87289932D01*
X156398734Y-87166165D01*
X156275398Y-86981579D01*
X156118421Y-86824602D01*
X155933835Y-86701266D01*
X155728734Y-86616310D01*
X155511000Y-86573000D01*
X155289000Y-86573000D01*
X155071266Y-86616310D01*
X154866165Y-86701266D01*
X154681579Y-86824602D01*
X154524602Y-86981579D01*
X154401266Y-87166165D01*
X154316310Y-87371266D01*
X154273000Y-87589000D01*
X148727000Y-87589000D01*
X148727000Y-87329905D01*
X148660632Y-86996253D01*
X148530447Y-86681959D01*
X148341448Y-86399102D01*
X148100898Y-86158552D01*
X147818041Y-85969553D01*
X147503747Y-85839368D01*
X147170095Y-85773000D01*
X146829905Y-85773000D01*
X146496253Y-85839368D01*
X146181959Y-85969553D01*
X145899102Y-86158552D01*
X145658552Y-86399102D01*
X145469553Y-86681959D01*
X145339368Y-86996253D01*
X145273000Y-87329905D01*
X134230517Y-87329905D01*
X134230517Y-86500000D01*
X134216480Y-86357483D01*
X134174910Y-86220443D01*
X134107403Y-86094147D01*
X134016554Y-85983446D01*
X133905853Y-85892597D01*
X133779557Y-85825090D01*
X133642517Y-85783520D01*
X133500000Y-85769483D01*
X131500000Y-85769483D01*
X131357483Y-85783520D01*
X131220443Y-85825090D01*
X131094147Y-85892597D01*
X130983446Y-85983446D01*
X130892597Y-86094147D01*
X130825090Y-86220443D01*
X130783520Y-86357483D01*
X130769483Y-86500000D01*
X127530779Y-86500000D01*
X127328734Y-86416310D01*
X127111000Y-86373000D01*
X126889000Y-86373000D01*
X126671266Y-86416310D01*
X126466165Y-86501266D01*
X126281579Y-86624602D01*
X126124602Y-86781579D01*
X126001266Y-86966165D01*
X125916310Y-87171266D01*
X125873000Y-87389000D01*
X113327000Y-87389000D01*
X113283690Y-87171266D01*
X113198734Y-86966165D01*
X113075398Y-86781579D01*
X112918421Y-86624602D01*
X112733835Y-86501266D01*
X112528734Y-86416310D01*
X112311000Y-86373000D01*
X112089000Y-86373000D01*
X111871266Y-86416310D01*
X111666165Y-86501266D01*
X111481579Y-86624602D01*
X111324602Y-86781579D01*
X111201266Y-86966165D01*
X111116310Y-87171266D01*
X111073000Y-87389000D01*
X109230585Y-87389000D01*
X109663918Y-84789000D01*
X111073000Y-84789000D01*
X111073000Y-85011000D01*
X111116310Y-85228734D01*
X111201266Y-85433835D01*
X111324602Y-85618421D01*
X111481579Y-85775398D01*
X111666165Y-85898734D01*
X111871266Y-85983690D01*
X112089000Y-86027000D01*
X112311000Y-86027000D01*
X112528734Y-85983690D01*
X112733835Y-85898734D01*
X112918421Y-85775398D01*
X113075398Y-85618421D01*
X113198734Y-85433835D01*
X113283690Y-85228734D01*
X113327000Y-85011000D01*
X113327000Y-84789000D01*
X113283690Y-84571266D01*
X113198734Y-84366165D01*
X113075398Y-84181579D01*
X112918421Y-84024602D01*
X112733835Y-83901266D01*
X112528734Y-83816310D01*
X112311000Y-83773000D01*
X112089000Y-83773000D01*
X111871266Y-83816310D01*
X111666165Y-83901266D01*
X111481579Y-84024602D01*
X111324602Y-84181579D01*
X111201266Y-84366165D01*
X111116310Y-84571266D01*
X111073000Y-84789000D01*
X109663918Y-84789000D01*
X110060368Y-82410304D01*
X110085500Y-82289000D01*
X111073000Y-82289000D01*
X111073000Y-82511000D01*
X111116310Y-82728734D01*
X111201266Y-82933835D01*
X111324602Y-83118421D01*
X111481579Y-83275398D01*
X111666165Y-83398734D01*
X111871266Y-83483690D01*
X112089000Y-83527000D01*
X112311000Y-83527000D01*
X112528734Y-83483690D01*
X112730778Y-83400000D01*
X137669483Y-83400000D01*
X137669483Y-85400000D01*
X137683520Y-85542517D01*
X137725090Y-85679557D01*
X137792597Y-85805853D01*
X137883446Y-85916554D01*
X137994147Y-86007403D01*
X138120443Y-86074910D01*
X138257483Y-86116480D01*
X138400000Y-86130517D01*
X141600000Y-86130517D01*
X141742517Y-86116480D01*
X141879557Y-86074910D01*
X142005853Y-86007403D01*
X142116554Y-85916554D01*
X142207403Y-85805853D01*
X142274910Y-85679557D01*
X142316480Y-85542517D01*
X142330517Y-85400000D01*
X142330517Y-83400000D01*
X142316480Y-83257483D01*
X142274910Y-83120443D01*
X142207403Y-82994147D01*
X142116554Y-82883446D01*
X142005853Y-82792597D01*
X141879557Y-82725090D01*
X141742517Y-82683520D01*
X141600000Y-82669483D01*
X138400000Y-82669483D01*
X138257483Y-82683520D01*
X138120443Y-82725090D01*
X137994147Y-82792597D01*
X137883446Y-82883446D01*
X137792597Y-82994147D01*
X137725090Y-83120443D01*
X137683520Y-83257483D01*
X137669483Y-83400000D01*
X112730778Y-83400000D01*
X112733835Y-83398734D01*
X112918421Y-83275398D01*
X113075398Y-83118421D01*
X113198734Y-82933835D01*
X113283690Y-82728734D01*
X113327000Y-82511000D01*
X113327000Y-82289000D01*
X113283690Y-82071266D01*
X113198734Y-81866165D01*
X113075398Y-81681579D01*
X112982819Y-81589000D01*
X121573000Y-81589000D01*
X121573000Y-81811000D01*
X121616310Y-82028734D01*
X121701266Y-82233835D01*
X121824602Y-82418421D01*
X121981579Y-82575398D01*
X122166165Y-82698734D01*
X122371266Y-82783690D01*
X122589000Y-82827000D01*
X122811000Y-82827000D01*
X123028734Y-82783690D01*
X123233835Y-82698734D01*
X123418421Y-82575398D01*
X123575398Y-82418421D01*
X123698734Y-82233835D01*
X123758726Y-82089000D01*
X150673000Y-82089000D01*
X150673000Y-82311000D01*
X150716310Y-82528734D01*
X150801266Y-82733835D01*
X150924602Y-82918421D01*
X151081579Y-83075398D01*
X151266165Y-83198734D01*
X151471266Y-83283690D01*
X151689000Y-83327000D01*
X151911000Y-83327000D01*
X152128734Y-83283690D01*
X152333835Y-83198734D01*
X152518421Y-83075398D01*
X152675398Y-82918421D01*
X152798734Y-82733835D01*
X152883690Y-82528734D01*
X152927000Y-82311000D01*
X152927000Y-82189000D01*
X164173000Y-82189000D01*
X164173000Y-82411000D01*
X164216310Y-82628734D01*
X164301266Y-82833835D01*
X164424602Y-83018421D01*
X164581579Y-83175398D01*
X164766165Y-83298734D01*
X164971266Y-83383690D01*
X165189000Y-83427000D01*
X165411000Y-83427000D01*
X165628734Y-83383690D01*
X165833835Y-83298734D01*
X166018421Y-83175398D01*
X166175398Y-83018421D01*
X166298734Y-82833835D01*
X166383690Y-82628734D01*
X166427000Y-82411000D01*
X166427000Y-82189000D01*
X166383690Y-81971266D01*
X166298734Y-81766165D01*
X166175398Y-81581579D01*
X166018421Y-81424602D01*
X165833835Y-81301266D01*
X165628734Y-81216310D01*
X165411000Y-81173000D01*
X165189000Y-81173000D01*
X164971266Y-81216310D01*
X164766165Y-81301266D01*
X164581579Y-81424602D01*
X164424602Y-81581579D01*
X164301266Y-81766165D01*
X164216310Y-81971266D01*
X164173000Y-82189000D01*
X152927000Y-82189000D01*
X152927000Y-82089000D01*
X152883690Y-81871266D01*
X152798734Y-81666165D01*
X152675398Y-81481579D01*
X152518421Y-81324602D01*
X152333835Y-81201266D01*
X152128734Y-81116310D01*
X151911000Y-81073000D01*
X151689000Y-81073000D01*
X151471266Y-81116310D01*
X151266165Y-81201266D01*
X151081579Y-81324602D01*
X150924602Y-81481579D01*
X150801266Y-81666165D01*
X150716310Y-81871266D01*
X150673000Y-82089000D01*
X123758726Y-82089000D01*
X123783690Y-82028734D01*
X123827000Y-81811000D01*
X123827000Y-81589000D01*
X123783690Y-81371266D01*
X123698734Y-81166165D01*
X123575398Y-80981579D01*
X123418421Y-80824602D01*
X123233835Y-80701266D01*
X123028734Y-80616310D01*
X122811000Y-80573000D01*
X122589000Y-80573000D01*
X122371266Y-80616310D01*
X122166165Y-80701266D01*
X121981579Y-80824602D01*
X121824602Y-80981579D01*
X121701266Y-81166165D01*
X121616310Y-81371266D01*
X121573000Y-81589000D01*
X112982819Y-81589000D01*
X112918421Y-81524602D01*
X112733835Y-81401266D01*
X112528734Y-81316310D01*
X112311000Y-81273000D01*
X112089000Y-81273000D01*
X111871266Y-81316310D01*
X111666165Y-81401266D01*
X111481579Y-81524602D01*
X111324602Y-81681579D01*
X111201266Y-81866165D01*
X111116310Y-82071266D01*
X111073000Y-82289000D01*
X110085500Y-82289000D01*
X110138265Y-82034333D01*
X110245322Y-81665644D01*
X111007401Y-79379408D01*
X111129062Y-79053446D01*
X111273510Y-78736959D01*
X111597489Y-78089000D01*
X141273000Y-78089000D01*
X141273000Y-78311000D01*
X141316310Y-78528734D01*
X141401266Y-78733835D01*
X141524602Y-78918421D01*
X141681579Y-79075398D01*
X141866165Y-79198734D01*
X142071266Y-79283690D01*
X142289000Y-79327000D01*
X142511000Y-79327000D01*
X142728734Y-79283690D01*
X142933835Y-79198734D01*
X143118421Y-79075398D01*
X143275398Y-78918421D01*
X143398734Y-78733835D01*
X143483690Y-78528734D01*
X143527000Y-78311000D01*
X143527000Y-78089000D01*
X143506916Y-77988030D01*
X143528734Y-77983690D01*
X143733835Y-77898734D01*
X143918421Y-77775398D01*
X144075398Y-77618421D01*
X144198734Y-77433835D01*
X144283690Y-77228734D01*
X144327000Y-77011000D01*
X144327000Y-76789000D01*
X144292555Y-76615833D01*
X144333835Y-76598734D01*
X144518421Y-76475398D01*
X144675398Y-76318421D01*
X144798734Y-76133835D01*
X144883690Y-75928734D01*
X144927000Y-75711000D01*
X144927000Y-75489000D01*
X144883690Y-75271266D01*
X144798734Y-75066165D01*
X144675398Y-74881579D01*
X144518421Y-74724602D01*
X144333835Y-74601266D01*
X144128734Y-74516310D01*
X143911000Y-74473000D01*
X143689000Y-74473000D01*
X143471266Y-74516310D01*
X143266165Y-74601266D01*
X143081579Y-74724602D01*
X142924602Y-74881579D01*
X142801266Y-75066165D01*
X142716310Y-75271266D01*
X142673000Y-75489000D01*
X142673000Y-75711000D01*
X142707445Y-75884167D01*
X142666165Y-75901266D01*
X142481579Y-76024602D01*
X142324602Y-76181579D01*
X142201266Y-76366165D01*
X142116310Y-76571266D01*
X142073000Y-76789000D01*
X142073000Y-77011000D01*
X142093084Y-77111970D01*
X142071266Y-77116310D01*
X141866165Y-77201266D01*
X141681579Y-77324602D01*
X141524602Y-77481579D01*
X141401266Y-77666165D01*
X141316310Y-77871266D01*
X141273000Y-78089000D01*
X111597489Y-78089000D01*
X113910680Y-73462620D01*
X114125404Y-73077490D01*
X114373817Y-72713243D01*
X116887046Y-69362272D01*
X117105530Y-69091526D01*
X117342645Y-68836961D01*
X118836961Y-67342645D01*
X119091526Y-67105530D01*
X119362272Y-66887046D01*
X122713243Y-64373817D01*
X122787161Y-64323405D01*
X132873000Y-64323405D01*
X132873000Y-65436594D01*
X132889668Y-65605830D01*
X132955541Y-65822983D01*
X133062512Y-66023113D01*
X133206472Y-66198528D01*
X133381886Y-66342488D01*
X133582016Y-66449459D01*
X133799169Y-66515332D01*
X134025000Y-66537574D01*
X134250830Y-66515332D01*
X134467983Y-66449459D01*
X134668113Y-66342488D01*
X134843528Y-66198528D01*
X134987488Y-66023114D01*
X135094459Y-65822984D01*
X135160332Y-65605831D01*
X135177000Y-65436595D01*
X135177000Y-65333628D01*
X135197078Y-65434568D01*
X135283542Y-65643308D01*
X135409067Y-65831170D01*
X135568830Y-65990933D01*
X135756692Y-66116458D01*
X135965432Y-66202922D01*
X136187030Y-66247000D01*
X136412970Y-66247000D01*
X136634568Y-66202922D01*
X136843308Y-66116458D01*
X136950000Y-66045169D01*
X137056692Y-66116458D01*
X137265432Y-66202922D01*
X137487030Y-66247000D01*
X137712970Y-66247000D01*
X137934568Y-66202922D01*
X138092806Y-66137377D01*
X138200443Y-66194910D01*
X138337483Y-66236480D01*
X138480000Y-66250517D01*
X139320000Y-66250517D01*
X139462517Y-66236480D01*
X139599557Y-66194910D01*
X139725853Y-66127403D01*
X139836554Y-66036554D01*
X139927403Y-65925853D01*
X139994910Y-65799557D01*
X140036480Y-65662517D01*
X140041476Y-65611791D01*
X140105541Y-65822983D01*
X140212512Y-66023113D01*
X140356472Y-66198528D01*
X140531886Y-66342488D01*
X140732016Y-66449459D01*
X140949169Y-66515332D01*
X141175000Y-66537574D01*
X141400830Y-66515332D01*
X141617983Y-66449459D01*
X141818113Y-66342488D01*
X141993528Y-66198528D01*
X142137488Y-66023114D01*
X142244459Y-65822984D01*
X142310332Y-65605831D01*
X142327000Y-65436595D01*
X142327000Y-64323405D01*
X142310332Y-64154169D01*
X142244459Y-63937016D01*
X142137488Y-63736886D01*
X141993528Y-63561472D01*
X141818114Y-63417512D01*
X141617984Y-63310541D01*
X141400831Y-63244668D01*
X141175000Y-63222426D01*
X140949170Y-63244668D01*
X140732017Y-63310541D01*
X140531887Y-63417512D01*
X140356473Y-63561472D01*
X140212513Y-63736886D01*
X140105541Y-63937016D01*
X140039668Y-64154169D01*
X140023000Y-64323405D01*
X140023000Y-64493045D01*
X139994910Y-64400443D01*
X139927403Y-64274147D01*
X139836554Y-64163446D01*
X139725853Y-64072597D01*
X139599557Y-64005090D01*
X139462517Y-63963520D01*
X139390921Y-63956468D01*
X139352922Y-63765432D01*
X139266458Y-63556692D01*
X139140933Y-63368830D01*
X138981170Y-63209067D01*
X138793308Y-63083542D01*
X138584568Y-62997078D01*
X138362970Y-62953000D01*
X138137030Y-62953000D01*
X137915432Y-62997078D01*
X137706692Y-63083542D01*
X137600000Y-63154831D01*
X137493308Y-63083542D01*
X137284568Y-62997078D01*
X137062970Y-62953000D01*
X136837030Y-62953000D01*
X136615432Y-62997078D01*
X136406692Y-63083542D01*
X136218830Y-63209067D01*
X136059067Y-63368830D01*
X135933542Y-63556692D01*
X135847078Y-63765432D01*
X135803000Y-63987030D01*
X135803000Y-64064360D01*
X135756692Y-64083542D01*
X135568830Y-64209067D01*
X135409067Y-64368830D01*
X135283542Y-64556692D01*
X135197078Y-64765432D01*
X135177000Y-64866372D01*
X135177000Y-64323405D01*
X135160332Y-64154169D01*
X135094459Y-63937016D01*
X134987488Y-63736886D01*
X134843528Y-63561472D01*
X134668114Y-63417512D01*
X134467984Y-63310541D01*
X134250831Y-63244668D01*
X134025000Y-63222426D01*
X133799170Y-63244668D01*
X133582017Y-63310541D01*
X133381887Y-63417512D01*
X133206473Y-63561472D01*
X133062513Y-63736886D01*
X132955541Y-63937016D01*
X132889668Y-64154169D01*
X132873000Y-64323405D01*
X122787161Y-64323405D01*
X123077490Y-64125404D01*
X123462620Y-63910680D01*
X128736959Y-61273510D01*
X129053446Y-61129062D01*
X129379408Y-61007401D01*
X131665644Y-60245322D01*
X132034333Y-60138265D01*
X132410304Y-60060368D01*
X137610113Y-59193733D01*
X138011890Y-59143713D01*
X138416441Y-59127000D01*
X139684754Y-59127000D01*
X140297064Y-59165121D01*
%TA.AperFunction,Conductor*%
D20*
G36*
X140297064Y-59165121D02*
G01*
X147280774Y-60038085D01*
X147732558Y-60116153D01*
X148172206Y-60235288D01*
X148601601Y-60396000D01*
X154525349Y-62934749D01*
X154929432Y-63130278D01*
X155313936Y-63361926D01*
X160323640Y-66701728D01*
X160702355Y-66981357D01*
X161050245Y-67293966D01*
X161368631Y-67640737D01*
X165529354Y-72633604D01*
X165759821Y-72932885D01*
X165965221Y-73246945D01*
X166147028Y-73578036D01*
X168726490Y-78736959D01*
X168870938Y-79053446D01*
X168992599Y-79379408D01*
X169779833Y-81741110D01*
X169937287Y-82334013D01*
X170777754Y-86536350D01*
X170849132Y-87014946D01*
X170873000Y-87498225D01*
X170873000Y-91583559D01*
X170856287Y-91988110D01*
X170806267Y-92389887D01*
X169939632Y-97589696D01*
X169861735Y-97965667D01*
X169754678Y-98334356D01*
X168992599Y-100620592D01*
X168870938Y-100946554D01*
X168726490Y-101263041D01*
X168555890Y-101604242D01*
X168498696Y-101466165D01*
X168375360Y-101281579D01*
X168218383Y-101124602D01*
X168033797Y-101001266D01*
X167828696Y-100916310D01*
X167610962Y-100873000D01*
X167388962Y-100873000D01*
X167171228Y-100916310D01*
X166966127Y-101001266D01*
X166781541Y-101124602D01*
X166624564Y-101281579D01*
X166501228Y-101466165D01*
X166416272Y-101671266D01*
X166372962Y-101889000D01*
X166372962Y-102111000D01*
X166416272Y-102328734D01*
X166478190Y-102478217D01*
X166328734Y-102416310D01*
X166111000Y-102373000D01*
X165889000Y-102373000D01*
X165671266Y-102416310D01*
X165466165Y-102501266D01*
X165281579Y-102624602D01*
X165124602Y-102781579D01*
X165001266Y-102966165D01*
X164916310Y-103171266D01*
X164873000Y-103389000D01*
X164873000Y-103611000D01*
X164916310Y-103828734D01*
X165001266Y-104033835D01*
X165124602Y-104218421D01*
X165281579Y-104375398D01*
X165466165Y-104498734D01*
X165671266Y-104583690D01*
X165889000Y-104627000D01*
X166111000Y-104627000D01*
X166328734Y-104583690D01*
X166533835Y-104498734D01*
X166718421Y-104375398D01*
X166875398Y-104218421D01*
X166998734Y-104033835D01*
X167083690Y-103828734D01*
X167127000Y-103611000D01*
X167127000Y-103389000D01*
X167083690Y-103171266D01*
X167021772Y-103021783D01*
X167171228Y-103083690D01*
X167388962Y-103127000D01*
X167610962Y-103127000D01*
X167814781Y-103086458D01*
X166089320Y-106537380D01*
X165874596Y-106922510D01*
X165626183Y-107286757D01*
X163112954Y-110637728D01*
X162894470Y-110908474D01*
X162657355Y-111163039D01*
X161163039Y-112657355D01*
X160908474Y-112894470D01*
X160637728Y-113112954D01*
X157286757Y-115626183D01*
X156922510Y-115874596D01*
X156739200Y-115976798D01*
X156696401Y-115873471D01*
X156534761Y-115631560D01*
X156329033Y-115425832D01*
X156087122Y-115264192D01*
X155818325Y-115152853D01*
X155532972Y-115096093D01*
X155242028Y-115096093D01*
X154956675Y-115152853D01*
X154687878Y-115264192D01*
X154445967Y-115425832D01*
X154240239Y-115631560D01*
X154078599Y-115873471D01*
X153967260Y-116142268D01*
X153910500Y-116427621D01*
X153910500Y-116718565D01*
X153967260Y-117003918D01*
X154078599Y-117272715D01*
X154101636Y-117307192D01*
X151263041Y-118726490D01*
X150946554Y-118870938D01*
X150620592Y-118992599D01*
X148334356Y-119754678D01*
X147965667Y-119861735D01*
X147589696Y-119939632D01*
X146995508Y-120038663D01*
X146998734Y-120033835D01*
X147083690Y-119828734D01*
X147127000Y-119611000D01*
X147127000Y-119389000D01*
X147083690Y-119171266D01*
X146998734Y-118966165D01*
X146875398Y-118781579D01*
X146718421Y-118624602D01*
X146533835Y-118501266D01*
X146328734Y-118416310D01*
X146111000Y-118373000D01*
X145889000Y-118373000D01*
X145671266Y-118416310D01*
X145466165Y-118501266D01*
X145281579Y-118624602D01*
X145124602Y-118781579D01*
X145001266Y-118966165D01*
X144916310Y-119171266D01*
X144873000Y-119389000D01*
X144873000Y-119611000D01*
X144916310Y-119828734D01*
X145001266Y-120033835D01*
X145124602Y-120218421D01*
X145237796Y-120331615D01*
X142389887Y-120806267D01*
X141988110Y-120856287D01*
X141583559Y-120873000D01*
X140315246Y-120873000D01*
X139702936Y-120834879D01*
X132719226Y-119961915D01*
X132267442Y-119883847D01*
X131827794Y-119764712D01*
X131398399Y-119604000D01*
X128882246Y-118525649D01*
X128866623Y-118487931D01*
X128644793Y-118155939D01*
X128362456Y-117873602D01*
X128030464Y-117651772D01*
X127661573Y-117498972D01*
X127269961Y-117421076D01*
X126870677Y-117421076D01*
X126484257Y-117497939D01*
X125474651Y-117065251D01*
X125241729Y-116952544D01*
X125298932Y-116931014D01*
X125420544Y-116855391D01*
X125525065Y-116757496D01*
X125608479Y-116641092D01*
X126677784Y-114789000D01*
X144873000Y-114789000D01*
X144873000Y-115011000D01*
X144916310Y-115228734D01*
X145001266Y-115433835D01*
X145124602Y-115618421D01*
X145281579Y-115775398D01*
X145466165Y-115898734D01*
X145671266Y-115983690D01*
X145889000Y-116027000D01*
X146111000Y-116027000D01*
X146328734Y-115983690D01*
X146533835Y-115898734D01*
X146718421Y-115775398D01*
X146875398Y-115618421D01*
X146998734Y-115433835D01*
X147083690Y-115228734D01*
X147127000Y-115011000D01*
X147127000Y-114789000D01*
X147083690Y-114571266D01*
X146998734Y-114366165D01*
X146875398Y-114181579D01*
X146718421Y-114024602D01*
X146533835Y-113901266D01*
X146328734Y-113816310D01*
X146111000Y-113773000D01*
X145889000Y-113773000D01*
X145671266Y-113816310D01*
X145466165Y-113901266D01*
X145281579Y-114024602D01*
X145124602Y-114181579D01*
X145001266Y-114366165D01*
X144916310Y-114571266D01*
X144873000Y-114789000D01*
X126677784Y-114789000D01*
X126908479Y-114389426D01*
X126967582Y-114258984D01*
X127000100Y-114119519D01*
X127004786Y-113976389D01*
X126981458Y-113835095D01*
X126931014Y-113701068D01*
X126855391Y-113579456D01*
X126757496Y-113474935D01*
X126641092Y-113391521D01*
X124389426Y-112091521D01*
X124383863Y-112089000D01*
X143573000Y-112089000D01*
X143573000Y-112311000D01*
X143616310Y-112528734D01*
X143701266Y-112733835D01*
X143824602Y-112918421D01*
X143981579Y-113075398D01*
X144166165Y-113198734D01*
X144371266Y-113283690D01*
X144589000Y-113327000D01*
X144811000Y-113327000D01*
X145028734Y-113283690D01*
X145150000Y-113233460D01*
X145271266Y-113283690D01*
X145489000Y-113327000D01*
X145711000Y-113327000D01*
X145928734Y-113283690D01*
X146050000Y-113233460D01*
X146171266Y-113283690D01*
X146389000Y-113327000D01*
X146611000Y-113327000D01*
X146828734Y-113283690D01*
X146950000Y-113233460D01*
X147071266Y-113283690D01*
X147289000Y-113327000D01*
X147511000Y-113327000D01*
X147728734Y-113283690D01*
X147933835Y-113198734D01*
X148118421Y-113075398D01*
X148275398Y-112918421D01*
X148398734Y-112733835D01*
X148483690Y-112528734D01*
X148527000Y-112311000D01*
X148527000Y-112089000D01*
X148483690Y-111871266D01*
X148398734Y-111666165D01*
X148275398Y-111481579D01*
X148118421Y-111324602D01*
X147933835Y-111201266D01*
X147728734Y-111116310D01*
X147511000Y-111073000D01*
X147289000Y-111073000D01*
X147071266Y-111116310D01*
X146950000Y-111166540D01*
X146828734Y-111116310D01*
X146611000Y-111073000D01*
X146389000Y-111073000D01*
X146171266Y-111116310D01*
X146050000Y-111166540D01*
X145928734Y-111116310D01*
X145711000Y-111073000D01*
X145489000Y-111073000D01*
X145271266Y-111116310D01*
X145150000Y-111166540D01*
X145028734Y-111116310D01*
X144811000Y-111073000D01*
X144589000Y-111073000D01*
X144371266Y-111116310D01*
X144166165Y-111201266D01*
X143981579Y-111324602D01*
X143824602Y-111481579D01*
X143701266Y-111666165D01*
X143616310Y-111871266D01*
X143573000Y-112089000D01*
X124383863Y-112089000D01*
X124258984Y-112032418D01*
X124119519Y-111999900D01*
X123976389Y-111995214D01*
X123835095Y-112018542D01*
X123701068Y-112068986D01*
X123579456Y-112144609D01*
X123474935Y-112242504D01*
X123391521Y-112358908D01*
X122091521Y-114610574D01*
X122032418Y-114741016D01*
X122006596Y-114851762D01*
X119676360Y-113298272D01*
X119297645Y-113018643D01*
X118949755Y-112706034D01*
X118631369Y-112359263D01*
X116156150Y-109389000D01*
X130073000Y-109389000D01*
X130073000Y-109611000D01*
X130116310Y-109828734D01*
X130201266Y-110033835D01*
X130324602Y-110218421D01*
X130481579Y-110375398D01*
X130666165Y-110498734D01*
X130871266Y-110583690D01*
X131089000Y-110627000D01*
X131311000Y-110627000D01*
X131528734Y-110583690D01*
X131733835Y-110498734D01*
X131918421Y-110375398D01*
X132075398Y-110218421D01*
X132198734Y-110033835D01*
X132283690Y-109828734D01*
X132327000Y-109611000D01*
X132327000Y-109389000D01*
X134673000Y-109389000D01*
X134673000Y-109611000D01*
X134716310Y-109828734D01*
X134801266Y-110033835D01*
X134924602Y-110218421D01*
X135081579Y-110375398D01*
X135266165Y-110498734D01*
X135471266Y-110583690D01*
X135689000Y-110627000D01*
X135911000Y-110627000D01*
X136128734Y-110583690D01*
X136333835Y-110498734D01*
X136518421Y-110375398D01*
X136675398Y-110218421D01*
X136798734Y-110033835D01*
X136883690Y-109828734D01*
X136927000Y-109611000D01*
X136927000Y-109389000D01*
X136883690Y-109171266D01*
X136798734Y-108966165D01*
X136675398Y-108781579D01*
X136518421Y-108624602D01*
X136333835Y-108501266D01*
X136128734Y-108416310D01*
X135911000Y-108373000D01*
X135689000Y-108373000D01*
X135471266Y-108416310D01*
X135266165Y-108501266D01*
X135081579Y-108624602D01*
X134924602Y-108781579D01*
X134801266Y-108966165D01*
X134716310Y-109171266D01*
X134673000Y-109389000D01*
X132327000Y-109389000D01*
X132283690Y-109171266D01*
X132198734Y-108966165D01*
X132075398Y-108781579D01*
X131918421Y-108624602D01*
X131733835Y-108501266D01*
X131528734Y-108416310D01*
X131311000Y-108373000D01*
X131089000Y-108373000D01*
X130871266Y-108416310D01*
X130666165Y-108501266D01*
X130481579Y-108624602D01*
X130324602Y-108781579D01*
X130201266Y-108966165D01*
X130116310Y-109171266D01*
X130073000Y-109389000D01*
X116156150Y-109389000D01*
X114470646Y-107366396D01*
X114240179Y-107067115D01*
X114034779Y-106753055D01*
X113852972Y-106421964D01*
X112936490Y-104589000D01*
X116373000Y-104589000D01*
X116373000Y-104811000D01*
X116416310Y-105028734D01*
X116501266Y-105233835D01*
X116624602Y-105418421D01*
X116781579Y-105575398D01*
X116966165Y-105698734D01*
X117171266Y-105783690D01*
X117389000Y-105827000D01*
X117611000Y-105827000D01*
X117828734Y-105783690D01*
X118033835Y-105698734D01*
X118218421Y-105575398D01*
X118375398Y-105418421D01*
X118498734Y-105233835D01*
X118583690Y-105028734D01*
X118627000Y-104811000D01*
X118627000Y-104589000D01*
X120973000Y-104589000D01*
X120973000Y-104811000D01*
X121016310Y-105028734D01*
X121101266Y-105233835D01*
X121224602Y-105418421D01*
X121381579Y-105575398D01*
X121566165Y-105698734D01*
X121771266Y-105783690D01*
X121989000Y-105827000D01*
X122211000Y-105827000D01*
X122428734Y-105783690D01*
X122633835Y-105698734D01*
X122818421Y-105575398D01*
X122904819Y-105489000D01*
X132273000Y-105489000D01*
X132273000Y-105711000D01*
X132316310Y-105928734D01*
X132401266Y-106133835D01*
X132524602Y-106318421D01*
X132681579Y-106475398D01*
X132866165Y-106598734D01*
X132989932Y-106650000D01*
X132866165Y-106701266D01*
X132681579Y-106824602D01*
X132524602Y-106981579D01*
X132401266Y-107166165D01*
X132316310Y-107371266D01*
X132273000Y-107589000D01*
X132273000Y-107811000D01*
X132316310Y-108028734D01*
X132401266Y-108233835D01*
X132524602Y-108418421D01*
X132681579Y-108575398D01*
X132866165Y-108698734D01*
X133071266Y-108783690D01*
X133289000Y-108827000D01*
X133511000Y-108827000D01*
X133728734Y-108783690D01*
X133933835Y-108698734D01*
X134118421Y-108575398D01*
X134275398Y-108418421D01*
X134398734Y-108233835D01*
X134483690Y-108028734D01*
X134491593Y-107989000D01*
X143573000Y-107989000D01*
X143573000Y-108211000D01*
X143616310Y-108428734D01*
X143701266Y-108633835D01*
X143824602Y-108818421D01*
X143981579Y-108975398D01*
X144166165Y-109098734D01*
X144371266Y-109183690D01*
X144589000Y-109227000D01*
X144811000Y-109227000D01*
X145028734Y-109183690D01*
X145150000Y-109133460D01*
X145271266Y-109183690D01*
X145489000Y-109227000D01*
X145711000Y-109227000D01*
X145928734Y-109183690D01*
X146050000Y-109133460D01*
X146171266Y-109183690D01*
X146389000Y-109227000D01*
X146611000Y-109227000D01*
X146828734Y-109183690D01*
X147000000Y-109112749D01*
X147171266Y-109183690D01*
X147389000Y-109227000D01*
X147611000Y-109227000D01*
X147828734Y-109183690D01*
X148033835Y-109098734D01*
X148218421Y-108975398D01*
X148375398Y-108818421D01*
X148498734Y-108633835D01*
X148583690Y-108428734D01*
X148627000Y-108211000D01*
X148627000Y-107989000D01*
X148583690Y-107771266D01*
X148498734Y-107566165D01*
X148375398Y-107381579D01*
X148218421Y-107224602D01*
X148033835Y-107101266D01*
X147828734Y-107016310D01*
X147611000Y-106973000D01*
X147389000Y-106973000D01*
X147171266Y-107016310D01*
X147000000Y-107087251D01*
X146828734Y-107016310D01*
X146611000Y-106973000D01*
X146389000Y-106973000D01*
X146171266Y-107016310D01*
X146050000Y-107066540D01*
X145928734Y-107016310D01*
X145711000Y-106973000D01*
X145489000Y-106973000D01*
X145271266Y-107016310D01*
X145150000Y-107066540D01*
X145028734Y-107016310D01*
X144811000Y-106973000D01*
X144589000Y-106973000D01*
X144371266Y-107016310D01*
X144166165Y-107101266D01*
X143981579Y-107224602D01*
X143824602Y-107381579D01*
X143701266Y-107566165D01*
X143616310Y-107771266D01*
X143573000Y-107989000D01*
X134491593Y-107989000D01*
X134527000Y-107811000D01*
X134527000Y-107589000D01*
X134483690Y-107371266D01*
X134398734Y-107166165D01*
X134275398Y-106981579D01*
X134118421Y-106824602D01*
X133933835Y-106701266D01*
X133810068Y-106650000D01*
X133933835Y-106598734D01*
X134118421Y-106475398D01*
X134275398Y-106318421D01*
X134398734Y-106133835D01*
X134458726Y-105989000D01*
X155673000Y-105989000D01*
X155673000Y-106211000D01*
X155716310Y-106428734D01*
X155801266Y-106633835D01*
X155924602Y-106818421D01*
X156081579Y-106975398D01*
X156266165Y-107098734D01*
X156471266Y-107183690D01*
X156689000Y-107227000D01*
X156911000Y-107227000D01*
X157102038Y-107189000D01*
X157873000Y-107189000D01*
X157873000Y-107411000D01*
X157916310Y-107628734D01*
X158001266Y-107833835D01*
X158124602Y-108018421D01*
X158281579Y-108175398D01*
X158466165Y-108298734D01*
X158671266Y-108383690D01*
X158889000Y-108427000D01*
X159111000Y-108427000D01*
X159328734Y-108383690D01*
X159533835Y-108298734D01*
X159718421Y-108175398D01*
X159875398Y-108018421D01*
X159998734Y-107833835D01*
X160083690Y-107628734D01*
X160127000Y-107411000D01*
X160127000Y-107189000D01*
X160083690Y-106971266D01*
X159998734Y-106766165D01*
X159875398Y-106581579D01*
X159718421Y-106424602D01*
X159533835Y-106301266D01*
X159328734Y-106216310D01*
X159111000Y-106173000D01*
X158889000Y-106173000D01*
X158671266Y-106216310D01*
X158466165Y-106301266D01*
X158281579Y-106424602D01*
X158124602Y-106581579D01*
X158001266Y-106766165D01*
X157916310Y-106971266D01*
X157873000Y-107189000D01*
X157102038Y-107189000D01*
X157128734Y-107183690D01*
X157333835Y-107098734D01*
X157518421Y-106975398D01*
X157675398Y-106818421D01*
X157798734Y-106633835D01*
X157883690Y-106428734D01*
X157927000Y-106211000D01*
X157927000Y-105989000D01*
X157883690Y-105771266D01*
X157798734Y-105566165D01*
X157675398Y-105381579D01*
X157518421Y-105224602D01*
X157333835Y-105101266D01*
X157128734Y-105016310D01*
X156911000Y-104973000D01*
X156689000Y-104973000D01*
X156471266Y-105016310D01*
X156266165Y-105101266D01*
X156081579Y-105224602D01*
X155924602Y-105381579D01*
X155801266Y-105566165D01*
X155716310Y-105771266D01*
X155673000Y-105989000D01*
X134458726Y-105989000D01*
X134483690Y-105928734D01*
X134527000Y-105711000D01*
X134527000Y-105489000D01*
X134483690Y-105271266D01*
X134398734Y-105066165D01*
X134275398Y-104881579D01*
X134118421Y-104724602D01*
X133933835Y-104601266D01*
X133728734Y-104516310D01*
X133511000Y-104473000D01*
X133289000Y-104473000D01*
X133071266Y-104516310D01*
X132866165Y-104601266D01*
X132681579Y-104724602D01*
X132524602Y-104881579D01*
X132401266Y-105066165D01*
X132316310Y-105271266D01*
X132273000Y-105489000D01*
X122904819Y-105489000D01*
X122975398Y-105418421D01*
X123098734Y-105233835D01*
X123183690Y-105028734D01*
X123227000Y-104811000D01*
X123227000Y-104589000D01*
X123183690Y-104371266D01*
X123108193Y-104189000D01*
X130073000Y-104189000D01*
X130073000Y-104411000D01*
X130116310Y-104628734D01*
X130201266Y-104833835D01*
X130324602Y-105018421D01*
X130481579Y-105175398D01*
X130666165Y-105298734D01*
X130871266Y-105383690D01*
X131089000Y-105427000D01*
X131311000Y-105427000D01*
X131528734Y-105383690D01*
X131733835Y-105298734D01*
X131918421Y-105175398D01*
X132075398Y-105018421D01*
X132198734Y-104833835D01*
X132283690Y-104628734D01*
X132327000Y-104411000D01*
X132327000Y-104189000D01*
X134673000Y-104189000D01*
X134673000Y-104411000D01*
X134716310Y-104628734D01*
X134801266Y-104833835D01*
X134924602Y-105018421D01*
X135081579Y-105175398D01*
X135266165Y-105298734D01*
X135471266Y-105383690D01*
X135689000Y-105427000D01*
X135911000Y-105427000D01*
X136128734Y-105383690D01*
X136333835Y-105298734D01*
X136518421Y-105175398D01*
X136675398Y-105018421D01*
X136798734Y-104833835D01*
X136858726Y-104689000D01*
X138873000Y-104689000D01*
X138873000Y-104911000D01*
X138916310Y-105128734D01*
X139001266Y-105333835D01*
X139124602Y-105518421D01*
X139281579Y-105675398D01*
X139466165Y-105798734D01*
X139671266Y-105883690D01*
X139889000Y-105927000D01*
X140111000Y-105927000D01*
X140328734Y-105883690D01*
X140533835Y-105798734D01*
X140718421Y-105675398D01*
X140875398Y-105518421D01*
X140998734Y-105333835D01*
X141083690Y-105128734D01*
X141127000Y-104911000D01*
X141127000Y-104689000D01*
X141083690Y-104471266D01*
X141018090Y-104312895D01*
X141089000Y-104327000D01*
X141311000Y-104327000D01*
X141528734Y-104283690D01*
X141733835Y-104198734D01*
X141918421Y-104075398D01*
X142075398Y-103918421D01*
X142198734Y-103733835D01*
X142283690Y-103528734D01*
X142327000Y-103311000D01*
X142327000Y-103089000D01*
X142283690Y-102871266D01*
X142198734Y-102666165D01*
X142075398Y-102481579D01*
X141918421Y-102324602D01*
X141733835Y-102201266D01*
X141528734Y-102116310D01*
X141311000Y-102073000D01*
X141089000Y-102073000D01*
X140871266Y-102116310D01*
X140666165Y-102201266D01*
X140481579Y-102324602D01*
X140324602Y-102481579D01*
X140201266Y-102666165D01*
X140116310Y-102871266D01*
X140073000Y-103089000D01*
X140073000Y-103311000D01*
X140116310Y-103528734D01*
X140181910Y-103687105D01*
X140111000Y-103673000D01*
X139889000Y-103673000D01*
X139671266Y-103716310D01*
X139466165Y-103801266D01*
X139281579Y-103924602D01*
X139124602Y-104081579D01*
X139001266Y-104266165D01*
X138916310Y-104471266D01*
X138873000Y-104689000D01*
X136858726Y-104689000D01*
X136883690Y-104628734D01*
X136927000Y-104411000D01*
X136927000Y-104189000D01*
X136883690Y-103971266D01*
X136798734Y-103766165D01*
X136675398Y-103581579D01*
X136518421Y-103424602D01*
X136333835Y-103301266D01*
X136128734Y-103216310D01*
X135911000Y-103173000D01*
X135689000Y-103173000D01*
X135471266Y-103216310D01*
X135266165Y-103301266D01*
X135081579Y-103424602D01*
X134924602Y-103581579D01*
X134801266Y-103766165D01*
X134716310Y-103971266D01*
X134673000Y-104189000D01*
X132327000Y-104189000D01*
X132283690Y-103971266D01*
X132198734Y-103766165D01*
X132075398Y-103581579D01*
X131918421Y-103424602D01*
X131733835Y-103301266D01*
X131528734Y-103216310D01*
X131311000Y-103173000D01*
X131089000Y-103173000D01*
X130871266Y-103216310D01*
X130666165Y-103301266D01*
X130481579Y-103424602D01*
X130324602Y-103581579D01*
X130201266Y-103766165D01*
X130116310Y-103971266D01*
X130073000Y-104189000D01*
X123108193Y-104189000D01*
X123098734Y-104166165D01*
X122975398Y-103981579D01*
X122818421Y-103824602D01*
X122633835Y-103701266D01*
X122428734Y-103616310D01*
X122211000Y-103573000D01*
X121989000Y-103573000D01*
X121771266Y-103616310D01*
X121566165Y-103701266D01*
X121381579Y-103824602D01*
X121224602Y-103981579D01*
X121101266Y-104166165D01*
X121016310Y-104371266D01*
X120973000Y-104589000D01*
X118627000Y-104589000D01*
X118583690Y-104371266D01*
X118498734Y-104166165D01*
X118375398Y-103981579D01*
X118218421Y-103824602D01*
X118033835Y-103701266D01*
X117828734Y-103616310D01*
X117611000Y-103573000D01*
X117389000Y-103573000D01*
X117171266Y-103616310D01*
X116966165Y-103701266D01*
X116781579Y-103824602D01*
X116624602Y-103981579D01*
X116501266Y-104166165D01*
X116416310Y-104371266D01*
X116373000Y-104589000D01*
X112936490Y-104589000D01*
X111273510Y-101263041D01*
X111194076Y-101089000D01*
X118573000Y-101089000D01*
X118573000Y-101311000D01*
X118616310Y-101528734D01*
X118701266Y-101733835D01*
X118824602Y-101918421D01*
X118981579Y-102075398D01*
X119166165Y-102198734D01*
X119169221Y-102200000D01*
X119166165Y-102201266D01*
X118981579Y-102324602D01*
X118824602Y-102481579D01*
X118701266Y-102666165D01*
X118616310Y-102871266D01*
X118573000Y-103089000D01*
X118573000Y-103311000D01*
X118616310Y-103528734D01*
X118701266Y-103733835D01*
X118824602Y-103918421D01*
X118981579Y-104075398D01*
X119166165Y-104198734D01*
X119371266Y-104283690D01*
X119589000Y-104327000D01*
X119811000Y-104327000D01*
X120028734Y-104283690D01*
X120233835Y-104198734D01*
X120418421Y-104075398D01*
X120575398Y-103918421D01*
X120698734Y-103733835D01*
X120783690Y-103528734D01*
X120827000Y-103311000D01*
X120827000Y-103089000D01*
X120783690Y-102871266D01*
X120698734Y-102666165D01*
X120575398Y-102481579D01*
X120418421Y-102324602D01*
X120233835Y-102201266D01*
X120230779Y-102200000D01*
X120233835Y-102198734D01*
X120418421Y-102075398D01*
X120575398Y-101918421D01*
X120698734Y-101733835D01*
X120783690Y-101528734D01*
X120827000Y-101311000D01*
X120827000Y-101089000D01*
X120783690Y-100871266D01*
X120698734Y-100666165D01*
X120575398Y-100481579D01*
X120418421Y-100324602D01*
X120233835Y-100201266D01*
X120028734Y-100116310D01*
X119811000Y-100073000D01*
X119589000Y-100073000D01*
X119371266Y-100116310D01*
X119166165Y-100201266D01*
X118981579Y-100324602D01*
X118824602Y-100481579D01*
X118701266Y-100666165D01*
X118616310Y-100871266D01*
X118573000Y-101089000D01*
X111194076Y-101089000D01*
X111129062Y-100946554D01*
X111007401Y-100620592D01*
X110596871Y-99389000D01*
X116473000Y-99389000D01*
X116473000Y-99611000D01*
X116516310Y-99828734D01*
X116601266Y-100033835D01*
X116724602Y-100218421D01*
X116881579Y-100375398D01*
X117066165Y-100498734D01*
X117271266Y-100583690D01*
X117489000Y-100627000D01*
X117711000Y-100627000D01*
X117928734Y-100583690D01*
X118133835Y-100498734D01*
X118318421Y-100375398D01*
X118475398Y-100218421D01*
X118598734Y-100033835D01*
X118683690Y-99828734D01*
X118727000Y-99611000D01*
X118727000Y-99389000D01*
X120873000Y-99389000D01*
X120873000Y-99611000D01*
X120916310Y-99828734D01*
X121001266Y-100033835D01*
X121124602Y-100218421D01*
X121281579Y-100375398D01*
X121466165Y-100498734D01*
X121671266Y-100583690D01*
X121889000Y-100627000D01*
X122111000Y-100627000D01*
X122328734Y-100583690D01*
X122533835Y-100498734D01*
X122698064Y-100389000D01*
X141373000Y-100389000D01*
X141373000Y-100611000D01*
X141416310Y-100828734D01*
X141501266Y-101033835D01*
X141624602Y-101218421D01*
X141781579Y-101375398D01*
X141966165Y-101498734D01*
X142171266Y-101583690D01*
X142389000Y-101627000D01*
X142611000Y-101627000D01*
X142828734Y-101583690D01*
X143033835Y-101498734D01*
X143198064Y-101389000D01*
X144403002Y-101389000D01*
X144403002Y-101611000D01*
X144446312Y-101828734D01*
X144531268Y-102033835D01*
X144654604Y-102218421D01*
X144811581Y-102375398D01*
X144996167Y-102498734D01*
X145201268Y-102583690D01*
X145419002Y-102627000D01*
X145641002Y-102627000D01*
X145858736Y-102583690D01*
X146063837Y-102498734D01*
X146248423Y-102375398D01*
X146405400Y-102218421D01*
X146425058Y-102189000D01*
X159773000Y-102189000D01*
X159773000Y-102411000D01*
X159816310Y-102628734D01*
X159901266Y-102833835D01*
X160024602Y-103018421D01*
X160181579Y-103175398D01*
X160366165Y-103298734D01*
X160571266Y-103383690D01*
X160789000Y-103427000D01*
X161011000Y-103427000D01*
X161228734Y-103383690D01*
X161433835Y-103298734D01*
X161618421Y-103175398D01*
X161775398Y-103018421D01*
X161898734Y-102833835D01*
X161983690Y-102628734D01*
X162027000Y-102411000D01*
X162027000Y-102189000D01*
X161983690Y-101971266D01*
X161898734Y-101766165D01*
X161775398Y-101581579D01*
X161618421Y-101424602D01*
X161433835Y-101301266D01*
X161228734Y-101216310D01*
X161011000Y-101173000D01*
X160789000Y-101173000D01*
X160571266Y-101216310D01*
X160366165Y-101301266D01*
X160181579Y-101424602D01*
X160024602Y-101581579D01*
X159901266Y-101766165D01*
X159816310Y-101971266D01*
X159773000Y-102189000D01*
X146425058Y-102189000D01*
X146528736Y-102033835D01*
X146613692Y-101828734D01*
X146657002Y-101611000D01*
X146657002Y-101389000D01*
X146613692Y-101171266D01*
X146528736Y-100966165D01*
X146405400Y-100781579D01*
X146248423Y-100624602D01*
X146063837Y-100501266D01*
X146034225Y-100489000D01*
X146473000Y-100489000D01*
X146473000Y-100711000D01*
X146516310Y-100928734D01*
X146601266Y-101133835D01*
X146724602Y-101318421D01*
X146881579Y-101475398D01*
X147066165Y-101598734D01*
X147271266Y-101683690D01*
X147489000Y-101727000D01*
X147711000Y-101727000D01*
X147928734Y-101683690D01*
X148133835Y-101598734D01*
X148318421Y-101475398D01*
X148475398Y-101318421D01*
X148598734Y-101133835D01*
X148683690Y-100928734D01*
X148727000Y-100711000D01*
X148727000Y-100489000D01*
X148683690Y-100271266D01*
X148598734Y-100066165D01*
X148475398Y-99881579D01*
X148318421Y-99724602D01*
X148133835Y-99601266D01*
X147928734Y-99516310D01*
X147711000Y-99473000D01*
X147489000Y-99473000D01*
X147271266Y-99516310D01*
X147066165Y-99601266D01*
X146881579Y-99724602D01*
X146724602Y-99881579D01*
X146601266Y-100066165D01*
X146516310Y-100271266D01*
X146473000Y-100489000D01*
X146034225Y-100489000D01*
X145858736Y-100416310D01*
X145641002Y-100373000D01*
X145419002Y-100373000D01*
X145201268Y-100416310D01*
X144996167Y-100501266D01*
X144811581Y-100624602D01*
X144654604Y-100781579D01*
X144531268Y-100966165D01*
X144446312Y-101171266D01*
X144403002Y-101389000D01*
X143198064Y-101389000D01*
X143218421Y-101375398D01*
X143375398Y-101218421D01*
X143498734Y-101033835D01*
X143583690Y-100828734D01*
X143627000Y-100611000D01*
X143627000Y-100389000D01*
X143583690Y-100171266D01*
X143498734Y-99966165D01*
X143375398Y-99781579D01*
X143218421Y-99624602D01*
X143033835Y-99501266D01*
X142828734Y-99416310D01*
X142611000Y-99373000D01*
X142389000Y-99373000D01*
X142171266Y-99416310D01*
X141966165Y-99501266D01*
X141781579Y-99624602D01*
X141624602Y-99781579D01*
X141501266Y-99966165D01*
X141416310Y-100171266D01*
X141373000Y-100389000D01*
X122698064Y-100389000D01*
X122718421Y-100375398D01*
X122875398Y-100218421D01*
X122998734Y-100033835D01*
X123083690Y-99828734D01*
X123127000Y-99611000D01*
X123127000Y-99389000D01*
X123083690Y-99171266D01*
X122998734Y-98966165D01*
X122875398Y-98781579D01*
X122718421Y-98624602D01*
X122533835Y-98501266D01*
X122328734Y-98416310D01*
X122111000Y-98373000D01*
X121889000Y-98373000D01*
X121671266Y-98416310D01*
X121466165Y-98501266D01*
X121281579Y-98624602D01*
X121124602Y-98781579D01*
X121001266Y-98966165D01*
X120916310Y-99171266D01*
X120873000Y-99389000D01*
X118727000Y-99389000D01*
X118683690Y-99171266D01*
X118598734Y-98966165D01*
X118475398Y-98781579D01*
X118318421Y-98624602D01*
X118133835Y-98501266D01*
X117928734Y-98416310D01*
X117711000Y-98373000D01*
X117489000Y-98373000D01*
X117271266Y-98416310D01*
X117066165Y-98501266D01*
X116881579Y-98624602D01*
X116724602Y-98781579D01*
X116601266Y-98966165D01*
X116516310Y-99171266D01*
X116473000Y-99389000D01*
X110596871Y-99389000D01*
X110220167Y-98258890D01*
X110181690Y-98114000D01*
X151673000Y-98114000D01*
X151673000Y-98336000D01*
X151716310Y-98553734D01*
X151801266Y-98758835D01*
X151924602Y-98943421D01*
X152081579Y-99100398D01*
X152266165Y-99223734D01*
X152471266Y-99308690D01*
X152689000Y-99352000D01*
X152911000Y-99352000D01*
X153128734Y-99308690D01*
X153333835Y-99223734D01*
X153518421Y-99100398D01*
X153675398Y-98943421D01*
X153798734Y-98758835D01*
X153883690Y-98553734D01*
X153927000Y-98336000D01*
X153927000Y-98114000D01*
X153883690Y-97896266D01*
X153798734Y-97691165D01*
X153675398Y-97506579D01*
X153518421Y-97349602D01*
X153333835Y-97226266D01*
X153128734Y-97141310D01*
X152911000Y-97098000D01*
X152689000Y-97098000D01*
X152471266Y-97141310D01*
X152266165Y-97226266D01*
X152081579Y-97349602D01*
X151924602Y-97506579D01*
X151801266Y-97691165D01*
X151716310Y-97896266D01*
X151673000Y-98114000D01*
X110181690Y-98114000D01*
X110062713Y-97665987D01*
X109678007Y-95742455D01*
X109683690Y-95728734D01*
X109727000Y-95511000D01*
X109727000Y-95289000D01*
X109683690Y-95071266D01*
X109633460Y-94950000D01*
X109683690Y-94828734D01*
X109727000Y-94611000D01*
X109727000Y-94600000D01*
X137669483Y-94600000D01*
X137669483Y-96600000D01*
X137683520Y-96742517D01*
X137725090Y-96879557D01*
X137792597Y-97005853D01*
X137883446Y-97116554D01*
X137994147Y-97207403D01*
X138120443Y-97274910D01*
X138257483Y-97316480D01*
X138400000Y-97330517D01*
X141600000Y-97330517D01*
X141742517Y-97316480D01*
X141879557Y-97274910D01*
X142005853Y-97207403D01*
X142116554Y-97116554D01*
X142207403Y-97005853D01*
X142274910Y-96879557D01*
X142316480Y-96742517D01*
X142330517Y-96600000D01*
X142330517Y-95389000D01*
X145873000Y-95389000D01*
X145873000Y-95611000D01*
X145916310Y-95828734D01*
X146001266Y-96033835D01*
X146124602Y-96218421D01*
X146281579Y-96375398D01*
X146466165Y-96498734D01*
X146671266Y-96583690D01*
X146889000Y-96627000D01*
X147111000Y-96627000D01*
X147328734Y-96583690D01*
X147533835Y-96498734D01*
X147718421Y-96375398D01*
X147875398Y-96218421D01*
X147895056Y-96189000D01*
X152873000Y-96189000D01*
X152873000Y-96411000D01*
X152916310Y-96628734D01*
X153001266Y-96833835D01*
X153124602Y-97018421D01*
X153281579Y-97175398D01*
X153466165Y-97298734D01*
X153671266Y-97383690D01*
X153889000Y-97427000D01*
X154111000Y-97427000D01*
X154302038Y-97389000D01*
X160873000Y-97389000D01*
X160873000Y-97611000D01*
X160916310Y-97828734D01*
X161001266Y-98033835D01*
X161124602Y-98218421D01*
X161281579Y-98375398D01*
X161466165Y-98498734D01*
X161671266Y-98583690D01*
X161889000Y-98627000D01*
X162111000Y-98627000D01*
X162328734Y-98583690D01*
X162533835Y-98498734D01*
X162718421Y-98375398D01*
X162875398Y-98218421D01*
X162998734Y-98033835D01*
X163083690Y-97828734D01*
X163127000Y-97611000D01*
X163127000Y-97389000D01*
X163083690Y-97171266D01*
X162998734Y-96966165D01*
X162875398Y-96781579D01*
X162718421Y-96624602D01*
X162533835Y-96501266D01*
X162328734Y-96416310D01*
X162111000Y-96373000D01*
X161889000Y-96373000D01*
X161671266Y-96416310D01*
X161466165Y-96501266D01*
X161281579Y-96624602D01*
X161124602Y-96781579D01*
X161001266Y-96966165D01*
X160916310Y-97171266D01*
X160873000Y-97389000D01*
X154302038Y-97389000D01*
X154328734Y-97383690D01*
X154533835Y-97298734D01*
X154718421Y-97175398D01*
X154875398Y-97018421D01*
X154998734Y-96833835D01*
X155083690Y-96628734D01*
X155127000Y-96411000D01*
X155127000Y-96189000D01*
X155083690Y-95971266D01*
X154998734Y-95766165D01*
X154875398Y-95581579D01*
X154718421Y-95424602D01*
X154533835Y-95301266D01*
X154328734Y-95216310D01*
X154111000Y-95173000D01*
X153889000Y-95173000D01*
X153671266Y-95216310D01*
X153466165Y-95301266D01*
X153281579Y-95424602D01*
X153124602Y-95581579D01*
X153001266Y-95766165D01*
X152916310Y-95971266D01*
X152873000Y-96189000D01*
X147895056Y-96189000D01*
X147998734Y-96033835D01*
X148083690Y-95828734D01*
X148127000Y-95611000D01*
X148127000Y-95389000D01*
X148083690Y-95171266D01*
X147998734Y-94966165D01*
X147875398Y-94781579D01*
X147718421Y-94624602D01*
X147533835Y-94501266D01*
X147328734Y-94416310D01*
X147111000Y-94373000D01*
X146889000Y-94373000D01*
X146671266Y-94416310D01*
X146466165Y-94501266D01*
X146281579Y-94624602D01*
X146124602Y-94781579D01*
X146001266Y-94966165D01*
X145916310Y-95171266D01*
X145873000Y-95389000D01*
X142330517Y-95389000D01*
X142330517Y-94600000D01*
X142316480Y-94457483D01*
X142274910Y-94320443D01*
X142207403Y-94194147D01*
X142116554Y-94083446D01*
X142005853Y-93992597D01*
X141879557Y-93925090D01*
X141742517Y-93883520D01*
X141600000Y-93869483D01*
X138400000Y-93869483D01*
X138257483Y-93883520D01*
X138120443Y-93925090D01*
X137994147Y-93992597D01*
X137883446Y-94083446D01*
X137792597Y-94194147D01*
X137725090Y-94320443D01*
X137683520Y-94457483D01*
X137669483Y-94600000D01*
X109727000Y-94600000D01*
X109727000Y-94389000D01*
X109683690Y-94171266D01*
X109598734Y-93966165D01*
X109475398Y-93781579D01*
X109318421Y-93624602D01*
X109244567Y-93575254D01*
X109222246Y-93463650D01*
X109150868Y-92985054D01*
X109127000Y-92501775D01*
X109127000Y-92389000D01*
X125873000Y-92389000D01*
X125873000Y-92611000D01*
X125916310Y-92828734D01*
X126001266Y-93033835D01*
X126124602Y-93218421D01*
X126281579Y-93375398D01*
X126466165Y-93498734D01*
X126671266Y-93583690D01*
X126889000Y-93627000D01*
X127111000Y-93627000D01*
X127328734Y-93583690D01*
X127533835Y-93498734D01*
X127718421Y-93375398D01*
X127875398Y-93218421D01*
X127998734Y-93033835D01*
X128083690Y-92828734D01*
X128127000Y-92611000D01*
X128127000Y-92389000D01*
X128083690Y-92171266D01*
X127998734Y-91966165D01*
X127875398Y-91781579D01*
X127718421Y-91624602D01*
X127533835Y-91501266D01*
X127328734Y-91416310D01*
X127111000Y-91373000D01*
X126889000Y-91373000D01*
X126671266Y-91416310D01*
X126466165Y-91501266D01*
X126281579Y-91624602D01*
X126124602Y-91781579D01*
X126001266Y-91966165D01*
X125916310Y-92171266D01*
X125873000Y-92389000D01*
X109127000Y-92389000D01*
X109127000Y-89889000D01*
X111073000Y-89889000D01*
X111073000Y-90111000D01*
X111116310Y-90328734D01*
X111201266Y-90533835D01*
X111324602Y-90718421D01*
X111481579Y-90875398D01*
X111666165Y-90998734D01*
X111871266Y-91083690D01*
X112089000Y-91127000D01*
X112311000Y-91127000D01*
X112528734Y-91083690D01*
X112733835Y-90998734D01*
X112918421Y-90875398D01*
X113075398Y-90718421D01*
X113198734Y-90533835D01*
X113283690Y-90328734D01*
X113327000Y-90111000D01*
X113327000Y-89889000D01*
X113283690Y-89671266D01*
X113198734Y-89466165D01*
X113075398Y-89281579D01*
X112918421Y-89124602D01*
X112733835Y-89001266D01*
X112528734Y-88916310D01*
X112311000Y-88873000D01*
X112089000Y-88873000D01*
X111871266Y-88916310D01*
X111666165Y-89001266D01*
X111481579Y-89124602D01*
X111324602Y-89281579D01*
X111201266Y-89466165D01*
X111116310Y-89671266D01*
X111073000Y-89889000D01*
X109127000Y-89889000D01*
X109127000Y-88416441D01*
X109143713Y-88011890D01*
X109193733Y-87610113D01*
X109230585Y-87389000D01*
X111073000Y-87389000D01*
X111073000Y-87611000D01*
X111116310Y-87828734D01*
X111201266Y-88033835D01*
X111324602Y-88218421D01*
X111481579Y-88375398D01*
X111666165Y-88498734D01*
X111871266Y-88583690D01*
X112089000Y-88627000D01*
X112311000Y-88627000D01*
X112528734Y-88583690D01*
X112733835Y-88498734D01*
X112918421Y-88375398D01*
X113075398Y-88218421D01*
X113198734Y-88033835D01*
X113283690Y-87828734D01*
X113327000Y-87611000D01*
X113327000Y-87389000D01*
X125873000Y-87389000D01*
X125873000Y-87611000D01*
X125916310Y-87828734D01*
X126001266Y-88033835D01*
X126124602Y-88218421D01*
X126281579Y-88375398D01*
X126466165Y-88498734D01*
X126671266Y-88583690D01*
X126889000Y-88627000D01*
X127111000Y-88627000D01*
X127328734Y-88583690D01*
X127533835Y-88498734D01*
X127718421Y-88375398D01*
X127875398Y-88218421D01*
X127998734Y-88033835D01*
X128083690Y-87828734D01*
X128127000Y-87611000D01*
X128127000Y-87389000D01*
X128083690Y-87171266D01*
X127998734Y-86966165D01*
X127875398Y-86781579D01*
X127718421Y-86624602D01*
X127533835Y-86501266D01*
X127530779Y-86500000D01*
X130769483Y-86500000D01*
X130769483Y-88500000D01*
X130783520Y-88642517D01*
X130825090Y-88779557D01*
X130892597Y-88905853D01*
X130983446Y-89016554D01*
X131045852Y-89067769D01*
X130969553Y-89181959D01*
X130839368Y-89496253D01*
X130773000Y-89829905D01*
X130773000Y-90170095D01*
X130839368Y-90503747D01*
X130969553Y-90818041D01*
X131158552Y-91100898D01*
X131307654Y-91250000D01*
X131158552Y-91399102D01*
X130969553Y-91681959D01*
X130839368Y-91996253D01*
X130773000Y-92329905D01*
X130773000Y-92670095D01*
X130839368Y-93003747D01*
X130969553Y-93318041D01*
X131158552Y-93600898D01*
X131399102Y-93841448D01*
X131681959Y-94030447D01*
X131996253Y-94160632D01*
X132329905Y-94227000D01*
X132670095Y-94227000D01*
X133003747Y-94160632D01*
X133318041Y-94030447D01*
X133600898Y-93841448D01*
X133841448Y-93600898D01*
X134030447Y-93318041D01*
X134160632Y-93003747D01*
X134227000Y-92670095D01*
X134227000Y-92329905D01*
X145273000Y-92329905D01*
X145273000Y-92670095D01*
X145339368Y-93003747D01*
X145469553Y-93318041D01*
X145658552Y-93600898D01*
X145899102Y-93841448D01*
X146181959Y-94030447D01*
X146496253Y-94160632D01*
X146829905Y-94227000D01*
X147170095Y-94227000D01*
X147503747Y-94160632D01*
X147818041Y-94030447D01*
X148100898Y-93841448D01*
X148341448Y-93600898D01*
X148530447Y-93318041D01*
X148660632Y-93003747D01*
X148727000Y-92670095D01*
X148727000Y-92329905D01*
X148660632Y-91996253D01*
X148530447Y-91681959D01*
X148341448Y-91399102D01*
X148100898Y-91158552D01*
X147818041Y-90969553D01*
X147503747Y-90839368D01*
X147170095Y-90773000D01*
X146829905Y-90773000D01*
X146496253Y-90839368D01*
X146181959Y-90969553D01*
X145899102Y-91158552D01*
X145658552Y-91399102D01*
X145469553Y-91681959D01*
X145339368Y-91996253D01*
X145273000Y-92329905D01*
X134227000Y-92329905D01*
X134160632Y-91996253D01*
X134030447Y-91681959D01*
X133841448Y-91399102D01*
X133692346Y-91250000D01*
X133841448Y-91100898D01*
X134030447Y-90818041D01*
X134160632Y-90503747D01*
X134227000Y-90170095D01*
X134227000Y-89829905D01*
X134160632Y-89496253D01*
X134030447Y-89181959D01*
X133954148Y-89067769D01*
X134016554Y-89016554D01*
X134107403Y-88905853D01*
X134174910Y-88779557D01*
X134216480Y-88642517D01*
X134230517Y-88500000D01*
X134230517Y-87329905D01*
X145273000Y-87329905D01*
X145273000Y-87670095D01*
X145339368Y-88003747D01*
X145469553Y-88318041D01*
X145658552Y-88600898D01*
X145899102Y-88841448D01*
X146181959Y-89030447D01*
X146496253Y-89160632D01*
X146829905Y-89227000D01*
X147170095Y-89227000D01*
X147503747Y-89160632D01*
X147818041Y-89030447D01*
X148100898Y-88841448D01*
X148341448Y-88600898D01*
X148530447Y-88318041D01*
X148660632Y-88003747D01*
X148727000Y-87670095D01*
X148727000Y-87589000D01*
X154273000Y-87589000D01*
X154273000Y-87811000D01*
X154316310Y-88028734D01*
X154401266Y-88233835D01*
X154524602Y-88418421D01*
X154681579Y-88575398D01*
X154866165Y-88698734D01*
X154869221Y-88700000D01*
X154866165Y-88701266D01*
X154681579Y-88824602D01*
X154524602Y-88981579D01*
X154401266Y-89166165D01*
X154316310Y-89371266D01*
X154273000Y-89589000D01*
X154273000Y-89811000D01*
X154316310Y-90028734D01*
X154401266Y-90233835D01*
X154524602Y-90418421D01*
X154681579Y-90575398D01*
X154866165Y-90698734D01*
X154989932Y-90750000D01*
X154866165Y-90801266D01*
X154681579Y-90924602D01*
X154524602Y-91081579D01*
X154401266Y-91266165D01*
X154316310Y-91471266D01*
X154273000Y-91689000D01*
X154273000Y-91911000D01*
X154316310Y-92128734D01*
X154401266Y-92333835D01*
X154524602Y-92518421D01*
X154681579Y-92675398D01*
X154866165Y-92798734D01*
X155071266Y-92883690D01*
X155289000Y-92927000D01*
X155511000Y-92927000D01*
X155728734Y-92883690D01*
X155933835Y-92798734D01*
X156118421Y-92675398D01*
X156275398Y-92518421D01*
X156398734Y-92333835D01*
X156450000Y-92210068D01*
X156501266Y-92333835D01*
X156624602Y-92518421D01*
X156781579Y-92675398D01*
X156966165Y-92798734D01*
X157171266Y-92883690D01*
X157389000Y-92927000D01*
X157611000Y-92927000D01*
X157828734Y-92883690D01*
X158033835Y-92798734D01*
X158218421Y-92675398D01*
X158375398Y-92518421D01*
X158450000Y-92406771D01*
X158524602Y-92518421D01*
X158681579Y-92675398D01*
X158866165Y-92798734D01*
X159071266Y-92883690D01*
X159289000Y-92927000D01*
X159511000Y-92927000D01*
X159728734Y-92883690D01*
X159933835Y-92798734D01*
X160118421Y-92675398D01*
X160275398Y-92518421D01*
X160398734Y-92333835D01*
X160483690Y-92128734D01*
X160527000Y-91911000D01*
X160527000Y-91689000D01*
X160483690Y-91471266D01*
X160398734Y-91266165D01*
X160275398Y-91081579D01*
X160118421Y-90924602D01*
X159933835Y-90801266D01*
X159860068Y-90770711D01*
X160033835Y-90698734D01*
X160218421Y-90575398D01*
X160375398Y-90418421D01*
X160498734Y-90233835D01*
X160583690Y-90028734D01*
X160627000Y-89811000D01*
X160627000Y-89589000D01*
X160583690Y-89371266D01*
X160498734Y-89166165D01*
X160375398Y-88981579D01*
X160218421Y-88824602D01*
X160033835Y-88701266D01*
X160030779Y-88700000D01*
X160033835Y-88698734D01*
X160218421Y-88575398D01*
X160375398Y-88418421D01*
X160498734Y-88233835D01*
X160583690Y-88028734D01*
X160627000Y-87811000D01*
X160627000Y-87589000D01*
X160583690Y-87371266D01*
X160498734Y-87166165D01*
X160375398Y-86981579D01*
X160218421Y-86824602D01*
X160033835Y-86701266D01*
X159828734Y-86616310D01*
X159691438Y-86589000D01*
X161073000Y-86589000D01*
X161073000Y-86811000D01*
X161116310Y-87028734D01*
X161201266Y-87233835D01*
X161324602Y-87418421D01*
X161481579Y-87575398D01*
X161666165Y-87698734D01*
X161871266Y-87783690D01*
X162089000Y-87827000D01*
X162311000Y-87827000D01*
X162528734Y-87783690D01*
X162733835Y-87698734D01*
X162918421Y-87575398D01*
X163075398Y-87418421D01*
X163198734Y-87233835D01*
X163245859Y-87120066D01*
X163428734Y-87083690D01*
X163633835Y-86998734D01*
X163818421Y-86875398D01*
X163975398Y-86718421D01*
X164098734Y-86533835D01*
X164183690Y-86328734D01*
X164227000Y-86111000D01*
X164227000Y-85889000D01*
X164183690Y-85671266D01*
X164098734Y-85466165D01*
X163975398Y-85281579D01*
X163818421Y-85124602D01*
X163633835Y-85001266D01*
X163428734Y-84916310D01*
X163211000Y-84873000D01*
X162989000Y-84873000D01*
X162771266Y-84916310D01*
X162566165Y-85001266D01*
X162381579Y-85124602D01*
X162224602Y-85281579D01*
X162101266Y-85466165D01*
X162054141Y-85579934D01*
X161871266Y-85616310D01*
X161666165Y-85701266D01*
X161481579Y-85824602D01*
X161324602Y-85981579D01*
X161201266Y-86166165D01*
X161116310Y-86371266D01*
X161073000Y-86589000D01*
X159691438Y-86589000D01*
X159611000Y-86573000D01*
X159389000Y-86573000D01*
X159171266Y-86616310D01*
X158966165Y-86701266D01*
X158781579Y-86824602D01*
X158624602Y-86981579D01*
X158501266Y-87166165D01*
X158500000Y-87169221D01*
X158498734Y-87166165D01*
X158375398Y-86981579D01*
X158218421Y-86824602D01*
X158033835Y-86701266D01*
X157828734Y-86616310D01*
X157611000Y-86573000D01*
X157389000Y-86573000D01*
X157171266Y-86616310D01*
X156966165Y-86701266D01*
X156781579Y-86824602D01*
X156624602Y-86981579D01*
X156501266Y-87166165D01*
X156450000Y-87289932D01*
X156398734Y-87166165D01*
X156275398Y-86981579D01*
X156118421Y-86824602D01*
X155933835Y-86701266D01*
X155728734Y-86616310D01*
X155511000Y-86573000D01*
X155289000Y-86573000D01*
X155071266Y-86616310D01*
X154866165Y-86701266D01*
X154681579Y-86824602D01*
X154524602Y-86981579D01*
X154401266Y-87166165D01*
X154316310Y-87371266D01*
X154273000Y-87589000D01*
X148727000Y-87589000D01*
X148727000Y-87329905D01*
X148660632Y-86996253D01*
X148530447Y-86681959D01*
X148341448Y-86399102D01*
X148100898Y-86158552D01*
X147818041Y-85969553D01*
X147503747Y-85839368D01*
X147170095Y-85773000D01*
X146829905Y-85773000D01*
X146496253Y-85839368D01*
X146181959Y-85969553D01*
X145899102Y-86158552D01*
X145658552Y-86399102D01*
X145469553Y-86681959D01*
X145339368Y-86996253D01*
X145273000Y-87329905D01*
X134230517Y-87329905D01*
X134230517Y-86500000D01*
X134216480Y-86357483D01*
X134174910Y-86220443D01*
X134107403Y-86094147D01*
X134016554Y-85983446D01*
X133905853Y-85892597D01*
X133779557Y-85825090D01*
X133642517Y-85783520D01*
X133500000Y-85769483D01*
X131500000Y-85769483D01*
X131357483Y-85783520D01*
X131220443Y-85825090D01*
X131094147Y-85892597D01*
X130983446Y-85983446D01*
X130892597Y-86094147D01*
X130825090Y-86220443D01*
X130783520Y-86357483D01*
X130769483Y-86500000D01*
X127530779Y-86500000D01*
X127328734Y-86416310D01*
X127111000Y-86373000D01*
X126889000Y-86373000D01*
X126671266Y-86416310D01*
X126466165Y-86501266D01*
X126281579Y-86624602D01*
X126124602Y-86781579D01*
X126001266Y-86966165D01*
X125916310Y-87171266D01*
X125873000Y-87389000D01*
X113327000Y-87389000D01*
X113283690Y-87171266D01*
X113198734Y-86966165D01*
X113075398Y-86781579D01*
X112918421Y-86624602D01*
X112733835Y-86501266D01*
X112528734Y-86416310D01*
X112311000Y-86373000D01*
X112089000Y-86373000D01*
X111871266Y-86416310D01*
X111666165Y-86501266D01*
X111481579Y-86624602D01*
X111324602Y-86781579D01*
X111201266Y-86966165D01*
X111116310Y-87171266D01*
X111073000Y-87389000D01*
X109230585Y-87389000D01*
X109663918Y-84789000D01*
X111073000Y-84789000D01*
X111073000Y-85011000D01*
X111116310Y-85228734D01*
X111201266Y-85433835D01*
X111324602Y-85618421D01*
X111481579Y-85775398D01*
X111666165Y-85898734D01*
X111871266Y-85983690D01*
X112089000Y-86027000D01*
X112311000Y-86027000D01*
X112528734Y-85983690D01*
X112733835Y-85898734D01*
X112918421Y-85775398D01*
X113075398Y-85618421D01*
X113198734Y-85433835D01*
X113283690Y-85228734D01*
X113327000Y-85011000D01*
X113327000Y-84789000D01*
X113283690Y-84571266D01*
X113198734Y-84366165D01*
X113075398Y-84181579D01*
X112918421Y-84024602D01*
X112733835Y-83901266D01*
X112528734Y-83816310D01*
X112311000Y-83773000D01*
X112089000Y-83773000D01*
X111871266Y-83816310D01*
X111666165Y-83901266D01*
X111481579Y-84024602D01*
X111324602Y-84181579D01*
X111201266Y-84366165D01*
X111116310Y-84571266D01*
X111073000Y-84789000D01*
X109663918Y-84789000D01*
X110060368Y-82410304D01*
X110085500Y-82289000D01*
X111073000Y-82289000D01*
X111073000Y-82511000D01*
X111116310Y-82728734D01*
X111201266Y-82933835D01*
X111324602Y-83118421D01*
X111481579Y-83275398D01*
X111666165Y-83398734D01*
X111871266Y-83483690D01*
X112089000Y-83527000D01*
X112311000Y-83527000D01*
X112528734Y-83483690D01*
X112730778Y-83400000D01*
X137669483Y-83400000D01*
X137669483Y-85400000D01*
X137683520Y-85542517D01*
X137725090Y-85679557D01*
X137792597Y-85805853D01*
X137883446Y-85916554D01*
X137994147Y-86007403D01*
X138120443Y-86074910D01*
X138257483Y-86116480D01*
X138400000Y-86130517D01*
X141600000Y-86130517D01*
X141742517Y-86116480D01*
X141879557Y-86074910D01*
X142005853Y-86007403D01*
X142116554Y-85916554D01*
X142207403Y-85805853D01*
X142274910Y-85679557D01*
X142316480Y-85542517D01*
X142330517Y-85400000D01*
X142330517Y-83400000D01*
X142316480Y-83257483D01*
X142274910Y-83120443D01*
X142207403Y-82994147D01*
X142116554Y-82883446D01*
X142005853Y-82792597D01*
X141879557Y-82725090D01*
X141742517Y-82683520D01*
X141600000Y-82669483D01*
X138400000Y-82669483D01*
X138257483Y-82683520D01*
X138120443Y-82725090D01*
X137994147Y-82792597D01*
X137883446Y-82883446D01*
X137792597Y-82994147D01*
X137725090Y-83120443D01*
X137683520Y-83257483D01*
X137669483Y-83400000D01*
X112730778Y-83400000D01*
X112733835Y-83398734D01*
X112918421Y-83275398D01*
X113075398Y-83118421D01*
X113198734Y-82933835D01*
X113283690Y-82728734D01*
X113327000Y-82511000D01*
X113327000Y-82289000D01*
X113283690Y-82071266D01*
X113198734Y-81866165D01*
X113075398Y-81681579D01*
X112982819Y-81589000D01*
X121573000Y-81589000D01*
X121573000Y-81811000D01*
X121616310Y-82028734D01*
X121701266Y-82233835D01*
X121824602Y-82418421D01*
X121981579Y-82575398D01*
X122166165Y-82698734D01*
X122371266Y-82783690D01*
X122589000Y-82827000D01*
X122811000Y-82827000D01*
X123028734Y-82783690D01*
X123233835Y-82698734D01*
X123418421Y-82575398D01*
X123575398Y-82418421D01*
X123698734Y-82233835D01*
X123758726Y-82089000D01*
X150673000Y-82089000D01*
X150673000Y-82311000D01*
X150716310Y-82528734D01*
X150801266Y-82733835D01*
X150924602Y-82918421D01*
X151081579Y-83075398D01*
X151266165Y-83198734D01*
X151471266Y-83283690D01*
X151689000Y-83327000D01*
X151911000Y-83327000D01*
X152128734Y-83283690D01*
X152333835Y-83198734D01*
X152518421Y-83075398D01*
X152675398Y-82918421D01*
X152798734Y-82733835D01*
X152883690Y-82528734D01*
X152927000Y-82311000D01*
X152927000Y-82189000D01*
X164173000Y-82189000D01*
X164173000Y-82411000D01*
X164216310Y-82628734D01*
X164301266Y-82833835D01*
X164424602Y-83018421D01*
X164581579Y-83175398D01*
X164766165Y-83298734D01*
X164971266Y-83383690D01*
X165189000Y-83427000D01*
X165411000Y-83427000D01*
X165628734Y-83383690D01*
X165833835Y-83298734D01*
X166018421Y-83175398D01*
X166175398Y-83018421D01*
X166298734Y-82833835D01*
X166383690Y-82628734D01*
X166427000Y-82411000D01*
X166427000Y-82189000D01*
X166383690Y-81971266D01*
X166298734Y-81766165D01*
X166175398Y-81581579D01*
X166018421Y-81424602D01*
X165833835Y-81301266D01*
X165628734Y-81216310D01*
X165411000Y-81173000D01*
X165189000Y-81173000D01*
X164971266Y-81216310D01*
X164766165Y-81301266D01*
X164581579Y-81424602D01*
X164424602Y-81581579D01*
X164301266Y-81766165D01*
X164216310Y-81971266D01*
X164173000Y-82189000D01*
X152927000Y-82189000D01*
X152927000Y-82089000D01*
X152883690Y-81871266D01*
X152798734Y-81666165D01*
X152675398Y-81481579D01*
X152518421Y-81324602D01*
X152333835Y-81201266D01*
X152128734Y-81116310D01*
X151911000Y-81073000D01*
X151689000Y-81073000D01*
X151471266Y-81116310D01*
X151266165Y-81201266D01*
X151081579Y-81324602D01*
X150924602Y-81481579D01*
X150801266Y-81666165D01*
X150716310Y-81871266D01*
X150673000Y-82089000D01*
X123758726Y-82089000D01*
X123783690Y-82028734D01*
X123827000Y-81811000D01*
X123827000Y-81589000D01*
X123783690Y-81371266D01*
X123698734Y-81166165D01*
X123575398Y-80981579D01*
X123418421Y-80824602D01*
X123233835Y-80701266D01*
X123028734Y-80616310D01*
X122811000Y-80573000D01*
X122589000Y-80573000D01*
X122371266Y-80616310D01*
X122166165Y-80701266D01*
X121981579Y-80824602D01*
X121824602Y-80981579D01*
X121701266Y-81166165D01*
X121616310Y-81371266D01*
X121573000Y-81589000D01*
X112982819Y-81589000D01*
X112918421Y-81524602D01*
X112733835Y-81401266D01*
X112528734Y-81316310D01*
X112311000Y-81273000D01*
X112089000Y-81273000D01*
X111871266Y-81316310D01*
X111666165Y-81401266D01*
X111481579Y-81524602D01*
X111324602Y-81681579D01*
X111201266Y-81866165D01*
X111116310Y-82071266D01*
X111073000Y-82289000D01*
X110085500Y-82289000D01*
X110138265Y-82034333D01*
X110245322Y-81665644D01*
X111007401Y-79379408D01*
X111129062Y-79053446D01*
X111273510Y-78736959D01*
X111597489Y-78089000D01*
X141273000Y-78089000D01*
X141273000Y-78311000D01*
X141316310Y-78528734D01*
X141401266Y-78733835D01*
X141524602Y-78918421D01*
X141681579Y-79075398D01*
X141866165Y-79198734D01*
X142071266Y-79283690D01*
X142289000Y-79327000D01*
X142511000Y-79327000D01*
X142728734Y-79283690D01*
X142933835Y-79198734D01*
X143118421Y-79075398D01*
X143275398Y-78918421D01*
X143398734Y-78733835D01*
X143483690Y-78528734D01*
X143527000Y-78311000D01*
X143527000Y-78089000D01*
X143506916Y-77988030D01*
X143528734Y-77983690D01*
X143733835Y-77898734D01*
X143918421Y-77775398D01*
X144075398Y-77618421D01*
X144198734Y-77433835D01*
X144283690Y-77228734D01*
X144327000Y-77011000D01*
X144327000Y-76789000D01*
X144292555Y-76615833D01*
X144333835Y-76598734D01*
X144518421Y-76475398D01*
X144675398Y-76318421D01*
X144798734Y-76133835D01*
X144883690Y-75928734D01*
X144927000Y-75711000D01*
X144927000Y-75489000D01*
X144883690Y-75271266D01*
X144798734Y-75066165D01*
X144675398Y-74881579D01*
X144518421Y-74724602D01*
X144333835Y-74601266D01*
X144128734Y-74516310D01*
X143911000Y-74473000D01*
X143689000Y-74473000D01*
X143471266Y-74516310D01*
X143266165Y-74601266D01*
X143081579Y-74724602D01*
X142924602Y-74881579D01*
X142801266Y-75066165D01*
X142716310Y-75271266D01*
X142673000Y-75489000D01*
X142673000Y-75711000D01*
X142707445Y-75884167D01*
X142666165Y-75901266D01*
X142481579Y-76024602D01*
X142324602Y-76181579D01*
X142201266Y-76366165D01*
X142116310Y-76571266D01*
X142073000Y-76789000D01*
X142073000Y-77011000D01*
X142093084Y-77111970D01*
X142071266Y-77116310D01*
X141866165Y-77201266D01*
X141681579Y-77324602D01*
X141524602Y-77481579D01*
X141401266Y-77666165D01*
X141316310Y-77871266D01*
X141273000Y-78089000D01*
X111597489Y-78089000D01*
X113910680Y-73462620D01*
X114125404Y-73077490D01*
X114373817Y-72713243D01*
X116887046Y-69362272D01*
X117105530Y-69091526D01*
X117342645Y-68836961D01*
X118836961Y-67342645D01*
X119091526Y-67105530D01*
X119362272Y-66887046D01*
X122713243Y-64373817D01*
X122787161Y-64323405D01*
X132873000Y-64323405D01*
X132873000Y-65436594D01*
X132889668Y-65605830D01*
X132955541Y-65822983D01*
X133062512Y-66023113D01*
X133206472Y-66198528D01*
X133381886Y-66342488D01*
X133582016Y-66449459D01*
X133799169Y-66515332D01*
X134025000Y-66537574D01*
X134250830Y-66515332D01*
X134467983Y-66449459D01*
X134668113Y-66342488D01*
X134843528Y-66198528D01*
X134987488Y-66023114D01*
X135094459Y-65822984D01*
X135160332Y-65605831D01*
X135177000Y-65436595D01*
X135177000Y-65333628D01*
X135197078Y-65434568D01*
X135283542Y-65643308D01*
X135409067Y-65831170D01*
X135568830Y-65990933D01*
X135756692Y-66116458D01*
X135965432Y-66202922D01*
X136187030Y-66247000D01*
X136412970Y-66247000D01*
X136634568Y-66202922D01*
X136843308Y-66116458D01*
X136950000Y-66045169D01*
X137056692Y-66116458D01*
X137265432Y-66202922D01*
X137487030Y-66247000D01*
X137712970Y-66247000D01*
X137934568Y-66202922D01*
X138092806Y-66137377D01*
X138200443Y-66194910D01*
X138337483Y-66236480D01*
X138480000Y-66250517D01*
X139320000Y-66250517D01*
X139462517Y-66236480D01*
X139599557Y-66194910D01*
X139725853Y-66127403D01*
X139836554Y-66036554D01*
X139927403Y-65925853D01*
X139994910Y-65799557D01*
X140036480Y-65662517D01*
X140041476Y-65611791D01*
X140105541Y-65822983D01*
X140212512Y-66023113D01*
X140356472Y-66198528D01*
X140531886Y-66342488D01*
X140732016Y-66449459D01*
X140949169Y-66515332D01*
X141175000Y-66537574D01*
X141400830Y-66515332D01*
X141617983Y-66449459D01*
X141818113Y-66342488D01*
X141993528Y-66198528D01*
X142137488Y-66023114D01*
X142244459Y-65822984D01*
X142310332Y-65605831D01*
X142327000Y-65436595D01*
X142327000Y-64323405D01*
X142310332Y-64154169D01*
X142244459Y-63937016D01*
X142137488Y-63736886D01*
X141993528Y-63561472D01*
X141818114Y-63417512D01*
X141617984Y-63310541D01*
X141400831Y-63244668D01*
X141175000Y-63222426D01*
X140949170Y-63244668D01*
X140732017Y-63310541D01*
X140531887Y-63417512D01*
X140356473Y-63561472D01*
X140212513Y-63736886D01*
X140105541Y-63937016D01*
X140039668Y-64154169D01*
X140023000Y-64323405D01*
X140023000Y-64493045D01*
X139994910Y-64400443D01*
X139927403Y-64274147D01*
X139836554Y-64163446D01*
X139725853Y-64072597D01*
X139599557Y-64005090D01*
X139462517Y-63963520D01*
X139390921Y-63956468D01*
X139352922Y-63765432D01*
X139266458Y-63556692D01*
X139140933Y-63368830D01*
X138981170Y-63209067D01*
X138793308Y-63083542D01*
X138584568Y-62997078D01*
X138362970Y-62953000D01*
X138137030Y-62953000D01*
X137915432Y-62997078D01*
X137706692Y-63083542D01*
X137600000Y-63154831D01*
X137493308Y-63083542D01*
X137284568Y-62997078D01*
X137062970Y-62953000D01*
X136837030Y-62953000D01*
X136615432Y-62997078D01*
X136406692Y-63083542D01*
X136218830Y-63209067D01*
X136059067Y-63368830D01*
X135933542Y-63556692D01*
X135847078Y-63765432D01*
X135803000Y-63987030D01*
X135803000Y-64064360D01*
X135756692Y-64083542D01*
X135568830Y-64209067D01*
X135409067Y-64368830D01*
X135283542Y-64556692D01*
X135197078Y-64765432D01*
X135177000Y-64866372D01*
X135177000Y-64323405D01*
X135160332Y-64154169D01*
X135094459Y-63937016D01*
X134987488Y-63736886D01*
X134843528Y-63561472D01*
X134668114Y-63417512D01*
X134467984Y-63310541D01*
X134250831Y-63244668D01*
X134025000Y-63222426D01*
X133799170Y-63244668D01*
X133582017Y-63310541D01*
X133381887Y-63417512D01*
X133206473Y-63561472D01*
X133062513Y-63736886D01*
X132955541Y-63937016D01*
X132889668Y-64154169D01*
X132873000Y-64323405D01*
X122787161Y-64323405D01*
X123077490Y-64125404D01*
X123462620Y-63910680D01*
X128736959Y-61273510D01*
X129053446Y-61129062D01*
X129379408Y-61007401D01*
X131665644Y-60245322D01*
X132034333Y-60138265D01*
X132410304Y-60060368D01*
X137610113Y-59193733D01*
X138011890Y-59143713D01*
X138416441Y-59127000D01*
X139684754Y-59127000D01*
X140297064Y-59165121D01*
G37*
%TD.AperFunction*%
%TD*%
M02*
