M48
; DRILL file {KiCad (5.1.9)-1} date 08/08/21 14:49:52
; FORMAT={-:-/ absolute / inch / decimal}
; #@! TF.CreationDate,2021-08-08T14:49:52+02:00
; #@! TF.GenerationSoftware,Kicad,Pcbnew,(5.1.9)-1
; #@! TF.FileFunction,Plated,1,4,PTH
FMAT,2
INCH
T1C0.0138
T2C0.0157
T3C0.0173
T4C0.0394
T5C0.0591
T6C0.0630
%
G90
G05
T2
X3.9882Y-3.5
X4.0197Y-3.8071
X4.0709Y-3.248
X4.1142Y-4.0984
X4.1614Y-2.9567
X4.1654Y-3.6457
X4.185Y-3.3701
X4.2047Y-3.7205
X4.2047Y-3.7559
X4.2047Y-3.7913
X4.2047Y-3.8268
X4.2205Y-3.9055
X4.2402Y-3.7205
X4.2402Y-3.7559
X4.2402Y-3.7913
X4.2402Y-3.8268
X4.2441Y-3.0945
X4.2677Y-4.3661
X4.2756Y-3.7205
X4.2756Y-3.7559
X4.2756Y-3.7913
X4.2756Y-3.8268
X4.311Y-2.689
X4.311Y-4.1535
X4.3543Y-2.8661
X4.4173Y-3.2441
X4.4173Y-3.3425
X4.4173Y-3.4449
X4.4173Y-3.5433
X4.4646Y-4.3898
X4.4685Y-4.5984
X4.5039Y-2.4488
X4.5118Y-2.6535
X4.622Y-4.5157
X4.626Y-4.122
X4.6299Y-3.9173
X4.7126Y-3.9843
X4.7126Y-4.063
X4.7244Y-2.4646
X4.7598Y-2.2598
X4.8031Y-3.9173
X4.8071Y-4.122
X4.8307Y-3.2165
X4.9567Y-2.3307
X5.0Y-3.4449
X5.0Y-3.6417
X5.0236Y-2.122
X5.1654Y-4.1063
X5.1654Y-4.311
X5.185Y-2.248
X5.252Y-4.1575
X5.252Y-4.2402
X5.2874Y-3.0787
X5.3189Y-2.0472
X5.3465Y-4.1063
X5.3465Y-4.311
X5.4055Y-4.3976
X5.4055Y-4.4331
X5.4055Y-4.4685
X5.4055Y-4.5039
X5.4409Y-4.3976
X5.4409Y-4.4331
X5.4409Y-4.4685
X5.4409Y-4.5039
X5.4646Y-2.2205
X5.5118Y-4.126
X5.5591Y-4.063
X5.6063Y-3.0787
X5.6102Y-3.9567
X5.6299Y-2.0236
X5.6299Y-4.0157
X5.6378Y-2.878
X5.6378Y-2.9291
X5.6378Y-3.0276
X5.6496Y-4.6693
X5.6496Y-4.7008
X5.6496Y-4.7323
X5.6614Y-2.9764
X5.6969Y-4.2559
X5.6969Y-4.4173
X5.7295Y-3.9961
X5.7323Y-4.2559
X5.7323Y-4.4173
X5.748Y-2.2323
X5.748Y-4.5236
X5.748Y-4.7047
X5.7677Y-4.2559
X5.7677Y-4.4173
X5.7874Y-3.7598
X5.8031Y-4.4173
X5.8071Y-4.2559
X5.811Y-3.9606
X5.874Y-2.122
X5.9094Y-4.7756
X5.9409Y-4.7756
X5.9449Y-4.8465
X5.9488Y-4.0197
X5.9764Y-3.2362
X5.9764Y-3.2874
X6.0039Y-4.8465
X6.0157Y-3.8671
X6.0197Y-2.3071
X6.063Y-3.7913
X6.1181Y-3.4528
X6.1181Y-3.5315
X6.1181Y-3.6142
X6.1614Y-2.2244
X6.1732Y-4.1772
X6.2008Y-3.4528
X6.2008Y-3.5315
X6.2008Y-3.6142
X6.2205Y-2.4213
X6.2598Y-4.2244
X6.2756Y-3.6142
X6.2795Y-3.4528
X6.2795Y-3.5315
X6.3346Y-4.0276
X6.378Y-3.8386
X6.3858Y-3.4134
X6.4134Y-4.5118
X6.4213Y-3.3858
X6.4291Y-2.378
X6.4449Y-2.5906
X6.5079Y-3.2402
X6.5354Y-4.0748
X6.5709Y-4.3504
X6.5945Y-4.0157
X6.626Y-2.8031
X6.6339Y-4.5118
X6.6535Y-2.5866
X6.7087Y-4.1063
X6.7559Y-3.0551
X6.7953Y-3.8346
X6.8031Y-4.2598
X6.8189Y-3.2795
X6.8307Y-2.8425
X6.8386Y-3.563
X6.9173Y-3.9764
X6.9528Y-3.122
X7.0197Y-3.7283
X7.0236Y-3.4213
T3
X5.3661Y-2.563
X5.3917Y-2.5236
X5.4173Y-2.563
X5.4429Y-2.5236
X5.4685Y-2.563
T4
X5.2165Y-3.4449
X5.2165Y-3.5433
X5.2165Y-3.6417
X5.7874Y-3.4449
X5.7874Y-3.6417
T6
X4.7835Y-4.7124
X4.9016Y-4.5079
X5.0028Y-4.7027
T1
G00X5.2766Y-2.574
M15
G01X5.2766Y-2.5346
M16
G05
G00X5.5581Y-2.574
M15
G01X5.5581Y-2.5346
M16
G05
T5
G00X5.4862Y-3.3228
M15
G01X5.5374Y-3.3228
M16
G05
G00X5.4862Y-3.7638
M15
G01X5.5374Y-3.7638
M16
G05
T0
M30
