%TF.GenerationSoftware,KiCad,Pcbnew,(5.1.9)-1*%
%TF.CreationDate,2021-08-08T15:33:04+02:00*%
%TF.ProjectId,nogasm,6e6f6761-736d-42e6-9b69-6361645f7063,rev?*%
%TF.SameCoordinates,Original*%
%TF.FileFunction,Legend,Top*%
%TF.FilePolarity,Positive*%
%FSLAX46Y46*%
G04 Gerber Fmt 4.6, Leading zero omitted, Abs format (unit mm)*
G04 Created by KiCad (PCBNEW (5.1.9)-1) date 2021-08-08 15:33:04*
%MOMM*%
%LPD*%
G01*
G04 APERTURE LIST*
%ADD10C,0.200000*%
%ADD11C,0.150000*%
%ADD12C,0.120000*%
%ADD13C,0.250000*%
G04 APERTURE END LIST*
D10*
X115100000Y-74635714D02*
X115100000Y-75302380D01*
X115100000Y-74730952D02*
X115147619Y-74683333D01*
X115242857Y-74635714D01*
X115385714Y-74635714D01*
X115480952Y-74683333D01*
X115528571Y-74778571D01*
X115528571Y-75302380D01*
X116147619Y-75302380D02*
X116052380Y-75254761D01*
X116004761Y-75207142D01*
X115957142Y-75111904D01*
X115957142Y-74826190D01*
X116004761Y-74730952D01*
X116052380Y-74683333D01*
X116147619Y-74635714D01*
X116290476Y-74635714D01*
X116385714Y-74683333D01*
X116433333Y-74730952D01*
X116480952Y-74826190D01*
X116480952Y-75111904D01*
X116433333Y-75207142D01*
X116385714Y-75254761D01*
X116290476Y-75302380D01*
X116147619Y-75302380D01*
X117338095Y-74635714D02*
X117338095Y-75445238D01*
X117290476Y-75540476D01*
X117242857Y-75588095D01*
X117147619Y-75635714D01*
X117004761Y-75635714D01*
X116909523Y-75588095D01*
X117338095Y-75254761D02*
X117242857Y-75302380D01*
X117052380Y-75302380D01*
X116957142Y-75254761D01*
X116909523Y-75207142D01*
X116861904Y-75111904D01*
X116861904Y-74826190D01*
X116909523Y-74730952D01*
X116957142Y-74683333D01*
X117052380Y-74635714D01*
X117242857Y-74635714D01*
X117338095Y-74683333D01*
X118242857Y-75302380D02*
X118242857Y-74778571D01*
X118195238Y-74683333D01*
X118100000Y-74635714D01*
X117909523Y-74635714D01*
X117814285Y-74683333D01*
X118242857Y-75254761D02*
X118147619Y-75302380D01*
X117909523Y-75302380D01*
X117814285Y-75254761D01*
X117766666Y-75159523D01*
X117766666Y-75064285D01*
X117814285Y-74969047D01*
X117909523Y-74921428D01*
X118147619Y-74921428D01*
X118242857Y-74873809D01*
X118671428Y-75254761D02*
X118766666Y-75302380D01*
X118957142Y-75302380D01*
X119052380Y-75254761D01*
X119100000Y-75159523D01*
X119100000Y-75111904D01*
X119052380Y-75016666D01*
X118957142Y-74969047D01*
X118814285Y-74969047D01*
X118719047Y-74921428D01*
X118671428Y-74826190D01*
X118671428Y-74778571D01*
X118719047Y-74683333D01*
X118814285Y-74635714D01*
X118957142Y-74635714D01*
X119052380Y-74683333D01*
X119528571Y-75302380D02*
X119528571Y-74635714D01*
X119528571Y-74730952D02*
X119576190Y-74683333D01*
X119671428Y-74635714D01*
X119814285Y-74635714D01*
X119909523Y-74683333D01*
X119957142Y-74778571D01*
X119957142Y-75302380D01*
X119957142Y-74778571D02*
X120004761Y-74683333D01*
X120100000Y-74635714D01*
X120242857Y-74635714D01*
X120338095Y-74683333D01*
X120385714Y-74778571D01*
X120385714Y-75302380D01*
X121623809Y-75302380D02*
X121623809Y-74302380D01*
X121623809Y-74683333D02*
X121719047Y-74635714D01*
X121909523Y-74635714D01*
X122004761Y-74683333D01*
X122052380Y-74730952D01*
X122100000Y-74826190D01*
X122100000Y-75111904D01*
X122052380Y-75207142D01*
X122004761Y-75254761D01*
X121909523Y-75302380D01*
X121719047Y-75302380D01*
X121623809Y-75254761D01*
X122433333Y-74635714D02*
X122671428Y-75302380D01*
X122909523Y-74635714D02*
X122671428Y-75302380D01*
X122576190Y-75540476D01*
X122528571Y-75588095D01*
X122433333Y-75635714D01*
X124052380Y-75302380D02*
X124052380Y-74302380D01*
X124480952Y-75302380D02*
X124480952Y-74778571D01*
X124433333Y-74683333D01*
X124338095Y-74635714D01*
X124195238Y-74635714D01*
X124100000Y-74683333D01*
X124052380Y-74730952D01*
X125338095Y-75254761D02*
X125242857Y-75302380D01*
X125052380Y-75302380D01*
X124957142Y-75254761D01*
X124909523Y-75159523D01*
X124909523Y-74778571D01*
X124957142Y-74683333D01*
X125052380Y-74635714D01*
X125242857Y-74635714D01*
X125338095Y-74683333D01*
X125385714Y-74778571D01*
X125385714Y-74873809D01*
X124909523Y-74969047D01*
X126242857Y-75302380D02*
X126242857Y-74778571D01*
X126195238Y-74683333D01*
X126100000Y-74635714D01*
X125909523Y-74635714D01*
X125814285Y-74683333D01*
X126242857Y-75254761D02*
X126147619Y-75302380D01*
X125909523Y-75302380D01*
X125814285Y-75254761D01*
X125766666Y-75159523D01*
X125766666Y-75064285D01*
X125814285Y-74969047D01*
X125909523Y-74921428D01*
X126147619Y-74921428D01*
X126242857Y-74873809D01*
X127147619Y-75302380D02*
X127147619Y-74302380D01*
X127147619Y-75254761D02*
X127052380Y-75302380D01*
X126861904Y-75302380D01*
X126766666Y-75254761D01*
X126719047Y-75207142D01*
X126671428Y-75111904D01*
X126671428Y-74826190D01*
X126719047Y-74730952D01*
X126766666Y-74683333D01*
X126861904Y-74635714D01*
X127052380Y-74635714D01*
X127147619Y-74683333D01*
X128052380Y-75254761D02*
X127957142Y-75302380D01*
X127766666Y-75302380D01*
X127671428Y-75254761D01*
X127623809Y-75207142D01*
X127576190Y-75111904D01*
X127576190Y-74826190D01*
X127623809Y-74730952D01*
X127671428Y-74683333D01*
X127766666Y-74635714D01*
X127957142Y-74635714D01*
X128052380Y-74683333D01*
X128480952Y-75302380D02*
X128480952Y-74635714D01*
X128480952Y-74826190D02*
X128528571Y-74730952D01*
X128576190Y-74683333D01*
X128671428Y-74635714D01*
X128766666Y-74635714D01*
X129528571Y-75302380D02*
X129528571Y-74778571D01*
X129480952Y-74683333D01*
X129385714Y-74635714D01*
X129195238Y-74635714D01*
X129100000Y-74683333D01*
X129528571Y-75254761D02*
X129433333Y-75302380D01*
X129195238Y-75302380D01*
X129100000Y-75254761D01*
X129052380Y-75159523D01*
X129052380Y-75064285D01*
X129100000Y-74969047D01*
X129195238Y-74921428D01*
X129433333Y-74921428D01*
X129528571Y-74873809D01*
X130004761Y-75302380D02*
X130004761Y-74302380D01*
X130004761Y-74683333D02*
X130100000Y-74635714D01*
X130290476Y-74635714D01*
X130385714Y-74683333D01*
X130433333Y-74730952D01*
X130480952Y-74826190D01*
X130480952Y-75111904D01*
X130433333Y-75207142D01*
X130385714Y-75254761D01*
X130290476Y-75302380D01*
X130100000Y-75302380D01*
X130004761Y-75254761D01*
X130909523Y-74635714D02*
X130909523Y-75302380D01*
X130909523Y-74730952D02*
X130957142Y-74683333D01*
X131052380Y-74635714D01*
X131195238Y-74635714D01*
X131290476Y-74683333D01*
X131338095Y-74778571D01*
X131338095Y-75302380D01*
X132195238Y-75254761D02*
X132100000Y-75302380D01*
X131909523Y-75302380D01*
X131814285Y-75254761D01*
X131766666Y-75159523D01*
X131766666Y-74778571D01*
X131814285Y-74683333D01*
X131909523Y-74635714D01*
X132100000Y-74635714D01*
X132195238Y-74683333D01*
X132242857Y-74778571D01*
X132242857Y-74873809D01*
X131766666Y-74969047D01*
X133100000Y-75302380D02*
X133100000Y-74302380D01*
X133100000Y-75254761D02*
X133004761Y-75302380D01*
X132814285Y-75302380D01*
X132719047Y-75254761D01*
X132671428Y-75207142D01*
X132623809Y-75111904D01*
X132623809Y-74826190D01*
X132671428Y-74730952D01*
X132719047Y-74683333D01*
X132814285Y-74635714D01*
X133004761Y-74635714D01*
X133100000Y-74683333D01*
X116457142Y-77002380D02*
X116457142Y-76335714D01*
X116457142Y-76430952D02*
X116504761Y-76383333D01*
X116600000Y-76335714D01*
X116742857Y-76335714D01*
X116838095Y-76383333D01*
X116885714Y-76478571D01*
X116885714Y-77002380D01*
X116885714Y-76478571D02*
X116933333Y-76383333D01*
X117028571Y-76335714D01*
X117171428Y-76335714D01*
X117266666Y-76383333D01*
X117314285Y-76478571D01*
X117314285Y-77002380D01*
X117933333Y-77002380D02*
X117838095Y-76954761D01*
X117790476Y-76907142D01*
X117742857Y-76811904D01*
X117742857Y-76526190D01*
X117790476Y-76430952D01*
X117838095Y-76383333D01*
X117933333Y-76335714D01*
X118076190Y-76335714D01*
X118171428Y-76383333D01*
X118219047Y-76430952D01*
X118266666Y-76526190D01*
X118266666Y-76811904D01*
X118219047Y-76907142D01*
X118171428Y-76954761D01*
X118076190Y-77002380D01*
X117933333Y-77002380D01*
X119123809Y-77002380D02*
X119123809Y-76002380D01*
X119123809Y-76954761D02*
X119028571Y-77002380D01*
X118838095Y-77002380D01*
X118742857Y-76954761D01*
X118695238Y-76907142D01*
X118647619Y-76811904D01*
X118647619Y-76526190D01*
X118695238Y-76430952D01*
X118742857Y-76383333D01*
X118838095Y-76335714D01*
X119028571Y-76335714D01*
X119123809Y-76383333D01*
X120361904Y-77002380D02*
X120361904Y-76002380D01*
X120361904Y-76383333D02*
X120457142Y-76335714D01*
X120647619Y-76335714D01*
X120742857Y-76383333D01*
X120790476Y-76430952D01*
X120838095Y-76526190D01*
X120838095Y-76811904D01*
X120790476Y-76907142D01*
X120742857Y-76954761D01*
X120647619Y-77002380D01*
X120457142Y-77002380D01*
X120361904Y-76954761D01*
X121171428Y-76335714D02*
X121409523Y-77002380D01*
X121647619Y-76335714D02*
X121409523Y-77002380D01*
X121314285Y-77240476D01*
X121266666Y-77288095D01*
X121171428Y-77335714D01*
X122790476Y-77002380D02*
X122790476Y-76335714D01*
X122790476Y-76430952D02*
X122838095Y-76383333D01*
X122933333Y-76335714D01*
X123076190Y-76335714D01*
X123171428Y-76383333D01*
X123219047Y-76478571D01*
X123219047Y-77002380D01*
X123219047Y-76478571D02*
X123266666Y-76383333D01*
X123361904Y-76335714D01*
X123504761Y-76335714D01*
X123600000Y-76383333D01*
X123647619Y-76478571D01*
X123647619Y-77002380D01*
X124552380Y-77002380D02*
X124552380Y-76478571D01*
X124504761Y-76383333D01*
X124409523Y-76335714D01*
X124219047Y-76335714D01*
X124123809Y-76383333D01*
X124552380Y-76954761D02*
X124457142Y-77002380D01*
X124219047Y-77002380D01*
X124123809Y-76954761D01*
X124076190Y-76859523D01*
X124076190Y-76764285D01*
X124123809Y-76669047D01*
X124219047Y-76621428D01*
X124457142Y-76621428D01*
X124552380Y-76573809D01*
X124885714Y-76335714D02*
X125266666Y-76335714D01*
X125028571Y-76002380D02*
X125028571Y-76859523D01*
X125076190Y-76954761D01*
X125171428Y-77002380D01*
X125266666Y-77002380D01*
X125600000Y-77002380D02*
X125600000Y-76002380D01*
X126028571Y-77002380D02*
X126028571Y-76478571D01*
X125980952Y-76383333D01*
X125885714Y-76335714D01*
X125742857Y-76335714D01*
X125647619Y-76383333D01*
X125600000Y-76430952D01*
X126885714Y-76954761D02*
X126790476Y-77002380D01*
X126600000Y-77002380D01*
X126504761Y-76954761D01*
X126457142Y-76859523D01*
X126457142Y-76478571D01*
X126504761Y-76383333D01*
X126600000Y-76335714D01*
X126790476Y-76335714D01*
X126885714Y-76383333D01*
X126933333Y-76478571D01*
X126933333Y-76573809D01*
X126457142Y-76669047D01*
X127266666Y-76335714D02*
X127457142Y-77002380D01*
X127647619Y-76526190D01*
X127838095Y-77002380D01*
X128028571Y-76335714D01*
X128314285Y-76002380D02*
X128933333Y-76002380D01*
X128599999Y-76383333D01*
X128742857Y-76383333D01*
X128838095Y-76430952D01*
X128885714Y-76478571D01*
X128933333Y-76573809D01*
X128933333Y-76811904D01*
X128885714Y-76907142D01*
X128838095Y-76954761D01*
X128742857Y-77002380D01*
X128457142Y-77002380D01*
X128361904Y-76954761D01*
X128314285Y-76907142D01*
X129552380Y-76002380D02*
X129647619Y-76002380D01*
X129742857Y-76050000D01*
X129790476Y-76097619D01*
X129838095Y-76192857D01*
X129885714Y-76383333D01*
X129885714Y-76621428D01*
X129838095Y-76811904D01*
X129790476Y-76907142D01*
X129742857Y-76954761D01*
X129647619Y-77002380D01*
X129552380Y-77002380D01*
X129457142Y-76954761D01*
X129409523Y-76907142D01*
X129361904Y-76811904D01*
X129314285Y-76621428D01*
X129314285Y-76383333D01*
X129361904Y-76192857D01*
X129409523Y-76097619D01*
X129457142Y-76050000D01*
X129552380Y-76002380D01*
X130504761Y-76002380D02*
X130599999Y-76002380D01*
X130695238Y-76050000D01*
X130742857Y-76097619D01*
X130790476Y-76192857D01*
X130838095Y-76383333D01*
X130838095Y-76621428D01*
X130790476Y-76811904D01*
X130742857Y-76907142D01*
X130695238Y-76954761D01*
X130599999Y-77002380D01*
X130504761Y-77002380D01*
X130409523Y-76954761D01*
X130361904Y-76907142D01*
X130314285Y-76811904D01*
X130266666Y-76621428D01*
X130266666Y-76383333D01*
X130314285Y-76192857D01*
X130361904Y-76097619D01*
X130409523Y-76050000D01*
X130504761Y-76002380D01*
X131457142Y-76002380D02*
X131552380Y-76002380D01*
X131647619Y-76050000D01*
X131695238Y-76097619D01*
X131742857Y-76192857D01*
X131790476Y-76383333D01*
X131790476Y-76621428D01*
X131742857Y-76811904D01*
X131695238Y-76907142D01*
X131647619Y-76954761D01*
X131552380Y-77002380D01*
X131457142Y-77002380D01*
X131361904Y-76954761D01*
X131314285Y-76907142D01*
X131266666Y-76811904D01*
X131219047Y-76621428D01*
X131219047Y-76383333D01*
X131266666Y-76192857D01*
X131314285Y-76097619D01*
X131361904Y-76050000D01*
X131457142Y-76002380D01*
D11*
%TO.C,J3*%
X141750000Y-66005000D02*
X141750000Y-66480000D01*
X141750000Y-66480000D02*
X133450000Y-66480000D01*
X133450000Y-66480000D02*
X133450000Y-66005000D01*
X141750000Y-63755000D02*
X141750000Y-63280000D01*
X141750000Y-63280000D02*
X133450000Y-63280000D01*
X133450000Y-63280000D02*
X133450000Y-63755000D01*
X139900000Y-66780000D02*
X137900000Y-66780000D01*
D12*
%TO.C,U5*%
X149380000Y-81055000D02*
X149000000Y-81055000D01*
X149380000Y-74635000D02*
X149380000Y-81055000D01*
X167620000Y-74635000D02*
X167620000Y-81055000D01*
X149380000Y-74635000D02*
X167620000Y-74635000D01*
X167620000Y-100380000D02*
X166620000Y-100380000D01*
X167620000Y-99600000D02*
X167620000Y-100380000D01*
X149380000Y-100380000D02*
X150380000Y-100380000D01*
X149380000Y-99600000D02*
X149380000Y-100380000D01*
%TO.C,U6*%
X138400000Y-78760000D02*
X141850000Y-78760000D01*
X138400000Y-78760000D02*
X136450000Y-78760000D01*
X138400000Y-68640000D02*
X140350000Y-68640000D01*
X138400000Y-68640000D02*
X136450000Y-68640000D01*
%TO.C,R6*%
X142677500Y-71162742D02*
X142677500Y-71637258D01*
X143722500Y-71162742D02*
X143722500Y-71637258D01*
%TO.C,C35*%
X138459420Y-81910000D02*
X138740580Y-81910000D01*
X138459420Y-80890000D02*
X138740580Y-80890000D01*
%TO.C,C34*%
X138459420Y-80410000D02*
X138740580Y-80410000D01*
X138459420Y-79390000D02*
X138740580Y-79390000D01*
%TO.C,C7*%
X138190000Y-113950000D02*
X138690000Y-113950000D01*
X138440000Y-114200000D02*
X138440000Y-113700000D01*
X141195563Y-113460000D02*
X142260000Y-112395563D01*
X138804437Y-113460000D02*
X137740000Y-112395563D01*
X138804437Y-113460000D02*
X138940000Y-113460000D01*
X141195563Y-113460000D02*
X141060000Y-113460000D01*
X142260000Y-112395563D02*
X142260000Y-108940000D01*
X137740000Y-112395563D02*
X137740000Y-108940000D01*
X137740000Y-108940000D02*
X138940000Y-108940000D01*
X142260000Y-108940000D02*
X141060000Y-108940000D01*
%TO.C,C5*%
X125190000Y-112250000D02*
X125690000Y-112250000D01*
X125440000Y-112500000D02*
X125440000Y-112000000D01*
X128195563Y-111760000D02*
X129260000Y-110695563D01*
X125804437Y-111760000D02*
X124740000Y-110695563D01*
X125804437Y-111760000D02*
X125940000Y-111760000D01*
X128195563Y-111760000D02*
X128060000Y-111760000D01*
X129260000Y-110695563D02*
X129260000Y-107240000D01*
X124740000Y-110695563D02*
X124740000Y-107240000D01*
X124740000Y-107240000D02*
X125940000Y-107240000D01*
X129260000Y-107240000D02*
X128060000Y-107240000D01*
%TO.C,C4*%
X116110000Y-96750000D02*
X115610000Y-96750000D01*
X115860000Y-96500000D02*
X115860000Y-97000000D01*
X113104437Y-97240000D02*
X112040000Y-98304437D01*
X115495563Y-97240000D02*
X116560000Y-98304437D01*
X115495563Y-97240000D02*
X115360000Y-97240000D01*
X113104437Y-97240000D02*
X113240000Y-97240000D01*
X112040000Y-98304437D02*
X112040000Y-101760000D01*
X116560000Y-98304437D02*
X116560000Y-101760000D01*
X116560000Y-101760000D02*
X115360000Y-101760000D01*
X112040000Y-101760000D02*
X113240000Y-101760000D01*
%TO.C,C2*%
X127610000Y-96750000D02*
X127110000Y-96750000D01*
X127360000Y-96500000D02*
X127360000Y-97000000D01*
X124604437Y-97240000D02*
X123540000Y-98304437D01*
X126995563Y-97240000D02*
X128060000Y-98304437D01*
X126995563Y-97240000D02*
X126860000Y-97240000D01*
X124604437Y-97240000D02*
X124740000Y-97240000D01*
X123540000Y-98304437D02*
X123540000Y-101760000D01*
X128060000Y-98304437D02*
X128060000Y-101760000D01*
X128060000Y-101760000D02*
X126860000Y-101760000D01*
X123540000Y-101760000D02*
X124740000Y-101760000D01*
%TO.C,U4*%
X146400000Y-99890000D02*
X143950000Y-99890000D01*
X144600000Y-103110000D02*
X146400000Y-103110000D01*
%TO.C,U3*%
X136655000Y-111470000D02*
X136655000Y-112570000D01*
X136925000Y-111470000D02*
X136655000Y-111470000D01*
X136925000Y-109970000D02*
X136925000Y-111470000D01*
X130295000Y-111470000D02*
X130295000Y-114300000D01*
X130025000Y-111470000D02*
X130295000Y-111470000D01*
X130025000Y-109970000D02*
X130025000Y-111470000D01*
%TO.C,U2*%
X116620000Y-97530000D02*
X116620000Y-96430000D01*
X116350000Y-97530000D02*
X116620000Y-97530000D01*
X116350000Y-99030000D02*
X116350000Y-97530000D01*
X122980000Y-97530000D02*
X122980000Y-94700000D01*
X123250000Y-97530000D02*
X122980000Y-97530000D01*
X123250000Y-99030000D02*
X123250000Y-97530000D01*
D13*
%TO.C,U1*%
X150409499Y-127322000D02*
G75*
G03*
X150409499Y-127322000I-125000J0D01*
G01*
D11*
X146159499Y-117340500D02*
X146159499Y-136263499D01*
X146159499Y-117340500D02*
X133840500Y-117340500D01*
X133840500Y-117340500D02*
X133840500Y-136263499D01*
X146159499Y-136263499D02*
X133840500Y-136263499D01*
D12*
%TO.C,SW4*%
X163003333Y-106735000D02*
X163003333Y-105465000D01*
X164210000Y-105535000D02*
X163003333Y-105535000D01*
X164210000Y-105655000D02*
X163003333Y-105655000D01*
X164210000Y-105775000D02*
X163003333Y-105775000D01*
X164210000Y-105895000D02*
X163003333Y-105895000D01*
X164210000Y-106015000D02*
X163003333Y-106015000D01*
X164210000Y-106135000D02*
X163003333Y-106135000D01*
X164210000Y-106255000D02*
X163003333Y-106255000D01*
X164210000Y-106375000D02*
X163003333Y-106375000D01*
X164210000Y-106495000D02*
X163003333Y-106495000D01*
X164210000Y-106615000D02*
X163003333Y-106615000D01*
X160590000Y-106735000D02*
X164210000Y-106735000D01*
X160590000Y-105465000D02*
X160590000Y-106735000D01*
X164210000Y-105465000D02*
X160590000Y-105465000D01*
X164210000Y-106735000D02*
X164210000Y-105465000D01*
X166050000Y-108450000D02*
X166050000Y-107067000D01*
X166050000Y-108450000D02*
X164667000Y-108450000D01*
X158990000Y-105300000D02*
X158990000Y-103990000D01*
X158990000Y-108210000D02*
X158990000Y-106900000D01*
X165810000Y-105300000D02*
X165810000Y-103990000D01*
X165810000Y-108210000D02*
X165810000Y-106900000D01*
X165810000Y-103990000D02*
X158990000Y-103990000D01*
X165810000Y-108210000D02*
X158990000Y-108210000D01*
%TO.C,SW3*%
X118003333Y-83025000D02*
X118003333Y-81755000D01*
X119210000Y-81825000D02*
X118003333Y-81825000D01*
X119210000Y-81945000D02*
X118003333Y-81945000D01*
X119210000Y-82065000D02*
X118003333Y-82065000D01*
X119210000Y-82185000D02*
X118003333Y-82185000D01*
X119210000Y-82305000D02*
X118003333Y-82305000D01*
X119210000Y-82425000D02*
X118003333Y-82425000D01*
X119210000Y-82545000D02*
X118003333Y-82545000D01*
X119210000Y-82665000D02*
X118003333Y-82665000D01*
X119210000Y-82785000D02*
X118003333Y-82785000D01*
X119210000Y-82905000D02*
X118003333Y-82905000D01*
X115590000Y-83025000D02*
X119210000Y-83025000D01*
X115590000Y-81755000D02*
X115590000Y-83025000D01*
X119210000Y-81755000D02*
X115590000Y-81755000D01*
X119210000Y-83025000D02*
X119210000Y-81755000D01*
X118003333Y-85565000D02*
X118003333Y-84295000D01*
X119210000Y-84365000D02*
X118003333Y-84365000D01*
X119210000Y-84485000D02*
X118003333Y-84485000D01*
X119210000Y-84605000D02*
X118003333Y-84605000D01*
X119210000Y-84725000D02*
X118003333Y-84725000D01*
X119210000Y-84845000D02*
X118003333Y-84845000D01*
X119210000Y-84965000D02*
X118003333Y-84965000D01*
X119210000Y-85085000D02*
X118003333Y-85085000D01*
X119210000Y-85205000D02*
X118003333Y-85205000D01*
X119210000Y-85325000D02*
X118003333Y-85325000D01*
X119210000Y-85445000D02*
X118003333Y-85445000D01*
X115590000Y-85565000D02*
X119210000Y-85565000D01*
X115590000Y-84295000D02*
X115590000Y-85565000D01*
X119210000Y-84295000D02*
X115590000Y-84295000D01*
X119210000Y-85565000D02*
X119210000Y-84295000D01*
X118003333Y-88105000D02*
X118003333Y-86835000D01*
X119210000Y-86905000D02*
X118003333Y-86905000D01*
X119210000Y-87025000D02*
X118003333Y-87025000D01*
X119210000Y-87145000D02*
X118003333Y-87145000D01*
X119210000Y-87265000D02*
X118003333Y-87265000D01*
X119210000Y-87385000D02*
X118003333Y-87385000D01*
X119210000Y-87505000D02*
X118003333Y-87505000D01*
X119210000Y-87625000D02*
X118003333Y-87625000D01*
X119210000Y-87745000D02*
X118003333Y-87745000D01*
X119210000Y-87865000D02*
X118003333Y-87865000D01*
X119210000Y-87985000D02*
X118003333Y-87985000D01*
X115590000Y-88105000D02*
X119210000Y-88105000D01*
X115590000Y-86835000D02*
X115590000Y-88105000D01*
X119210000Y-86835000D02*
X115590000Y-86835000D01*
X119210000Y-88105000D02*
X119210000Y-86835000D01*
X118003333Y-90645000D02*
X118003333Y-89375000D01*
X119210000Y-89445000D02*
X118003333Y-89445000D01*
X119210000Y-89565000D02*
X118003333Y-89565000D01*
X119210000Y-89685000D02*
X118003333Y-89685000D01*
X119210000Y-89805000D02*
X118003333Y-89805000D01*
X119210000Y-89925000D02*
X118003333Y-89925000D01*
X119210000Y-90045000D02*
X118003333Y-90045000D01*
X119210000Y-90165000D02*
X118003333Y-90165000D01*
X119210000Y-90285000D02*
X118003333Y-90285000D01*
X119210000Y-90405000D02*
X118003333Y-90405000D01*
X119210000Y-90525000D02*
X118003333Y-90525000D01*
X115590000Y-90645000D02*
X119210000Y-90645000D01*
X115590000Y-89375000D02*
X115590000Y-90645000D01*
X119210000Y-89375000D02*
X115590000Y-89375000D01*
X119210000Y-90645000D02*
X119210000Y-89375000D01*
X121050000Y-92360000D02*
X121050000Y-90977000D01*
X121050000Y-92360000D02*
X119667000Y-92360000D01*
X113990000Y-89210000D02*
X113990000Y-88270000D01*
X113990000Y-92120000D02*
X113990000Y-90810000D01*
X113990000Y-86670000D02*
X113990000Y-85730000D01*
X113990000Y-84130000D02*
X113990000Y-83190000D01*
X113990000Y-81590000D02*
X113990000Y-80280000D01*
X120810000Y-81590000D02*
X120810000Y-80280000D01*
X120810000Y-84130000D02*
X120810000Y-83190000D01*
X120810000Y-86670000D02*
X120810000Y-85730000D01*
X120810000Y-89210000D02*
X120810000Y-88270000D01*
X120810000Y-92120000D02*
X120810000Y-90810000D01*
X120810000Y-80280000D02*
X113990000Y-80280000D01*
X120810000Y-92120000D02*
X113990000Y-92120000D01*
%TO.C,SW2*%
X143000000Y-90000000D02*
G75*
G03*
X143000000Y-90000000I-3000000J0D01*
G01*
X142000000Y-84100000D02*
X146100000Y-84100000D01*
X146100000Y-95900000D02*
X142000000Y-95900000D01*
X138000000Y-95900000D02*
X133900000Y-95900000D01*
X138000000Y-84100000D02*
X133900000Y-84100000D01*
X133900000Y-84100000D02*
X133900000Y-95900000D01*
X132500000Y-86200000D02*
X132200000Y-85900000D01*
X132200000Y-85900000D02*
X132800000Y-85900000D01*
X132800000Y-85900000D02*
X132500000Y-86200000D01*
X146100000Y-84100000D02*
X146100000Y-86500000D01*
X146100000Y-88700000D02*
X146100000Y-91300000D01*
X146100000Y-93500000D02*
X146100000Y-95900000D01*
X140000000Y-89500000D02*
X140000000Y-90500000D01*
X139500000Y-90000000D02*
X140500000Y-90000000D01*
%TO.C,SW1*%
X124200000Y-81650000D02*
X124200000Y-81550000D01*
X128600000Y-80050000D02*
X124200000Y-80050000D01*
X124200000Y-83150000D02*
X128600000Y-83150000D01*
X128600000Y-81650000D02*
X128600000Y-81550000D01*
%TO.C,RV1*%
X140870000Y-102870000D02*
X136130000Y-102870000D01*
X140870000Y-98130000D02*
X136130000Y-98130000D01*
X136130000Y-101740000D02*
X136130000Y-102870000D01*
X136130000Y-98130000D02*
X136130000Y-99260000D01*
X140870000Y-100241000D02*
X140870000Y-100760000D01*
X140870000Y-98130000D02*
X140870000Y-98461000D01*
X140870000Y-102540000D02*
X140870000Y-102870000D01*
%TO.C,R5*%
X152962742Y-102722500D02*
X153437258Y-102722500D01*
X152962742Y-101677500D02*
X153437258Y-101677500D01*
%TO.C,R4*%
X146762742Y-82422500D02*
X147237258Y-82422500D01*
X146762742Y-81377500D02*
X147237258Y-81377500D01*
%TO.C,R3*%
X149737258Y-102977500D02*
X149262742Y-102977500D01*
X149737258Y-104022500D02*
X149262742Y-104022500D01*
%TO.C,R2*%
X157322500Y-104537258D02*
X157322500Y-104062742D01*
X156277500Y-104537258D02*
X156277500Y-104062742D01*
%TO.C,R1*%
X144022500Y-106237258D02*
X144022500Y-105762742D01*
X142977500Y-106237258D02*
X142977500Y-105762742D01*
%TO.C,Q1*%
X147530000Y-111180000D02*
X146430000Y-111180000D01*
X147530000Y-111450000D02*
X147530000Y-111180000D01*
X149030000Y-111450000D02*
X147530000Y-111450000D01*
X147530000Y-104820000D02*
X144700000Y-104820000D01*
X147530000Y-104550000D02*
X147530000Y-104820000D01*
X149030000Y-104550000D02*
X147530000Y-104550000D01*
%TO.C,J2*%
X161852564Y-122770912D02*
X162852564Y-124502963D01*
X157522436Y-125270912D02*
X158522436Y-127002963D01*
X158522436Y-127002963D02*
X162852564Y-124502963D01*
X161852564Y-122770912D02*
X162372179Y-122470912D01*
X157002821Y-125570912D02*
X157522436Y-125270912D01*
X156322179Y-111992005D02*
X150952821Y-115092005D01*
X157002821Y-125570912D02*
X155815321Y-123514102D01*
X154990321Y-122085160D02*
X154315321Y-120916025D01*
X153490321Y-119487083D02*
X152290321Y-117408623D01*
X151515321Y-116066283D02*
X150952821Y-115092005D01*
X157109679Y-113355995D02*
X162372179Y-122470912D01*
X151515321Y-116066283D02*
X150302886Y-116766283D01*
X152290321Y-117408623D02*
X151077886Y-118108623D01*
%TO.C,J1*%
X120828437Y-111179334D02*
X122335321Y-112049334D01*
X119958437Y-112686218D02*
X120828437Y-111179334D01*
X128883717Y-116107180D02*
X127883717Y-117839230D01*
X126458846Y-114707180D02*
X128883717Y-116107180D01*
X120916283Y-111507180D02*
X123341154Y-112907180D01*
X113616283Y-124151151D02*
X120916283Y-111507180D01*
X121583717Y-128751151D02*
X113616283Y-124151151D01*
X126083717Y-120956922D02*
X121583717Y-128751151D01*
%TO.C,D24*%
X171541880Y-114525097D02*
X170710468Y-113730582D01*
X166498439Y-119802757D02*
X171541880Y-114525097D01*
X162522120Y-116002903D02*
X167565561Y-110725243D01*
%TO.C,D23*%
X132349228Y-50803497D02*
X132459451Y-51948203D01*
X139615620Y-50103823D02*
X132349228Y-50803497D01*
X140142772Y-55578503D02*
X132876380Y-56278177D01*
%TO.C,D22*%
X175820190Y-107696351D02*
X174846000Y-107085243D01*
X171940980Y-113880341D02*
X175820190Y-107696351D01*
X167281810Y-110957649D02*
X171161020Y-104773659D01*
%TO.C,D21*%
X124639745Y-53137816D02*
X124977891Y-54236978D01*
X131617034Y-50991322D02*
X124639745Y-53137816D01*
X133234255Y-56248184D02*
X126256966Y-58394678D01*
%TO.C,D20*%
X178641105Y-100148217D02*
X177563932Y-99745478D01*
X176084592Y-106985924D02*
X178641105Y-100148217D01*
X170932895Y-105059783D02*
X173489408Y-98222076D01*
%TO.C,D19*%
X117555802Y-56970664D02*
X118108059Y-57979382D01*
X123958969Y-53465032D02*
X117555802Y-56970664D01*
X126600198Y-58289336D02*
X120197031Y-61794968D01*
%TO.C,D18*%
X179590583Y-92187400D02*
X178454429Y-92009483D01*
X178461197Y-99399507D02*
X179590583Y-92187400D01*
X173027417Y-98548600D02*
X174156803Y-91336493D01*
%TO.C,D17*%
X111385589Y-62147445D02*
X112129397Y-63024513D01*
X116953068Y-57425879D02*
X111385589Y-62147445D01*
X120510411Y-61620555D02*
X114942932Y-66342121D01*
%TO.C,D16*%
X179516009Y-84138509D02*
X178367285Y-84192682D01*
X179859886Y-91430405D02*
X179516009Y-84138509D01*
X174365991Y-91689491D02*
X174022114Y-84397595D01*
%TO.C,D15*%
X106379748Y-68456464D02*
X107284723Y-69166055D01*
X110884110Y-62711839D02*
X106379748Y-68456464D01*
X115212252Y-66105536D02*
X110707890Y-71850161D01*
%TO.C,D14*%
X177535247Y-76328845D02*
X176420879Y-76612894D01*
X179338340Y-83402660D02*
X177535247Y-76328845D01*
X174008753Y-84761155D02*
X172205660Y-77687340D01*
%TO.C,D13*%
X102742308Y-75639466D02*
X103771483Y-76152594D01*
X105999553Y-69106446D02*
X102742308Y-75639466D01*
X110921692Y-71560534D02*
X107664447Y-78093554D01*
%TO.C,D12*%
X174026457Y-69075409D02*
X172991966Y-69577731D01*
X177215110Y-75642181D02*
X174026457Y-69075409D01*
X172267543Y-78044591D02*
X169078890Y-71477819D01*
%TO.C,D11*%
X100620931Y-83410158D02*
X101732264Y-83705860D01*
X102498000Y-76355612D02*
X100620931Y-83410158D01*
X107813069Y-77769842D02*
X105936000Y-84824388D01*
%TO.C,D10*%
X169134742Y-62674166D02*
X168222386Y-63374242D01*
X173578701Y-68465646D02*
X169134742Y-62674166D01*
X169215258Y-71813834D02*
X164771299Y-66022354D01*
%TO.C,D9*%
X100100451Y-91446647D02*
X101248544Y-91512845D01*
X100520669Y-84158751D02*
X100100451Y-91446647D01*
X106011549Y-84475353D02*
X105591331Y-91763249D01*
%TO.C,D8*%
X163057672Y-57384599D02*
X162304720Y-58253830D01*
X168575402Y-62164207D02*
X163057672Y-57384599D01*
X164974328Y-66321401D02*
X159456598Y-61541793D01*
%TO.C,D7*%
X101203704Y-99422749D02*
X102341659Y-99256739D01*
X100149904Y-92199210D02*
X101203704Y-99422749D01*
X105592296Y-91405251D02*
X106646096Y-98628790D01*
%TO.C,D6*%
X156043749Y-53445564D02*
X155480959Y-54448443D01*
X162409855Y-57018055D02*
X156043749Y-53445564D01*
X159718251Y-61814436D02*
X153352145Y-58241945D01*
%TO.C,D5*%
X103886593Y-107016095D02*
X104967924Y-106624659D01*
X101401822Y-100151992D02*
X103886593Y-107016095D01*
X106573407Y-98279905D02*
X109058178Y-105144008D01*
%TO.C,D4*%
X148376877Y-50963460D02*
X148027238Y-52059021D01*
X155331305Y-53182902D02*
X148376877Y-50963460D01*
X153659123Y-58422540D02*
X146704695Y-56203098D01*
%TO.C,D3*%
X108035359Y-113916008D02*
X109015895Y-113315134D01*
X104221120Y-107691734D02*
X108035359Y-113916008D01*
X108910641Y-104817992D02*
X112724880Y-111042266D01*
%TO.C,D2*%
X140416893Y-50068707D02*
X140294689Y-51212195D01*
X147675560Y-50844435D02*
X140416893Y-50068707D01*
X147091107Y-56313293D02*
X139832440Y-55537565D01*
%TO.C,D1*%
X113486003Y-119842095D02*
X114325690Y-119056330D01*
X108498104Y-114511911D02*
X113486003Y-119842095D01*
X112513997Y-110753905D02*
X117501896Y-116084089D01*
%TO.C,C33*%
X170590000Y-101559420D02*
X170590000Y-101840580D01*
X171610000Y-101559420D02*
X171610000Y-101840580D01*
%TO.C,C32*%
X155239970Y-61061219D02*
X155438781Y-61260030D01*
X155961219Y-60339970D02*
X156160030Y-60538781D01*
%TO.C,C31*%
X160839970Y-64661219D02*
X161038781Y-64860030D01*
X161561219Y-63939970D02*
X161760030Y-64138781D01*
%TO.C,C30*%
X164138781Y-111739970D02*
X163939970Y-111938781D01*
X164860030Y-112461219D02*
X164661219Y-112660030D01*
%TO.C,C29*%
X142959420Y-57210000D02*
X143240580Y-57210000D01*
X142959420Y-56190000D02*
X143240580Y-56190000D01*
%TO.C,C28*%
X113861219Y-70460030D02*
X114060030Y-70261219D01*
X113139970Y-69738781D02*
X113338781Y-69539970D01*
%TO.C,C27*%
X149259420Y-58910000D02*
X149540580Y-58910000D01*
X149259420Y-57890000D02*
X149540580Y-57890000D01*
%TO.C,C26*%
X136059420Y-57410000D02*
X136340580Y-57410000D01*
X136059420Y-56390000D02*
X136340580Y-56390000D01*
%TO.C,C25*%
X129584420Y-59010000D02*
X129865580Y-59010000D01*
X129584420Y-57990000D02*
X129865580Y-57990000D01*
%TO.C,C24*%
X111009227Y-75912022D02*
X111208038Y-75713211D01*
X110287978Y-75190773D02*
X110486789Y-74991962D01*
%TO.C,C23*%
X123961219Y-61460030D02*
X124160030Y-61261219D01*
X123239970Y-60738781D02*
X123438781Y-60539970D01*
%TO.C,C22*%
X108610000Y-81940580D02*
X108610000Y-81659420D01*
X107590000Y-81940580D02*
X107590000Y-81659420D01*
%TO.C,C21*%
X118761219Y-65260030D02*
X118960030Y-65061219D01*
X118039970Y-64538781D02*
X118238781Y-64339970D01*
%TO.C,C20*%
X171290000Y-80959420D02*
X171290000Y-81240580D01*
X172310000Y-80959420D02*
X172310000Y-81240580D01*
%TO.C,C19*%
X165739970Y-69661219D02*
X165938781Y-69860030D01*
X166461219Y-68939970D02*
X166660030Y-69138781D01*
%TO.C,C18*%
X172790000Y-87834420D02*
X172790000Y-88115580D01*
X173810000Y-87834420D02*
X173810000Y-88115580D01*
%TO.C,C17*%
X172090000Y-94759420D02*
X172090000Y-95040580D01*
X173110000Y-94759420D02*
X173110000Y-95040580D01*
%TO.C,C16*%
X169239970Y-75561219D02*
X169438781Y-75760030D01*
X169961219Y-74839970D02*
X170160030Y-75038781D01*
%TO.C,C15*%
X112260030Y-106838781D02*
X112061219Y-106639970D01*
X111538781Y-107560030D02*
X111339970Y-107361219D01*
%TO.C,C14*%
X168438781Y-106339970D02*
X168239970Y-106538781D01*
X169160030Y-107061219D02*
X168961219Y-107260030D01*
%TO.C,C13*%
X109710000Y-101940580D02*
X109710000Y-101659420D01*
X108690000Y-101940580D02*
X108690000Y-101659420D01*
%TO.C,C12*%
X116260030Y-112338781D02*
X116061219Y-112139970D01*
X115538781Y-113060030D02*
X115339970Y-112861219D01*
%TO.C,C11*%
X107810000Y-92640580D02*
X107810000Y-92359420D01*
X106790000Y-92640580D02*
X106790000Y-92359420D01*
%TO.C,C10*%
X107610000Y-88315580D02*
X107610000Y-88034420D01*
X106590000Y-88315580D02*
X106590000Y-88034420D01*
%TO.C,C9*%
X129140580Y-91990000D02*
X128859420Y-91990000D01*
X129140580Y-93010000D02*
X128859420Y-93010000D01*
%TO.C,C8*%
X129140580Y-86990000D02*
X128859420Y-86990000D01*
X129140580Y-88010000D02*
X128859420Y-88010000D01*
%TO.C,C6*%
X140811252Y-103890000D02*
X139388748Y-103890000D01*
X140811252Y-105710000D02*
X139388748Y-105710000D01*
%TO.C,C3*%
X153010000Y-125140580D02*
X153010000Y-124859420D01*
X151990000Y-125140580D02*
X151990000Y-124859420D01*
%TO.C,C1*%
X151510000Y-125140580D02*
X151510000Y-124859420D01*
X150490000Y-125140580D02*
X150490000Y-124859420D01*
%TO.C,J3*%
D11*
X133066666Y-66852380D02*
X133066666Y-67566666D01*
X133019047Y-67709523D01*
X132923809Y-67804761D01*
X132780952Y-67852380D01*
X132685714Y-67852380D01*
X133447619Y-66852380D02*
X134066666Y-66852380D01*
X133733333Y-67233333D01*
X133876190Y-67233333D01*
X133971428Y-67280952D01*
X134019047Y-67328571D01*
X134066666Y-67423809D01*
X134066666Y-67661904D01*
X134019047Y-67757142D01*
X133971428Y-67804761D01*
X133876190Y-67852380D01*
X133590476Y-67852380D01*
X133495238Y-67804761D01*
X133447619Y-67757142D01*
%TO.C,U5*%
X168338095Y-78852380D02*
X168338095Y-79661904D01*
X168385714Y-79757142D01*
X168433333Y-79804761D01*
X168528571Y-79852380D01*
X168719047Y-79852380D01*
X168814285Y-79804761D01*
X168861904Y-79757142D01*
X168909523Y-79661904D01*
X168909523Y-78852380D01*
X169861904Y-78852380D02*
X169385714Y-78852380D01*
X169338095Y-79328571D01*
X169385714Y-79280952D01*
X169480952Y-79233333D01*
X169719047Y-79233333D01*
X169814285Y-79280952D01*
X169861904Y-79328571D01*
X169909523Y-79423809D01*
X169909523Y-79661904D01*
X169861904Y-79757142D01*
X169814285Y-79804761D01*
X169719047Y-79852380D01*
X169480952Y-79852380D01*
X169385714Y-79804761D01*
X169338095Y-79757142D01*
%TO.C,U6*%
X140138095Y-67152380D02*
X140138095Y-67961904D01*
X140185714Y-68057142D01*
X140233333Y-68104761D01*
X140328571Y-68152380D01*
X140519047Y-68152380D01*
X140614285Y-68104761D01*
X140661904Y-68057142D01*
X140709523Y-67961904D01*
X140709523Y-67152380D01*
X141614285Y-67152380D02*
X141423809Y-67152380D01*
X141328571Y-67200000D01*
X141280952Y-67247619D01*
X141185714Y-67390476D01*
X141138095Y-67580952D01*
X141138095Y-67961904D01*
X141185714Y-68057142D01*
X141233333Y-68104761D01*
X141328571Y-68152380D01*
X141519047Y-68152380D01*
X141614285Y-68104761D01*
X141661904Y-68057142D01*
X141709523Y-67961904D01*
X141709523Y-67723809D01*
X141661904Y-67628571D01*
X141614285Y-67580952D01*
X141519047Y-67533333D01*
X141328571Y-67533333D01*
X141233333Y-67580952D01*
X141185714Y-67628571D01*
X141138095Y-67723809D01*
%TO.C,R6*%
X144833333Y-71952380D02*
X144500000Y-71476190D01*
X144261904Y-71952380D02*
X144261904Y-70952380D01*
X144642857Y-70952380D01*
X144738095Y-71000000D01*
X144785714Y-71047619D01*
X144833333Y-71142857D01*
X144833333Y-71285714D01*
X144785714Y-71380952D01*
X144738095Y-71428571D01*
X144642857Y-71476190D01*
X144261904Y-71476190D01*
X145690476Y-70952380D02*
X145500000Y-70952380D01*
X145404761Y-71000000D01*
X145357142Y-71047619D01*
X145261904Y-71190476D01*
X145214285Y-71380952D01*
X145214285Y-71761904D01*
X145261904Y-71857142D01*
X145309523Y-71904761D01*
X145404761Y-71952380D01*
X145595238Y-71952380D01*
X145690476Y-71904761D01*
X145738095Y-71857142D01*
X145785714Y-71761904D01*
X145785714Y-71523809D01*
X145738095Y-71428571D01*
X145690476Y-71380952D01*
X145595238Y-71333333D01*
X145404761Y-71333333D01*
X145309523Y-71380952D01*
X145261904Y-71428571D01*
X145214285Y-71523809D01*
%TO.C,C35*%
X140957142Y-81757142D02*
X140909523Y-81804761D01*
X140766666Y-81852380D01*
X140671428Y-81852380D01*
X140528571Y-81804761D01*
X140433333Y-81709523D01*
X140385714Y-81614285D01*
X140338095Y-81423809D01*
X140338095Y-81280952D01*
X140385714Y-81090476D01*
X140433333Y-80995238D01*
X140528571Y-80900000D01*
X140671428Y-80852380D01*
X140766666Y-80852380D01*
X140909523Y-80900000D01*
X140957142Y-80947619D01*
X141290476Y-80852380D02*
X141909523Y-80852380D01*
X141576190Y-81233333D01*
X141719047Y-81233333D01*
X141814285Y-81280952D01*
X141861904Y-81328571D01*
X141909523Y-81423809D01*
X141909523Y-81661904D01*
X141861904Y-81757142D01*
X141814285Y-81804761D01*
X141719047Y-81852380D01*
X141433333Y-81852380D01*
X141338095Y-81804761D01*
X141290476Y-81757142D01*
X142814285Y-80852380D02*
X142338095Y-80852380D01*
X142290476Y-81328571D01*
X142338095Y-81280952D01*
X142433333Y-81233333D01*
X142671428Y-81233333D01*
X142766666Y-81280952D01*
X142814285Y-81328571D01*
X142861904Y-81423809D01*
X142861904Y-81661904D01*
X142814285Y-81757142D01*
X142766666Y-81804761D01*
X142671428Y-81852380D01*
X142433333Y-81852380D01*
X142338095Y-81804761D01*
X142290476Y-81757142D01*
%TO.C,C34*%
X140957142Y-80257142D02*
X140909523Y-80304761D01*
X140766666Y-80352380D01*
X140671428Y-80352380D01*
X140528571Y-80304761D01*
X140433333Y-80209523D01*
X140385714Y-80114285D01*
X140338095Y-79923809D01*
X140338095Y-79780952D01*
X140385714Y-79590476D01*
X140433333Y-79495238D01*
X140528571Y-79400000D01*
X140671428Y-79352380D01*
X140766666Y-79352380D01*
X140909523Y-79400000D01*
X140957142Y-79447619D01*
X141290476Y-79352380D02*
X141909523Y-79352380D01*
X141576190Y-79733333D01*
X141719047Y-79733333D01*
X141814285Y-79780952D01*
X141861904Y-79828571D01*
X141909523Y-79923809D01*
X141909523Y-80161904D01*
X141861904Y-80257142D01*
X141814285Y-80304761D01*
X141719047Y-80352380D01*
X141433333Y-80352380D01*
X141338095Y-80304761D01*
X141290476Y-80257142D01*
X142766666Y-79685714D02*
X142766666Y-80352380D01*
X142528571Y-79304761D02*
X142290476Y-80019047D01*
X142909523Y-80019047D01*
%TO.C,C7*%
X142333333Y-114257142D02*
X142285714Y-114304761D01*
X142142857Y-114352380D01*
X142047619Y-114352380D01*
X141904761Y-114304761D01*
X141809523Y-114209523D01*
X141761904Y-114114285D01*
X141714285Y-113923809D01*
X141714285Y-113780952D01*
X141761904Y-113590476D01*
X141809523Y-113495238D01*
X141904761Y-113400000D01*
X142047619Y-113352380D01*
X142142857Y-113352380D01*
X142285714Y-113400000D01*
X142333333Y-113447619D01*
X142666666Y-113352380D02*
X143333333Y-113352380D01*
X142904761Y-114352380D01*
%TO.C,C5*%
X123133333Y-109757142D02*
X123085714Y-109804761D01*
X122942857Y-109852380D01*
X122847619Y-109852380D01*
X122704761Y-109804761D01*
X122609523Y-109709523D01*
X122561904Y-109614285D01*
X122514285Y-109423809D01*
X122514285Y-109280952D01*
X122561904Y-109090476D01*
X122609523Y-108995238D01*
X122704761Y-108900000D01*
X122847619Y-108852380D01*
X122942857Y-108852380D01*
X123085714Y-108900000D01*
X123133333Y-108947619D01*
X124038095Y-108852380D02*
X123561904Y-108852380D01*
X123514285Y-109328571D01*
X123561904Y-109280952D01*
X123657142Y-109233333D01*
X123895238Y-109233333D01*
X123990476Y-109280952D01*
X124038095Y-109328571D01*
X124085714Y-109423809D01*
X124085714Y-109661904D01*
X124038095Y-109757142D01*
X123990476Y-109804761D01*
X123895238Y-109852380D01*
X123657142Y-109852380D01*
X123561904Y-109804761D01*
X123514285Y-109757142D01*
%TO.C,C4*%
X111533333Y-97157142D02*
X111485714Y-97204761D01*
X111342857Y-97252380D01*
X111247619Y-97252380D01*
X111104761Y-97204761D01*
X111009523Y-97109523D01*
X110961904Y-97014285D01*
X110914285Y-96823809D01*
X110914285Y-96680952D01*
X110961904Y-96490476D01*
X111009523Y-96395238D01*
X111104761Y-96300000D01*
X111247619Y-96252380D01*
X111342857Y-96252380D01*
X111485714Y-96300000D01*
X111533333Y-96347619D01*
X112390476Y-96585714D02*
X112390476Y-97252380D01*
X112152380Y-96204761D02*
X111914285Y-96919047D01*
X112533333Y-96919047D01*
%TO.C,C2*%
X128933333Y-99757142D02*
X128885714Y-99804761D01*
X128742857Y-99852380D01*
X128647619Y-99852380D01*
X128504761Y-99804761D01*
X128409523Y-99709523D01*
X128361904Y-99614285D01*
X128314285Y-99423809D01*
X128314285Y-99280952D01*
X128361904Y-99090476D01*
X128409523Y-98995238D01*
X128504761Y-98900000D01*
X128647619Y-98852380D01*
X128742857Y-98852380D01*
X128885714Y-98900000D01*
X128933333Y-98947619D01*
X129314285Y-98947619D02*
X129361904Y-98900000D01*
X129457142Y-98852380D01*
X129695238Y-98852380D01*
X129790476Y-98900000D01*
X129838095Y-98947619D01*
X129885714Y-99042857D01*
X129885714Y-99138095D01*
X129838095Y-99280952D01*
X129266666Y-99852380D01*
X129885714Y-99852380D01*
%TO.C,U4*%
X143338095Y-98452380D02*
X143338095Y-99261904D01*
X143385714Y-99357142D01*
X143433333Y-99404761D01*
X143528571Y-99452380D01*
X143719047Y-99452380D01*
X143814285Y-99404761D01*
X143861904Y-99357142D01*
X143909523Y-99261904D01*
X143909523Y-98452380D01*
X144814285Y-98785714D02*
X144814285Y-99452380D01*
X144576190Y-98404761D02*
X144338095Y-99119047D01*
X144957142Y-99119047D01*
%TO.C,U3*%
X128213095Y-104752380D02*
X128213095Y-105561904D01*
X128260714Y-105657142D01*
X128308333Y-105704761D01*
X128403571Y-105752380D01*
X128594047Y-105752380D01*
X128689285Y-105704761D01*
X128736904Y-105657142D01*
X128784523Y-105561904D01*
X128784523Y-104752380D01*
X129165476Y-104752380D02*
X129784523Y-104752380D01*
X129451190Y-105133333D01*
X129594047Y-105133333D01*
X129689285Y-105180952D01*
X129736904Y-105228571D01*
X129784523Y-105323809D01*
X129784523Y-105561904D01*
X129736904Y-105657142D01*
X129689285Y-105704761D01*
X129594047Y-105752380D01*
X129308333Y-105752380D01*
X129213095Y-105704761D01*
X129165476Y-105657142D01*
%TO.C,U2*%
X117638095Y-105852380D02*
X117638095Y-106661904D01*
X117685714Y-106757142D01*
X117733333Y-106804761D01*
X117828571Y-106852380D01*
X118019047Y-106852380D01*
X118114285Y-106804761D01*
X118161904Y-106757142D01*
X118209523Y-106661904D01*
X118209523Y-105852380D01*
X118638095Y-105947619D02*
X118685714Y-105900000D01*
X118780952Y-105852380D01*
X119019047Y-105852380D01*
X119114285Y-105900000D01*
X119161904Y-105947619D01*
X119209523Y-106042857D01*
X119209523Y-106138095D01*
X119161904Y-106280952D01*
X118590476Y-106852380D01*
X119209523Y-106852380D01*
%TO.C,U1*%
X144300094Y-136515879D02*
X144300094Y-137325403D01*
X144347713Y-137420641D01*
X144395332Y-137468260D01*
X144490570Y-137515879D01*
X144681046Y-137515879D01*
X144776284Y-137468260D01*
X144823903Y-137420641D01*
X144871522Y-137325403D01*
X144871522Y-136515879D01*
X145871522Y-137515879D02*
X145300094Y-137515879D01*
X145585808Y-137515879D02*
X145585808Y-136515879D01*
X145490570Y-136658737D01*
X145395332Y-136753975D01*
X145300094Y-136801594D01*
X134103571Y-124074523D02*
X134103571Y-122804523D01*
X134526904Y-123711666D01*
X134950238Y-122804523D01*
X134950238Y-124074523D01*
X135555000Y-124074523D02*
X135555000Y-122804523D01*
X136038809Y-122804523D01*
X136159761Y-122865000D01*
X136220238Y-122925476D01*
X136280714Y-123046428D01*
X136280714Y-123227857D01*
X136220238Y-123348809D01*
X136159761Y-123409285D01*
X136038809Y-123469761D01*
X135555000Y-123469761D01*
X136704047Y-122804523D02*
X137550714Y-124074523D01*
X137550714Y-122804523D02*
X136704047Y-124074523D01*
X137853095Y-122804523D02*
X138276428Y-124074523D01*
X138699761Y-122804523D01*
X139727857Y-122804523D02*
X139123095Y-122804523D01*
X139062619Y-123409285D01*
X139123095Y-123348809D01*
X139244047Y-123288333D01*
X139546428Y-123288333D01*
X139667380Y-123348809D01*
X139727857Y-123409285D01*
X139788333Y-123530238D01*
X139788333Y-123832619D01*
X139727857Y-123953571D01*
X139667380Y-124014047D01*
X139546428Y-124074523D01*
X139244047Y-124074523D01*
X139123095Y-124014047D01*
X139062619Y-123953571D01*
X140997857Y-124074523D02*
X140272142Y-124074523D01*
X140635000Y-124074523D02*
X140635000Y-122804523D01*
X140514047Y-122985952D01*
X140393095Y-123106904D01*
X140272142Y-123167380D01*
X141784047Y-122804523D02*
X141905000Y-122804523D01*
X142025952Y-122865000D01*
X142086428Y-122925476D01*
X142146904Y-123046428D01*
X142207380Y-123288333D01*
X142207380Y-123590714D01*
X142146904Y-123832619D01*
X142086428Y-123953571D01*
X142025952Y-124014047D01*
X141905000Y-124074523D01*
X141784047Y-124074523D01*
X141663095Y-124014047D01*
X141602619Y-123953571D01*
X141542142Y-123832619D01*
X141481666Y-123590714D01*
X141481666Y-123288333D01*
X141542142Y-123046428D01*
X141602619Y-122925476D01*
X141663095Y-122865000D01*
X141784047Y-122804523D01*
X142993571Y-122804523D02*
X143114523Y-122804523D01*
X143235476Y-122865000D01*
X143295952Y-122925476D01*
X143356428Y-123046428D01*
X143416904Y-123288333D01*
X143416904Y-123590714D01*
X143356428Y-123832619D01*
X143295952Y-123953571D01*
X143235476Y-124014047D01*
X143114523Y-124074523D01*
X142993571Y-124074523D01*
X142872619Y-124014047D01*
X142812142Y-123953571D01*
X142751666Y-123832619D01*
X142691190Y-123590714D01*
X142691190Y-123288333D01*
X142751666Y-123046428D01*
X142812142Y-122925476D01*
X142872619Y-122865000D01*
X142993571Y-122804523D01*
X143961190Y-124074523D02*
X143961190Y-122804523D01*
X144263571Y-122804523D01*
X144445000Y-122865000D01*
X144565952Y-122985952D01*
X144626428Y-123106904D01*
X144686904Y-123348809D01*
X144686904Y-123530238D01*
X144626428Y-123772142D01*
X144565952Y-123893095D01*
X144445000Y-124014047D01*
X144263571Y-124074523D01*
X143961190Y-124074523D01*
X145231190Y-124074523D02*
X145231190Y-122804523D01*
X145715000Y-122804523D01*
X145835952Y-122865000D01*
X145896428Y-122925476D01*
X145956904Y-123046428D01*
X145956904Y-123227857D01*
X145896428Y-123348809D01*
X145835952Y-123409285D01*
X145715000Y-123469761D01*
X145231190Y-123469761D01*
%TO.C,SW4*%
X161066666Y-109614761D02*
X161209523Y-109662380D01*
X161447619Y-109662380D01*
X161542857Y-109614761D01*
X161590476Y-109567142D01*
X161638095Y-109471904D01*
X161638095Y-109376666D01*
X161590476Y-109281428D01*
X161542857Y-109233809D01*
X161447619Y-109186190D01*
X161257142Y-109138571D01*
X161161904Y-109090952D01*
X161114285Y-109043333D01*
X161066666Y-108948095D01*
X161066666Y-108852857D01*
X161114285Y-108757619D01*
X161161904Y-108710000D01*
X161257142Y-108662380D01*
X161495238Y-108662380D01*
X161638095Y-108710000D01*
X161971428Y-108662380D02*
X162209523Y-109662380D01*
X162400000Y-108948095D01*
X162590476Y-109662380D01*
X162828571Y-108662380D01*
X163638095Y-108995714D02*
X163638095Y-109662380D01*
X163400000Y-108614761D02*
X163161904Y-109329047D01*
X163780952Y-109329047D01*
%TO.C,SW3*%
X116066666Y-93524761D02*
X116209523Y-93572380D01*
X116447619Y-93572380D01*
X116542857Y-93524761D01*
X116590476Y-93477142D01*
X116638095Y-93381904D01*
X116638095Y-93286666D01*
X116590476Y-93191428D01*
X116542857Y-93143809D01*
X116447619Y-93096190D01*
X116257142Y-93048571D01*
X116161904Y-93000952D01*
X116114285Y-92953333D01*
X116066666Y-92858095D01*
X116066666Y-92762857D01*
X116114285Y-92667619D01*
X116161904Y-92620000D01*
X116257142Y-92572380D01*
X116495238Y-92572380D01*
X116638095Y-92620000D01*
X116971428Y-92572380D02*
X117209523Y-93572380D01*
X117400000Y-92858095D01*
X117590476Y-93572380D01*
X117828571Y-92572380D01*
X118114285Y-92572380D02*
X118733333Y-92572380D01*
X118400000Y-92953333D01*
X118542857Y-92953333D01*
X118638095Y-93000952D01*
X118685714Y-93048571D01*
X118733333Y-93143809D01*
X118733333Y-93381904D01*
X118685714Y-93477142D01*
X118638095Y-93524761D01*
X118542857Y-93572380D01*
X118257142Y-93572380D01*
X118161904Y-93524761D01*
X118114285Y-93477142D01*
%TO.C,SW2*%
X133966666Y-83204761D02*
X134109523Y-83252380D01*
X134347619Y-83252380D01*
X134442857Y-83204761D01*
X134490476Y-83157142D01*
X134538095Y-83061904D01*
X134538095Y-82966666D01*
X134490476Y-82871428D01*
X134442857Y-82823809D01*
X134347619Y-82776190D01*
X134157142Y-82728571D01*
X134061904Y-82680952D01*
X134014285Y-82633333D01*
X133966666Y-82538095D01*
X133966666Y-82442857D01*
X134014285Y-82347619D01*
X134061904Y-82300000D01*
X134157142Y-82252380D01*
X134395238Y-82252380D01*
X134538095Y-82300000D01*
X134871428Y-82252380D02*
X135109523Y-83252380D01*
X135300000Y-82538095D01*
X135490476Y-83252380D01*
X135728571Y-82252380D01*
X136061904Y-82347619D02*
X136109523Y-82300000D01*
X136204761Y-82252380D01*
X136442857Y-82252380D01*
X136538095Y-82300000D01*
X136585714Y-82347619D01*
X136633333Y-82442857D01*
X136633333Y-82538095D01*
X136585714Y-82680952D01*
X136014285Y-83252380D01*
X136633333Y-83252380D01*
%TO.C,SW1*%
X125066666Y-79554761D02*
X125209523Y-79602380D01*
X125447619Y-79602380D01*
X125542857Y-79554761D01*
X125590476Y-79507142D01*
X125638095Y-79411904D01*
X125638095Y-79316666D01*
X125590476Y-79221428D01*
X125542857Y-79173809D01*
X125447619Y-79126190D01*
X125257142Y-79078571D01*
X125161904Y-79030952D01*
X125114285Y-78983333D01*
X125066666Y-78888095D01*
X125066666Y-78792857D01*
X125114285Y-78697619D01*
X125161904Y-78650000D01*
X125257142Y-78602380D01*
X125495238Y-78602380D01*
X125638095Y-78650000D01*
X125971428Y-78602380D02*
X126209523Y-79602380D01*
X126400000Y-78888095D01*
X126590476Y-79602380D01*
X126828571Y-78602380D01*
X127733333Y-79602380D02*
X127161904Y-79602380D01*
X127447619Y-79602380D02*
X127447619Y-78602380D01*
X127352380Y-78745238D01*
X127257142Y-78840476D01*
X127161904Y-78888095D01*
%TO.C,RV1*%
X133104761Y-98552380D02*
X132771428Y-98076190D01*
X132533333Y-98552380D02*
X132533333Y-97552380D01*
X132914285Y-97552380D01*
X133009523Y-97600000D01*
X133057142Y-97647619D01*
X133104761Y-97742857D01*
X133104761Y-97885714D01*
X133057142Y-97980952D01*
X133009523Y-98028571D01*
X132914285Y-98076190D01*
X132533333Y-98076190D01*
X133390476Y-97552380D02*
X133723809Y-98552380D01*
X134057142Y-97552380D01*
X134914285Y-98552380D02*
X134342857Y-98552380D01*
X134628571Y-98552380D02*
X134628571Y-97552380D01*
X134533333Y-97695238D01*
X134438095Y-97790476D01*
X134342857Y-97838095D01*
%TO.C,R5*%
X155733333Y-102552380D02*
X155400000Y-102076190D01*
X155161904Y-102552380D02*
X155161904Y-101552380D01*
X155542857Y-101552380D01*
X155638095Y-101600000D01*
X155685714Y-101647619D01*
X155733333Y-101742857D01*
X155733333Y-101885714D01*
X155685714Y-101980952D01*
X155638095Y-102028571D01*
X155542857Y-102076190D01*
X155161904Y-102076190D01*
X156638095Y-101552380D02*
X156161904Y-101552380D01*
X156114285Y-102028571D01*
X156161904Y-101980952D01*
X156257142Y-101933333D01*
X156495238Y-101933333D01*
X156590476Y-101980952D01*
X156638095Y-102028571D01*
X156685714Y-102123809D01*
X156685714Y-102361904D01*
X156638095Y-102457142D01*
X156590476Y-102504761D01*
X156495238Y-102552380D01*
X156257142Y-102552380D01*
X156161904Y-102504761D01*
X156114285Y-102457142D01*
%TO.C,R4*%
X146833333Y-80922380D02*
X146500000Y-80446190D01*
X146261904Y-80922380D02*
X146261904Y-79922380D01*
X146642857Y-79922380D01*
X146738095Y-79970000D01*
X146785714Y-80017619D01*
X146833333Y-80112857D01*
X146833333Y-80255714D01*
X146785714Y-80350952D01*
X146738095Y-80398571D01*
X146642857Y-80446190D01*
X146261904Y-80446190D01*
X147690476Y-80255714D02*
X147690476Y-80922380D01*
X147452380Y-79874761D02*
X147214285Y-80589047D01*
X147833333Y-80589047D01*
%TO.C,R3*%
X148533333Y-102452380D02*
X148200000Y-101976190D01*
X147961904Y-102452380D02*
X147961904Y-101452380D01*
X148342857Y-101452380D01*
X148438095Y-101500000D01*
X148485714Y-101547619D01*
X148533333Y-101642857D01*
X148533333Y-101785714D01*
X148485714Y-101880952D01*
X148438095Y-101928571D01*
X148342857Y-101976190D01*
X147961904Y-101976190D01*
X148866666Y-101452380D02*
X149485714Y-101452380D01*
X149152380Y-101833333D01*
X149295238Y-101833333D01*
X149390476Y-101880952D01*
X149438095Y-101928571D01*
X149485714Y-102023809D01*
X149485714Y-102261904D01*
X149438095Y-102357142D01*
X149390476Y-102404761D01*
X149295238Y-102452380D01*
X149009523Y-102452380D01*
X148914285Y-102404761D01*
X148866666Y-102357142D01*
%TO.C,R2*%
X154833333Y-104052380D02*
X154500000Y-103576190D01*
X154261904Y-104052380D02*
X154261904Y-103052380D01*
X154642857Y-103052380D01*
X154738095Y-103100000D01*
X154785714Y-103147619D01*
X154833333Y-103242857D01*
X154833333Y-103385714D01*
X154785714Y-103480952D01*
X154738095Y-103528571D01*
X154642857Y-103576190D01*
X154261904Y-103576190D01*
X155214285Y-103147619D02*
X155261904Y-103100000D01*
X155357142Y-103052380D01*
X155595238Y-103052380D01*
X155690476Y-103100000D01*
X155738095Y-103147619D01*
X155785714Y-103242857D01*
X155785714Y-103338095D01*
X155738095Y-103480952D01*
X155166666Y-104052380D01*
X155785714Y-104052380D01*
%TO.C,R1*%
X141633333Y-107252380D02*
X141300000Y-106776190D01*
X141061904Y-107252380D02*
X141061904Y-106252380D01*
X141442857Y-106252380D01*
X141538095Y-106300000D01*
X141585714Y-106347619D01*
X141633333Y-106442857D01*
X141633333Y-106585714D01*
X141585714Y-106680952D01*
X141538095Y-106728571D01*
X141442857Y-106776190D01*
X141061904Y-106776190D01*
X142585714Y-107252380D02*
X142014285Y-107252380D01*
X142300000Y-107252380D02*
X142300000Y-106252380D01*
X142204761Y-106395238D01*
X142109523Y-106490476D01*
X142014285Y-106538095D01*
%TO.C,Q1*%
X149904761Y-112847619D02*
X149809523Y-112800000D01*
X149714285Y-112704761D01*
X149571428Y-112561904D01*
X149476190Y-112514285D01*
X149380952Y-112514285D01*
X149428571Y-112752380D02*
X149333333Y-112704761D01*
X149238095Y-112609523D01*
X149190476Y-112419047D01*
X149190476Y-112085714D01*
X149238095Y-111895238D01*
X149333333Y-111800000D01*
X149428571Y-111752380D01*
X149619047Y-111752380D01*
X149714285Y-111800000D01*
X149809523Y-111895238D01*
X149857142Y-112085714D01*
X149857142Y-112419047D01*
X149809523Y-112609523D01*
X149714285Y-112704761D01*
X149619047Y-112752380D01*
X149428571Y-112752380D01*
X150809523Y-112752380D02*
X150238095Y-112752380D01*
X150523809Y-112752380D02*
X150523809Y-111752380D01*
X150428571Y-111895238D01*
X150333333Y-111990476D01*
X150238095Y-112038095D01*
%TO.C,J2*%
X161437515Y-119092414D02*
X161794658Y-119711004D01*
X161824847Y-119858531D01*
X161789987Y-119988629D01*
X161690079Y-120101297D01*
X161607600Y-120148916D01*
X161856288Y-118960607D02*
X161873717Y-118895558D01*
X161932387Y-118806700D01*
X162138583Y-118687652D01*
X162244871Y-118681273D01*
X162309920Y-118698702D01*
X162398778Y-118757371D01*
X162446397Y-118839850D01*
X162476587Y-118987377D01*
X162267429Y-119767963D01*
X162803540Y-119458440D01*
%TO.C,J1*%
X125885134Y-123559081D02*
X125527991Y-124177670D01*
X125415323Y-124277579D01*
X125285225Y-124312438D01*
X125137698Y-124282249D01*
X125055219Y-124234630D01*
X126251159Y-124925106D02*
X125756288Y-124639392D01*
X126003723Y-124782249D02*
X126503723Y-123916224D01*
X126349816Y-123992323D01*
X126219719Y-124027182D01*
X126113430Y-124020802D01*
%TO.C,D24*%
X163532542Y-117264882D02*
X163137752Y-117678006D01*
X163335147Y-117471444D02*
X162612180Y-116780561D01*
X162649663Y-116948113D01*
X162652718Y-117082765D01*
X162621347Y-117184518D01*
%TO.C,D23*%
X140858004Y-54808787D02*
X140289206Y-54863556D01*
X140573605Y-54836172D02*
X140477760Y-53840776D01*
X140396652Y-53992103D01*
X140310981Y-54096031D01*
X140220745Y-54152559D01*
%TO.C,D22*%
X168525350Y-111990677D02*
X168221694Y-112474747D01*
X168373522Y-112232712D02*
X167526400Y-111701314D01*
X167596808Y-111857906D01*
X167626877Y-111989194D01*
X167616607Y-112095177D01*
%TO.C,D21*%
X133780107Y-55350372D02*
X133233940Y-55518395D01*
X133507024Y-55434383D02*
X133212983Y-54478590D01*
X133163961Y-54643136D01*
X133100937Y-54762167D01*
X133023911Y-54835685D01*
%TO.C,D20*%
X172358755Y-105821664D02*
X172158637Y-106356905D01*
X172258696Y-106089285D02*
X171322024Y-105739077D01*
X171422481Y-105878314D01*
X171478335Y-106000874D01*
X171489585Y-106106757D01*
%TO.C,D19*%
X126954371Y-57300103D02*
X126453144Y-57574516D01*
X126703757Y-57437310D02*
X126223534Y-56560164D01*
X126208600Y-56731206D01*
X126170797Y-56860479D01*
X126110127Y-56947983D01*
%TO.C,D18*%
X174577353Y-99008210D02*
X174488947Y-99572759D01*
X174533150Y-99290485D02*
X173545190Y-99135774D01*
X173671593Y-99251967D01*
X173750950Y-99360793D01*
X173783261Y-99462251D01*
%TO.C,D17*%
X120658437Y-60580311D02*
X120222627Y-60949905D01*
X120440532Y-60765108D02*
X119793742Y-60002440D01*
X119813506Y-60172991D01*
X119802470Y-60307226D01*
X119760634Y-60405142D01*
%TO.C,D16*%
X175099848Y-92441470D02*
X175072930Y-91870675D01*
X175086389Y-92156073D02*
X176085279Y-92108966D01*
X175938094Y-92020563D01*
X175838475Y-91929917D01*
X175786423Y-91837028D01*
%TO.C,D15*%
X115148085Y-65056773D02*
X114795493Y-65506450D01*
X114971789Y-65281612D02*
X114184854Y-64664576D01*
X114238508Y-64827670D01*
X114254689Y-64961382D01*
X114233397Y-65065710D01*
%TO.C,D14*%
X174878827Y-85350213D02*
X174737685Y-84796490D01*
X174808256Y-85073351D02*
X175777272Y-84826352D01*
X175615317Y-84769350D01*
X175499507Y-84700587D01*
X175429839Y-84620062D01*
%TO.C,D13*%
X110647952Y-70546094D02*
X110392982Y-71057485D01*
X110520467Y-70801790D02*
X109625532Y-70355592D01*
X109710885Y-70504566D01*
X109753622Y-70632293D01*
X109753743Y-70738773D01*
%TO.C,D12*%
X173238292Y-78446665D02*
X172988691Y-77932632D01*
X173113492Y-78189648D02*
X174013049Y-77752847D01*
X173842941Y-77729575D01*
X173715669Y-77685503D01*
X173631232Y-77620631D01*
%TO.C,D11*%
X107340939Y-76831166D02*
X107194006Y-77383381D01*
X107267473Y-77107273D02*
X106301097Y-76850141D01*
X106414661Y-76978910D01*
X106482208Y-77095434D01*
X106503737Y-77199715D01*
%TO.C,D10*%
X170247028Y-72012499D02*
X169899165Y-71559154D01*
X170073097Y-71785827D02*
X170866450Y-71177065D01*
X170695136Y-71188474D01*
X170561602Y-71170893D01*
X170465846Y-71124325D01*
%TO.C,D9*%
X105360315Y-83650784D02*
X105327421Y-84221265D01*
X105343868Y-83936024D02*
X104345527Y-83878460D01*
X104482664Y-83981764D01*
X104572262Y-84082326D01*
X104614320Y-84180148D01*
%TO.C,D8*%
X166024972Y-66308542D02*
X165593056Y-65934404D01*
X165809014Y-66121473D02*
X166463755Y-65365620D01*
X166298235Y-65411243D01*
X166163892Y-65420872D01*
X166060728Y-65394509D01*
%TO.C,D7*%
X103975765Y-91424523D02*
X103893275Y-90859080D01*
X103934520Y-91141801D02*
X104924046Y-90997445D01*
X104768937Y-90923827D01*
X104660948Y-90843335D01*
X104600079Y-90755968D01*
%TO.C,D6*%
X160744851Y-61590579D02*
X160246526Y-61310931D01*
X160495688Y-61450755D02*
X160985071Y-60578686D01*
X160832105Y-60656659D01*
X160702443Y-60693106D01*
X160596084Y-60688025D01*
%TO.C,D5*%
X104993768Y-98623831D02*
X104799266Y-98086524D01*
X104896517Y-98355178D02*
X105836805Y-98014798D01*
X105670061Y-97973873D01*
X105548093Y-97916738D01*
X105470900Y-97843396D01*
%TO.C,D4*%
X154619742Y-57996828D02*
X154075364Y-57823095D01*
X154347553Y-57909961D02*
X154651586Y-56957300D01*
X154517423Y-57064439D01*
X154397738Y-57126213D01*
X154292530Y-57142622D01*
%TO.C,D3*%
X107432422Y-105472525D02*
X107133851Y-104985302D01*
X107283136Y-105228914D02*
X108135776Y-104706415D01*
X107964209Y-104699854D01*
X107833243Y-104668412D01*
X107742880Y-104612089D01*
%TO.C,D2*%
X147946504Y-55703117D02*
X147378311Y-55642395D01*
X147662408Y-55672756D02*
X147768672Y-54678418D01*
X147658792Y-54810346D01*
X147553973Y-54894924D01*
X147454214Y-54932153D01*
%TO.C,D1*%
X111197582Y-111692306D02*
X110807140Y-111275071D01*
X111002361Y-111483689D02*
X111732523Y-110800415D01*
X111563141Y-110828486D01*
X111428528Y-110824020D01*
X111328684Y-110787018D01*
%TO.C,C9*%
X128833333Y-94287142D02*
X128785714Y-94334761D01*
X128642857Y-94382380D01*
X128547619Y-94382380D01*
X128404761Y-94334761D01*
X128309523Y-94239523D01*
X128261904Y-94144285D01*
X128214285Y-93953809D01*
X128214285Y-93810952D01*
X128261904Y-93620476D01*
X128309523Y-93525238D01*
X128404761Y-93430000D01*
X128547619Y-93382380D01*
X128642857Y-93382380D01*
X128785714Y-93430000D01*
X128833333Y-93477619D01*
X129309523Y-94382380D02*
X129500000Y-94382380D01*
X129595238Y-94334761D01*
X129642857Y-94287142D01*
X129738095Y-94144285D01*
X129785714Y-93953809D01*
X129785714Y-93572857D01*
X129738095Y-93477619D01*
X129690476Y-93430000D01*
X129595238Y-93382380D01*
X129404761Y-93382380D01*
X129309523Y-93430000D01*
X129261904Y-93477619D01*
X129214285Y-93572857D01*
X129214285Y-93810952D01*
X129261904Y-93906190D01*
X129309523Y-93953809D01*
X129404761Y-94001428D01*
X129595238Y-94001428D01*
X129690476Y-93953809D01*
X129738095Y-93906190D01*
X129785714Y-93810952D01*
%TO.C,C8*%
X128833333Y-89287142D02*
X128785714Y-89334761D01*
X128642857Y-89382380D01*
X128547619Y-89382380D01*
X128404761Y-89334761D01*
X128309523Y-89239523D01*
X128261904Y-89144285D01*
X128214285Y-88953809D01*
X128214285Y-88810952D01*
X128261904Y-88620476D01*
X128309523Y-88525238D01*
X128404761Y-88430000D01*
X128547619Y-88382380D01*
X128642857Y-88382380D01*
X128785714Y-88430000D01*
X128833333Y-88477619D01*
X129404761Y-88810952D02*
X129309523Y-88763333D01*
X129261904Y-88715714D01*
X129214285Y-88620476D01*
X129214285Y-88572857D01*
X129261904Y-88477619D01*
X129309523Y-88430000D01*
X129404761Y-88382380D01*
X129595238Y-88382380D01*
X129690476Y-88430000D01*
X129738095Y-88477619D01*
X129785714Y-88572857D01*
X129785714Y-88620476D01*
X129738095Y-88715714D01*
X129690476Y-88763333D01*
X129595238Y-88810952D01*
X129404761Y-88810952D01*
X129309523Y-88858571D01*
X129261904Y-88906190D01*
X129214285Y-89001428D01*
X129214285Y-89191904D01*
X129261904Y-89287142D01*
X129309523Y-89334761D01*
X129404761Y-89382380D01*
X129595238Y-89382380D01*
X129690476Y-89334761D01*
X129738095Y-89287142D01*
X129785714Y-89191904D01*
X129785714Y-89001428D01*
X129738095Y-88906190D01*
X129690476Y-88858571D01*
X129595238Y-88810952D01*
%TO.C,C6*%
X138533333Y-107007142D02*
X138485714Y-107054761D01*
X138342857Y-107102380D01*
X138247619Y-107102380D01*
X138104761Y-107054761D01*
X138009523Y-106959523D01*
X137961904Y-106864285D01*
X137914285Y-106673809D01*
X137914285Y-106530952D01*
X137961904Y-106340476D01*
X138009523Y-106245238D01*
X138104761Y-106150000D01*
X138247619Y-106102380D01*
X138342857Y-106102380D01*
X138485714Y-106150000D01*
X138533333Y-106197619D01*
X139390476Y-106102380D02*
X139200000Y-106102380D01*
X139104761Y-106150000D01*
X139057142Y-106197619D01*
X138961904Y-106340476D01*
X138914285Y-106530952D01*
X138914285Y-106911904D01*
X138961904Y-107007142D01*
X139009523Y-107054761D01*
X139104761Y-107102380D01*
X139295238Y-107102380D01*
X139390476Y-107054761D01*
X139438095Y-107007142D01*
X139485714Y-106911904D01*
X139485714Y-106673809D01*
X139438095Y-106578571D01*
X139390476Y-106530952D01*
X139295238Y-106483333D01*
X139104761Y-106483333D01*
X139009523Y-106530952D01*
X138961904Y-106578571D01*
X138914285Y-106673809D01*
%TO.C,C3*%
X151427142Y-125166666D02*
X151474761Y-125214285D01*
X151522380Y-125357142D01*
X151522380Y-125452380D01*
X151474761Y-125595238D01*
X151379523Y-125690476D01*
X151284285Y-125738095D01*
X151093809Y-125785714D01*
X150950952Y-125785714D01*
X150760476Y-125738095D01*
X150665238Y-125690476D01*
X150570000Y-125595238D01*
X150522380Y-125452380D01*
X150522380Y-125357142D01*
X150570000Y-125214285D01*
X150617619Y-125166666D01*
X150522380Y-124833333D02*
X150522380Y-124214285D01*
X150903333Y-124547619D01*
X150903333Y-124404761D01*
X150950952Y-124309523D01*
X150998571Y-124261904D01*
X151093809Y-124214285D01*
X151331904Y-124214285D01*
X151427142Y-124261904D01*
X151474761Y-124309523D01*
X151522380Y-124404761D01*
X151522380Y-124690476D01*
X151474761Y-124785714D01*
X151427142Y-124833333D01*
%TO.C,C1*%
X149927142Y-125166666D02*
X149974761Y-125214285D01*
X150022380Y-125357142D01*
X150022380Y-125452380D01*
X149974761Y-125595238D01*
X149879523Y-125690476D01*
X149784285Y-125738095D01*
X149593809Y-125785714D01*
X149450952Y-125785714D01*
X149260476Y-125738095D01*
X149165238Y-125690476D01*
X149070000Y-125595238D01*
X149022380Y-125452380D01*
X149022380Y-125357142D01*
X149070000Y-125214285D01*
X149117619Y-125166666D01*
X150022380Y-124214285D02*
X150022380Y-124785714D01*
X150022380Y-124500000D02*
X149022380Y-124500000D01*
X149165238Y-124595238D01*
X149260476Y-124690476D01*
X149308095Y-124785714D01*
%TD*%
M02*
